<?xml version="1.0" encoding="utf-8"?>
<!-- Generator: Adobe Illustrator 19.0.0, SVG Export Plug-In . SVG Version: 6.00 Build 0)  -->
<svg version="1.1" id="Layer_1" xmlns="http://www.w3.org/2000/svg" xmlns:xlink="http://www.w3.org/1999/xlink" x="0px" y="0px"
	 viewBox="-49 141 512 512" style="enable-background:new -49 141 512 512;" xml:space="preserve">
<style type="text/css">
	.st0{fill:#CF0058;}
</style>
<path class="st0" d="M244.8,596.9c-20.2,20.2-53.2,19.9-73.7-0.6l0,0c-20.5-20.5-20.8-53.5-0.6-73.7l190-190
	c20.2-20.2,53.2-19.9,73.7,0.6l0,0c20.5,20.5,20.8,53.5,0.6,73.7L244.8,596.9z"/>
<path class="st0" d="M171.2,596.9c20.2,20.2,53.2,19.9,73.7-0.6l0,0c20.5-20.5,20.8-53.5,0.6-73.7l-190-190
	c-20.2-20.2-53.2-19.9-73.7,0.6l0,0c-20.5,20.5-20.8,53.5-0.6,73.7L171.2,596.9z"/>
</svg>
