<?xml version="1.0" encoding="utf-8"?>
<!-- Generator: Adobe Illustrator 19.2.1, SVG Export Plug-In . SVG Version: 6.00 Build 0)  -->
<svg version="1.1" id="Layer_1" xmlns="http://www.w3.org/2000/svg" xmlns:xlink="http://www.w3.org/1999/xlink" x="0px" y="0px"
	 viewBox="0 0 1300 900" style="enable-background:new 0 0 1300 900;" xml:space="preserve">
<style type="text/css">
	.st0{fill:url(#XMLID_2_);}
	.st1{clip-path:url(#XMLID_4_);}
	.st2{fill:#333333;}
	.st3{fill:#09090A;}
	.st4{fill:#1F1F1F;}
	.st5{fill:#000100;}
	.st6{fill:#6B8C2C;}
	.st7{fill:#8BBD23;}
	.st8{fill:#2FAAE1;}
	.st9{fill:#FDC603;}
	.st10{fill:#D5A204;}
	.st11{fill:#5799C4;}
	.st12{fill:#8FA624;}
</style>
<g>
	<g>
		<linearGradient id="XMLID_2_" gradientUnits="userSpaceOnUse" x1="1184.0397" y1="-81.6652" x2="185.8796" y2="913.4785">
			<stop  offset="0" style="stop-color:#AAAAAA"/>
			<stop  offset="0.19" style="stop-color:#E7E7E7"/>
			<stop  offset="0.4923" style="stop-color:#FFFFFF"/>
			<stop  offset="0.6992" style="stop-color:#E7E7E7"/>
			<stop  offset="1" style="stop-color:#BDBDBD"/>
		</linearGradient>
		<rect id="XMLID_32_" x="0" y="0.7" class="st0" width="1300" height="900"/>
		<g>
			<g>
				<defs>
					<rect id="XMLID_114_" x="0" y="0.7" width="1300" height="900"/>
				</defs>
				<clipPath id="XMLID_3_">
					<use xlink:href="#XMLID_114_"  style="overflow:visible;"/>
				</clipPath>
			</g>
			<g>
				<defs>
					<rect id="XMLID_34_" x="0" y="0.7" width="1300" height="900"/>
				</defs>
				<clipPath id="XMLID_4_">
					<use xlink:href="#XMLID_34_"  style="overflow:visible;"/>
				</clipPath>
				<g class="st1">
					<g id="XMLID_35_">
						<polygon class="st2" points="-66.4,-3.2 44.2,-3.2 -19.8,-78.4 -66.4,-78.4 						"/>
						<polygon class="st2" points="-19.8,-78.4 44.2,-3.2 108.1,-78.4 						"/>
						<polygon class="st2" points="108.1,-78.4 44.2,-3.2 265.7,-3.2 201.7,-78.4 						"/>
						<polygon class="st3" points="201.7,-78.4 265.7,-3.2 329.6,-78.4 						"/>
						<polygon class="st3" points="329.6,-78.4 265.7,-3.2 487.1,-3.2 423.2,-78.4 						"/>
						<polygon class="st4" points="423.2,-78.4 487.1,-3.2 551.1,-78.4 						"/>
						<polygon class="st2" points="551.1,-78.4 487.1,-3.2 708.6,-3.2 644.7,-78.4 						"/>
						<polygon class="st5" points="644.7,-78.4 708.6,-3.2 772.6,-78.4 						"/>
						<polygon class="st4" points="772.6,-78.4 708.6,-3.2 930.1,-3.2 866.2,-78.4 						"/>
						<polygon class="st4" points="866.2,-78.4 930.1,-3.2 994.1,-78.4 						"/>
						<polygon class="st4" points="994.1,-78.4 930.1,-3.2 1151.6,-3.2 1087.6,-78.4 						"/>
						<polygon class="st3" points="1087.6,-78.4 1151.6,-3.2 1215.6,-78.4 						"/>
						<polygon class="st3" points="1215.6,-78.4 1151.6,-3.2 1365.6,-3.2 1365.6,-12 1309.1,-78.4 						"/>
						<polygon class="st3" points="1309.1,-78.4 1365.6,-12 1365.6,-78.4 						"/>
						<polygon class="st5" points="-66.4,126.8 44.2,-3.2 -66.4,-3.2 						"/>
						<polygon class="st5" points="-66.4,127 154.9,127 44.2,-3.2 -66.4,126.8 						"/>
						<polygon id="XMLID_113_" class="st3" points="265.7,-3.2 154.9,127 44.2,-3.2 						"/>
						<polygon id="XMLID_112_" class="st3" points="154.9,127 265.7,-3.2 376.4,127 						"/>
						<polygon id="XMLID_111_" class="st5" points="487.1,-3.2 376.4,127 265.7,-3.2 						"/>
						<polygon id="XMLID_110_" class="st4" points="376.4,127 487.1,-3.2 597.9,127 						"/>
						<polygon id="XMLID_109_" class="st2" points="708.6,-3.2 597.9,127 487.1,-3.2 						"/>
						<polygon id="XMLID_108_" class="st3" points="597.9,127 708.6,-3.2 819.4,127 						"/>
						<polygon id="XMLID_107_" class="st5" points="930.1,-3.2 819.4,127 708.6,-3.2 						"/>
						<polygon id="XMLID_106_" class="st4" points="819.4,127 930.1,-3.2 1040.9,127 						"/>
						<polygon id="XMLID_105_" class="st3" points="1151.6,-3.2 1040.9,127 930.1,-3.2 						"/>
						<polygon id="XMLID_104_" class="st3" points="1040.9,127 1151.6,-3.2 1262.3,127 						"/>
						<polygon class="st4" points="1365.6,-3.2 1151.6,-3.2 1262.3,127 1365.6,5.6 						"/>
						<polygon class="st2" points="1365.6,127 1365.6,5.6 1262.3,127 						"/>
						<polygon class="st3" points="-66.4,257.3 44.2,257.3 -66.4,127.2 						"/>
						<polygon class="st4" points="-66.4,127.2 44.2,257.3 154.9,127 -66.4,127 						"/>
						<polygon id="XMLID_103_" class="st4" points="44.2,257.3 154.9,127 265.7,257.3 						"/>
						<polygon id="XMLID_102_" class="st4" points="376.4,127 265.7,257.3 154.9,127 						"/>
						<polygon id="XMLID_101_" class="st4" points="265.7,257.3 376.4,127 487.1,257.3 						"/>
						<polygon id="XMLID_100_" class="st4" points="597.9,127 487.1,257.3 376.4,127 						"/>
						<polygon id="XMLID_99_" class="st4" points="487.1,257.3 597.9,127 708.6,257.3 						"/>
						<polygon id="XMLID_98_" class="st3" points="819.4,127 708.6,257.3 597.9,127 						"/>
						<polygon id="XMLID_97_" class="st5" points="708.6,257.3 819.4,127 930.1,257.3 						"/>
						<polygon id="XMLID_96_" class="st4" points="1040.9,127 930.1,257.3 819.4,127 						"/>
						<polygon id="XMLID_95_" class="st5" points="930.1,257.3 1040.9,127 1151.6,257.3 						"/>
						<polygon id="XMLID_94_" class="st5" points="1262.3,127 1151.6,257.3 1040.9,127 						"/>
						<polygon class="st4" points="1365.6,257.3 1365.6,248.4 1262.3,127 1151.6,257.3 						"/>
						<polygon class="st4" points="1365.6,248.4 1365.6,127 1262.3,127 						"/>
						<polygon class="st2" points="-66.4,387.3 44.2,257.3 -66.4,257.3 						"/>
						<polygon class="st2" points="-66.4,387.5 154.9,387.5 44.2,257.3 -66.4,387.3 						"/>
						<polygon id="XMLID_93_" class="st4" points="265.7,257.3 154.9,387.5 44.2,257.3 						"/>
						<polygon id="XMLID_92_" class="st3" points="154.9,387.5 265.7,257.3 376.4,387.5 						"/>
						<polygon id="XMLID_91_" class="st2" points="487.1,257.3 376.4,387.5 265.7,257.3 						"/>
						<polygon id="XMLID_90_" class="st4" points="376.4,387.5 487.1,257.3 597.9,387.5 						"/>
						<polygon id="XMLID_89_" class="st4" points="708.6,257.3 597.9,387.5 487.1,257.3 						"/>
						<polygon id="XMLID_88_" class="st3" points="597.9,387.5 708.6,257.3 819.4,387.5 						"/>
						<polygon id="XMLID_87_" class="st3" points="930.1,257.3 819.4,387.5 708.6,257.3 						"/>
						<polygon id="XMLID_86_" class="st4" points="819.4,387.5 930.1,257.3 1040.9,387.5 						"/>
						<polygon id="XMLID_85_" class="st5" points="1151.6,257.3 1040.9,387.5 930.1,257.3 						"/>
						<polygon id="XMLID_84_" class="st3" points="1040.9,387.5 1151.6,257.3 1262.3,387.5 						"/>
						<polygon class="st4" points="1365.6,257.3 1151.6,257.3 1262.3,387.5 1365.6,266.1 						"/>
						<polygon class="st3" points="1365.6,387.5 1365.6,266.1 1262.3,387.5 						"/>
						<polygon class="st3" points="-66.4,517.7 44.2,517.7 -66.4,387.7 						"/>
						<polygon class="st4" points="-66.4,387.7 44.2,517.7 154.9,387.5 -66.4,387.5 						"/>
						<polygon id="XMLID_83_" class="st4" points="44.2,517.7 154.9,387.5 265.7,517.7 						"/>
						<polygon id="XMLID_82_" class="st4" points="376.4,387.5 265.7,517.7 154.9,387.5 						"/>
						<polygon id="XMLID_81_" class="st2" points="265.7,517.7 376.4,387.5 487.1,517.7 						"/>
						<polygon id="XMLID_80_" class="st2" points="597.9,387.5 487.1,517.7 376.4,387.5 						"/>
						<polygon id="XMLID_79_" class="st4" points="487.1,517.7 597.9,387.5 708.6,517.7 						"/>
						<polygon id="XMLID_78_" class="st2" points="819.4,387.5 708.6,517.7 597.9,387.5 						"/>
						<polygon id="XMLID_77_" class="st2" points="708.6,517.7 819.4,387.5 930.1,517.7 						"/>
						<polygon id="XMLID_76_" class="st5" points="1040.9,387.5 930.1,517.7 819.4,387.5 						"/>
						<polygon id="XMLID_75_" class="st3" points="930.1,517.7 1040.9,387.5 1151.6,517.7 						"/>
						<polygon id="XMLID_74_" class="st2" points="1262.3,387.5 1151.6,517.7 1040.9,387.5 						"/>
						<polygon class="st5" points="1365.6,517.7 1365.6,508.9 1262.3,387.5 1151.6,517.7 						"/>
						<polygon class="st5" points="1365.6,508.9 1365.6,387.5 1262.3,387.5 						"/>
						<polygon class="st3" points="-66.4,647.7 44.2,517.7 -66.4,517.7 						"/>
						<polygon class="st3" points="-66.4,648 154.9,648 44.2,517.7 -66.4,647.7 						"/>
						<polygon id="XMLID_73_" class="st4" points="265.7,517.7 154.9,648 44.2,517.7 						"/>
						<polygon id="XMLID_72_" class="st2" points="154.9,648 265.7,517.7 376.4,648 						"/>
						<polygon id="XMLID_71_" class="st5" points="487.1,517.7 376.4,648 265.7,517.7 						"/>
						<polygon id="XMLID_70_" class="st3" points="376.4,648 487.1,517.7 597.9,648 						"/>
						<polygon id="XMLID_69_" class="st2" points="708.6,517.7 597.9,648 487.1,517.7 						"/>
						<polygon id="XMLID_67_" class="st4" points="597.9,648 708.6,517.7 819.4,648 						"/>
						<polygon id="XMLID_66_" class="st2" points="930.1,517.7 819.4,648 708.6,517.7 						"/>
						<polygon id="XMLID_65_" class="st4" points="819.4,648 930.1,517.7 1040.9,648 						"/>
						<polygon id="XMLID_64_" class="st4" points="1151.6,517.7 1040.9,648 930.1,517.7 						"/>
						<polygon id="XMLID_63_" class="st4" points="1040.9,648 1151.6,517.7 1262.3,648 						"/>
						<polygon class="st4" points="1365.6,517.7 1151.6,517.7 1262.3,648 1365.6,526.6 						"/>
						<polygon class="st5" points="1365.6,648 1365.6,526.6 1262.3,648 						"/>
						<polygon class="st3" points="-66.4,778.2 44.2,778.2 -66.4,648.2 						"/>
						<polygon class="st4" points="-66.4,648.2 44.2,778.2 154.9,648 -66.4,648 						"/>
						<polygon id="XMLID_62_" class="st4" points="44.2,778.2 154.9,648 265.7,778.2 						"/>
						<polygon id="XMLID_61_" class="st4" points="376.4,648 265.7,778.2 154.9,648 						"/>
						<polygon id="XMLID_60_" class="st4" points="265.7,778.2 376.4,648 487.1,778.2 						"/>
						<polygon id="XMLID_57_" class="st2" points="597.9,648 487.1,778.2 376.4,648 						"/>
						<polygon id="XMLID_56_" class="st5" points="487.1,778.2 597.9,648 708.6,778.2 						"/>
						<polygon id="XMLID_55_" class="st3" points="819.4,648 708.6,778.2 597.9,648 						"/>
						<polygon id="XMLID_54_" class="st4" points="708.6,778.2 819.4,648 930.1,778.2 						"/>
						<polygon id="XMLID_51_" class="st4" points="1040.9,648 930.1,778.2 819.4,648 						"/>
						<polygon id="XMLID_49_" class="st3" points="930.1,778.2 1040.9,648 1151.6,778.2 						"/>
						<polygon id="XMLID_48_" class="st3" points="1262.3,648 1151.6,778.2 1040.9,648 						"/>
						<polygon class="st5" points="1365.6,778.2 1365.6,769.4 1262.3,648 1151.6,778.2 						"/>
						<polygon class="st3" points="1365.6,769.4 1365.6,648 1262.3,648 						"/>
						<polygon class="st5" points="-66.4,908.2 44.2,778.2 -66.4,778.2 						"/>
						<polygon class="st4" points="-66.4,908.4 154.9,908.4 44.2,778.2 -66.4,908.2 						"/>
						<polygon id="XMLID_47_" class="st4" points="265.7,778.2 154.9,908.4 44.2,778.2 						"/>
						<polygon id="XMLID_46_" class="st3" points="154.9,908.4 265.7,778.2 376.4,908.4 						"/>
						<polygon id="XMLID_45_" class="st3" points="487.1,778.2 376.4,908.4 265.7,778.2 						"/>
						<polygon id="XMLID_44_" class="st4" points="376.4,908.4 487.1,778.2 597.9,908.4 						"/>
						<polygon id="XMLID_43_" class="st4" points="708.6,778.2 597.9,908.4 487.1,778.2 						"/>
						<polygon id="XMLID_41_" class="st3" points="597.9,908.4 708.6,778.2 819.4,908.4 						"/>
						<polygon id="XMLID_40_" class="st4" points="930.1,778.2 819.4,908.4 708.6,778.2 						"/>
						<polygon id="XMLID_38_" class="st2" points="819.4,908.4 930.1,778.2 1040.9,908.4 						"/>
						<polygon id="XMLID_37_" class="st5" points="1151.6,778.2 1040.9,908.4 930.1,778.2 						"/>
						<polygon id="XMLID_36_" class="st4" points="1040.9,908.4 1151.6,778.2 1262.3,908.4 						"/>
						<polygon class="st2" points="1365.6,778.2 1151.6,778.2 1262.3,908.4 1365.6,787 						"/>
						<polygon class="st4" points="1365.6,908.4 1365.6,787 1262.3,908.4 						"/>
						<polygon class="st3" points="153.8,909.7 154.9,908.4 -66.4,908.4 -66.4,908.7 -65.5,909.7 						"/>
						<polygon class="st2" points="375.3,909.7 376.4,908.4 154.9,908.4 156,909.7 						"/>
						<polygon class="st5" points="596.8,909.7 597.9,908.4 376.4,908.4 377.5,909.7 						"/>
						<polygon class="st5" points="818.3,909.7 819.4,908.4 597.9,908.4 599,909.7 						"/>
						<polygon class="st4" points="1039.8,909.7 1040.9,908.4 819.4,908.4 820.5,909.7 						"/>
						<polygon class="st3" points="1261.3,909.7 1262.3,908.4 1040.9,908.4 1041.9,909.7 						"/>
						<polygon class="st5" points="1365.6,909.7 1365.6,908.4 1262.3,908.4 1263.4,909.7 						"/>
					</g>
				</g>
			</g>
			<g>
				<defs>
					<rect id="XMLID_33_" x="0" y="0.7" width="1300" height="900"/>
				</defs>
				<clipPath id="XMLID_5_">
					<use xlink:href="#XMLID_33_"  style="overflow:visible;"/>
				</clipPath>
			</g>
		</g>
	</g>
	<g>
		<g>
			<path class="st6" d="M92,238.1c0,0,25,1.2,25.3,29.1c0.3,27.9-23.3,36.6-36,26c-8.8-7.4-1.3-17.5,3.2-19.1c0,0-8.3,7.1,1.6,12
				c10.7,5.3,28.1-5,24.9-24.6C107.4,239.3,92,238.1,92,238.1z"/>
			<path class="st6" d="M87.7,146.2c0,0,2.4-24.4,18-30.2c0,0-3.9,8-3.6,13.4c0,0-12.6,2.2-16.3,30.1L87.7,146.2z"/>
			<path class="st7" d="M93,128.4c0,0-12,21.7-4.9,51.9c7.1,30.2,23.2,46.1,16.5,67.8c-4,13-20.6,13-25.1,7.2
				c-5.8-7.7,1.7-15.4,7.6-16.9c0,0-15.1,1.9-13.4,17.2c2,17.5,39.9,15.5,41-9c1.5-33.5-14.6-42.9-21.7-65.8
				C87.1,161.6,88.1,141.1,93,128.4z"/>
			<path class="st7" d="M90.7,272.4c0,0,26.9-2.3,25.3,24.3c-1.6,26.6-26.6,26.9-32.8,61c-6.2,34.1,27.2,43.5,27.2,43.5l3.9,13.9
				c0,0-41.8-16.2-32.8-61.3c9.1-45.1,34.5-43,28.8-66.6C106.7,271.7,90.7,272.4,90.7,272.4z"/>
		</g>
		<path class="st8" d="M1120.6,85.1c0,0-17.1,18.6-7.7,53.9c9.4,35.3,55.1,116.3-0.6,167.1l-1.7,9.9c0,0,41.4-32,32.5-100.4
			c0,0-6.6-30.3-16.5-59c-9.9-28.7-7.6-39-6.2-47.2c2.1-12.9,18.4-20,18.4-20L1120.6,85.1z"/>
		<g>
			<path class="st9" d="M237.9,89.6c0,0-27.4-1.9-25.4,25.1c2,27,27.4,27,34.2,61.6c6.7,34.6-27.1,44.6-27.1,44.6l-3.8,14.2
				c0,0,40.5-16.7,32.5-62.8c-7.9-45.5-35.7-43.3-30.2-67.4C221.6,89.1,237.9,89.6,237.9,89.6z"/>
			<path class="st10" d="M236,53c0,0-25.3,3.3-25.3,31.7c0,28.4,24.2,36.9,37,25.9c8.9-7.6,1.1-17.8-3.6-19.4c0,0,8.5,7.1-1.5,12.2
				C231.9,109,214,98.7,217,78.8C220.4,56.1,236,53,236,53z"/>
			<path class="st9" d="M210.9,85.3c0,0-3.7-39.4,47.9-44.1l-2.2,9.9C256.7,51.1,215.7,48.7,210.9,85.3z"/>
		</g>
		<path class="st9" d="M952.2,265.1c0,0,15.8-5.9,16.5-24.6c0.7-18.7-10.9-30.2-27.9-45.6c-15.1-13.6-11.8-47.1,9.2-54.4l-0.4-12.1
			c0,0-21.7,12.5-21.7,37.9c0,25.4,11,30.5,20.6,40.8c2,2.2,22.4,32.4,5.1,44.5C953.7,251.5,955.9,259.6,952.2,265.1z"/>
		<path class="st7" d="M1231.8,503.5c0,0-23.9-8.9-25-37.3c-1.1-28.4,16.6-45.8,42.3-69c22.8-20.6,17.8-71.2-13.9-82.4l0.6-18.4
			c0,0,32.8,18.9,32.8,57.3c0,38.4-16.7,46.2-31.2,61.8c-3.1,3.3-34,49.1-7.8,67.3C1229.6,482.9,1226.3,495.1,1231.8,503.5z"/>
		<circle class="st9" cx="6.1" cy="656.5" r="6.1"/>
		<circle class="st9" cx="43.9" cy="659.8" r="5"/>
		<circle class="st9" cx="95.1" cy="645.4" r="9.5"/>
		<circle class="st9" cx="184.7" cy="630.3" r="4.5"/>
		<circle class="st9" cx="222" cy="630.9" r="6.1"/>
		<circle class="st9" cx="253.2" cy="384.9" r="3.9"/>
		<circle class="st9" cx="315.5" cy="373.8" r="2.8"/>
		<circle class="st11" cx="353.9" cy="357.7" r="4.5"/>
		<circle class="st9" cx="389" cy="376" r="3.9"/>
		<circle class="st12" cx="434.6" cy="367.1" r="9.5"/>
		<circle class="st11" cx="426.8" cy="402.7" r="2.8"/>
		<circle class="st9" cx="447.4" cy="408.9" r="2.2"/>
		<circle class="st12" cx="376.2" cy="408.9" r="4.5"/>
		<circle class="st12" cx="436.8" cy="443.9" r="3.9"/>
		<circle class="st9" cx="393.4" cy="441.7" r="2.8"/>
		<circle class="st9" cx="323.9" cy="410" r="1.1"/>
		<circle class="st9" cx="436.3" cy="496.8" r="2.2"/>
		<circle class="st9" cx="453" cy="480.1" r="2.2"/>
		<circle class="st9" cx="280.5" cy="496.8" r="2.2"/>
		<circle class="st9" cx="201.4" cy="538" r="15.6"/>
		<circle class="st12" cx="280.5" cy="581.4" r="3.3"/>
		<circle class="st9" cx="296" cy="542.4" r="1.1"/>
		<circle class="st9" cx="330.5" cy="543.5" r="1.1"/>
		<circle class="st9" cx="27.2" cy="446.1" r="7.2"/>
		<circle class="st11" cx="44.5" cy="502.3" r="5.6"/>
		<circle class="st9" cx="413.5" cy="85.5" r="2.8"/>
		<circle class="st9" cx="460.8" cy="73.8" r="3.3"/>
		<circle class="st9" cx="506.4" cy="51.6" r="12.2"/>
		<circle class="st9" cx="522.5" cy="77.7" r="2.8"/>
		<circle class="st9" cx="544.8" cy="86.6" r="1.7"/>
		<circle class="st11" cx="468.6" cy="129.5" r="4.5"/>
		<circle class="st9" cx="502.5" cy="125.6" r="1.7"/>
		<circle class="st9" cx="450.8" cy="178.5" r="2.2"/>
		<circle class="st12" cx="361.7" cy="108.3" r="2.2"/>
		<circle class="st9" cx="372.3" cy="208" r="2.8"/>
		<circle class="st12" cx="207" cy="69.4" r="5.6"/>
		<circle class="st9" cx="259.3" cy="33.8" r="1.1"/>
		<ellipse class="st9" cx="292.1" cy="16" rx="1.7" ry="0"/>
		<circle class="st12" cx="304.4" cy="124.5" r="7.2"/>
		<circle class="st9" cx="292.1" cy="62.1" r="1.7"/>
		<circle class="st11" cx="320" cy="43.2" r="2.8"/>
		<circle class="st9" cx="234.8" cy="158.4" r="11.1"/>
		<circle class="st12" cx="302.2" cy="218" r="3.9"/>
		<circle class="st9" cx="253.7" cy="213" r="2.2"/>
		<ellipse class="st9" cx="175.8" cy="230.8" rx="0" ry="3.3"/>
		<circle class="st9" cx="213.7" cy="277.5" r="2.2"/>
		<circle class="st9" cx="162.5" cy="164" r="6.7"/>
		<circle class="st12" cx="31.1" cy="20.4" r="7.8"/>
		<circle class="st9" cx="77.9" cy="29.3" r="3.3"/>
		<circle class="st9" cx="40.6" cy="103.3" r="2.8"/>
		<ellipse class="st9" cx="51.2" cy="188.5" rx="0" ry="1.1"/>
		<circle class="st9" cx="32.3" cy="246.3" r="2.2"/>
		<ellipse class="st9" cx="55.6" cy="265.3" rx="1.1" ry="0"/>
		<circle class="st12" cx="608.8" cy="177.3" r="5.6"/>
		<circle class="st9" cx="631.6" cy="80" r="1.7"/>
		<circle class="st9" cx="666.7" cy="23.7" r="3.3"/>
		<circle class="st9" cx="586" cy="191.3" r="1.7"/>
		<circle class="st12" cx="789.7" cy="48.8" r="6.1"/>
		<circle class="st9" cx="899.9" cy="6.5" r="6.1"/>
		<circle class="st12" cx="927.7" cy="49.9" r="3.9"/>
		<circle class="st11" cx="976.7" cy="33.2" r="1.7"/>
		<circle class="st9" cx="878.2" cy="130.6" r="11.1"/>
		<circle class="st12" cx="912.7" cy="131.7" r="4.5"/>
		<circle class="st9" cx="941.6" cy="115" r="2.2"/>
		<circle class="st9" cx="785.8" cy="175.1" r="3.3"/>
		<circle class="st11" cx="933.2" cy="251.4" r="3.9"/>
		<circle class="st9" cx="961.6" cy="201.8" r="1.1"/>
		<circle class="st9" cx="1027.3" cy="81.6" r="4.5"/>
		<circle class="st9" cx="710.6" cy="101.1" r="2.8"/>
		<circle class="st11" cx="728.4" cy="125.6" r="3.9"/>
		<circle class="st12" cx="1059.6" cy="178.5" r="5.6"/>
		<circle class="st12" cx="1079.6" cy="214.1" r="3.3"/>
		<circle class="st9" cx="1049" cy="281.4" r="15"/>
		<circle class="st9" cx="1087.4" cy="287.5" r="2.2"/>
		<circle class="st11" cx="1084.6" cy="337.1" r="3.9"/>
		<circle class="st9" cx="1178.7" cy="22.6" r="12.2"/>
		<circle class="st12" cx="1226" cy="32.1" r="5"/>
		<circle class="st9" cx="1263.3" cy="21.5" r="3.3"/>
		<circle class="st9" cx="1074.6" cy="25.4" r="1.7"/>
		<circle class="st9" cx="1206.5" cy="141.7" r="5.6"/>
		<circle class="st9" cx="1236" cy="125.6" r="1.7"/>
		<circle class="st9" cx="1149.7" cy="156.2" r="4.5"/>
		<circle class="st9" cx="1208.7" cy="233" r="6.7"/>
		<circle class="st12" cx="1258.2" cy="173.4" r="6.1"/>
		<circle class="st9" cx="1278.8" cy="221.9" r="2.2"/>
		<circle class="st11" cx="1205.9" cy="357.1" r="7.2"/>
		<circle class="st9" cx="1279.4" cy="386" r="2.8"/>
		<circle class="st9" cx="1287.7" cy="361" r="1.1"/>
		<circle class="st9" cx="1170.3" cy="466.2" r="7.2"/>
		<circle class="st12" cx="1212.6" cy="452.8" r="1.7"/>
		<circle class="st12" cx="1242.7" cy="477.3" r="7.2"/>
		<circle class="st9" cx="1271.6" cy="506.2" r="2.8"/>
		<circle class="st9" cx="1298.3" cy="502.9" r="1.7"/>
		<circle class="st9" cx="1161.4" cy="632" r="2.8"/>
		<circle class="st9" cx="1278.8" cy="634.8" r="2.2"/>
		<circle class="st9" cx="1269.9" cy="668.2" r="8.9"/>
		<circle class="st9" cx="1282.2" cy="554.7" r="5.6"/>
		<circle class="st12" cx="1003.9" cy="195.2" r="4.5"/>
		<circle class="st12" cx="1050.7" cy="109.4" r="8.9"/>
		<circle class="st9" cx="1225.4" cy="89.4" r="8.9"/>
		<circle class="st9" cx="1018.9" cy="23.2" r="10.6"/>
		<circle class="st11" cx="996.7" cy="69.9" r="2.8"/>
		<circle class="st9" cx="710.6" cy="61" r="9.5"/>
		<circle class="st12" cx="819.7" cy="114.5" r="5"/>
		<circle class="st9" cx="847.5" cy="17.6" r="5"/>
		<circle class="st11" cx="601" cy="71.6" r="6.7"/>
		<circle class="st9" cx="545.4" cy="7.1" r="7.8"/>
		<circle class="st9" cx="438" cy="24.3" r="2.8"/>
		<circle class="st9" cx="365.6" cy="9.8" r="8.3"/>
		<circle class="st9" cx="250.4" cy="5.9" r="2.2"/>
		<circle class="st11" cx="146.9" cy="59.4" r="4.5"/>
		<circle class="st9" cx="51.2" cy="186.2" r="10"/>
		<circle class="st9" cx="166.4" cy="206.8" r="3.9"/>
		<circle class="st9" cx="206.4" cy="239.1" r="5"/>
		<circle class="st12" cx="180.3" cy="309.8" r="6.7"/>
		<circle class="st9" cx="52.3" cy="296.4" r="5.6"/>
		<circle class="st9" cx="185.3" cy="384.9" r="2.8"/>
	</g>
</g>
</svg>
