<?xml version="1.0" encoding="utf-8"?>
<!-- Generator: Adobe Illustrator 19.1.1, SVG Export Plug-In . SVG Version: 6.00 Build 0)  -->
<svg version="1.1" id="Layer_1" xmlns="http://www.w3.org/2000/svg" xmlns:xlink="http://www.w3.org/1999/xlink" x="0px" y="0px"
	 viewBox="0 0 1300 1300" style="enable-background:new 0 0 1300 1300;" xml:space="preserve">
<style type="text/css">
	.st0{fill:#FFE200;}
	.st1{fill:#FFD700;}
</style>
<rect x="0.6" y="3" class="st0" width="1298.8" height="1294"/>
<g>
	<g>
		<path class="st1" d="M562.6,862.3c-6.2-2.3-12-4.5-16.8-6.3C552.1,858.4,558.2,860.7,562.6,862.3z M608,802
			C605.7,801.8,605.2,801.7,608,802L608,802z M646,790.1c-6.3-0.1-11.3-0.2-15.4-0.2C636.4,789.9,642.7,790,646,790.1z M526.7,848.7
			c-2.2-0.8-3.8-1.5-4.9-1.9C523,847.2,524.7,847.9,526.7,848.7z M516.9,624.2c-0.6,14.2-1,28.1-1.6,41.4
			c-3,70.9,50,133.2,124.5,138.6c73.4,5.2,139.5-51.5,143.2-128.5c0.6-14.2,1-28.1,1.6-41.4c3-70.9-50-133.1-124.5-138.6
			C586.8,490.6,520.6,547.2,516.9,624.2z M777.9,632c-0.2,12.8-0.3,26-0.6,39.5c-1.6,73.1-63.1,128.8-133.1,125.8
			c-71-3.2-123.4-61.3-122.2-129.2c0.2-12.8,0.3-26,0.5-39.5c1.6-73.2,63.1-128.8,133.1-125.7C726.7,506,779.1,564.1,777.9,632z
			 M542.6,854.8c-3.9-1.5-7.8-3-11.1-4.3C534.5,851.7,538.2,853.2,542.6,854.8z M627.8,789.7c-3.7-0.1-6.3-0.1-7.9-0.2
			C621.7,789.6,624.6,789.7,627.8,789.7z M521.9,846.8c-0.9-0.4-1.5-0.6-1.7-0.7C520.4,846.2,521,846.4,521.9,846.8z M628.6,817.8
			c-1.3-0.2-2.4-0.3-3.6-0.4C626.5,817.6,627.8,817.7,628.6,817.8z M1247.4,49.9c-2-0.1-3.9-0.1-5.9-0.2c3.9,0.2,7.8,0.3,11.7,0.5
			C1251.3,50.1,1249.3,50,1247.4,49.9z M95.3,1250.6c-34,0.3-64-8-94.7-23.1c0,3.7,0,7.5,0,11.2c20.6,7,41,11.1,62.7,11.6
			c2.5,0.1,4.9,0.1,7.4,0.2c-1.7,0-3.4,0-5.1-0.1c-0.8,0-1.5-0.1-2.3-0.1c-1.4,0-2.8-0.1-4.3-0.1c174.1,6.2,306,1.5,434.4,7.9
			c127.3,5.2,251.1,21.5,385.2,41.3c99.7,0,199.4,0,299.1,0c-187.9-15.3-363.7-42.9-534-48.7c-173-8.9-340.5,4-573.1-0.2
			c241.4,1.7,420.2-17.2,599-16.8c176.8-1.7,353.6,15.8,545.3,41c31.7,3.7,61-8.7,84.3-20.2c0-7.4,0-14.8,0-22.2
			c-24.4,10.2-55,21.1-88.5,15.2c-185.2-35.3-351.9-40.6-525.7-31.2C510.6,1224.9,329,1248.1,95.3,1250.6z M1266.3,50.8
			c-2.1-0.2-4.1-0.3-6.2-0.5c1.6,0.1,3.2,0.1,4.8,0.2c1.6,0.1,3.2,0.3,4.8,0.4c-176.3-15.7-290.3-21-406.5-50.2c-21.3,0-42.7,0-64,0
			c136.1,31.9,262.7,35.3,460.9,49.7c-2.1-0.1-4.3-0.1-6.4-0.2c2,0.1,4.1,0.3,6.1,0.4C1262,50.6,1264.1,50.7,1266.3,50.8z
			 M495.9,603.6c-2.5,17-4.6,33.4-6.8,48.9c-12,81.9,40.2,161.6,128.6,178.5c86.2,15.7,172.2-42.2,186.6-134.6
			c2.5-17,4.6-33.4,6.8-48.9c12-81.9-40.2-161.6-128.5-178.5C596.3,453.2,510.2,511.2,495.9,603.6z M592.2,819.7
			c3.4,0.6,8.4,1.3,14.8,2.3C601.9,821.2,596.4,820.4,592.2,819.7z M804.5,643.6c-1.8,15.1-3.4,30.8-5.3,47.1
			c-11.3,88.6-92.2,146.6-175.3,133.8c-85-13.7-137.8-88.9-128.3-168.2c1.8-15.1,3.4-30.8,5.3-47.1
			c11.3-88.5,92.2-146.6,175.3-133.8C761.1,489.1,814,564.3,804.5,643.6z M613.1,830.2c-2.8-0.5-5.5-1-8-1.5
			C608.2,829.3,610.9,829.8,613.1,830.2z M579.2,823.9C576.5,823.3,576.9,823.4,579.2,823.9L579.2,823.9z M1266.4,51
			c-2.2-0.2-4.4-0.3-6.6-0.5c-2.2-0.1-4.4-0.2-6.6-0.3C1257.6,50.5,1262,50.7,1266.4,51z M1241.5,49.7
			c-174.2-6.2-306.1-1.5-434.5-7.9C679.6,36.7,555.8,20.4,421.7,0.6c-99.7,0-199.4,0-299,0c187.8,15.3,363.4,42.9,533.7,48.7
			c172.9,8.9,340.3-4,572.7,0.2c1.8,0,3.6,0,5.4,0.1c0.8,0,1.5,0.1,2.3,0.1c-2.6-0.1-5.1-0.1-7.7-0.1
			c-241.3-1.6-420.1,17.2-598.8,16.8C453.4,68,276.7,50.4,84.9,25.3C53.2,21.5,24,34,0.6,45.4c0,7.4,0,14.8,0,22.2
			c24.4-10.2,55-21.2,88.5-15.2C274.2,87.7,441,93,614.7,83.6c174.6-8.5,356.3-31.7,589.9-34.2c34-0.3,64,8,94.8,23
			c0-3.7,0-7.5,0-11.2c-20.5-7-40.9-11.1-62.6-11.6C1238.4,49.7,1239.9,49.7,1241.5,49.7z M506,614.6c-1.5,15.6-2.6,30.7-4,45.2
			c-7.2,76.6,46.1,147.5,127.6,158.1c79.9,10,155.8-47.8,164.3-132.5c1.5-15.6,2.6-30.7,4-45.2c7.2-76.6-46.1-147.5-127.6-158.1
			C590.5,472,514.6,529.9,506,614.6z M622.9,810c2.5,0.2,5,0.5,8,0.8C628.7,810.6,625.9,810.3,622.9,810z M791.3,637
			c-0.9,14-1.7,28.4-2.7,43.4c-5.9,80.9-76.9,138.2-153.6,130.8c-78-7.9-131.3-74.5-126.3-148.3c0.9-14,1.7-28.4,2.7-43.4
			c6-80.9,76.9-138.2,153.6-130.8C743,496.7,796.3,563.3,791.3,637z M594.2,813.4C592.3,813.2,592,813.1,594.2,813.4L594.2,813.4z
			 M715,0.6c-39.1,0-78.1,0-117.2,0c102,18.5,197.9,30.9,299.8,36.5c102.4,6.3,211,5.7,349.8,12.8c2.1,0.1,4.2,0.1,6.3,0.2
			c-115.8-7.6-208.2-9.5-293.6-16C874.9,28,796.5,17.3,715,0.6z M629.7,818c-0.4,0-0.7-0.1-1.1-0.1C629.2,817.9,629.7,818,629.7,818
			z M586,854.2c-2.6-0.8-5.1-1.5-7.4-2.3C581.9,852.9,584.4,853.7,586,854.2z M660.1,717.1c-1.7,0.4-3.6,0.8-5.3,1.2
			C656.2,717.9,657.9,717.5,660.1,717.1z M663,701.5c-1,0.2-2.9,0.8-4.9,1.3C659.5,702.4,661.1,702,663,701.5z M658.1,702.8
			c-1.7,0.4-3.3,0.9-4.3,1.2C654.7,703.7,656.1,703.3,658.1,702.8z M635.2,584c-31.6,7.1-51.6,38.5-44.4,70.3
			c1.4,5.9,2.7,11.8,4.1,17.7c7.2,31.3,38.3,51.1,69.9,44c31.6-7,51.6-38.5,44.4-70.3c-1.4-5.9-2.7-11.8-4.1-17.7
			C697.9,596.7,666.8,576.9,635.2,584z M652.9,711.4C651.7,711.7,651.4,711.8,652.9,711.4L652.9,711.4z M653.5,711.3
			c0.8-0.2,1.8-0.5,3.3-0.8C655.5,710.8,654.4,711.1,653.5,711.3z M698.8,629.5c1.3,5.2,2.6,10.4,3.9,15.7
			c7,28.2-10.3,56.6-38.3,63.5c-28.1,6.9-56.2-10.2-63.2-38.1c-1.3-5.2-2.6-10.4-3.9-15.7c-7-28.2,10.3-56.6,38.3-63.5
			C663.6,584.5,691.8,601.6,698.8,629.5z M636.3,598.7c-24.5,6.5-39.2,31.8-32.6,56.4c1.2,4.6,2.5,9.2,3.7,13.7
			c6.6,24.4,31.7,39,56.2,32.4c24.5-6.5,39.2-31.8,32.6-56.4c-1.2-4.6-2.5-9.2-3.7-13.7C685.9,606.7,660.8,592.2,636.3,598.7z
			 M654.3,696.4C652.9,696.8,653.2,696.7,654.3,696.4L654.3,696.4z M655.3,696.1c1.3-0.4,2.9-0.8,4.2-1.2
			C657.7,695.4,656.3,695.8,655.3,696.1z M686.4,633.1c1.1,3.9,2.3,7.8,3.4,11.8c6.1,21.1-6.1,43.1-27.1,49.2c0,0-0.5,0.1-1.2,0.3
			c0.4-0.1,0.8-0.2,1.2-0.3c-21,6-42.9-6.1-49-27c-1.1-3.9-2.3-7.8-3.4-11.8c-6.1-21.1,6.1-43.1,27.2-49.2
			C658.4,600,680.3,612.1,686.4,633.1z M635.4,569.1c-38.7,6.9-64.8,44.2-57.5,83.2c1.4,7.3,2.7,14.5,4.1,21.7
			c7.2,38.3,43.8,63.8,82.5,56.9l0,0c38.7-6.9,64.8-44.2,57.5-83.2c-1.4-7.3-2.7-14.5-4.1-21.7C710.8,587.7,674.2,562.2,635.4,569.1
			z M711.5,626.9c1.4,6.5,2.7,13.1,4.1,19.7c7.4,35.4-15.6,69.9-50.8,76.9c-35.1,7.1-69.1-15.5-76.3-50.3
			c-1.4-6.5-2.7-13.1-4.1-19.6c-7.3-35.4,15.7-69.9,50.8-76.9C670.3,569.5,704.2,592.1,711.5,626.9z M619.2,789.5
			C617.4,789.5,617.1,789.5,619.2,789.5L619.2,789.5z M638.7,613.2c-17.6,5.4-27.5,24.1-22,41.7c1,3.3,2,6.6,3.1,9.8
			c5.4,17.5,24,27.4,41.6,22c17.6-5.4,27.5-24.1,22-41.7c-1-3.3-2-6.6-3-9.8C674.9,617.7,656.3,607.8,638.7,613.2z M674.3,637.6
			c0.9,2.6,1.7,5.3,2.6,7.9c4.7,14.2-3.1,29.4-17.2,34.1c-14.2,4.6-29.4-3.1-34-17.2c-0.9-2.6-1.7-5.3-2.6-7.9
			c-4.7-14.2,3.1-29.4,17.2-34.1C654.5,615.8,669.7,623.5,674.3,637.6z M655,673.5c-0.8,0.3-1.5,0.5-1.8,0.6
			C653.5,674,654.1,673.8,655,673.5z M660.4,687c-2.1,0.7-3.6,1.1-4.7,1.5C657.2,688,659.2,687.4,660.4,687z M642.2,627.5
			c-10.8,3.7-16.5,15.5-12.7,26.3c0.7,2,1.4,4,2.1,6c3.7,10.8,15.5,16.5,26.3,12.7c10.8-3.7,16.5-15.5,12.7-26.3c-0.7-2-1.4-4-2.1-6
			C664.7,629.4,652.9,623.8,642.2,627.5z M662.7,643c0.5,1.4,1,2.8,1.5,4.1c2.7,7.4-1.1,15.6-8.5,18.4c-7.4,2.7-15.6-1.1-18.3-8.5
			c-0.5-1.4-1-2.8-1.5-4.1c-2.7-7.4,1.1-15.6,8.5-18.4C651.7,631.8,659.9,635.6,662.7,643z M552.6,644.9c1,10,2.1,19.9,3,29.6
			c5.2,51.9,50.9,90.6,104,86.2c52.8-4.4,93-51.7,87.7-105.7c-1-10-2-19.9-3-29.6c-5.2-51.9-50.9-90.6-104-86.1
			C587.5,543.7,547.4,590.9,552.6,644.9z M737.7,625.1c1.1,9.1,2.3,18.3,3.4,27.7c6,50.2-30.4,95.2-79.7,100.5
			c-49.5,5.4-93.2-29.8-99.1-78.4c-1.1-9.1-2.3-18.3-3.4-27.6c-6.1-50.2,30.4-95.2,79.7-100.5C688,541.4,731.7,576.6,737.7,625.1z
			 M646.7,641.4c-4.1,1.6-6.1,6.2-4.6,10.3c0.3,0.8,0.6,1.5,0.9,2.3c1.6,4.1,6.2,6.1,10.3,4.6c4.1-1.6,6.1-6.2,4.6-10.3
			c-0.3-0.8-0.6-1.5-0.9-2.3C655.4,641.9,650.8,639.8,646.7,641.4z M651.4,649.2c0.1,0.2,0.1,0.3,0.2,0.5c0.3,0.8-0.1,1.8-0.9,2.1
			c-0.8,0.3-1.7-0.1-2.1-0.9c-0.1-0.2-0.1-0.3-0.2-0.5c-0.3-0.8,0.1-1.8,0.9-2.1C650.1,648,651.1,648.4,651.4,649.2z M565.2,649.3
			c1.2,8.6,2.5,17.2,3.7,25.7c6.5,45.1,48,77,93.9,70.9c45.8-6,78.6-48.6,71.9-95.1c-1.2-8.7-2.5-17.2-3.7-25.7
			c-6.5-45.1-48-77-93.9-70.9C591.4,560.2,558.6,602.8,565.2,649.3z M724.5,625.4c1.3,7.8,2.6,15.7,4,23.7
			c7,42.8-22.3,82.7-64.5,89.3c-42.3,6.6-81.4-22.1-88.4-63.8c-1.3-7.8-2.6-15.7-4-23.6c-7-42.8,22.3-82.7,64.6-89.3
			C678.4,555.1,717.5,583.7,724.5,625.4z M639.3,804.2c-1.2-0.1-2.2-0.1-3.4-0.2C637.5,804.1,638.6,804.2,639.3,804.2z M540.3,639.4
			c0.6,11.4,1.3,22.6,1.9,33.6c3.2,58.5,52.3,104.6,112.5,102.5c59.8-2,108.1-53.3,104.9-114.9c-0.6-11.4-1.3-22.6-1.9-33.6
			c-3.2-58.5-52.3-104.6-112.5-102.5C585.4,526.5,537.2,577.7,540.3,639.4z M751.1,626.1c0.8,10.4,1.7,20.9,2.5,31.6
			c4.3,57.8-39.8,107.1-96.2,110.4c-56.7,3.4-104.2-39-108.4-94.2c-0.8-10.4-1.7-20.9-2.5-31.6c-4.3-57.8,39.8-107.1,96.2-110.4
			C699.3,528.5,746.8,570.9,751.1,626.1z M652.2,775.6c-8.1,0.3-14,0.5-17.9,0.6C640.2,776.1,648.2,775.8,652.2,775.6z M616.8,830.9
			c-1.3-0.2-2.4-0.4-3.7-0.7C614.8,830.5,616,830.8,616.8,830.9z M528.4,632.5c0.1,12.8,0.3,25.4,0.4,37.6
			c0.4,64.8,52,118.8,119.4,120c0,0,0,0-0.1,0c0,0,0.1,0,0.1,0c0,0,0,0,0,0c66.7,1.1,123.6-53.2,123.4-122.5
			c-0.1-12.8-0.3-25.4-0.4-37.6c-0.4-64.8-52-118.8-119.4-120.1C585.1,508.8,528.2,563.2,528.4,632.5z M647.2,782.9c1.9,0,3.3,0,4,0
			C649.8,782.8,648.5,782.9,647.2,782.9z M764.5,628.3c0.4,11.6,0.8,23.5,1.2,35.6c1.8,65.4-50.7,118.3-114,118.9
			c-63.8,0.5-114.3-49.5-116.2-111.2c-0.4-11.6-0.8-23.5-1.2-35.6c-1.8-65.5,50.7-118.4,114-118.9
			C712.1,516.6,762.6,566.6,764.5,628.3z M645,748.2c-1.3,0.2-2.1,0.2-2.4,0.3C643,748.4,643.9,748.3,645,748.2z M662.1,745.9
			c-0.7,0.1-1.7,0.2-3,0.4C660.1,746.2,661.1,746.1,662.1,745.9z M659.6,760.7c-0.5,0-0.9,0.1-1.5,0.1
			C659.1,760.8,659.6,760.7,659.6,760.7z M639.6,762.4c-1.7,0.1-3,0.2-3.6,0.3C636.4,762.7,637.5,762.6,639.6,762.4z M654.3,747
			c-2.6,0.3-4.7,0.6-6.4,0.8C649.9,747.5,652.1,747.2,654.3,747z M653.3,658.6c-0.9,0.3-1.3,0.5-1.6,0.6
			C652.2,659,653.3,658.6,653.3,658.6z M33.6,1249.2c-2.1-0.2-4.1-0.4-6.2-0.5c2.2,0.1,4.4,0.3,6.6,0.4c-4.4-0.3-8.8-0.6-13.3-0.9
			c2.2,0.2,4.4,0.4,6.5,0.5c-2.2-0.1-4.4-0.3-6.7-0.4c2.1,0.2,4.3,0.4,6.4,0.6c-0.8,0-1.7-0.1-2.5-0.1c1.9,0.2,3.9,0.3,5.8,0.4
			c-1.1-0.1-2.1-0.2-3.2-0.3C29.2,1249,31.4,1249.1,33.6,1249.2z M33.6,1249.2c2.1,0.2,4.2,0.3,6.3,0.5c-1.6-0.1-3.2-0.1-4.8-0.2
			c-1.7,0-3.3-0.2-4.9-0.4c176.4,15.7,290.5,21,406.7,50.2c21.3,0,42.7,0,64,0c-136.1-31.9-262.8-35.3-460.9-49.7
			c2.1,0.1,4.3,0.1,6.4,0.2c-2.1-0.1-4.2-0.3-6.3-0.4C37.9,1249.4,35.8,1249.3,33.6,1249.2z M20.5,1248.2c-2.1-0.2-4.2-0.4-6.3-0.6
			c0.8,0.1,1.6,0.3,2.4,0.4c-1-0.1-2-0.1-3-0.2c2.2,0.2,4.4,0.5,6.5,0.7c-2.2-0.1-4.4-0.2-6.7-0.3c145.5,17.4,241.3,25.6,331,51.2
			c13.8,0,27.6,0,41.4,0c-101.6-27.3-205.8-34.1-365.7-50.8c1.4,0.1,2.8,0.1,4.2,0.2c-2.6-0.2-5.2-0.4-7.7-0.7
			C17.9,1248.1,19.2,1248.2,20.5,1248.2z M46.4,1249.9c115.8,7.6,208.2,9.5,293.6,16c85.2,6.1,163.5,16.8,245.1,33.5
			c39.1,0,78.2,0,117.3,0c-102.1-18.5-197.9-30.9-299.8-36.6c-102.4-6.3-211-5.7-349.9-12.8C50.6,1250,48.5,1249.9,46.4,1249.9z
			 M46.2,1249.7c2.1,0.1,4.3,0.2,6.4,0.3c2.1,0.1,4.3,0.1,6.4,0.2C54.8,1250.1,50.5,1249.9,46.2,1249.7z M13.6,1247.8
			c-2.3-0.2-4.5-0.5-6.8-0.8c2.3,0.2,4.6,0.4,7,0.5c-2.3-0.2-4.6-0.5-6.9-0.7c2,0.2,4,0.4,6,0.5c-4.1-0.6-8.2-1.4-12.3-2.2
			c0,0.4,0,0.7,0,1.1c2,0.2,4,0.4,6.1,0.6c-2-0.2-4-0.4-6.1-0.5c0,0,0,0,0,0c2,0.2,4.1,0.5,6.1,0.7c-2-0.2-4.1-0.3-6.1-0.5
			c0,0,0,0,0,0c2.1,0.3,4.1,0.5,6.2,0.8c-2.1-0.1-4.1-0.3-6.2-0.4c0,0,0,0,0,0.1c2,0.3,3.9,0.5,5.9,0.8c-0.9,0-1.9-0.1-2.9-0.1
			c-1-0.1-2-0.2-3-0.3c0,0.1,0,0.1,0,0.2c123.6,18.2,206.5,28.5,279.1,51.8c10,0,20,0,30,0c-80.4-24.4-169.3-33.7-303.2-51.6
			c2.3,0.1,4.6,0.3,6.9,0.4c-2.2-0.3-4.4-0.5-6.6-0.8C9.1,1247.5,11.3,1247.7,13.6,1247.8z M0.6,1249.4c101,17.5,171,29.3,229.7,50
			c7.7,0,15.4,0,23.2,0c-65.1-21.9-141.2-33.1-252.8-51C0.6,1248.7,0.6,1249,0.6,1249.4z M46.2,1249.7c-4.1-0.2-8.2-0.5-12.3-0.7
			c2.1,0.1,4.1,0.3,6.1,0.4C42.1,1249.5,44.2,1249.6,46.2,1249.7z M1046.6,0.6c65.1,21.9,141.2,33.1,252.8,51c0-0.3,0-0.6,0-0.9
			c-101-17.5-171-29.3-229.6-50C1062,0.6,1054.3,0.6,1046.6,0.6z M14,1247.6c-0.1,0-0.2,0-0.3,0C13.8,1247.6,14,1247.6,14,1247.6
			C14.1,1247.6,14,1247.6,14,1247.6z M1272.9,51.1c0.8,0,1.7,0.1,2.5,0.1c-1.9-0.1-3.8-0.3-5.7-0.4
			C1270.7,50.9,1271.8,51,1272.9,51.1c-2.3-0.1-4.4-0.2-6.6-0.3c2.2,0.2,4.3,0.4,6.5,0.5c2.2,0.1,4.4,0.3,6.6,0.4
			C1277.3,51.5,1275.1,51.3,1272.9,51.1z M1286,52.4c0,0-0.1,0-0.1,0C1285.9,52.4,1285.9,52.4,1286,52.4
			C1286,52.4,1286,52.4,1286,52.4z M1292.4,53c-1.8-0.2-3.5-0.3-5.3-0.5c4.1,0.6,8.2,1.4,12.3,2.2c0-0.4,0-0.7,0-1.1
			c-2.1-0.2-4.3-0.4-6.4-0.6c2.1,0.2,4.3,0.4,6.4,0.6c0,0,0,0,0,0c-2.2-0.2-4.3-0.5-6.5-0.7c-2.3-0.2-4.6-0.3-6.9-0.5
			C1288.1,52.6,1290.2,52.8,1292.4,53z M1283.4,52c-1.3-0.1-2.6-0.2-4-0.3c2.1,0.2,4.3,0.4,6.4,0.7
			C1285.1,52.3,1284.3,52.1,1283.4,52z M1279.4,51.9c2.6,0.2,5.1,0.4,7.7,0.7c-0.4,0-0.7-0.1-1.1-0.2
			C1283.7,52.2,1281.5,52.1,1279.4,51.9z M20.6,1248.1c-2.6-0.2-5.2-0.4-7.7-0.7c0.4,0.1,0.8,0.1,1.1,0.2
			C16.2,1247.8,18.4,1247.9,20.6,1248.1z M1292.9,52.9c2.2,0.2,4.3,0.3,6.5,0.5c0,0,0,0,0,0c-2.1-0.3-4.2-0.5-6.3-0.8
			c-2.3-0.2-4.6-0.3-6.9-0.5C1288.4,52.4,1290.7,52.6,1292.9,52.9z M990.4,0.6c80.3,24.3,169.2,33.7,302.9,51.5
			c-2.3-0.1-4.6-0.2-6.9-0.4c2.2,0.3,4.5,0.6,6.7,0.9c2.1,0.1,4.2,0.3,6.3,0.4c0,0,0,0,0-0.1c-2-0.3-4-0.5-6-0.8c1,0.1,2,0.1,3,0.2
			c1,0.1,2,0.2,3,0.3c0-0.1,0-0.1,0-0.2c-123.6-18.2-206.5-28.5-279.1-51.8C1010.3,0.6,1000.4,0.6,990.4,0.6z M1090.7,0.6
			c53,19.6,117.4,31.9,208.7,48.9c0-0.4,0-0.9,0-1.3c-82.5-16.5-141.6-29-189.7-47.5C1103.4,0.6,1097,0.6,1090.7,0.6z M1257.5,0.6
			c12.3,6.2,26.2,12.3,41.9,18.6c0-1.4,0-2.7,0-4.1c-11.5-4.8-21.9-9.6-31.3-14.4C1264.6,0.6,1261,0.6,1257.5,0.6z M0.6,1284.9
			c11.5,4.8,21.9,9.6,31.4,14.5c3.5,0,7.1,0,10.6,0c-12.3-6.3-26.2-12.4-42-18.6C0.6,1282.2,0.6,1283.6,0.6,1284.9z M1278.5,0.6
			c6.5,3.4,13.5,6.7,20.9,10c0-1.6,0-3.2,0-4.7c-3.7-1.8-7.2-3.5-10.6-5.3C1285.3,0.6,1281.9,0.6,1278.5,0.6z M0.6,1277
			c20.3,7.5,37.7,14.8,52.8,22.4c3.7,0,7.5,0,11.2,0c-17.9-8.8-39-17.3-64-26C0.6,1274.6,0.6,1275.8,0.6,1277z M1235.4,0.6
			c17.9,8.8,39,17.3,64,26c0-1.2,0-2.4,0-3.6c-20.3-7.5-37.8-14.8-52.9-22.4C1242.8,0.6,1239.1,0.6,1235.4,0.6z M1298.8,0.6
			c0.2,0.1,0.4,0.2,0.6,0.3c0-0.1,0-0.2,0-0.3C1299.2,0.6,1299,0.6,1298.8,0.6z M0.6,1294.1c3.7,1.8,7.2,3.6,10.7,5.3
			c3.4,0,6.8,0,10.2,0c-6.5-3.4-13.5-6.7-20.9-10C0.6,1290.9,0.6,1292.5,0.6,1294.1z M0.6,1299.4c0.2,0,0.4,0,0.6,0
			c-0.2-0.1-0.4-0.2-0.6-0.3C0.6,1299.2,0.6,1299.3,0.6,1299.4z M0.6,1251.8c82.5,16.5,141.6,29,189.7,47.6c6.4,0,12.7,0,19.1,0
			c-53-19.6-117.4-31.9-208.8-48.9C0.6,1250.9,0.6,1251.4,0.6,1251.8z M0.6,1255.1c66.8,15.2,116.2,27.8,155.9,44.3
			c5.4,0,10.9,0,16.3,0c-43.6-17.5-97.8-30.1-172.2-46C0.6,1254,0.6,1254.5,0.6,1255.1z M1158.7,0.6c36,15.5,81,27.8,140.7,42.4
			c0-0.7,0-1.4,0-2.1c-53.2-13.7-93.9-25.8-126.5-40.2C1168.2,0.6,1163.4,0.6,1158.7,0.6z M0.6,1270.1c30.1,9.9,55,19.3,75.6,29.3
			c4,0,7.9,0,11.9,0C64.6,1288.2,36,1278,0.6,1267C0.6,1268,0.6,1269,0.6,1270.1z M0.6,1259.2c53.2,13.7,93.9,25.8,126.5,40.2
			c4.8,0,9.5,0,14.3,0c-36-15.5-81-27.8-140.8-42.4C0.6,1257.8,0.6,1258.5,0.6,1259.2z M1127.3,0.6c43.6,17.5,97.8,30.1,172.1,46
			c0-0.6,0-1.1,0-1.7c-66.8-15.2-116.3-27.8-155.9-44.3C1138.1,0.6,1132.7,0.6,1127.3,0.6z M1186.5,0.6c29.4,13.4,66,25,112.9,37.8
			c0-0.9,0-1.7,0-2.6c-41-12-73.6-22.9-100-35.2C1195.1,0.6,1190.8,0.6,1186.5,0.6z M1211.9,0.6c23.5,11.2,52.1,21.4,87.5,32.4
			c0-1,0-2,0-3.1c-30.1-9.9-54.9-19.3-75.6-29.3C1219.8,0.6,1215.9,0.6,1211.9,0.6z M0.6,1264.2c41,11.9,73.5,22.9,99.9,35.2
			c4.3,0,8.6,0,13,0c-29.4-13.4-66-25-112.9-37.8C0.6,1262.4,0.6,1263.3,0.6,1264.2z M885.7,105.8
			c-167.4,44.3-303.3,112.3-409.6,169.6c-109,55.6-188.2,100.5-305,60.5c-42.6-13.2-80.9-13.8-110.6-0.8
			c-28.8,13.8-48.9,41.1-35.1,101.5c30.6,131.8,74.6,255,116.7,359.7c41.2,106.1,80.5,193.8,83,285.4c2.2,41.9,25.9,75.9,56.8,97.8
			c32.1,21.5,71.3,30.8,132.4,14.7c167.4-44.4,303.3-112.4,409.6-169.6c109-55.6,188.2-100.5,305-60.5
			c42.6,13.2,80.9,13.8,110.5,0.8c28.8-13.8,48.9-41.1,35.1-101.5c-30.6-131.8-74.6-254.9-116.6-359.7
			c-41.2-106.1-80.5-193.8-83-285.4c-2.2-41.9-25.9-75.9-56.8-97.7C986,99,946.8,89.7,885.7,105.8z M1118.6,941
			c-110.7-35.1-184.6,10.2-287,67c-99.8,58.2-228.1,127.9-388.6,175.4c-62.2,18.2-102.6,9.8-135-11c-31.3-21.2-54.7-54.8-57.5-96.5
			c-3.5-85.9-43.1-167.1-85.9-266.4c-43.5-98.1-90.3-214.1-124.5-341.2c-16.4-62.1,2.6-91.9,30.9-107.1
			c29.2-14.6,67.6-14.4,110.2-2.3c110.7,35.1,184.6-10.2,287-67C568.2,233.7,696.5,164,857,116.5c62.2-18.2,102.5-9.8,135,11
			c31.3,21.2,54.7,54.8,57.5,96.5c3.5,85.9,43.1,167.1,85.9,266.4c43.5,98,90.3,214.1,124.4,341.2c16.5,62.1-2.6,91.9-30.9,107.1
			C1199.7,953.3,1161.3,953.2,1118.6,941z M486,454.1c-38.5,62.5-59.4,119.5-87.7,159.3c-24,35.9-37.3,73.3-31.4,116.8
			c6,42.6,31,91.3,86,126.2c35.1,22.3,67.1,40,93.6,57.8c41.2,26.5,86.6,36.9,134.8,27.3c47.5-9.7,97.8-39.3,132.8-95.7
			c38.5-62.5,59.4-119.5,87.7-159.3c24-35.9,37.3-73.2,31.4-116.8c-6-42.6-31-91.3-86-126.2c-35.1-22.3-67.1-40-93.6-57.8
			c-41.2-26.5-86.6-36.8-134.8-27.3C571.2,368.2,520.9,397.8,486,454.1z M891.7,683.8c-23.1,37.4-41.2,87.4-71.7,142.4
			c-31.9,57-81.1,88.9-128.9,100.8c-48.5,11.8-95.7,3.7-139.3-21.6c-22.6-13.7-48.8-27.5-77.2-44.1c-55.2-32-82.6-79.7-91-122.8
			c-8.3-44.1,2.4-83.7,24.8-122.3c23.1-37.4,41.1-87.4,71.7-142.4c31.9-57,81.1-88.9,128.9-100.8c48.5-11.8,95.7-3.7,139.3,21.6
			c22.6,13.7,48.8,27.5,77.2,44.1c55.2,32,82.6,79.7,91,122.8C924.8,605.6,914.1,645.1,891.7,683.8z M475.4,493.2
			c-23.7,47.4-38.9,90.6-57.3,124.9c-20.9,41.3-29,83-18.2,127.5c10.8,43.6,40.5,89.9,95.8,119.2c21.8,11.6,42.2,21.8,60.5,31.8
			c46.1,24.1,95,30.1,143.7,16c48-14.1,95.8-48.3,124.8-105.7c23.7-47.4,38.9-90.6,57.4-124.9c20.9-41.4,29-83,18.2-127.5
			c-10.8-43.6-40.5-89.9-95.8-119.2c-21.8-11.6-42.2-21.8-60.5-31.8c-46.1-24.1-95-30.1-143.7-16
			C552.2,401.6,504.4,435.7,475.4,493.2z M872.5,681c-14.3,30.5-26.8,67-44.6,106.8c-26.1,57.8-72.4,94.1-120.5,110.5
			c-48.7,16.3-99.3,12.7-147.8-10.3c-13.6-6.7-28.1-13.5-43.4-21c-55.3-26.7-87.2-71.6-100.4-115.5c-13.2-44.8-7.8-88.5,11.6-132.4
			c14.3-30.5,26.8-67,44.6-106.8c26.1-57.8,72.4-94.1,120.5-110.5c48.7-16.3,99.3-12.7,147.8,10.3c13.6,6.7,28.1,13.5,43.4,21
			c55.3,26.7,87.2,71.6,100.4,115.5C897.4,593.3,891.9,637,872.5,681z M1286.2,52.2c-2.2-0.2-4.4-0.5-6.6-0.7
			c2.3,0.1,4.6,0.2,6.8,0.3C1141,34.4,1045.2,26.2,955.5,0.6c-13.8,0-27.7,0-41.5,0c101.5,27.3,205.7,34.1,365.5,50.8
			c-1.4-0.1-2.8-0.1-4.2-0.2c2.7,0.2,5.4,0.4,8,0.8C1284.3,52,1285.3,52.1,1286.2,52.2z M470,530.8c-12.9,32.2-22.7,62.1-33.4,88.2
			c-18,46.5-20.7,92.1-5.1,137.1c15.6,44.1,49.6,87.6,104.7,111.8c9,4,17.7,7.8,26.1,11.6c50.9,21.8,103,23.1,151.7,4.6
			c48.1-18.6,92.8-56.9,116.1-115c12.9-32.2,22.7-62.1,33.4-88.2c18-46.5,20.7-92.2,5.1-137.1C852.9,499.8,819,456.3,763.8,432
			c-9-4-17.7-7.8-26.1-11.6c-50.9-21.8-103-23.1-151.7-4.6C538,434.5,493.3,472.9,470,530.8z M854.7,681.8
			c-7.6,21.1-14.9,44.4-23.7,69.2c-20.7,58.1-63.7,98.4-111.8,119.2c-48.6,20.7-102.2,21.8-155.3,1.1c-2.8-1.1-5.6-2.3-8.5-3.4
			c-54.9-22-90.8-63.8-108.8-108.1c-18-45-18-92.4-1.4-141.4c7.6-21.1,14.9-44.4,23.7-69.2c20.7-58,63.7-98.4,111.7-119.2
			c48.5-20.7,102.2-21.8,155.3-1.1c2.8,1.1,5.6,2.3,8.5,3.4c54.9,22,90.8,63.9,108.7,108.1C871.2,585.3,871.3,632.7,854.7,681.8z
			 M552.2,332.8C442.7,434,403.1,538,332.4,574.9c-33,18.4-59.5,41.6-68.3,79.3c-8.3,36.7,1.1,88,50.2,140.1
			c72.5,77.2,141.4,124.1,179,175.1c26.1,33.5,60.9,55,105.1,58.3c43.8,3,97-12.1,149.3-60.7C857.3,866,896.9,762,967.6,725.1
			c33-18.4,59.5-41.6,68.3-79.3c8.3-36.7-1.1-88-50.2-140.2c-72.5-77.2-141.4-124.1-179-175.1c-26.1-33.5-60.9-54.9-105.1-58.3
			C657.7,269.1,604.5,284.3,552.2,332.8z M956,715.9c-62.4,39.6-98.5,135.1-193.5,231c-49.6,50.3-102.9,67.8-147.6,66.9
			c-45.2-1.3-81.7-21.2-110.2-53.6c-37.2-44.5-99.7-85.7-166.7-151.3c-50.6-49.5-62.8-100.8-56.7-138.8c6.4-39,31-64.6,62.6-86
			c62.4-39.6,98.5-135.1,193.5-231c49.7-50.3,102.9-67.8,147.5-66.8c45.2,1.3,81.7,21.2,110.3,53.6c37.2,44.5,99.7,85.7,166.7,151.3
			c50.6,49.5,62.7,100.8,56.7,138.8C1012.2,668.9,987.6,694.6,956,715.9z M586.2,293c-69.2,55-118.4,112.4-158.7,160.3
			c-40.8,47.7-72.8,86-118.7,100c-35.6,12.6-65.6,31-78.9,65.7c-12.7,33.9-8.7,84.1,36.8,141.2C348.4,863.4,430.5,923,467.3,988.1
			c21.3,35.5,52.8,59.9,95.1,67.1c41.9,6.8,94.6-3.6,151.4-48.2c69.2-55,118.4-112.4,158.7-160.3c40.8-47.7,72.8-86,118.7-100
			c35.6-12.6,65.6-31,78.9-65.7c12.7-33.9,8.7-84.1-36.8-141.2C951.6,436.6,869.5,377,832.7,311.9c-21.3-35.5-52.8-59.9-95.1-67.1
			C695.7,238,643.1,248.4,586.2,293z M979.3,735.3c-40.9,16.4-70.1,53.3-106.6,98.9c-36.2,45.6-79.8,100-141.1,153
			c-54.7,46.7-107.7,59.4-150.6,54.5c-43.3-5.3-76.4-28.3-100-62.9c-37.5-57.9-113-110.9-190.4-200.6
			c-47.4-54.7-54.1-105.6-43.6-140.9c11.1-36.3,39.4-57.1,73.7-72.5c40.9-16.4,70.1-53.3,106.6-98.9c36.2-45.6,79.8-100,141.2-153.1
			c54.7-46.7,107.7-59.4,150.6-54.5c43.3,5.3,76.4,28.3,100.1,62.8C856.7,379,932.1,432,1009.5,521.8
			c47.4,54.7,54.1,105.6,43.6,140.9C1042,699,1013.7,719.8,979.3,735.3z M524.2,373.4c-81.4,90.1-114.4,177.3-168.9,218.7
			c-30.1,24.3-52.7,52.4-56.7,92.6c-3.7,39.1,11.1,90.4,63.1,137.1c61.1,55,117.3,90.9,153.5,129.2c31.1,31.3,69.4,49.4,115.3,48.6
			c45.4-1.1,98.5-21.1,145.4-72.9c81.4-90.1,114.4-177.3,168.9-218.7c30.1-24.3,52.7-52.4,56.7-92.5c3.7-39.1-11.1-90.4-63-137.1
			c-61.1-55-117.3-90.9-153.5-129.2c-31.1-31.3-69.4-49.4-115.3-48.6C624.2,301.5,571.1,321.5,524.2,373.4z M933.6,701
			c-47.1,42.3-77,121.5-146,205.3c-44,53.3-96.7,75.7-142.8,78.9c-46.7,2.9-86.8-13.4-120.4-43.5c-34.6-32.6-84.6-63.5-139.5-108.9
			c-53-43.7-70.4-94.7-69.1-134.9c1.6-41.2,21.9-71.7,50.6-98.9c47.1-42.3,77-121.5,146-205.3c44-53.3,96.7-75.7,142.8-78.9
			c46.7-2.9,86.7,13.4,120.4,43.5c34.6,32.6,84.6,63.5,139.5,108.9c53,43.7,70.5,94.7,69.1,134.8C982.6,643.3,962.2,673.8,933.6,701
			z M470.6,561.8c-6.7,21-12.4,40.8-18.3,59.2c-15,49.5-12.8,97.1,6.8,141.1c19.5,43.3,56.4,83,110.2,102.7c0,0,0.1,0,0.1,0
			c0,0,0.1,0,0.1,0.1c53.4,19,106.8,15.9,154.1-6.2c46.8-22.1,87.6-63.4,105.8-120.5c6.7-21,12.4-40.8,18.3-59.2
			c15-49.6,12.8-97.2-6.8-141.2c-19.6-43.4-56.5-83-110.4-102.7c-53.4-19-106.8-15.9-154.1,6.2C529.6,463.5,488.9,504.7,470.6,561.8
			z M841.9,672.7c-5.2,18-10.2,37.3-16.1,57.6c-15.9,55.3-54,96.3-98.6,119c-45,22.8-96.6,27.3-148.4,10.5
			c-52.2-17.3-89.3-54.4-109.7-95.8c-20.4-42-24.2-88.5-11-136.8c5.2-18,10.2-37.3,16.1-57.6c15.9-55.3,54-96.3,98.6-119
			c45-22.8,96.6-27.3,148.4-10.5c52.2,17.3,89.3,54.4,109.7,95.9C851.4,578,855.1,624.4,841.9,672.7z M569,864.7
			c-0.8-0.3-1.5-0.6-2.4-0.9C567.9,864.3,568.6,864.6,569,864.7z M569.4,864.8c0,0-0.1,0-0.1,0c0,0-0.2-0.1-0.2-0.1
			C569.1,864.7,569.2,864.8,569.4,864.8z M560,846.2c-2.5-0.8-4.8-1.5-6.7-2.1C555.4,844.8,557.7,845.5,560,846.2z M586.1,839.1
			c-3.6-0.9-6.9-1.7-9.7-2.4C579.7,837.5,583,838.3,586.1,839.1z M561.9,833c1,0.2,2.3,0.6,4.2,1.1
			C564.3,833.6,562.9,833.2,561.9,833z M547.4,842.2c-2-0.7-3.6-1.2-4.7-1.6C543.6,841,545.2,841.5,547.4,842.2z M603.5,843.3
			C603.5,843.3,603.5,843.3,603.5,843.3c-0.1,0-0.8-0.2-1.9-0.5C602.2,843,602.8,843.1,603.5,843.3z M576.5,836.7
			c-3.9-1-7.5-1.9-10.4-2.7C568.6,834.7,572,835.6,576.5,836.7z M553.3,844.1c-2.4-0.8-4.3-1.4-5.9-1.9
			C549.1,842.7,551.1,843.4,553.3,844.1z M478,577.2c-5.1,19.7-9.4,38.4-14,55.9c-11.5,47.1-6.4,92.3,14.8,132.3
			c21.1,39.6,58.1,74.1,108.7,89.2c50.2,14.7,100,8.8,142.8-14.5c42.5-23.2,77.9-63.9,91.7-117.3c5.1-19.7,9.4-38.4,14-55.9
			c11.5-47.1,6.4-92.2-14.8-132.3c-21.1-39.6-58.1-74.1-108.7-89.2c-50.2-14.7-100-8.8-142.8,14.5
			C527.2,483.1,491.8,523.8,478,577.2z M552.6,837C550.1,836.3,550.4,836.4,552.6,837L552.6,837z M583.4,845.7
			c2.9,0.8,6,1.6,9.3,2.5C590.5,847.7,587.2,846.8,583.4,845.7z M829.9,661.4c-3.9,17.1-7.6,35.2-12,54.3
			C792.5,819.3,691.1,875,595.8,849.1c-49-13-85.8-45.1-107.5-82.8c-21.7-38.1-28.2-82-18.2-127.7c3.9-17.1,7.6-35.2,12-54.2
			C507.5,480.7,608.9,425,704.2,450.9c49,13.1,85.8,45.1,107.5,82.8C833.4,571.8,839.9,615.7,829.9,661.4z M625.9,254.7
			C540,312.4,478.8,375.4,429.5,427.2c-50,51.6-88.1,92.2-144.5,100.1c-37.9,6.9-70.8,20.7-88.2,52.1c-16.7,30.7-18,78.9,23.1,139.9
			c87.8,131.9,183.2,206.3,217.2,286.9c16.7,37.3,45.4,64.2,85.4,74.9c39.9,10.2,91.2,4.3,151.7-35.8
			c85.9-57.7,147.1-120.6,196.4-172.5c50-51.6,88.1-92.2,144.5-100.1c37.9-6.9,70.8-20.8,88.2-52.1c16.7-30.7,18-78.9-23.1-139.9
			c-87.8-131.9-183.2-206.3-217.2-286.9c-16.7-37.3-45.4-64.2-85.4-74.9C737.6,208.6,686.3,214.5,625.9,254.7z M1003.1,759.1
			c-51,11.2-86,50.7-131.3,100.4c-44.7,49.9-99.7,110.2-177.1,166.8c-58.8,42.5-110.9,50.6-151.8,42c-41.1-9-71.2-34.7-90.1-71.1
			C417,924.5,328.3,857.8,243.2,740.6c-43.4-59.2-44.7-108.5-30-140.8c15.4-33.1,46.9-49.2,83.7-58.9c51-11.2,86-50.7,131.3-100.4
			c44.7-49.9,99.7-110.2,177.1-166.8c58.8-42.5,110.9-50.6,151.8-42c41.1,9,71.2,34.7,90.1,71.2c35.7,72.7,124.4,139.4,209.5,256.6
			c43.4,59.2,44.7,108.5,30,140.9C1071.4,733.3,1039.9,749.4,1003.1,759.1z M502.1,414c-57.7,77-84.5,148.6-124.8,190.9
			c-27.1,30.2-45.2,63-44.3,105.1c1.1,41.1,21.2,91.5,75,132.3c48.4,36.7,92.3,62.9,124.7,90.2c36.2,28.9,78,43.3,125.3,38.2
			c46.6-5.3,98.7-30.2,139.7-84.6c57.7-77,84.5-148.5,124.8-190.8c27.1-30.2,45.2-63,44.3-105.2c-1.1-41.1-21.2-91.5-75-132.3
			c-48.4-36.7-92.3-62.9-124.8-90.2c-36.2-28.9-78-43.3-125.3-38.2C595.3,334.7,543.2,359.5,502.1,414z M912.1,690.4
			c-34,41.4-57.9,105.6-105.4,175.5c-38,55.5-89.3,82.7-136.4,90.2c-47.8,7.3-91.5-5.1-130.1-32.8c-29.7-22.4-67.6-44.2-109.4-73.2
			c-54.5-37.8-77.1-87.5-80.6-129.3c-3.4-42.9,12.3-78.1,37.9-111.1c34-41.4,57.9-105.6,105.4-175.5c38-55.5,89.3-82.8,136.4-90.3
			c47.8-7.3,91.5,5.1,130.1,32.8c29.7,22.3,67.6,44.2,109.4,73.2c54.5,37.8,77.1,87.5,80.6,129.4
			C953.3,622.2,937.6,657.3,912.1,690.4z M93.8,79.5c-35.4-8.1-67.6,1.4-93.2,10.7c0,7.6,0,15.3,0,22.9c26.8-8.8,60.9-17,98.5-6.8
			c171.7,49.1,318.4,35.3,483.1,12.5c163.7-23.7,345.5-56.4,564.1-67c59.9-2.8,107.8,21.2,153,62.1c0-8.2,0-16.4,0-24.6
			c-39.3-25.9-77.8-40.3-124-39.1C723,62.2,449.2,164.6,93.8,79.5z M3,0.6c-0.8,0.5-1.6,1-2.4,1.6c0,7.1,0,14.3,0,21.4
			c15.6-9.1,33.8-18.4,53.6-23C37.2,0.6,20.1,0.6,3,0.6z M1188.5,1140.4c-159.3-55.6-287.6-28.5-441.5,5.4
			c-151.7,35.8-328.9,78.3-535.8,96.8c-50.2,4.2-86.4-8.6-121.6-33.4c-33.4-24.7-65.8-61.5-69-103.4C16.3,1037.8,8.5,969,0.6,898.4
			c0,82.4,0,164.8,0,247.2c17.9,32.2,47.7,58.5,78,76.2c31.2,17.7,62.8,26.8,103.8,24c212.5-14.6,392.5-52.2,550.4-82.3
			c159.5-28.6,296.8-49.8,462.2,3.4c40.2,12.2,76.4,5,104.4-4c0-8.2,0-16.4,0-24.6C1270.2,1148.3,1231.5,1154.6,1188.5,1140.4z
			 M1117.6,54.2C905.1,68.7,725,106.3,567.2,136.5C407.7,165.1,270.4,186.2,105,133c-40.1-12.3-76.3-5-104.4,4c0,8.2,0,16.4,0,24.7
			c29.2-9.9,67.9-16.3,110.9-2.1c159.3,55.6,287.6,28.5,441.5-5.4c151.7-35.8,328.9-78.3,535.8-96.8c50.2-4.2,86.4,8.6,121.6,33.4
			c33.4,24.7,65.8,61.5,69,103.4c4.4,67.9,12.2,136.7,20.1,207.3c0-82.4,0-164.7,0-247.1c-17.8-32.2-47.7-58.5-78-76.2
			C1190.3,60.5,1158.6,51.4,1117.6,54.2z M1174,1088.1c-147.2-56.1-259.2-20.3-401,22.5c-139,44.9-307.7,96.7-504.1,122.9
			c-53.4,6.9-89.4-5.2-122.6-29.2c-31.6-24.1-60.6-60-62.5-102C77.2,937,27.1,762.2,0.6,565.1c0,41.9,0,83.8,0,125.7
			c19.1,146.5,45.7,282.1,52.2,413.7c2.5,42,33,78.3,65.5,102.7c34.1,24.4,70,36.9,121.8,31.4c201.6-22.3,375-69.6,520.4-110.3
			c147.9-38.6,267.9-70.6,421.1-14.1c46.2,15.9,87.7,10.3,117.9-1.7c0-9.1,0-18.3,0-27.4C1268.6,1100.5,1223.9,1105.6,1174,1088.1z
			 M1266.4,51c4.3,0.3,8.6,0.6,13,0.9c-2.2-0.2-4.3-0.4-6.5-0.5C1270.7,51.2,1268.5,51.1,1266.4,51z M1297,1299.4
			c0.8-0.5,1.6-1,2.4-1.6c0-7.2,0-14.3,0-21.5c-15.6,9.1-33.8,18.4-53.7,23C1262.8,1299.4,1279.9,1299.4,1297,1299.4z M153.6,1248.2
			c-59.9,2.8-107.8-21.2-153-62.1c0,8.2,0,16.4,0,24.6c39.3,25.9,77.8,40.3,124,39.1c452.4-12,726.2-114.5,1081.6-29.3
			c35.4,8.1,67.6-1.4,93.2-10.7c0-7.6,0-15.3,0-22.9c-26.8,8.8-60.9,17-98.5,6.8c-171.7-49.1-318.4-35.2-483.1-12.5
			C554,1205,372.2,1237.6,153.6,1248.2z M943.8,87.1c-179.9,37.5-330.5,100.5-449.8,154.4c-122.2,52-213.3,94.9-342.4,46.3
			c-35-12.8-66.8-14.2-93.9-9.1c-26.8,5.7-49,18-57.2,48.1c0,17.2,0,34.3,0,51.5c22.6,137.8,58.9,273,96,390.4
			c36.2,118.9,73.2,220,74.7,323c1.4,42,26.7,76.9,57.2,99.7c32,22.6,69.3,33.3,127.6,21.4c179.9-37.5,330.5-100.5,449.8-154.4
			c122.2-52,213.3-94.9,342.4-46.3c35,12.8,66.8,14.2,93.9,9.1c26.8-5.7,49-17.9,57.2-48.1c0-17.2,0-34.4,0-51.6
			c-22.6-137.8-58.9-273-96-390.4c-36.2-118.9-73.2-219.9-74.7-323c-1.5-42-26.7-76.8-57.2-99.7C1039.5,85.8,1002.2,75.1,943.8,87.1
			z M1138.8,987.9c-123-44.6-207.9-0.5-323.5,53.5c-112.7,55.8-256.1,121.6-430,162.6c-59.8,13.9-98,3.9-129.9-18.2
			c-30.6-22.4-55-56.8-56.7-98.8c-1.8-97.6-40.4-192.1-79.5-305.1c-40-111.6-80.5-241.6-107.2-377.3c-11.2-58.3,9.7-83.3,38.8-95.8
			c29.9-11.6,68-10.8,110.5,3.3c123,44.6,207.9,0.5,323.5-53.6C597.5,202.7,740.9,137,914.7,96c59.8-14,98-3.9,129.9,18.2
			c30.6,22.4,55,56.8,56.8,98.8c1.8,97.6,40.4,192.1,79.5,305.1c40,111.6,80.5,241.6,107.2,377.3c11.2,58.3-9.7,83.3-38.8,95.8
			C1219.3,1002.7,1181.3,1001.9,1138.8,987.9z M1060,61.5c-201.6,22.3-375,69.6-520.4,110.3c-147.9,38.6-267.9,70.6-421.1,14.1
			C72.2,170,30.8,175.6,0.6,187.6c0,9.1,0,18.3,0,27.4c30.8-15.5,75.5-20.6,125.4-3C273.2,268,385.2,232.2,527,189.5
			c139-44.9,307.7-96.7,504.1-122.9c53.4-6.9,89.4,5.2,122.6,29.2c31.6,24,60.6,60,62.6,102c6.6,165.3,56.7,340.1,83.2,537.2
			c0-41.9,0-83.8,0-125.7c-19.1-146.5-45.7-282.1-52.2-413.6c-2.4-42-33-78.3-65.5-102.7C1147.7,68.5,1111.7,56,1060,61.5z
			 M486.5,591.1c-3.7,18.4-6.8,35.9-10.2,52.5c-8.5,44.4-0.8,86.8,21.3,123c22,35.9,58.5,65.5,105.8,76.7c0,0,0,0,0,0c0,0,0,0,0.1,0
			c92.3,22.3,188.6-34.5,210-134.4c3.7-18.4,6.8-35.9,10.2-52.5c8.5-44.4,0.8-86.9-21.4-123.1c-22.1-35.9-58.6-65.5-105.9-76.6
			C604.2,434.4,507.9,491.2,486.5,591.1z M817.4,651.8c-2.8,16.1-5.4,33.1-8.4,50.7c-17.8,96.2-108.9,153.7-198.1,134.8
			C519,816.7,468,732.6,482.6,648.3c2.8-16.1,5.4-33.1,8.4-50.8c17.8-96.2,108.9-153.7,198.1-134.8C781,483.3,832,567.4,817.4,651.8
			z M828.5,128.4c-153.2,50.2-273.6,121.1-367.2,179.9c-95.9,57.5-164.8,103-269.3,73c-42.6-10.8-81-10.2-109.5,6.1
			c-27.6,16.7-45.5,49-26.2,112.5C93.6,621.5,142.5,730.2,187,821.6c43.9,92.5,83.4,167.7,88.3,248c3.7,41.5,26.8,74.6,58.7,95.1
			c32.9,20,74.5,27.4,137.6,6.9c153.2-50.2,273.6-121.1,367.2-179.9c95.9-57.5,164.8-103,269.3-73c42.6,10.8,81,10.2,109.5-6.1
			c27.6-16.7,45.4-49,26.2-112.5c-37.3-121.7-86.2-230.4-130.7-321.8c-43.9-92.5-83.4-167.7-88.2-248c-3.7-41.5-26.8-74.6-58.7-95.1
			C933.2,115.2,891.6,107.9,828.5,128.4z M1097,897.2c-98.2-24.7-162.5,20.7-252,78.6c-87.4,59-200,130.4-345.4,183.1
			c-63.8,22.9-106.7,16.7-140.2-2.4c-32.6-19.6-55.8-52.3-60.6-93.5c-6.3-74.8-45.5-144.3-90-230.2c-45-84.9-95.3-186.2-135.3-301.8
			c-22.1-64.4-5.8-99.2,21.1-117.5c27.7-18,65.9-19.6,108.4-10.5c98.2,24.7,162.5-20.7,252-78.6c87.4-59,200-130.4,345.4-183.1
			c63.8-22.9,106.7-16.7,140.2,2.4c32.6,19.6,55.8,52.3,60.6,93.5c6.3,74.8,45.5,144.3,90,230.2c45,84.9,95.3,186.2,135.3,301.9
			c22.1,64.5,5.8,99.2-21.1,117.6C1177.7,904.8,1139.5,906.4,1097,897.2z M720,185.1C599.4,242.7,510.1,313,440.2,370.4
			c-71.3,56.9-123.2,100.9-202.9,91.7c-41.2-3.2-78.1,2.6-102.3,26.4c-23.4,23.6-34.1,65.1-3.5,130.3
			c44.9,94.9,96,174.2,140.2,240.6c44,67.1,81.2,121.4,92.4,180.8c9,40,33.5,70.6,68.9,87.2c35.9,16,82.8,17.8,147-12.6
			c120.6-57.6,209.9-127.9,279.8-185.4c71.3-56.9,123.2-100.9,202.9-91.7c41.2,3.2,78.1-2.6,102.3-26.4
			c23.4-23.6,34.2-65.1,3.5-130.3c-44.9-94.9-96-174.2-140.2-240.6c-44-67.1-81.2-121.4-92.4-180.8c-9-40-33.4-70.7-68.9-87.2
			C831.1,156.5,784.2,154.7,720,185.1z M1050.9,820c-73.6-4.4-121.8,38.9-187.5,94.8c-64.4,56.4-146.3,125.4-258.2,183.7
			c-63.7,32.9-111.9,32.8-148.7,18.1c-36.6-15.2-61.8-45.1-72.5-84.5c-12.8-54.6-49.1-104.4-92.2-165.6
			c-43.3-60.7-93.5-133-139.1-220.4c-33.4-64.7-24.9-108.2-2.9-133.6c22.7-25.7,58.8-33.4,99.4-32.5c73.6,4.4,121.8-38.9,187.5-94.9
			c64.4-56.4,146.3-125.4,258.2-183.7c63.7-32.9,111.9-32.8,148.7-18.1c36.6,15.2,61.8,45.1,72.5,84.5
			c12.8,54.6,49.1,104.4,92.2,165.6c43.3,60.7,93.5,133,139.1,220.4c33.5,64.7,24.9,108.2,2.9,133.6
			C1127.6,813.2,1091.5,820.8,1050.9,820z M772.9,154.9C635.5,209.6,530.7,281.2,449.4,340c-83.3,57.9-143.2,102.9-235.2,83.6
			c-42.2-7.4-80.1-4.6-106.8,15.3c-25.8,20-40.5,57.2-15.6,122.2c42.2,109.1,93.3,203,138.4,281.6c44.7,79.4,83.4,143.5,91.4,213.1
			c6,40.9,29.4,72.9,62.9,91.6c34.2,18.2,78.4,23.1,142.7-2.3c137.4-54.7,242.2-126.3,323.5-185.1c83.3-57.9,143.2-102.9,235.2-83.5
			c42.2,7.4,80.1,4.6,106.8-15.3c25.8-20.1,40.5-57.2,15.5-122.3c-42.2-109.1-93.3-203-138.4-281.5
			c-44.7-79.4-83.4-143.5-91.4-213.1c-6-40.9-29.4-72.9-62.9-91.6C881.4,134.4,837.1,129.5,772.9,154.9z M1074.4,856.7
			c-85.8-14.2-141.6,30.4-218.8,88C780,1002.9,683.1,1074,554,1130.4c-64.3,27.8-109.9,24.4-145,7.3c-34.4-17.7-58.3-49.1-65.7-89.5
			c-9.6-64.4-47.6-123.5-92.1-196.6c-44.8-72.4-96.1-158.9-140-261c-27.8-65.3-15-104.7,9.7-126.5c25.6-21.8,63-26,104.8-20.6
			c85.8,14.2,141.6-30.4,218.8-88C520,297.1,616.9,226,746,169.6c64.4-27.9,110-24.5,145-7.3c34.4,17.7,58.3,49.1,65.7,89.5
			c9.6,64.4,47.6,123.5,92.1,196.6c44.8,72.4,96.1,158.9,140,261.1c27.8,65.3,15,104.7-9.7,126.5
			C1153.6,857.8,1116.1,862.1,1074.4,856.7z M1157.3,1037.1c-135.2-52-232.7-10.8-361.6,38.6c-125.9,51.5-283.1,111.2-468.7,145
			c-56.7,10.1-93.4-1.1-125.6-24.2c-30.7-23.3-57-58.5-58.4-100.5c-1.5-99.8-31.3-198.5-61.1-310.5C51.4,674.4,20.7,549.9,0.6,422
			c0,19.8,0,39.6,0,59.4c17.3,115.1,42,226.2,65.7,328.2c23.3,102.6,45.6,196.1,47.6,289.9c1.6,42,29.1,77.6,60.2,101.3
			c32.6,23.6,68.8,35.3,123.9,26.8c191.1-30,354.4-86,486.8-134.5c135.4-46.3,239.9-85.2,381.1-30.7c27.4,10.5,52.8,12.7,75.6,11.3
			c22.7-1.7,42.9-7,57.9-18.9c0-11.5,0-23,0-34.5c-13.6,17.6-34.8,24.9-59.3,27.8C1215.5,1050.5,1187.6,1048.6,1157.3,1037.1z
			 M670.7,218.5c-103.2,58.6-177.9,125.9-237.1,181c-60.2,54.7-104.9,97.2-172.6,97.3c-39.8,1.6-75,11.2-96.1,38.8
			c-20.3,27.2-26.6,72.5,9.5,136.3c45.6,80,94.6,145.4,136.7,200.6c42,55.7,77.2,101.1,91.5,151.1c12.6,38.8,38.8,67.7,76.5,81.6
			c37.9,13.3,87.2,11.5,150.1-23.9c103.2-58.6,177.9-125.9,237.1-181c60.2-54.7,104.9-97.2,172.6-97.3c39.8-1.6,75-11.2,96.1-38.8
			c20.3-27.2,26.6-72.5-9.5-136.3c-45.6-80-94.6-145.4-136.7-200.7c-42-55.7-77.2-101.1-91.5-151.1c-12.6-38.8-38.8-67.7-76.5-81.6
			C783,181.4,733.6,183.2,670.7,218.5z M1027,787.3c-62,4.2-103.3,45.8-158.3,99.1c-54.1,53.6-122,118.8-216.4,177.2
			c-61.8,37.8-112.2,41.6-151.1,29.8c-38.8-12.4-66.2-40.3-80.8-78.4c-15.6-45.5-49.6-86.9-90.2-137.2
			c-40.7-50-88.1-108.9-133.2-181.4C158.2,633.8,162,587,180.6,558c19.3-29.5,53.4-41.2,92.3-45.4c62-4.2,103.3-45.8,158.3-99.1
			c54.1-53.6,122-118.8,216.5-177.2c61.8-37.8,112.2-41.6,151.1-29.8c38.8,12.4,66.2,40.4,80.8,78.4c15.6,45.5,49.6,86.9,90.2,137.2
			c40.7,50,88.1,108.9,133.2,181.4c38.7,62.6,34.9,109.5,16.3,138.4C1100.1,771.5,1065.9,783.2,1027,787.3z M1002,72.4
			c-191.1,30-354.4,86-486.8,134.5c-135.4,46.3-239.9,85.2-381.1,30.7c-27.4-10.5-52.8-12.7-75.6-11.3c-22.7,1.7-42.9,7-57.9,18.9
			c0,11.5,0,23,0,34.5c13.6-17.6,34.8-24.9,59.3-27.9c24.6-2.5,52.5-0.5,82.8,11c135.2,52,232.7,10.8,361.6-38.6
			c125.9-51.5,283-111.2,468.7-145c56.7-10.2,93.4,1.1,125.6,24.2c30.7,23.3,57,58.5,58.4,100.5c1.5,99.8,31.2,198.5,61.1,310.6
			c30.6,111.1,61.3,235.5,81.3,363.5c0-19.8,0-39.5,0-59.3c-17.3-115.1-42-226.3-65.7-328.3c-23.3-102.6-45.6-196.1-47.6-289.9
			c-1.6-42-29.1-77.6-60.2-101.3C1093.3,75.7,1057.1,64,1002,72.4z"/>
	</g>
</g>
</svg>
