<?xml version="1.0" encoding="utf-8"?>
<!-- Generator: Adobe Illustrator 19.1.1, SVG Export Plug-In . SVG Version: 6.00 Build 0)  -->
<svg version="1.1" id="Layer_1" xmlns="http://www.w3.org/2000/svg" xmlns:xlink="http://www.w3.org/1999/xlink" x="0px" y="0px"
	 viewBox="0 0 200 200" style="enable-background:new 0 0 200 200;" xml:space="preserve">
<style type="text/css">
	.st0{fill:#FFDF00;}
	.st1{fill:#FFFFFF;}
	.st2{fill:url(#SVGID_1_);}
	.st3{fill:#CE0058;}
	.st4{enable-background:new    ;}
	.st5{fill:#512D6D;}
</style>
<g>
	<g>
		<path class="st0" d="M28.8,160.2c0,0,19.4,10.4,28.8,15s17.4,10.5,23,14.3s16.1,8.1,24.9-0.1c8.8-8.2,9.1-15.7,15.7-14.8
			c6.7,0.9,14.3,9.9,21.4,5.7c7.1-4.2,7.8-10.3,8.3-13.6s-1-8.4,8.1-11.3c9.1-2.9,21.7-5,27.3-17.1c5.6-12.2,11-26.3,7.6-40.3
			S172,78.6,168,75.5c-4.1-3.1-6.9-6.8-4.9-14.7c2-7.8,2.2-19.1-16-21.4c-18.3-2.3-32-6.3-37.1-8.6s-12.6-7.1-18-15.5
			C86.5,6.9,80.8,4.4,64.2,6.7C47.6,8.9,29,20.1,34.2,40c0,0-26.7,16-22.6,43.9c0,0-9.5,14.3-5.8,28.1s13.3,15.2,14.8,21
			s1.4,7.9,0.8,12.6C20.9,150.3,23,156.3,28.8,160.2z"/>
		<g>
			<path class="st1" d="M161.6,103.7c-0.1-0.1-0.3-0.2-0.4-0.4c-1-1.1-2.1-2.1-3-3.3c-0.8-1.1-1.6-2.3-2.1-3.6
				c-0.5-1.1-0.9-2.1-1.3-3.2c-0.4-1-0.7-2-1.1-2.9c-0.5-1.2-1-2.4-1.5-3.5c-1.2-2.8-2.8-5.5-4.6-8c-2.3-3.3-5.1-6.3-7.9-9.1
				c-2.3-2.3-4.8-4.5-7.4-6.6c-1.9-1.5-3.7-3-5.7-4.4c-2.3-1.6-4.6-3.2-7-4.7c-4.2-2.6-8.5-5.1-12.7-7.7c-2.6-1.5-5.2-2.9-8-4.1
				c-2.7-1.2-5.6-2.1-8.5-2.8c-2.7-0.6-5.4-1.1-8.1-1.3c-1.4-0.1-2.8-0.3-4.1-0.4c-1-0.1-2,0-3.1-0.1c-0.9,0-1.9,0-2.8,0
				c-0.4,0-0.9,0.1-1.3,0.1c-0.6,0-1.1,0.1-1.7,0.1c-0.1,0-0.1,0-0.2,0c-0.7,0.1-1.4,0.2-2.1,0.3c-1.3,0.1-2.5,0.4-3.8,0.6
				c-1.3,0.3-2.6,0.5-3.8,0.8c-0.9,0.2-1.8,0.5-2.6,0.8c-0.5,0.2-1.1,0.3-1.6,0.5c-0.6,0.2-1.2,0.4-1.8,0.6
				c-0.7,0.3-1.4,0.6-2.2,0.9c-1.2,0.5-2.3,1.1-3.5,1.7c-1.4,0.8-2.7,1.6-4.1,2.4c-1.7,1-3.2,2.2-4.7,3.5c-1.2,1-2.3,2.1-3.3,3.3
				c-0.8,1-1.6,2-2.4,3.1l-0.1,0.1c-0.2,0.6-0.7,0.8-1.3,1c-1,0.3-2,0.8-2.8,1.4c-1.2,0.8-2.2,1.7-3.1,2.8c-0.2,0.2-0.3,0.4-0.5,0.6
				c-1.1,1.5-1.9,3.2-2.5,4.9c-0.3,0.7-0.4,1.5-0.6,2.2c-0.1,0.6-0.4,1.1-0.8,1.6c-0.3,0.3-0.6,0.7-0.9,1c-0.1,0.1-0.2,0.2-0.4,0.4
				c0-0.4,0.1-0.7,0.1-1c0.1-1.6,0.5-3.1,1-4.6c0.6-1.9,1.5-3.8,2.9-5.3c1-1.2,2.2-2.2,3.6-2.9c0.5-0.2,0.9-0.5,1.4-0.6
				s0.9-0.4,1.4-0.6c0.5-0.2,1-0.2,1.6-0.4c0.2,0,0.3-0.1,0.5-0.1c0.2-0.1,0.3-0.3,0.2-0.5c0-0.1-0.3-0.1-0.4-0.1
				c-0.7,0-1.4,0.1-2.1,0.1c-0.6,0.1-1.2,0.2-1.8,0.3c-0.3,0.1-0.6,0.2-0.8,0.2c-1,0.2-1.9,0.5-2.8,0.9c-1.3,0.6-2.5,1.5-3.5,2.5
				s-1.8,2.2-2.5,3.4c-1,1.9-1.5,3.8-1.9,5.9c-0.2,1.2-0.4,2.5-0.5,3.7c-0.1,1.1-0.1,2.1-0.1,3.2c0,0.1,0,0.2-0.1,0.3
				c-0.4,0.7-0.9,1.3-1.4,2c0-0.4-0.1-0.8-0.1-1.1c-0.1-2.6,0-5.1,0.6-7.7c0.4-2.1,1-4.1,1.8-6c0.6-1.4,1.4-2.6,2.4-3.7
				c0.9-1,1.9-1.7,2.9-2.4c0.6-0.4,1.3-0.7,2-1c1.4-0.6,2.9-0.8,4.4-1c1.1-0.1,2.2-0.1,3.3-0.1c0.2,0,0.5,0,0.7,0
				c0.1,0,0.2-0.1,0.3-0.1c0.3-0.4,0.6-0.9,1-1.4c-1.2,0-2.2,0-3.2,0c-0.8,0-1.6,0-2.4,0.1c-0.4,0-0.8,0.1-1.1,0.1
				c-0.8,0.2-1.6,0.4-2.5,0.5c-0.8,0.1-1.5,0.6-2.3,0.8c-0.2,0.1-0.5,0.2-0.7,0.3c-1.1,0.6-2.2,1.3-3.1,2.2
				c-0.8,0.7-1.5,1.5-2.1,2.4c-0.2,0.3-0.4,0.7-0.7,1c-0.6,0.8-1,1.7-1.4,2.6c-0.4,1.1-0.9,2.3-1.3,3.4c-0.4,1.4-0.6,2.8-0.9,4.2
				c-0.3,1.5-0.4,2.9-0.5,4.4c0,0.9,0,1.9,0,2.8c0,0.8,0,1.6,0,2.4c0,0.1,0,0.2,0,0.2c0.2,0.6,0,1.1-0.4,1.6
				c-0.1,0.2-0.2,0.3-0.4,0.6c-0.1-0.3-0.1-0.5-0.2-0.6c0-0.7-0.1-1.5-0.1-2.2c0-1.1,0-2.2,0.1-3.3c0.1-2.1,0.3-4.1,0.7-6.2
				c0.4-2.4,1.1-4.7,2-6.9c0.7-1.9,1.6-3.7,2.9-5.3c0.8-1,1.7-2.1,2.8-2.8c0.6-0.4,1.1-0.8,1.6-1.2c0.8-0.5,1.7-0.9,2.6-1.3
				c0.9-0.3,1.8-0.5,2.7-0.7c1-0.3,1.9-0.3,2.9-0.3c0.7,0,1.5-0.1,2.2-0.1c0.8,0,1.6,0,2.4,0.1c0.5,0,0.9-0.1,1.1-0.6
				c0.1-0.2,0.2-0.3,0.3-0.4c0.8-0.5,0.5-1.2,0.3-1.8c-1,0-1.9-0.1-2.8-0.1c-0.4,0-0.8,0-1.2,0c-0.8,0.1-1.6,0.2-2.4,0.3
				c-0.4,0-0.8,0.1-1.3,0.1c-0.2,0-0.3,0-0.5,0.1c-0.8,0.3-1.7,0.6-2.5,0.9c0,0,0,0-0.1,0c-1.2,0.2-2.1,1-3.1,1.5
				c-0.4,0.2-0.7,0.4-1.1,0.6c-0.3,0.2-0.6,0.5-0.9,0.8c-0.5,0.5-1,0.9-1.5,1.4c-0.2,0.2-0.4,0.4-0.6,0.7c-0.4,0.6-0.9,1.1-1.4,1.6
				c0-0.1,0.1-0.2,0.1-0.3c1-1.6,2.2-2.9,3.5-4.2c0.9-0.9,2-1.5,3-2.2c1.1-0.8,2.3-1.2,3.5-1.7c0.4-0.2,0.8-0.3,1.2-0.5
				c0.2-0.1,0.5-0.2,0.8-0.2c1.2-0.2,2.4-0.3,3.5-0.5c0.9-0.2,1.8-0.1,2.7-0.1c0.2,0,0.3,0,0.5,0c0-0.1,0.1-0.1,0-0.2
				c-0.2-0.9-0.3-1.8-0.5-2.7c-0.1-0.5-0.5-0.7-1.1-0.6c-0.6,0.2-1.3,0.4-1.9,0.5c-0.5,0.1-1,0.2-1.6,0.3c-0.8,0.1-1.5,0.4-2.2,0.8
				c-1,0.5-2,1-2.9,1.5c-0.5,0.3-0.9,0.7-1.4,1.1c-0.6,0.5-1.3,1-1.9,1.5c0,0-0.1,0-0.2,0c0.2-0.3,0.4-0.6,0.6-0.8
				c1-0.9,2-1.9,3.1-2.8c0.6-0.5,1.3-0.9,2-1.3c0.3-0.2,0.6-0.3,0.8-0.5c1.3-1,2.8-1.2,4.3-1.6c0.6-0.2,1.1-0.3,1.7-0.5
				c-0.1-0.7-0.3-1.3-0.4-1.9c-0.1,0-0.2,0-0.3,0c-1,0.4-2.1,0.6-3,1.3c-0.3,0.3-0.6,0.6-1.1,0.6l0,0c0.2-0.2,0.5-0.4,0.7-0.6
				c0.6-0.4,1.2-0.9,1.9-1.3c0.4-0.3,0.9-0.4,1.4-0.6c0.1-0.1,0.3-0.2,0.4-0.3c0,0.1,0.1,0.2,0.1,0.3c0.2,0.8,0.3,1.6,0.5,2.4
				c0.2,1.1,0.5,2.2,0.8,3.2c0.2,0.6,0.3,1.3,0.5,1.9c0.4,0.8,0.5,1.7,0.7,2.6c0.1-0.1,0.3-0.1,0.4-0.2c1.4-1.6,3-3,4.8-4.2
				c1.2-0.9,2.5-1.7,3.7-2.4c1.7-0.9,3.4-1.8,5.1-2.6c1.2-0.6,2.4-1,3.7-1.4c1.1-0.4,2.1-0.8,3.2-1.1c1.2-0.3,2.4-0.6,3.6-0.9
				c0.6-0.1,1.2-0.3,1.9-0.4c1.3-0.2,2.7-0.5,4-0.7c1.1-0.1,2.2-0.2,3.3-0.2c1.2-0.1,2.3-0.2,3.5-0.2c1.3,0,2.6,0,3.8,0
				c1.4,0,2.7,0.1,4.1,0.2c1.8,0.1,3.7,0.3,5.5,0.5c3.9,0.5,7.7,1.4,11.4,2.7c2.4,0.9,4.7,1.9,6.9,3.2c2.8,1.6,5.7,3.2,8.5,4.9
				c4,2.4,8,4.9,11.8,7.6c0.1,0.1,0.2,0.1,0.2,0.2c2.6,1.9,5.2,3.8,7.7,5.8c2.4,2,4.7,4,6.9,6.2c3.5,3.4,6.7,7.1,9.4,11.2
				c1.1,1.7,2,3.4,2.8,5.2c0.6,1.3,1.1,2.6,1.6,4c0.4,1.2,0.7,2.5,1.1,3.7c0.4,1.2,0.8,2.4,1.2,3.7c0.3,0.8,0.6,1.6,1,2.4
				c0.6,1.3,1.4,2.4,2.3,3.5c0.8,0.9,1.7,1.7,2.6,2.6c-0.1,0-0.3,0-0.3,0"/>
			<path class="st1" d="M160.4,104.1c0.6,0.6,1.3,1.2,1.9,1.8c1,1,2,2,3,3c1.8,1.8,3.6,3.8,5,5.9c0.9,1.3,1.7,2.7,2.3,4.1
				c0.2,0.6,0.4,1.2,0.6,1.9c0.5,1.4,0.6,2.8,0.5,4.2c-0.1,1.8-0.5,3.5-1.3,5c-1,2.1-2.4,3.8-4.1,5.2c-1.7,1.4-3.6,2.5-5.6,3.4
				c-1.2,0.5-2.5,1-3.7,1.4c-0.8,0.3-1.7,0.5-2.5,0.7c-4.1,0.9-8.3,1.5-12.4,2.7c-0.5,0.1-1,0.3-1.5,0.5c-0.3,0.1-0.6,0.2-0.9,0.4
				c-0.6,0.3-1.1,0.6-1.7,0.9c-0.9,0.5-1.6,1.1-2.3,1.8c-1.3,1.3-2.3,2.8-3.3,4.4c-1,1.7-2,3.4-3.1,5c-1.1,1.7-2.5,3.1-4.1,4.3
				c-1,0.7-2.1,1.2-3.2,1.6c-1.2,0.3-2.4,0.6-3.7,0.6c-0.8,0-1.6,0-2.4,0c-0.6,0-1.2,0-1.8,0c-0.5,0-1.1,0-1.6,0s-1.1,0-1.6,0.1
				c-0.9,0.2-1.8,0.3-2.6,0.6c-0.7,0.3-1.5,0.6-2.1,1c-1.7,1-3.2,2.2-4.7,3.4c-1.4,1.1-2.8,2.1-4.3,3c-1.4,0.8-2.9,1.6-4.5,2
				c-1.5,0.5-3,0.7-4.5,0.8c-1.6,0.1-3.2,0-4.9-0.3c-3.1-0.5-6.1-1.4-9-2.4c-0.7-0.2-1.5-0.5-2.2-0.7c-1.3-0.4-2.6-0.8-4-1.3
				c-1.5-0.5-3.1-1.1-4.6-1.7c-1.7-0.6-3.4-1.3-5-2s-3.3-1.3-4.9-2c-1.2-0.5-2.4-1-3.6-1.6c-0.9-0.4-1.8-0.8-2.6-1.2
				c-0.7-0.3-1.3-0.7-2-1c-0.6-0.4-1.2-0.8-1.9-1.1c-1.4-0.6-2.5-1.6-3.7-2.5c-0.9-0.7-1.6-1.5-2.4-2.3c-1.3-1.3-2.3-2.8-3.2-4.4
				c-0.4-0.8-0.9-1.7-1.2-2.6c-0.2-0.7-0.5-1.3-0.7-1.9c-0.2-0.7-0.4-1.4-0.5-2.2c-0.2-1.1-0.4-2.2-0.6-3.3
				c-0.2-1.1-0.4-2.2-0.7-3.3c-0.1-0.4-0.2-0.8-0.3-1.3c-0.2-0.7-0.4-1.4-0.6-2c0-0.1,0-0.1-0.1-0.2c-0.2-0.5-0.4-0.9-0.6-1.4
				c-0.3-0.6-0.5-1.3-0.7-1.9c-0.3-0.6-0.5-1.2-0.8-1.9c-0.3-0.7-0.5-1.4-0.8-2.1c-0.5-1-0.8-2.1-1-3.1c-0.4-1.3-0.7-2.6-0.9-4
				c-0.3-1.8-0.4-3.6-0.4-5.4c0-2.4,0.2-4.8,0.5-7.1c0.3-2.5,0.5-4.9,0.7-7.4c0.1-1.5,0.2-3,0.1-4.6c0-0.9,0-1.9,0-2.8
				c0-0.3,0-0.7,0-1c0-0.7-0.1-1.4-0.1-2.2c0-0.7,0-1.5,0-2.2c0-0.6-0.1-1.3-0.1-1.9c0-0.9,0-1.7,0.1-2.6c0.1-1.1,0.1-2.1,0.2-3.2
				s0.3-2.2,0.5-3.3c0.3-1.4,0.6-2.8,1.1-4.2c0.5-1.2,0.9-2.4,1.5-3.5c1.4-2.8,3.2-5.3,5.3-7.6c3.3-3.7,7.1-6.7,11.2-9.2
				c2.9-1.8,6-3.3,9.2-4.4c1.5-0.5,3-1.1,4.5-1.5c3.3-0.9,6.7-1.4,10.2-1.5c1.7,0,3.4-0.1,5,0c2.7,0.2,5.4,0.5,8.1,1.1
				c4.5,0.9,8.8,2.4,12.9,4.3c3,1.4,6,3,9,4.6c3.3,1.8,6.6,3.5,9.9,5.4c2.9,1.6,5.7,3.4,8.4,5.3c1,0.7,2.1,1.4,3,2.2
				c1.9,1.5,3.8,3.1,5.7,4.7c2.8,2.3,5.3,4.9,7.7,7.5c3.1,3.4,5.7,7,8.1,10.9c0.6,1.1,1.3,2.2,1.9,3.2c0.8,1.3,1.6,2.7,2.5,4
				c0.7,1.1,1.5,2.1,2.4,3.2c0.6,0.7,1.2,1.4,1.8,2.1c0.6,0.6,1.2,1.3,1.8,1.9c0.3,0.3,0.5,0.5,0.6,0.6c0.1-0.2,0.4-0.2,0.3-0.2
				c-0.4-0.4-0.8-0.8-1.3-1.2c-2.2-2.2-4.1-4.7-5.6-7.5c-1-1.9-2-3.9-3-5.8c-1.4-2.7-3-5.2-4.8-7.6c-1.9-2.5-4-4.9-6.2-7.2
				c-1.9-1.9-3.8-3.8-5.9-5.5c-1.5-1.3-3-2.5-4.6-3.8c-1.2-1-2.5-1.8-3.7-2.7c-0.2-0.1-0.4-0.2-0.6-0.4c-0.3-0.2-0.6-0.5-1-0.8
				c-3.9-2.7-7.9-5-12-7.3c-2.8-1.6-5.6-3.1-8.3-4.7c-2.7-1.5-5.5-2.9-8.3-4.1c-4-1.6-8-2.8-12.3-3.4c-2.4-0.4-4.8-0.7-7.3-0.7
				c-2,0-3.9-0.1-5.9,0.1c-1.7,0.1-3.4,0.4-5.1,0.7c-1.5,0.2-2.9,0.6-4.4,0.9c-1.2,0.3-2.5,0.7-3.7,1.2c-1.1,0.4-2.2,0.7-3.2,1.2
				c-2.7,1.2-5.3,2.5-7.8,4.1c-2.1,1.4-4.2,2.9-6.1,4.6c-2.3,2-4.3,4.2-6.1,6.6c-1.4,1.9-2.6,4-3.6,6.1c-0.8,1.7-1.3,3.5-1.8,5.3
				c-0.2,0.8-0.4,1.7-0.5,2.5c-0.2,1.4-0.3,2.8-0.5,4.2c0,0.2-0.1,0.6-0.1,0.6c-0.5,0.1-0.5,0.5-0.7,0.8c-1.2,1.6-2.3,3.3-3.4,4.9
				c-1.5,2.1-3,4.2-4.5,6.3c-1.2,1.6-2.4,3.3-3.5,4.9c-1.5,2.4-3,4.8-4.2,7.5c-0.5,1.1-1,2.3-1.4,3.5c-0.6,1.9-1,3.8-1,5.7
				c0,0.6-0.1,1.2,0,1.8c0.3,1.8,0.6,3.6,1.4,5.2c0.3,0.5,0.5,1,0.8,1.6s0.7,1.1,1,1.7c0.1,0.2,0.2,0.2,0.5,0.2l0,0
				c0,0-0.1,0-0.1-0.1c-0.5-0.9-1.1-1.7-1.5-2.6c-0.3-0.8-0.7-1.5-0.8-2.4c0-0.3-0.2-0.6-0.3-0.9c-0.1-0.2-0.1-0.5-0.1-0.7
				s0-0.3,0-0.5c0-0.5-0.1-1-0.2-1.5c0-0.8-0.1-1.7,0-2.5c0.2-1.1,0.3-2.2,0.7-3.2c0.5-1.6,1.1-3.2,1.9-4.7c0.6-1.2,1.3-2.3,1.9-3.5
				c1-1.9,2.2-3.6,3.5-5.3c0.6-0.8,1.1-1.5,1.7-2.3c1.4-1.9,2.8-3.8,4.1-5.8c1.5-2.1,2.9-4.2,4.4-6.4c0,1.5,0,3,0,4.5
				c-0.1-0.1-0.2-0.1-0.3-0.2c-0.3,0.4-0.5,0.8-0.8,1.2c-1.1,1.7-2.3,3.4-3.5,5.1c-0.9,1.3-2,2.6-2.9,3.9c-1.1,1.5-2.2,3-3.3,4.5
				c-1,1.4-1.9,2.8-2.9,4.2c0,0.1-0.1,0.1-0.1,0.2c-0.6,1.3-1.3,2.5-1.8,3.8c-0.5,1.2-0.9,2.4-1.2,3.7c-0.2,1.2-0.4,2.4-0.3,3.6
				c0.1,0.9,0.1,1.8,0.3,2.7c0.2,0.7,0.4,1.3,0.6,2c0.1,0.4,0.2,0.8,0.4,1.1c0.4,0.7,0.8,1.4,1.2,2.1c0.5,0.8,1.2,1.5,1.6,2.4
				l0.1,0.1c0.3,0.3,0.5,0.5,0.8,0.7c0.4,0.4,0.7,1,1.3,1.2l0,0c0-0.1,0-0.2-0.1-0.3c-0.3-0.3-0.5-0.7-0.8-0.9c-1-1-1.8-2.2-2.5-3.4
				c-0.5-0.8-0.9-1.6-1.2-2.4c-0.2-0.6-0.5-1.2-0.6-1.9c-0.2-0.9-0.3-1.8-0.4-2.7c0,0,0,0,0-0.1c0.2-1,0-2,0.2-3
				c0.3-1.3,0.6-2.6,1.1-3.9c0.4-1.2,1-2.3,1.6-3.4c1-1.8,2.1-3.5,3.4-5.1c0.5-0.6,0.9-1.3,1.4-1.9c0.4-0.6,0.9-1.2,1.3-1.7
				c0.5-0.7,1.1-1.4,1.6-2.1c0.6-0.8,1.2-1.7,1.8-2.5c0.7-1,1.4-1.9,2-2.9s1.4-1.9,1.9-3c0,0.2,0,0.4,0,0.7c0,0.6,0.1,1.3,0.1,1.9
				c0,1.1,0,2.2-0.1,3.2c-0.1,1.5-0.2,2.9-0.3,4.4c-0.3,2.6-0.7,5.1-1.2,7.7c-0.5,2.5-0.9,5-1,7.6c-0.1,1.4-0.1,2.8,0,4.2
				c0.1,1.3,0.4,2.5,0.6,3.8c0.3,1.7,0.8,3.2,1.4,4.8c0.8,1.8,1.6,3.6,2.5,5.4c0.9,1.8,1.7,3.6,2.2,5.5c0.3,1.1,0.5,2.3,0.8,3.5
				c0.5,2.2,0.6,4.5,1.3,6.7c0.6,2,1.3,3.9,2.4,5.6c1.5,2.4,3.3,4.3,5.6,6c2.7,2,5.7,3.6,8.7,5c2.2,1,4.5,2,6.8,3c3,1.3,6,2.6,9,3.8
				c3.7,1.5,7.4,2.9,11.2,4.3c3,1.1,6,2.1,9.1,2.7c2.3,0.4,4.7,0.4,7,0c1.6-0.3,3.1-0.8,4.6-1.5c1.9-1,3.7-2.1,5.3-3.5
				c1.2-1,2.4-2,3.6-3c0.9-0.7,1.8-1.4,2.7-2.1c1.7-1.2,3.7-1.7,5.8-1.7c1.3,0,2.5,0.2,3.8,0.3c1.4,0.2,2.7,0.3,4.1,0.2
				c1.5,0,2.9-0.3,4.3-0.9c2.6-1.1,4.6-2.9,6.1-5.2c1.2-1.7,2.2-3.6,3.1-5.5c0.9-1.6,1.7-3.2,2.9-4.7c1.6-2.1,3.6-3.4,6-4.3
				c1.3-0.4,2.6-0.8,3.9-1.1c1.2-0.3,2.3-0.4,3.5-0.6c2.6-0.5,5.2-1.1,7.8-1.7c1.4-0.3,2.8-0.8,4.2-1.4c0.7-0.3,1.5-0.6,2.2-0.9
				c1.3-0.7,2.6-1.4,3.7-2.4c0.8-0.7,1.6-1.4,2.3-2.2c1.1-1.3,2.1-2.8,2.7-4.5c0.7-2,0.9-4.1,0.7-6.2c-0.2-1.9-0.9-3.7-1.8-5.3
				c-1.1-2-2.4-3.7-3.9-5.3c-1.5-1.6-3.1-3.1-4.7-4.6c-1.3-1.2-2.6-2.4-3.9-3.5l-1.1-1.1l-0.4,0.2L160.4,104.1z"/>
			<path class="st1" d="M163.6,104.1c-0.7-0.6-1.1-1.4-1.6-2c-0.2-0.2-0.3-0.5-0.4-0.8c-0.5-1-0.8-2-0.9-3c-0.1-0.8-0.3-1.7-0.2-2.5
				c0-0.7-0.1-1.4-0.1-2c0-0.3,0-0.7,0-1c0-0.9-0.1-1.7-0.1-2.6c0-0.8-0.1-1.7-0.2-2.5c-0.1-1.8-0.6-3.5-0.9-5.3
				c-0.1-0.7-0.4-1.3-0.7-1.9c-0.1-0.3-0.2-0.7-0.4-1c-0.6-1.6-1.3-3-2.1-4.5c-1.6-2.9-3.6-5.6-5.7-8.2c-2.3-2.7-4.7-5.2-7.2-7.6
				c-1.8-1.6-3.5-3.2-5.4-4.8c-1.8-1.5-3.6-2.9-5.5-4.4c-2.9-2.2-5.9-4.2-8.9-6.1c-1.7-1.1-3.4-2.1-5.2-3.1
				c-2.1-1.1-4.2-2.2-6.4-3.1c-1.9-0.7-3.8-1.4-5.8-1.8c-1.3-0.2-2.5-0.5-3.8-0.7c-1.2-0.2-2.4-0.2-3.6-0.3s-2.4-0.1-3.6-0.1
				c-1,0-1.9-0.1-2.9,0.1l-0.1-0.1l0,0c0.8-0.2,1.6-0.2,2.5-0.2c0.7,0,1.4-0.1,2.1-0.1s1.3,0,2,0c1,0,2,0,3.1,0.1
				c1.3,0.1,2.6,0.2,3.8,0.4c1.3,0.2,2.6,0.4,3.8,0.8c1.3,0.3,2.6,0.8,3.9,1.2c2.3,0.8,4.4,1.8,6.5,3c1.6,0.9,3.1,1.8,4.7,2.7
				c2.7,1.6,5.3,3.4,7.8,5.2c2,1.4,3.9,3,5.8,4.5c2.7,2.2,5.3,4.5,7.7,7c2.7,2.6,5.2,5.4,7.4,8.4c1.7,2.3,3.3,4.6,4.5,7.2
				c0.7,1.5,1.4,3,1.9,4.5s0.9,3,1.2,4.6c0.2,1,0.2,1.9,0.3,2.9c0,0.5,0.1,0.9,0.1,1.4c0,0.8,0.1,1.5,0.1,2.3c0,1.2,0,2.3,0,3.5
				c0,0.6,0,1.1,0,1.7c0,1.4,0.1,2.8,0.4,4.1c0.1,0.5,0.4,0.9,0.5,1.3c0.2,0.8,0.7,1.4,1.2,2c0.3,0.4,0.7,0.8,1.1,1.2
				c0.6,0.5,1.2,1,1.9,1.5c0.2,0.1,0.4,0.3,0.5,0.5c-0.2-0.1-0.3-0.2-0.4-0.3c-0.2-0.2-0.5-0.3-0.7-0.5c-0.3-0.2-1-0.9-1.1-1"/>
			<path class="st1" d="M163.4,105c0.2,0.2,0.4,0.4,0.7,0.6c0.5,0.4,0.9,0.7,1.4,1.1c0.9,0.6,1.7,1.3,2.6,1.9
				c0.2,0.1,0.4,0.3,0.6,0.4c0.9,0.7,1.8,1.3,2.6,2c0.9,0.7,1.8,1.4,2.7,2.2c1.5,1.3,3,2.7,4.2,4.3c0.6,0.8,1.1,1.5,1.6,2.3
				c0.6,1.1,1.1,2.4,1.4,3.6c0.5,2.6,0.2,5-0.7,7.5c-0.3,0.7-0.6,1.4-1,2.1c-0.8,1.4-1.8,2.6-3,3.7c-0.9,0.8-1.8,1.4-2.8,2.1
				c-0.5,0.4-1.1,0.7-1.7,1c-0.7,0.3-1.4,0.6-2.2,0.9c-0.4,0.2-0.9,0.3-1.3,0.5c-0.3,0.1-0.6,0.2-1,0.3c-0.8,0.2-1.5,0.4-2.3,0.6
				c-2.3,0.5-4.6,1-6.9,1.4c-1.3,0.2-2.6,0.4-3.9,0.6c-0.2,0-0.4,0.1-0.6,0.1c-1,0.2-1.9,0.4-2.9,0.7c-0.5,0.1-1,0.4-1.6,0.6
				c-0.5,0.2-1,0.4-1.5,0.7c-1.1,0.5-2,1.3-2.7,2.2c-0.7,0.8-1.3,1.8-1.8,2.8c-1.1,2.2-1.8,4.5-2.7,6.8c-0.5,1.3-1.1,2.5-1.7,3.8
				c-0.3,0.6-0.6,1.1-0.9,1.7c-0.8,1.5-2,2.8-3.2,3.9c-1.4,1.2-3,2-4.8,2.5c-2.5,0.6-4.8,0.2-7.2-0.4c-1.5-0.4-3-0.9-4.5-1.3
				c-1.2-0.4-2.5-0.6-3.8-0.5s-2.6,0.6-3.7,1.4c-1.2,0.9-2.3,2.1-3.3,3.2c-1.5,1.7-3,3.4-4.6,5c-1.9,1.8-4,3.4-6.5,4.4
				c-1.7,0.7-3.5,1.1-5.3,1.2c-1.4,0.1-2.8,0-4.2-0.2c-1.9-0.4-3.8-1-5.6-1.7c-2.4-1-4.7-2.2-7-3.4c-1.8-0.9-3.6-1.8-5.3-2.7
				c-1.6-0.8-3.2-1.6-4.8-2.4c-1.7-0.8-3.4-1.7-5.1-2.5c-1.3-0.7-2.7-1.3-4-1.9c-2.3-1-4.7-2.1-7-3.1c-2-0.9-3.9-1.7-5.8-2.7
				c-1.9-0.9-3.8-2-5.5-3.3c-1.9-1.4-3.7-3.1-5-5.1c-1.2-1.8-2.2-3.8-2.6-6c-0.3-1.5-0.5-2.9-0.7-4.4c-0.1-1-0.1-2-0.2-3
				c-0.1-1.2-0.3-2.4-0.6-3.6c-0.5-1.9-1.4-3.6-2.5-5.1c-1.1-1.6-2.2-3.1-3.3-4.7c-0.7-1.1-1.4-2.3-1.9-3.5c-1-2.2-1.6-4.5-1.8-6.9
				c-0.2-2.2,0.2-4.4,0.7-6.5c0.6-2.4,1.6-4.7,2.6-6.9c0.7-1.4,1.3-2.9,2-4.3c0.4-0.9,0.8-1.8,1.2-2.8c0,0,0-0.1,0-0.2
				c-0.2,0-0.3,0.2-0.3,0.3c-0.6,0.9-1.2,1.9-1.8,2.8c-1,1.5-2,3-3,4.5c-0.5,0.8-1,1.7-1.5,2.5c-0.6,1.1-1.1,2.2-1.6,3.4
				c-0.7,1.6-1,3.3-1.3,5c-0.1,1.2-0.1,2.4,0,3.6c0.1,0.9,0.3,1.9,0.6,2.8c0.7,1.9,1.6,3.7,2.8,5.3c0.6,0.9,1.3,1.8,2,2.6
				c0.7,0.9,1.5,1.7,2.1,2.5s1.2,1.6,1.7,2.5c0.7,1.1,1.1,2.3,1.3,3.6c0,0.3,0.1,0.6,0.2,0.8c0.1,0.6,0.1,1.3,0.1,1.9
				c0,0.7,0.1,1.5,0.1,2.2c0,0.6,0,1.1,0,1.7c0,0.5,0,1,0,1.5c0.1,1.1,0.2,2.2,0.5,3.2c0.2,0.8,0.5,1.6,0.8,2.4
				c0.4,1.2,1,2.2,1.7,3.3c0.5,0.8,1.2,1.5,1.8,2.2c0.5,0.5,1,1,1.5,1.4c0.3,0.3,0.7,0.6,1,0.8c1.3,0.9,2.6,1.7,4,2.6
				c0.4,0.3,0.9,0.5,1.4,0.8c0.8,0.4,1.7,0.9,2.5,1.2c0.8,0.4,1.6,0.7,2.3,1c1.9,0.8,3.8,1.6,5.8,2.5c1.3,0.5,2.5,1,3.8,1.7
				c1.1,0.6,2.2,1,3.3,1.6c0.9,0.5,1.9,0.9,2.8,1.4c0.8,0.4,1.5,0.8,2.3,1.2c0.5,0.3,1.1,0.6,1.6,0.8c0.4,0.2,0.8,0.4,1.2,0.6
				c0.6,0.3,1.1,0.7,1.7,1s1.2,0.6,1.8,0.9c0.1,0,0.1,0.1,0.2,0.1c0.8,0.5,1.5,0.9,2.3,1.4c0.7,0.4,1.4,0.8,2.1,1.2
				c0,0,0.1,0,0.1,0.1c0.8,0.5,1.5,0.9,2.3,1.4c1,0.6,2,1.1,2.9,1.7c0.6,0.3,1.1,0.7,1.7,1c1.1,0.6,2.3,1.1,3.5,1.6
				c1.6,0.7,3.2,1.2,4.9,1.4c1.2,0.2,2.4,0.3,3.6,0.2c0.9-0.1,1.8-0.1,2.7-0.3c0.7-0.1,1.4-0.5,2.1-0.6c0.9-0.2,1.6-0.7,2.4-1.1
				c1.3-0.7,2.4-1.6,3.5-2.5c1.1-1,2.1-2.1,3.1-3.2c0.9-1,1.7-2.1,2.5-3.1c1.3-1.6,2.4-3.2,3.9-4.5c1-0.9,2.1-1.6,3.5-1.7
				c0.6,0,1.3,0,1.9,0.1c0.9,0.2,1.7,0.5,2.6,0.8c1.2,0.5,2.5,1,3.7,1.5c0.9,0.3,1.8,0.7,2.7,0.9c1.5,0.4,3,0.7,4.6,0.7
				c1.1,0,2.2-0.2,3.2-0.5c1.6-0.5,3-1.4,4.2-2.6c0.7-0.6,1.3-1.4,1.9-2.2c0.9-1.2,1.5-2.4,2.1-3.8c0.9-2.2,1.7-4.4,2.3-6.7
				c0.6-2.4,1.3-4.7,2.4-6.9c0.5-1,1.1-2.1,2.1-2.8c0.2-0.1,0.4-0.3,0.5-0.4c0.5-0.5,1.1-0.8,1.8-1.1c0.6-0.3,1.3-0.6,1.9-0.8
				c0.1-0.1,0.3-0.1,0.4-0.1c1.5-0.3,3-0.7,4.6-0.9h0.1c2.5-0.5,5.2-0.8,7.7-1.4c0.2,0,0.4,0,0.6,0c0.2,0,0.5,0,0.7-0.1
				c0.5-0.3,1-0.3,1.5-0.4c0.8-0.2,1.6-0.5,2.3-0.8c0.7-0.2,1.4-0.5,2-0.7c0.8-0.3,1.5-0.7,2.3-1.1c1.3-0.7,2.5-1.7,3.6-2.6
				c0.5-0.4,0.8-0.9,1.2-1.3c0.8-0.8,1.3-1.7,1.9-2.7c0.5-0.9,0.8-1.8,1.2-2.8c0.4-1.1,0.6-2.3,0.6-3.5c0-0.8,0-1.6-0.1-2.3
				c0-0.4-0.2-0.8-0.2-1.2c-0.2-1-0.6-2-1.1-2.9c-0.9-1.7-2.2-3.1-3.6-4.4c-1-0.9-2.1-1.7-3.2-2.5c-2-1.6-4.2-2.8-6.3-4.3
				c-0.2-0.1-0.4-0.3-0.5-0.5c0.2,0.1,0.5,0.2,0.7,0.4c2.8,1.8,5.6,3.6,8.3,5.4c1.8,1.3,3.5,2.7,4.9,4.5c0.9,1.1,1.5,2.4,1.9,3.8
				c0.6,2.3,0.5,4.5,0,6.8c-0.5,2-1.3,3.7-2.5,5.3c-0.7,1-1.5,1.9-2.5,2.7c-0.3,0.3-0.6,0.5-0.9,0.8c-0.8,0.8-1.8,1.2-2.7,1.8
				c-0.8,0.5-1.8,0.8-2.7,1.2c-1.4,0.6-2.8,0.9-4.2,1.3c-1.3,0.4-2.5,0.6-3.8,0.9c-1.5,0.3-3,0.6-4.6,0.8c-1.3,0.1-2.7,0.4-4,0.7
				c-1.8,0.4-3.6,1-5.3,1.9c-0.4,0.2-0.8,0.5-1.1,0.8s-0.6,0.5-0.9,0.8c-0.3,0.3-0.5,0.7-0.8,1c-0.2,0.3-0.4,0.7-0.6,1
				c-0.9,1.7-1.4,3.5-1.8,5.3c-0.5,2.1-1.1,4.1-1.7,6.2c-0.6,1.9-1.2,3.8-2.3,5.5c-0.6,1.1-1.4,2-2.1,3c-0.7,1-1.6,1.7-2.6,2.3
				c-0.7,0.5-1.5,0.8-2.3,1.1c-0.3,0.1-0.6,0.2-0.9,0.3c-0.8,0.3-1.7,0.3-2.6,0.3c-2.4,0-4.6-0.5-6.8-1.4c-1.4-0.6-2.7-1.2-4.1-1.8
				c-1.2-0.5-2.5-1.1-3.8-1.3c-0.6-0.1-1.1-0.1-1.7-0.2c-0.1,0-0.3,0-0.4,0.1c-0.1,0-0.2,0.1-0.3,0.1c-1.6,0.3-2.7,1.4-3.7,2.5
				c-0.8,0.9-1.5,1.8-2.2,2.8c-1.6,2.3-3.4,4.6-5.3,6.6c-1,1.1-2.2,2-3.5,2.9c-1.1,0.8-2.3,1.4-3.6,1.9c-1.7,0.7-3.5,1-5.3,1.1
				c-2.5,0.1-4.9-0.4-7.2-1.3c-1.5-0.6-2.9-1.3-4.3-2c-2.8-1.5-5.4-3.3-8.1-5c-1.1-0.7-2.1-1.3-3.2-1.9c-0.8-0.5-1.5-0.9-2.3-1.4
				c-0.8-0.4-1.5-0.9-2.3-1.3c-0.6-0.3-1.1-0.6-1.7-0.9c-1-0.5-2-1.1-2.9-1.6c-0.8-0.4-1.5-0.8-2.3-1.2s-1.7-0.8-2.5-1.2
				c-0.4-0.2-0.8-0.5-1.3-0.7c-0.7-0.3-1.4-0.6-2.1-0.9c-1.8-0.8-3.6-1.6-5.5-2.4c-1.8-0.8-3.6-1.5-5.4-2.3
				c-1.2-0.5-2.4-1.1-3.5-1.8c-0.8-0.4-1.6-0.9-2.4-1.4c-1.8-1.1-3.3-2.4-4.7-3.9c-1.1-1.2-2.1-2.5-2.8-4.1c-0.4-0.9-0.7-1.8-1-2.7
				c-0.3-1.1-0.5-2.2-0.6-3.3c-0.1-1-0.1-1.9-0.1-2.9c0-1.4,0-2.7,0.1-4.1c0-1-0.1-2-0.3-3c-0.3-1.4-1-2.7-1.8-3.9
				c-1.1-1.6-2.4-2.9-3.7-4.4c-1.6-1.8-3-3.6-4-5.7c-0.7-1.5-1.3-3.1-1.5-4.7c-0.1-1.4-0.1-2.8,0.1-4.2c0.3-1.7,0.8-3.3,1.5-4.9
				c1-2,2.1-4,3.4-5.8c1-1.4,2-2.8,3-4.3s2-2.9,3-4.4c0,0,0.1,0,0.2-0.1c-0.1,0.4-0.1,0.7-0.2,1c-0.4,1.4-0.9,2.8-1.4,4.2
				c-0.7,2-1.5,4-2.2,6c-0.8,2.4-1.4,4.9-1.6,7.5c-0.1,1.3-0.1,2.6,0.1,3.9c0.1,0.9,0.2,1.8,0.4,2.7c0.2,0.7,0.4,1.3,0.6,2
				c0.3,0.9,0.7,1.8,1.1,2.6c0.4,0.8,0.7,1.5,1.2,2.2c1,1.6,2,3.2,3,4.8c0.7,1.2,1.4,2.3,1.8,3.6c0.3,0.8,0.5,1.6,0.8,2.5
				c0.1,0.4,0.1,0.9,0.2,1.4c0,0.1,0,0.2,0,0.3c0.1,1,0.3,1.9,0.4,2.9c0.1,0.9,0.2,1.9,0.3,2.9c0.1,0.5,0.1,1,0.3,1.5
				c0.3,1.1,0.6,2.2,1,3.2c0.5,1.3,1.2,2.5,2,3.7c0.9,1.3,1.9,2.4,3.1,3.5c1.1,1,2.3,1.9,3.6,2.7c1,0.6,1.9,1.2,2.9,1.7
				c1.6,0.8,3.1,1.6,4.7,2.3c1.8,0.8,3.6,1.6,5.4,2.3c0.8,0.3,1.5,0.7,2.3,1.1c0.8,0.4,1.6,0.7,2.4,1c0.8,0.3,1.6,0.7,2.3,1.1
				c1.1,0.5,2.1,1,3.2,1.5c0.9,0.4,1.9,0.9,2.8,1.3c1.1,0.5,2.2,1,3.3,1.5c1,0.5,2,0.9,2.9,1.4c1.2,0.6,2.4,1.1,3.7,1.7
				c1.4,0.6,2.8,1.3,4.2,1.9c2.1,0.9,4.3,1.6,6.6,2c1.4,0.2,2.7,0.3,4.1,0.3c1.3,0,2.6-0.2,3.9-0.6c1.8-0.6,3.5-1.4,5.1-2.5
				c2-1.4,3.8-3.1,5.6-4.8c1.2-1.2,2.3-2.4,3.5-3.5c0.6-0.6,1.2-1.1,1.9-1.5c0.6-0.4,1.3-0.7,2.1-0.9c1.3-0.3,2.7-0.3,4-0.1
				c1,0.2,2,0.4,3,0.6c1.9,0.4,3.7,0.8,5.7,0.9c0.5,0,1-0.1,1.5-0.1c0.7,0.1,1.3-0.1,1.9-0.3c1.8-0.5,3.4-1.4,4.8-2.6
				c1.7-1.6,3-3.4,3.9-5.5c0.8-1.7,1.5-3.5,2.3-5.2c0.7-1.5,1.3-3.1,2.2-4.5c0.5-0.7,1-1.5,1.6-2.1c0.5-0.5,0.9-0.9,1.5-1.3
				c0.6-0.4,1.1-0.7,1.7-1c0.6-0.3,1.2-0.5,1.8-0.7c1.1-0.4,2.4-0.5,3.5-1c0.5-0.2,1-0.3,1.6-0.2c0.1,0,0.2,0,0.3,0
				c2.3-0.4,4.6-0.8,6.9-1.3c0.6-0.1,1.3-0.2,1.9-0.4c1-0.2,2.1-0.5,3.1-0.8c0.8-0.2,1.5-0.6,2.3-0.9c1.3-0.4,2.5-1.1,3.6-1.8
				s2.2-1.5,3.1-2.4c0.9-0.9,1.7-1.8,2.4-2.9c1.2-1.9,2-4,2.2-6.2c0.2-1.9,0-3.8-0.8-5.6c-0.8-1.9-1.9-3.7-3.2-5.2
				c-1.4-1.6-2.8-3-4.4-4.4c-0.8-0.7-1.6-1.3-2.4-2c-1-0.8-1.9-1.5-2.9-2.3s-1.8-1.5-2.8-2.3c0,0-0.2-0.2-0.3-0.3l-0.5-0.4l0.4,0.1
				L163.4,105z"/>
			<path class="st1" d="M158.4,103.6c0.2,0.2,0.3,0.3,0.4,0.5c1.8,1.9,3.4,3.9,5,6c1.7,2.2,3.2,4.6,4.3,7.2c0.5,1.3,0.9,2.6,1.1,3.9
				c0.2,1.4,0.2,2.8,0,4.1c-0.2,1.7-0.8,3.3-1.7,4.7c-1.6,2.7-3.8,4.8-6.5,6.3c-1.2,0.7-2.5,1.3-3.8,1.9c-0.7,0.3-1.5,0.6-2.2,0.8
				c-1.8,0.6-3.6,1.1-5.5,1.5c-2.1,0.4-4.2,0.9-6.2,1.4c-1,0.2-2,0.6-3,0.9c-0.5,0.1-0.9,0.3-1.4,0.4c-1.1,0.4-2.2,1-3.2,1.6
				c-1.4,0.9-2.7,2-3.7,3.2c-1.4,1.7-2.7,3.5-4.1,5.2c-1,1.3-2.1,2.5-3.4,3.5c-1.2,0.9-2.4,1.6-3.8,2.2c-1.5,0.6-3,0.9-4.5,1.1
				c-1.3,0.2-2.7,0.3-4,0.6c-2.2,0.3-4.3,1.1-6.3,2.2c-1.6,0.9-3.2,1.9-4.8,2.9c-1.7,1.1-3.5,2-5.4,2.7c-1.2,0.4-2.4,0.7-3.7,1
				c-2.6,0.5-5.3,0.4-7.9,0.1c-2.7-0.3-5.4-0.9-8-1.5c-3.4-0.8-6.8-1.6-10.1-2.6c-2.5-0.8-5-1.7-7.4-2.6c-2.9-1.1-5.8-2.3-8.5-3.8
				c-2.1-1.2-4.2-2.4-6-4c-2.6-2.1-4.6-4.7-6-7.7c-0.7-1.4-1.2-2.9-1.6-4.4c-0.4-1.7-0.8-3.4-1.2-5.1c-0.6-2.7-1.2-5.3-2-7.9
				c-0.9-3-1.8-6-2.3-9c-0.2-1.1-0.3-2.2-0.4-3.4c-0.1-1.1-0.2-2.3-0.2-3.4c0-1.5,0-2.9,0-4.4c0-2.6,0.1-5.2,0.1-7.8
				c0-2.3-0.2-4.5-0.2-6.8c-0.1-2.2-0.2-4.4-0.3-6.7c-0.2-3.1,0-6.2,0.6-9.2c0.3-1.8,0.9-3.7,1.6-5.4c0.2-0.5,0.4-1,0.6-1.5
				c0.3-0.5,0.5-1,0.7-1.4c0.3-0.5,0.5-1,0.8-1.5c1.4-2.4,3.2-4.6,5.1-6.6c2.3-2.5,4.9-4.7,7.7-6.6c2.8-2,5.8-3.7,9-5
				c1.9-0.9,3.9-1.5,6-2.1c1.7-0.5,3.5-0.9,5.3-1.2c2.2-0.4,4.3-0.5,6.5-0.5c3.7,0,7.3,0.4,11,1.1c3.3,0.7,6.6,1.6,9.8,2.9
				c3.1,1.2,6.1,2.6,9.1,3.9c2.9,1.3,5.8,2.7,8.7,4.1c2,1,3.9,2.1,5.8,3.2c1.3,0.7,2.6,1.5,3.8,2.3c2.1,1.4,4.2,2.8,6.2,4.4
				c3.4,2.6,6.5,5.4,9.5,8.4c3,3.1,5.8,6.3,8.3,9.8c1.8,2.4,3.5,4.9,5.3,7.3c1.3,1.7,2.7,3.4,4.1,5c0.8,0.9,1.6,1.8,2.3,2.7
				C157.8,103,158.2,103.4,158.4,103.6z M156.4,102.4c-0.8-1-1.6-1.9-2.4-2.9c-1.6-2-3.2-3.9-4.7-5.9c-1.9-2.5-3.8-5-5.7-7.4
				c-1.2-1.5-2.5-3-3.8-4.5c-1.4-1.5-2.9-3-4.4-4.5c-1.1-1.1-2.3-2.1-3.5-3.1c-0.5-0.5-1.1-0.9-1.7-1.4c-0.8-0.6-1.6-1.3-2.4-1.9
				c-0.9-0.7-1.8-1.3-2.7-1.9c-1.3-1-2.7-2-4.2-2.8c-1.3-0.7-2.6-1.5-3.9-2.3c-1.4-0.8-2.7-1.5-4.1-2.2c-2.2-1-4.4-2-6.6-3
				c-3.7-1.6-7.5-3.1-11.3-4.5c-4-1.4-8-2.5-12.2-3.1c-4.1-0.7-8.2-0.8-12.3-0.4c-3.4,0.3-6.7,1.1-9.9,2.2c-2.5,0.8-4.9,1.9-7.2,3.2
				c-3.4,1.9-6.5,4-9.4,6.6c-2.2,2-4.1,4.1-5.9,6.5c-1.5,2-2.8,4.2-3.8,6.5c-0.5,1.3-1,2.6-1.4,3.9c-0.5,1.8-0.8,3.7-0.9,5.5
				c-0.1,1.6-0.2,3.2-0.1,4.8c0.1,1.1,0,2.2,0.1,3.3c0,1.1,0.1,2.1,0.2,3.2c0,0.4,0,0.9,0.1,1.3c0.1,0.9,0.1,1.7,0.2,2.6
				c0,0.9,0.1,1.7,0.1,2.6c0,0.7,0,1.4,0.1,2.1c0,1.2,0,2.4,0,3.7c0,1.1,0,2.3,0,3.4c0,1.3,0,2.6,0.1,3.9c0.1,1.5,0.2,3.1,0.4,4.6
				c0.2,1.3,0.4,2.6,0.6,3.9c0.5,2.1,0.9,4.1,1.4,6.2c0.8,3.4,1.5,6.9,2.3,10.3c0.2,0.9,0.4,1.7,0.7,2.5s0.6,1.6,0.9,2.4
				c0.4,1.2,1,2.2,1.7,3.3c1.6,2.6,3.7,4.8,6.2,6.7c1.7,1.3,3.5,2.4,5.5,3.4c1.3,0.6,2.5,1.2,3.8,1.8c1.5,0.6,3,1.3,4.5,1.7
				c1.3,0.4,2.7,0.9,4,1.3c2.1,0.6,4.3,1.2,6.4,1.7c1.7,0.4,3.4,0.7,5.1,1c2.8,0.5,5.6,1,8.4,1.3c1.3,0.1,2.5,0.2,3.8,0.1
				c0.9,0,1.8-0.1,2.6-0.2c1.3-0.2,2.6-0.5,3.9-0.9s2.5-0.9,3.7-1.5c1.5-0.7,3-1.6,4.5-2.4c1.1-0.6,2.3-1.2,3.4-1.7
				c0.5-0.3,1.1-0.5,1.6-0.7c0.7-0.2,1.3-0.5,2-0.7c1.5-0.3,3-0.6,4.5-1c0.7-0.2,1.5-0.4,2.2-0.6c0.9-0.3,1.8-0.5,2.7-0.9
				c1.9-0.8,3.6-2,5.1-3.5c1.1-1.1,2.1-2.3,3.1-3.5c1.2-1.4,2.4-2.9,3.9-4.1c1.5-1.3,3.2-2.3,5-3c0.3-0.1,0.6-0.2,0.9-0.3
				c0.6-0.4,1.3-0.4,1.9-0.7c0.7-0.3,1.5-0.4,2.3-0.6c2.1-0.5,4.2-1,6.3-1.5c0.2-0.1,0.5-0.1,0.7-0.2c0.9-0.3,1.8-0.5,2.7-0.8
				c0.6-0.2,1.2-0.3,1.7-0.6c0.7-0.3,1.4-0.5,2-0.9c0.9-0.4,1.8-0.8,2.7-1.3c1.3-0.7,2.5-1.5,3.6-2.5c1.6-1.4,3-3,4-4.9
				c1-1.9,1.5-4,1.5-6.1c0-1.9-0.3-3.8-0.9-5.6c-0.3-0.9-0.7-1.8-1.1-2.7c-0.7-1.6-1.6-3.1-2.6-4.5c-1.4-2-2.8-3.9-4.4-5.7
				c-0.2-0.2-0.4-0.5-0.6-0.8C157.4,103.5,156.6,102.7,156.4,102.4z"/>
			<path class="st1" d="M32.3,162.6c0.1,0.1,0.3,0.2,0.4,0.2c0.8,0.5,1.7,0.9,2.5,1.4c0.9,0.5,1.8,1,2.7,1.4
				c0.8,0.4,1.6,0.7,2.4,1.1c1.3,0.6,2.6,1.2,4,1.8c1,0.4,2,0.9,3,1.3c0.8,0.4,1.6,0.8,2.4,1.2c0.6,0.3,1.1,0.5,1.7,0.8
				c0.4,0.2,0.7,0.4,1.1,0.5c1,0.5,1.9,0.9,2.9,1.4c0.7,0.3,1.3,0.7,2,1.1c0.7,0.3,1.4,0.7,2,1c0.7,0.4,1.4,0.7,2.1,1.1
				c0.8,0.4,1.6,0.8,2.4,1.2c0.4,0.2,0.8,0.4,1.2,0.7c0.6,0.4,1.2,0.7,1.9,1.1c1.2,0.7,2.3,1.3,3.5,2c1.3,0.8,2.5,1.7,3.7,2.5
				c0.5,0.3,1,0.7,1.5,1.1c1.9,1.6,4,2.9,6.1,4.2c0.9,0.6,1.8,1,2.8,1.5c1.1,0.6,2.3,1,3.6,1.4c1.1,0.3,2.3,0.6,3.5,0.6
				c0.4,0,0.8,0.1,1.2,0.1c0.5,0,1.1,0,1.6-0.1c0.6-0.1,1.3-0.1,1.9-0.2c0.9-0.2,1.8-0.5,2.6-0.8c0.4-0.2,0.9-0.3,1.3-0.5
				c0.8-0.4,1.6-0.9,2.4-1.4c1.2-0.8,2.3-1.7,3.3-2.8c0.5-0.5,1-1,1.5-1.6c0.4-0.4,0.8-0.9,1.1-1.3c0.5-0.7,1-1.4,1.6-2.1
				c1.1-1.6,2.2-3.1,3.4-4.7c0.5-0.7,1-1.4,1.6-2s1.3-1.3,2.1-1.7c1-0.5,2-0.6,3.1-0.5c0.9,0.1,1.6,0.5,2.4,0.7c1.1,0.4,2,0.9,3,1.5
				c0.6,0.3,1.2,0.7,1.9,1c0.9,0.5,1.9,0.9,2.9,1.4c1.6,0.8,3.3,1.4,5.1,1.8c0.6,0.1,1.2,0.1,1.8,0.2c0.8,0.1,1.5,0,2.3-0.1
				c1-0.1,2-0.5,2.8-0.9c0.9-0.5,1.7-1,2.4-1.7c0.6-0.6,1.1-1.3,1.6-1.9c1.4-1.9,2.3-4,3-6.2c0.4-1.2,0.7-2.5,0.9-3.8
				c0.4-1.9,0.7-3.8,1-5.7c0.2-1.1,0.3-2.1,0.5-3.2c0.2-1,0.5-2,0.8-3c0.3-1.1,1-2,1.6-3c0.1-0.1,0.1-0.2,0.2-0.3
				c0.8-0.6,1.6-1.3,2.4-1.9c0.5-0.3,1.1-0.5,1.7-0.8c0.3-0.1,0.7-0.2,0.9-0.4c0.6-0.3,1.3-0.4,1.9-0.5c3.2-0.9,6.6-1.4,9.8-2.2
				c0.7-0.2,1.3-0.5,2-0.7c0.1,0,0.1,0,0.2-0.1c0.7-0.2,1.3-0.3,2-0.6c0.5-0.2,1-0.4,1.5-0.6c0.7-0.3,1.3-0.6,2-1
				c0.5-0.3,1-0.5,1.5-0.8c0.7-0.5,1.4-0.9,2-1.4c0.5-0.4,1-1,1.5-1.4c0.6-0.6,1.2-1.1,1.6-1.9c0.2-0.4,0.5-0.7,0.8-1
				c0.6-0.7,0.9-1.6,1.3-2.4c0.6-1.2,1-2.4,1.3-3.7c0.3-1.1,0.5-2.2,0.6-3.3c0.1-0.9,0.1-1.9,0-2.8c-0.1-1.1-0.3-2.2-0.6-3.3
				c-0.2-0.8-0.6-1.6-1-2.3c-0.7-1.2-1.6-2.2-2.7-3.1c-1.3-1-2.7-1.7-4.3-2.3c-2.3-0.9-4.7-1.8-7.1-2.7c-1.3-0.5-2.6-1-3.9-1.6
				c-1-0.5-2.1-0.9-3-1.5c-1.2-0.8-2.4-1.6-3.3-2.8c-0.7-0.9-1.2-1.9-1.4-3.1c-0.1-0.9-0.3-1.7-0.4-2.6c0-1,0-2,0.1-3
				c0-1,0.1-1.9,0.1-2.9c0.1-1.2,0.1-2.5,0.1-3.7c0-0.5-0.1-1-0.1-1.5c0-0.6-0.1-1.3-0.1-1.9c0-0.1,0-0.2,0-0.2
				c-0.2-1.3-0.4-2.5-0.6-3.8c-0.2-0.8-0.5-1.6-0.7-2.5c-0.1-0.5-0.3-0.9-0.4-1.4c-0.3-0.9-0.6-1.8-1-2.6c-0.5-1-1-1.9-1.5-2.9
				c-1.4-2.5-3-4.8-4.8-7.1c-1.9-2.4-4-4.7-6.1-6.8c-1.8-1.8-3.6-3.6-5.6-5.2c-1.1-0.9-2.2-1.9-3.3-2.8c-0.9-0.7-1.8-1.4-2.7-2.1
				c-1.6-1.3-3.2-2.4-4.9-3.5c-1.4-0.9-2.9-1.9-4.4-2.8c-1-0.6-2-1.2-3.1-1.8c-1.6-0.8-3.1-1.5-4.7-2.2c-1.9-0.8-3.8-1.4-5.8-1.8
				c-1.6-0.3-3.1-0.6-4.7-0.8c-1-0.1-2.1-0.1-3.2-0.2c-0.8,0-1.5-0.1-2.3-0.1c-0.6,0-1.2,0-1.8,0c-0.5,0-1,0-1.5,0c-0.3,0-0.7,0-1,0
				c-0.5,0-1.1,0.1-1.6,0.1s-1.1,0-1.6,0.1c-0.2,0-0.3,0.1-0.5,0.1c-0.3,0-0.5,0-0.8,0c-0.1,0-0.2,0-0.2,0c-0.4,0.1-0.8,0.1-1.2,0.1
				c-0.7,0-1.4,0.2-2.1,0.3c-0.5,0.1-1.1,0.1-1.6,0.1c-0.7,0.1-1.5,0.2-2.2,0.3c-0.8,0.1-1.6,0.1-2.4,0.2c-0.2,0-0.3,0.1-0.4,0.2
				c0.6,0,1.3,0,1.9,0c0.8,0,1.6,0,2.4,0s1.7,0,2.5,0c1.2,0,2.4,0,3.5,0.1c1.8,0.2,3.6,0.4,5.4,0.7c2.8,0.4,5.4,1.3,8,2.3
				c3,1.2,5.8,2.7,8.6,4.3c3.8,2.2,7.5,4.5,11.1,7.1c1.2,0.8,2.4,1.7,3.6,2.6c2.8,2.1,5.5,4.2,8.1,6.5c3.3,2.9,6.5,6,9.4,9.3
				c1.9,2.2,3.7,4.5,5.2,6.9c1.2,1.9,2.3,3.9,3.1,6c0.9,2.2,1.6,4.5,2,6.8c0.2,1.1,0.3,2.3,0.4,3.4c0.1,0.9,0.2,1.8,0.3,2.6
				c0.2,1.1,0.3,2.2,0.5,3.2c0.2,1.4,0.7,2.8,1.5,4c0.3,0.5,0.7,1,1.1,1.5c0.1,0.2,0.2,0.3,0.4,0.5c-0.1,0-0.2,0-0.2,0
				c-0.7-0.8-1.4-1.5-1.9-2.4c-0.1-0.2-0.3-0.4-0.4-0.6c-0.2-0.4-0.4-0.9-0.6-1.3c-0.2-0.6-0.4-1.1-0.6-1.7c0-0.1-0.1-0.3-0.1-0.4
				s-0.1-0.3-0.1-0.5c-0.6-3-1.1-5.9-1.7-8.9c-0.2-1-0.6-2.1-0.9-3.1c-0.2-0.7-0.4-1.3-0.7-1.9c-0.5-1.1-1-2.2-1.6-3.3
				c-1.7-3.2-3.9-6.2-6.3-8.9c-3-3.6-6.4-6.8-9.9-9.8c-1.7-1.5-3.5-3-5.3-4.4c-3.3-2.6-6.7-4.9-10.2-7.2c-3.3-2.2-6.7-4.2-10.2-6.2
				c-2.6-1.5-5.2-2.8-8-3.9c-1.8-0.7-3.7-1.3-5.6-1.7s-3.9-0.7-5.9-1c-1.2-0.1-2.4-0.2-3.6-0.3c-1-0.1-2-0.1-3.1-0.1
				c-0.9,0-1.7,0-2.6,0s-1.8,0-2.7,0c-0.7,0-1.4,0.1-2.1,0.1c-0.4,0-0.9,0-1.3,0c-0.2,0-0.4,0-0.7,0c0.4-0.1,0.8-0.2,1.3-0.3
				c0.2,0,0.3,0,0.5,0c0.8-0.1,1.7-0.2,2.5-0.3c0.7-0.1,1.4-0.1,2.1-0.2c0.7-0.1,1.4-0.2,2-0.2c0.7-0.1,1.5-0.1,2.2-0.2
				c0.5,0,0.9-0.1,1.4-0.1c0.6-0.1,1.2-0.2,1.9-0.2c0.6-0.1,1.3-0.1,1.9-0.1c0.4,0,0.8-0.1,1.2-0.1c0.5,0,1.1-0.1,1.6-0.2
				c0.5,0,1.1,0,1.6-0.1c0.4,0,0.7,0,1.1,0c0.8,0,1.6-0.1,2.4-0.1c0.4,0,0.8,0,1.2,0c0.3,0,0.7,0,1,0c0.6,0,1.3,0,1.9,0
				c1.2,0,2.4,0.1,3.6,0.2c1.3,0.1,2.7,0.3,4,0.5c1.9,0.3,3.7,0.7,5.6,1.3c1,0.3,2.1,0.7,3.1,1.1c1.4,0.6,2.8,1.2,4.2,1.9
				c1.6,0.9,3.3,1.8,4.8,2.8c1.9,1.2,3.8,2.5,5.7,3.9c1.7,1.2,3.4,2.5,5,3.9c1.7,1.4,3.4,3,5.1,4.5c1.8,1.7,3.5,3.4,5.2,5.2
				c1.9,2,3.5,4.1,5.1,6.3c1.4,1.9,2.7,3.9,3.7,6c0.6,1.2,1.2,2.5,1.6,3.8c0.3,1,0.7,2.1,1.1,3.1c0.2,0.5,0.2,1,0.3,1.5
				c0.2,1,0.4,1.9,0.6,2.9c0.1,0.8,0.2,1.7,0.2,2.5c0.1,0.8,0.1,1.6,0.1,2.3c0,0.5,0,1.1,0,1.7c-0.1,1.4-0.1,2.7-0.2,4.1
				c-0.1,1.4-0.2,2.8-0.2,4.3c0,0.5,0.1,1.1,0.2,1.6c0,0.3,0.1,0.5,0.2,0.8c0.1,1.1,0.6,2,1.2,2.9c0.4,0.6,0.9,1.2,1.5,1.6
				c1.1,0.9,2.3,1.6,3.6,2.2c2.6,1.2,5.4,2,8.1,2.8c1.9,0.6,3.7,1.1,5.5,1.8c1.4,0.6,2.8,1.4,3.9,2.4c0.9,0.8,1.6,1.8,2.2,2.9
				c0.4,0.7,0.7,1.5,0.8,2.3c0.1,0.4,0.3,0.8,0.4,1.3c0.1,0.8,0.2,1.6,0.2,2.3c0,1.1,0,2.2-0.1,3.3c-0.2,1.6-0.5,3.1-1,4.7
				c-0.4,1.1-0.9,2.1-1.3,3.2c-0.6,1.3-1.5,2.4-2.3,3.5c-0.5,0.7-1.1,1.2-1.7,1.8c-0.8,0.9-1.8,1.4-2.7,2.1c-1.3,1-2.8,1.5-4.2,2.2
				c-0.9,0.4-1.9,0.7-2.8,1c-0.5,0.2-1,0.4-1.5,0.6c-0.2,0.1-0.3,0.1-0.5,0.1c-2.7,0.6-5.4,1.2-8.1,1.8c-1.1,0.3-2.2,0.7-3.4,1
				c-1.1,0.3-2.1,0.9-3.2,1.3c-0.2,0.1-0.3,0.2-0.5,0.3c-0.4,0.3-0.7,0.6-1.1,0.9c-0.9,0.6-1.4,1.6-1.9,2.5c-1,1.8-1.4,3.8-1.7,5.8
				c-0.4,2.4-0.7,4.7-1.1,7.1c-0.2,1.5-0.5,3-1,4.4c-0.5,1.6-1,3.2-1.9,4.7c-0.3,0.4-0.5,0.9-0.7,1.3c-0.9,1.6-2.3,2.8-3.8,3.7
				c-0.8,0.5-1.7,0.9-2.6,1.1c-1,0.2-2.1,0.3-3.1,0.2c-1.1-0.1-2.3-0.3-3.3-0.7c-1-0.3-1.9-0.7-2.8-1.1c-0.9-0.4-1.8-0.8-2.6-1.2
				c-0.4-0.2-0.8-0.5-1.3-0.7c-0.7-0.4-1.5-0.8-2.2-1.1s-1.3-0.7-2-0.9c-0.6-0.2-1.2-0.5-1.8-0.6c-0.8-0.1-1.7-0.2-2.5-0.2
				c-0.4,0-0.9,0.2-1.3,0.4c-1.3,0.5-2.2,1.4-3.1,2.5c-1.5,1.8-2.8,3.8-4.2,5.7c-1,1.2-1.9,2.5-2.9,3.7c-1.7,2-3.7,3.7-6,5.1
				c-1,0.6-2.1,1-3.2,1.4s-2.2,0.6-3.3,0.8c-1.1,0.2-2.2,0.2-3.3,0c-1.3-0.1-2.6-0.4-3.9-0.7c-0.7-0.2-1.4-0.5-2.1-0.8
				c-0.3-0.1-0.7-0.2-1-0.4c-0.4-0.2-0.7-0.4-1.1-0.6c-0.3-0.2-0.6-0.4-1-0.5c-1.3-0.7-2.6-1.5-3.8-2.4c-1.1-0.8-2.2-1.6-3.3-2.5
				c-2.3-1.8-4.8-3.4-7.3-5.1c-0.6-0.4-1.2-0.6-1.8-1c-0.8-0.4-1.5-0.8-2.3-1.3c-0.7-0.4-1.4-0.7-2.1-1c-0.3-0.2-0.7-0.3-1-0.5
				c-1.4-0.7-2.8-1.4-4.2-2.1c-1.2-0.6-2.3-1.1-3.5-1.7c-0.6-0.3-1.4-0.5-1.9-1.1c-0.6-0.1-1.1-0.4-1.6-0.7c-0.6-0.3-1.3-0.6-2-0.9
				c-0.9-0.4-1.8-0.8-2.6-1.2s-1.6-0.8-2.4-1.2c-1.1-0.5-2.2-1-3.2-1.5c-0.8-0.4-1.6-0.7-2.3-1.1c-0.9-0.5-1.9-0.9-2.8-1.4
				c-0.7-0.4-1.4-0.8-2.1-1.2C32.4,162.9,32.2,162.8,32.3,162.6L32.3,162.6z"/>
			<path class="st1" d="M167.3,106.8c0.1,0,0.1,0,0.2,0.1c0.7,0.4,1.4,0.8,2.1,1.2c0.7,0.4,1.3,0.7,2,1.1c1.1,0.5,2.2,1,3.3,1.6
				c0.9,0.4,1.8,0.8,2.6,1.3c1.5,0.8,3,1.5,4.4,2.4c1.2,0.8,2.4,1.7,3.4,2.7c0.8,0.8,1.5,1.8,1.9,2.8c0.5,1.1,0.9,2.1,0.9,3.3
				c0,0.1,0,0.2,0,0.2c0.3,1.5,0.1,3-0.2,4.5c-0.2,1.3-0.6,2.5-1.1,3.7c-0.2,0.7-0.7,1.3-1,2c-0.6,1.2-1.4,2.2-2.3,3.2
				c-1,1.1-2,2.1-3.3,2.9c-0.7,0.4-1.4,0.9-2.1,1.3c-0.6,0.3-1.2,0.5-1.8,0.8c-0.3,0.1-0.5,0.2-0.8,0.3c-0.8,0.4-1.6,0.6-2.4,0.8
				c-0.7,0.2-1.3,0.5-1.9,0.7c-0.2,0.1-0.4,0.1-0.6,0.1c-3.8,0.8-7.6,1.5-11.4,2.3c-0.6,0.1-1.1,0.3-1.7,0.5
				c-0.4,0.1-0.8,0.4-1.2,0.5s-0.8,0.3-1.1,0.6c-0.7,0.5-1.5,0.9-2.1,1.6c-0.7,0.9-1.5,1.9-1.9,3c-0.4,1.2-0.8,2.5-1,3.8
				c-0.5,2.4-0.9,4.9-1.4,7.3c-0.4,2-1,3.9-1.7,5.8c-0.8,1.9-1.8,3.7-3.1,5.3c-0.9,1.1-2,2.1-3.3,2.7c-1.5,0.8-3.1,1.3-4.8,1.3
				c-1.8,0-3.5-0.3-5.2-0.9c-1.4-0.5-2.8-1.1-4.1-1.8c-1.2-0.6-2.4-1.3-3.7-1.9c-1-0.5-2-0.8-3-1.3c-0.8-0.3-1.7-0.4-2.5-0.3
				c-0.8,0.1-1.6,0.4-2.3,0.9c-1.5,1.1-2.5,2.6-3.6,4c-1,1.5-2,3-3.1,4.4c-1.2,1.6-2.5,3.2-3.9,4.6c-1.8,1.8-3.9,3.3-6.3,4.3
				c-1.1,0.4-2.1,0.8-3.2,1c-1.4,0.3-2.8,0.4-4.3,0.3c-2.4-0.2-4.6-0.8-6.8-1.8c-2-0.9-3.8-2-5.6-3.2c-0.6-0.4-1.1-0.7-1.7-1.1
				c-0.9-0.6-1.7-1.3-2.6-1.9c-1.8-1.2-3.6-2.5-5.4-3.7c-1-0.7-2.1-1.2-3.2-1.9c-0.7-0.4-1.3-0.8-2-1.2c-0.6-0.3-1.1-0.6-1.7-0.9
				c-0.4-0.2-0.8-0.4-1.3-0.7c-1.2-0.6-2.5-1.3-3.7-1.9c-1.2-0.6-2.4-1.3-3.6-1.9c-1.2-0.6-2.5-1.2-3.8-1.7c-1.7-0.8-3.3-1.5-5-2.3
				c-1.4-0.6-2.9-1.2-4.3-1.9c-1.2-0.5-2.4-1.1-3.6-1.7c-1.1-0.5-2.2-1-3.2-1.6c-1.2-0.7-2.2-1.5-3.4-2.3c-0.8-0.5-1.5-1.2-2.2-1.9
				c-1.1-1-2-2.2-2.8-3.4c-1.1-1.8-1.7-3.7-2-5.7c-0.1-1-0.2-1.9-0.2-2.9c0-1.5,0.2-2.9,0.3-4.4c0.1-1,0.3-2,0.3-3.1
				c0-0.9,0.1-1.8-0.3-2.6c0-0.1,0-0.1,0-0.2c-0.2-1.2-0.8-2.2-1.5-3.2c-1-1.4-2.2-2.6-3.4-3.8c-1.3-1.3-2.6-2.7-3.6-4.2
				c-0.8-1.1-1.5-2.3-2-3.6c-0.5-1.2-0.8-2.3-1-3.6c-0.1-0.9-0.1-1.9-0.1-2.8c0.1-1.3,0.4-2.6,0.8-3.9c0.4-1.1,0.9-2.1,1.4-3.1
				c0.7-1.4,1.5-2.8,2.5-4c1.1-1.5,2.3-3,3.4-4.5c1-1.4,2.1-2.7,3.1-4.1c1.1-1.5,2.1-3,3.2-4.5c0.1-0.1,0.2-0.2,0.3-0.4
				c0.1,0.7-0.1,1.2-0.4,1.7c-0.5,0.8-1.1,1.5-1.6,2.3c-0.1,0.2-0.2,0.3-0.3,0.5c-0.7,1-1.4,2-2.2,2.9c-0.7,0.9-1.3,1.8-2,2.6
				c-0.9,1.1-1.7,2.3-2.6,3.4c-0.6,0.8-1.2,1.7-1.7,2.7c-0.3,0.6-0.7,1.2-1.1,1.8c-0.7,1.5-1.4,3-1.7,4.7c-0.2,0.9-0.3,1.9-0.4,2.8
				c0,0.5,0.1,0.9,0.1,1.4c0,0.2,0,0.5,0,0.7s0.1,0.4,0.1,0.6c0.1,0.4,0.3,0.7,0.4,1.1c0.1,0.6,0.4,1.2,0.6,1.8
				c0.3,0.6,0.5,1.2,0.9,1.8c0.8,1.3,1.7,2.6,2.7,3.7c0.7,0.8,1.4,1.7,2.2,2.4c0.8,0.8,1.5,1.6,2.2,2.4c0.4,0.5,0.8,1,1.1,1.5
				c0.5,0.8,1,1.7,1.2,2.6c0.1,0.8,0.3,1.6,0.3,2.4c0,0.9-0.1,1.8-0.1,2.7c-0.1,1.4-0.2,2.8-0.3,4.2c0,0.8,0,1.6,0.1,2.4
				c0.1,0.9,0.3,1.7,0.4,2.5c0.2,0.9,0.6,1.7,0.9,2.5c0.3,0.9,0.9,1.6,1.3,2.4c0.5,0.8,1.2,1.5,1.8,2.3c0.5,0.6,1.1,1.1,1.6,1.6
				l0.1,0.1c1.3,0.9,2.6,1.9,4,2.8c1,0.6,2.2,1.1,3.2,1.7c1.6,0.8,3.3,1.6,4.9,2.2c1.7,0.7,3.3,1.4,5,2.2c1.4,0.6,2.7,1.2,4,1.8
				c0.5,0.2,1,0.4,1.4,0.7s1,0.4,1.5,0.7c0.7,0.3,1.4,0.7,2,1c0.8,0.4,1.6,0.8,2.4,1.2c0.4,0.2,0.9,0.5,1.3,0.7
				c0.6,0.3,1.2,0.6,1.8,1c0.4,0.2,0.8,0.4,1.1,0.6c0.6,0.4,1.3,0.8,1.9,1.1c0.7,0.4,1.5,0.8,2.2,1.2c0.1,0,0.1,0.1,0.2,0.1
				c1.7,1.1,3.5,2.1,5.1,3.3c2.4,1.7,4.9,3.3,7.4,5c1,0.7,2.1,1.2,3.2,1.7c0.9,0.4,1.7,0.8,2.6,1.1c1.4,0.5,2.8,0.8,4.2,1
				c0.9,0.2,1.8,0.2,2.8,0.2c0.5,0,1-0.1,1.5-0.1c0.5-0.1,1-0.1,1.4-0.2c0.6-0.1,1.2-0.3,1.7-0.5c1.1-0.4,2.1-0.8,3.1-1.4
				c1.7-1,3.3-2.2,4.7-3.7c1-1,1.8-2.2,2.8-3.3c1.7-2,3-4.3,4.7-6.4c0.8-1.1,1.7-2.1,2.9-2.9c0.3-0.2,0.6-0.4,1-0.5
				c1.2-0.4,2.4-0.3,3.6,0.1c1.4,0.4,2.6,1.1,3.9,1.7c0.8,0.4,1.6,0.8,2.4,1.2c1.2,0.5,2.4,1.1,3.6,1.5c1.3,0.4,2.6,0.8,4,0.9
				c1.5,0.2,3,0,4.5-0.4c2.2-0.7,3.9-2,5.3-3.7c0.9-1.1,1.7-2.4,2.3-3.8c0.9-1.8,1.4-3.7,2-5.6c0.6-1.9,0.9-3.8,1.3-5.8
				c0.3-1.8,0.7-3.6,1.3-5.3c0.3-0.7,0.5-1.4,0.9-2c0.3-0.6,0.8-1.1,1.2-1.6c0.8-1.1,2-1.6,3.1-2.3c0.4-0.2,0.9-0.3,1.3-0.5
				c0.6-0.2,1.2-0.4,1.8-0.6c0.1,0,0.2-0.1,0.3-0.1c1.4-0.3,2.9-0.7,4.3-0.9c2.5-0.3,5-0.9,7.5-1.4c1-0.2,2-0.5,2.9-0.9
				c0.5-0.2,0.9-0.3,1.4-0.5c0.6-0.2,1.2-0.5,1.8-0.8c1.4-0.5,2.5-1.5,3.7-2.1c0.3-0.2,0.5-0.5,0.8-0.7c0.6-0.6,1.2-1.1,1.8-1.7
				c0.5-0.5,0.9-1.1,1.4-1.7c0.7-0.9,1.1-1.8,1.6-2.8c0.7-1.5,1.2-3.1,1.4-4.8c0.1-1.2,0.2-2.5,0-3.7c-0.1-0.8-0.4-1.5-0.5-2.3
				c-0.1-0.5-0.4-0.9-0.6-1.4c-0.6-1.1-1.4-2.1-2.3-2.9c-0.7-0.7-1.5-1.3-2.3-1.9c-0.8-0.5-1.6-1-2.4-1.5c-0.7-0.4-1.4-0.8-2.1-1.2
				c-0.6-0.4-1.3-0.7-1.9-1c-0.4-0.2-0.8-0.4-1.2-0.7c-0.6-0.3-1.1-0.7-1.7-1c-0.6-0.3-1.2-0.6-1.7-0.9
				C169.4,108.3,168.3,107.7,167.3,106.8z"/>
			<path class="st1" d="M116.5,33.5c-0.6-0.1-1.2-0.1-1.7-0.2c-1.4-0.2-2.8-0.4-4.1-0.7c-1.3-0.2-2.6-0.5-3.9-0.8
				c-0.9-0.2-1.7-0.4-2.6-0.6c-1.6-0.4-3.2-1-4.7-1.6c-1.8-0.7-3.4-1.6-5.1-2.5c-2.4-1.3-4.7-2.6-7.1-3.9c-3.4-1.8-6.9-3.4-10.7-4.3
				c-2.6-0.6-5.1-0.9-7.8-0.8c-1.6,0.1-3.3,0.3-4.8,0.7c-1.6,0.4-3.2,1-4.7,1.8c-2.2,1-4.1,2.4-5.9,3.9c-1.7,1.4-3.2,3-4.6,4.7
				c-0.9,1.1-1.7,2.3-2.4,3.5c-0.9,1.5-1.6,3.2-2.1,4.9c-0.3,1-0.4,2.1-0.4,3.2c0,0.7,0.1,1.5,0.1,2.2c0,0.3,0,0.6,0,0.9
				c0,0.4-0.2,0.5-0.6,0.7c0-0.3,0-0.6,0-1c0-0.1,0-0.2,0-0.3c-0.1-0.8-0.2-1.6-0.4-2.4c-0.3-1.5-0.2-3.1,0.1-4.6s0.8-2.9,1.5-4.2
				c0.7-1.4,1.5-2.7,2.4-3.9c0.9-1.3,2-2.5,3.1-3.6c1.4-1.4,2.9-2.7,4.5-3.8c1.4-1,2.8-1.9,4.3-2.6c1.6-0.8,3.3-1.4,5-1.9
				c1.2-0.3,2.4-0.6,3.6-0.7c1.8-0.2,3.7-0.2,5.5,0c3.1,0.4,6,1.2,8.8,2.5c3,1.3,5.8,3,8.5,4.9c1.8,1.2,3.5,2.4,5.3,3.5
				c1.2,0.7,2.4,1.4,3.7,2c1.1,0.6,2.2,1.1,3.3,1.6c1.5,0.6,3.1,1.1,4.7,1.5c2.3,0.6,4.6,1,6.9,1.4c0.6,0.1,1.2,0.2,1.7,0.3
				C116.3,33.4,116.4,33.5,116.5,33.5L116.5,33.5z"/>
			<path class="st1" d="M45.5,43.5c0.1-0.3,0.1-0.5,0.1-0.7c0.4-1.8,1.1-3.5,2.1-5.1c0.7-1,1.3-2.1,2-3.1s1.6-1.9,2.4-2.8
				c1.1-1.2,2.4-2.3,3.7-3.2c1.4-1,2.9-1.9,4.5-2.6c2.1-1,4.3-1.6,6.6-1.9c1.6-0.2,3.3-0.3,4.9-0.2c3.5,0.2,6.9,0.8,10.2,1.9
				c3.1,1,6.1,2,9.2,3.1c2.7,0.9,5.3,1.8,8.1,2.4c2.7,0.6,5.5,1.1,8.3,1.5c1.9,0.2,3.9,0.5,5.8,0.7c0.2,0,0.4,0.1,0.5,0.2
				c-0.2,0-0.5,0-0.7,0c-0.9-0.1-1.8-0.3-2.7-0.4c-1.1-0.1-2.1-0.2-3.2-0.3c-2-0.2-4-0.4-6-0.7c-1.4-0.2-2.7-0.5-4-0.7
				c-1.4-0.3-2.8-0.5-4.3-0.9c-1.7-0.4-3.4-0.8-5.1-1.2c-2.9-0.8-5.8-1.5-8.7-2c-2.3-0.4-4.5-0.7-6.8-0.8c-2.8,0-5.6,0.2-8.3,1
				C61,28.6,58.2,30,55.6,32c-1.4,1.1-2.7,2.3-3.9,3.6s-2.4,2.7-3.4,4.3c-0.5,0.8-1,1.6-1.4,2.4C46.8,42.9,46.2,43.1,45.5,43.5z"/>
			<path class="st1" d="M190.8,118.2c0-0.7,0.1-1.5,0.1-2.2c0-0.8-0.1-1.5-0.1-2.3c0-0.7-0.1-1.4-0.1-2c0,0,0,0,0-0.1
				c-0.3-1.5-0.2-3-0.9-4.4c-0.1-0.3-0.2-0.6-0.2-0.9c-0.2-0.9-0.4-1.7-0.8-2.6c-0.3-0.7-0.5-1.4-0.8-2.1s-0.7-1.4-1.1-2.1
				c-0.8-1.6-2-3-3.2-4.4c-0.7-0.7-1.4-1.4-2.2-2c-2-1.7-4.3-2.8-6.7-3.9c-1.7-0.8-3.4-1.5-4.9-2.5c-1.6-1.1-2.9-2.5-3.7-4.3
				c-0.3-0.7-0.5-1.4-0.8-2c-0.7-1.7-0.8-3.6-1.2-5.4c0-0.1,0-0.1,0.1-0.2c0.1,0.5,0.2,1,0.3,1.5c0.2,1,0.6,2,1,3
				c0.4,0.8,0.7,1.6,1.2,2.4s1.2,1.5,1.8,2.2c1.2,1.2,2.7,2,4.2,2.8c2.5,1.3,5.1,2.6,7.4,4.2c1.6,1.1,3,2.4,4.3,3.8
				c1.1,1.3,2.2,2.7,3,4.3c0.4,0.8,0.8,1.6,1.2,2.5c0.2,0.4,0.3,0.9,0.5,1.3c0.7,1.9,1.2,3.8,1.5,5.8c0.1,0.6,0.2,1.3,0.3,1.9
				s0.1,1.2,0.1,1.8c0,0.5,0,1,0.1,1.4c0.1,0.9,0,1.8,0,2.7c0,1-0.1,2-0.1,3c0,0.3-0.1,0.6-0.1,0.9s0,0.6-0.1,0.9
				c-0.1-0.3-0.2-0.5-0.2-0.8c0-0.7-0.1-1.4-0.3-2.1c-0.1-0.4-0.2-0.9-0.3-1.3c-0.1-0.7-0.3-1.4-0.7-2c-0.1-0.1-0.1-0.3-0.2-0.5
				c-0.4-1-1.1-1.9-1.8-2.7c-0.8-0.9-1.8-1.7-2.9-2.3c-2.5-1.4-5.3-1.9-8.1-2.4c-2-0.4-4-0.8-6-1.4c-1.6-0.5-3.2-1.2-4.6-2.2
				c-0.8-0.6-1.4-1.4-1.8-2.3c-0.4-1-0.6-2.1-0.7-3.2c-0.1-1.5,0-3,0.1-4.5c0-1.1,0.2-2.1,0.2-3.2c0-0.8,0-1.5,0.1-2.3
				c0-0.7,0-1.5,0-2.2c0-0.5-0.1-1-0.1-1.5c-0.1-0.7-0.1-1.4-0.1-2.1c0-0.2-0.1-0.5-0.1-0.7c-0.2-0.9-0.3-1.8-0.5-2.7
				c-0.2-0.8-0.3-1.7-0.6-2.5c-0.3-0.9-0.7-1.8-1-2.7c-0.4-1.3-1-2.5-1.6-3.7c-0.7-1.4-1.5-2.7-2.4-4c-1.2-2-2.7-3.8-4.1-5.6
				c-0.6-0.8-1.3-1.6-2-2.3c-1.4-1.5-2.8-3-4.3-4.5c-0.8-0.8-1.7-1.6-2.6-2.4c-1.3-1.2-2.7-2.4-4.1-3.5c-1.1-0.9-2.2-1.7-3.3-2.5
				c0,0-0.1,0-0.1-0.1c-0.7-0.8-1.8-1.2-2.6-1.9c-0.9-0.7-1.7-1.3-2.7-1.8c-0.4-0.2-0.7-0.5-1.1-0.7c-0.8-0.5-1.7-1-2.5-1.4
				c-1-0.5-1.9-1.1-2.9-1.5c-0.8-0.4-1.6-0.7-2.4-1c-1.7-0.7-3.4-1.2-5.1-1.6c-1.3-0.3-2.6-0.5-3.9-0.7c-0.3-0.1-0.5-0.1-0.9-0.2
				c0.2,0,0.3-0.1,0.4-0.1c1.7,0.3,3.3,0.5,5,0.8c2.2,0.5,4.4,1.1,6.5,2c1.2,0.5,2.4,1.1,3.5,1.7c2.8,1.3,5.3,3.1,7.8,4.8
				c0.8,0.6,1.6,1.2,2.4,1.8c1.4,1.1,2.8,2.2,4.2,3.4c0.8,0.7,1.6,1.4,2.3,2.1c1.6,1.5,3.2,3,4.7,4.6c1.8,1.9,3.5,3.9,5.1,5.9
				c1.1,1.4,2.1,2.9,3.1,4.4c0.7,1,1.3,2.1,1.8,3.2c0.5,0.9,0.9,1.9,1.3,2.8c0.2,0.4,0.3,0.8,0.4,1.2c0.1,0.4,0.3,0.8,0.4,1.2
				c0.3,0.9,0.6,1.8,0.8,2.8c0.3,1,0.4,2,0.6,3c0.2,1,0.3,2,0.4,2.9c0.1,0.8,0.1,1.7,0.1,2.6c0,1.2,0.1,2.3,0.1,3.5
				c0,0.9-0.1,1.8-0.1,2.8c-0.1,1.4-0.1,2.8-0.2,4.2c0,0.8,0,1.6,0,2.3c0.1,0.8,0.2,1.7,0.7,2.4c0.3,0.5,0.5,1,0.9,1.4
				c0.8,0.9,1.8,1.5,3,1.9c1.9,0.8,3.9,1.1,6,1.4c1.9,0.3,3.8,0.6,5.7,1c1.8,0.4,3.6,1,5.1,2.1c1.1,0.7,2,1.5,2.7,2.7
				c0.3,0.5,0.7,0.9,0.9,1.4c0.2,0.4,0.3,0.8,0.5,1.1c0.2,0.4,0.4,0.8,0.5,1.3c0.1,0.2,0.1,0.4,0.2,0.5
				C190.3,116.3,190.5,117.3,190.8,118.2C190.7,118.2,190.7,118.2,190.8,118.2z"/>
			<path class="st1" d="M120.7,33.9c-0.2,0-0.4,0-0.5,0c-1.4-0.3-2.9-0.6-4.3-1c-1.3-0.3-2.7-0.5-4-0.8c-1.5-0.4-2.9-0.8-4.3-1.2
				c-1.3-0.3-2.4-0.9-3.6-1.4c-0.4-0.2-0.8-0.4-1.2-0.6c-0.9-0.5-1.8-1-2.7-1.7c-1.2-0.9-2.4-1.8-3.5-2.7c-0.9-0.8-1.8-1.6-2.8-2.3
				c-1.2-1-2.4-2.1-3.6-3c-1.3-1-2.5-2-3.9-2.9c-2.5-1.8-5.3-3.1-8.2-4c-1.4-0.4-2.9-0.7-4.3-0.8c-0.4,0-0.8-0.1-1.1-0.1
				c-0.7,0-1.4,0-2.1,0c-1.9,0.1-3.7,0.4-5.6,0.8c-0.6,0.1-1.2,0.4-1.8,0.6c-0.5,0.2-0.9,0.3-1.4,0.5c-0.6,0.2-1.2,0.5-1.8,0.7
				c-0.5,0.2-1.1,0.4-1.6,0.7c-0.9,0.5-1.8,1-2.7,1.5c-2.5,1.4-4.7,3.2-6.8,5.1c-1.1,1-2,2.1-2.9,3.2c-1,1.3-1.9,2.6-2.7,4
				c-1,1.7-1.6,3.5-2,5.4c-0.1,0.7-0.1,1.4-0.2,2c-0.1,0.8,0,1.7,0.2,2.5c0,0.1,0,0.3,0,0.5c0,0.1,0,0.3,0,0.3
				c0.3,0.5,0.3,1.1,0.5,1.6c0.2,0.6,0.4,1.2,0.7,1.8c0.2,0.6,0.2,1.2,0.2,1.8c0,0.4-0.1,0.7-0.2,1.1c-0.1,0.2-0.2,0.4-0.3,0.5h-0.1
				c0-0.1,0-0.3,0.1-0.4c0.3-1,0.1-2-0.3-3c-0.2-0.4-0.3-0.7-0.4-1.1c-0.2-0.5-0.3-1-0.5-1.5c-0.2-0.6-0.3-1.1-0.5-1.7
				c-0.4-1.4-0.4-2.9-0.2-4.4c0.2-1.9,0.8-3.6,1.6-5.3c0.9-1.9,2.1-3.6,3.4-5.2c2.2-2.6,4.7-4.8,7.5-6.7c1.8-1.2,3.7-2.3,5.7-3.3
				c1.5-0.7,3-1.3,4.5-1.9c1.9-0.7,3.9-1.1,5.9-1.4c1.6-0.2,3.3-0.4,5-0.2c1.3,0.1,2.5,0.3,3.8,0.5c1.8,0.4,3.6,1,5.2,1.8
				c1.7,0.8,3.2,1.8,4.7,2.9c1.9,1.5,3.7,3.1,5.5,4.7c1.5,1.4,3,2.9,4.5,4.3c1.2,1.1,2.5,2.2,3.9,3.2c1.3,0.9,2.7,1.7,4.2,2.4
				c2,0.9,4,1.5,6.1,2c1.6,0.4,3.2,0.7,4.8,1c1.3,0.3,2.7,0.6,4,0.9C120.5,33.7,120.6,33.8,120.7,33.9
				C120.7,33.8,120.7,33.8,120.7,33.9z"/>
			<path class="st1" d="M188.8,110c0-0.3,0-0.4,0-0.5h0.1c0,0.1,0.1,0.2,0.1,0.3c0,0.3,0,0.5,0,0.8c0.1,0.2,0.2,0.4,0.4,0.6
				c-0.2-0.9-0.3-1.9-0.6-2.8c-0.1-0.5-0.4-1-0.6-1.5c-0.1-0.4-0.3-0.8-0.4-1.2c-0.2-1-0.8-1.7-1.2-2.6c-0.3-0.6-0.6-1.2-1-1.7
				c-0.1-0.2-0.3-0.4-0.4-0.6c-0.5-0.6-1-1.2-1.6-1.8c-0.5-0.7-1.2-1.2-1.9-1.7c-0.6-0.4-1.1-0.9-1.8-1.3c-1.7-1.1-3.6-1.9-5.6-2.5
				c-1.5-0.5-3.1-0.9-4.6-1.4c-1.2-0.4-2.1-1.1-2.8-2.1c-0.3-0.4-0.5-1-0.7-1.5c-0.6-1.6-0.8-3.3-1.2-4.9c-0.1-0.4-0.3-0.9-0.3-1.3
				c0,0.1,0.1,0.2,0.1,0.2s0.1,0,0.1-0.1c0-0.4-0.1-0.8-0.3-1.1c-0.2-0.2-0.1-0.4,0.1-0.8c0.1,0.2,0.1,0.3,0.2,0.4
				c0.2,1,0.4,2,0.6,3c0.2,1.3,0.7,2.5,1.4,3.7c0.8,1.3,2,2.2,3.4,2.8c1.6,0.6,3.2,1.2,4.8,1.8c2.2,0.8,4.4,1.9,6.2,3.4
				c2,1.5,3.5,3.4,4.8,5.6c0.6,0.9,0.9,2,1.4,2.9c0.5,1,0.7,2.2,1.1,3.2c0.5,1.3,0.7,2.8,1,4.1c0.2,0.9,0.3,1.9,0.3,2.9
				c0-0.1-0.1-0.2-0.1-0.4c0-0.1-0.1-0.3-0.1-0.5c-0.2-0.9-0.5-1.7-0.9-2.6c-0.3-0.6-0.5-1.1-0.9-1.7c-0.5-0.7-1-1.4-1.5-2.1
				c-0.9-1.2-2.2-2-3.5-2.7s-2.7-1.2-4.2-1.4c-1.7-0.3-3.3-0.5-5-0.7c-1.6-0.2-3.3-0.4-4.9-0.8c-0.7-0.2-1.3-0.4-1.9-0.8
				c-0.9-0.5-1.6-1.3-2-2.2c-0.3-0.7-0.5-1.5-0.6-2.2c-0.1-0.8-0.1-1.7-0.1-2.5s0-1.6,0-2.4c0-1.1,0.1-2.1,0.1-3.2
				c0-0.4,0-0.8,0-1.1c0-0.4,0-0.7,0-1.1c0-0.5,0-1.1-0.1-1.6c0-0.5,0-1.1,0-1.6c0-0.6-0.2-1.3-0.2-1.9c0-0.3,0-0.7-0.1-1
				c0-0.2,0-0.3-0.1-0.5c-0.3-1.4-0.5-2.9-0.9-4.3c-0.3-0.8-0.4-1.7-0.8-2.6c-0.2-0.4-0.3-0.9-0.4-1.3c-0.3-0.8-0.6-1.6-1-2.4
				c-0.3-0.7-0.7-1.3-1-2c-0.3-0.6-0.7-1.3-1-1.9c-0.4-0.7-0.8-1.5-1.3-2.1c-0.7-1-1.4-2-2.2-3c-1.5-1.9-3-3.7-4.7-5.5
				s-3.5-3.5-5.3-5.2c-0.7-0.7-1.5-1.3-2.3-1.9c-0.6-0.5-1.3-1.1-1.9-1.6c-0.4-0.3-0.8-0.6-1.2-0.9c-0.5-0.4-1.1-0.8-1.7-1.2
				c-1.2-0.9-2.4-1.8-3.7-2.6c-1-0.6-2-1.2-3.1-1.8c-0.7-0.4-1.5-0.9-2.3-1.2c-1.7-0.8-3.4-1.6-5.2-2.1c-1.1-0.3-2.1-0.6-3.2-1
				c0.3,0,0.5,0.1,0.8,0.1c1.9,0.5,3.8,1,5.6,1.7c1.2,0.5,2.3,1,3.5,1.6c1,0.5,2,1,2.9,1.6c1.2,0.7,2.3,1.5,3.5,2.3
				c1.5,1,2.9,2.1,4.3,3.1c0.5,0.4,1,0.9,1.5,1.3c0.9,0.8,1.9,1.6,2.8,2.5c1.3,1.2,2.6,2.5,3.8,3.7c1.7,1.7,3.3,3.5,4.8,5.4
				c1.6,2,3,4,4.3,6.2c0.8,1.4,1.5,2.8,2.2,4.2c0.3,0.7,0.5,1.4,0.8,2.1c0.1,0.3,0.2,0.6,0.3,0.8c0.3,0.4,0.3,0.9,0.4,1.4
				c0.2,0.7,0.5,1.5,0.7,2.2c0,0.1,0.1,0.3,0.1,0.4c0.1,0.6,0.3,1.2,0.4,1.9c0.2,1.3,0.4,2.6,0.5,4c0.1,0.7,0.1,1.5,0.1,2.2
				c0,0.4,0.1,0.8,0.1,1.2c0,1,0.1,2,0.1,2.9c0,1.1-0.1,2.2-0.1,3.3c0,1,0.1,2.1,0.1,3.1c0,0.8,0.2,1.6,0.4,2.4
				c0.2,1.2,0.8,2.2,1.8,2.8c0.6,0.4,1.3,0.6,1.9,0.8c1.7,0.5,3.5,0.6,5.3,0.8c2.2,0.2,4.3,0.5,6.4,1.2c0.8,0.3,1.6,0.7,2.4,1.1
				c0.9,0.4,1.6,1.1,2.3,1.8c1.3,1,2,2.4,2.9,3.8C188.4,109.1,188.6,109.5,188.8,110z"/>
			<path class="st1" d="M105.4,29c-0.8-0.4-1.7-0.8-2.4-1.4c-0.2-0.2-0.4-0.3-0.6-0.5c-0.8-0.5-1.5-1.2-2.2-1.8
				c-1.2-1-2.2-2.3-3.3-3.4c-1.1-1.2-2.1-2.4-3.2-3.6c-1.3-1.4-2.6-2.7-3.9-4c-0.5-0.6-1.2-1.1-1.7-1.6c-0.2-0.2-0.5-0.4-0.7-0.6
				c-0.5-0.4-1-0.7-1.5-1.1c-0.8-0.6-1.7-1-2.6-1.5c-1.2-0.7-2.5-1-3.7-1.4C79.1,8,78.5,8,77.9,7.8c-1.2-0.2-2.5-0.3-3.7-0.3
				c-0.8,0-1.6,0-2.3,0h-0.1c-1.1,0.2-2.1,0.3-3.2,0.5c-1,0.2-2,0.4-3,0.6c-0.7,0.2-1.5,0.4-2.2,0.6c-0.9,0.3-1.8,0.6-2.7,1
				c-1.1,0.4-2.2,0.8-3.3,1.3c-1.6,0.8-3.3,1.6-4.8,2.5c-2.1,1.2-4,2.6-5.8,4.2c-1,0.9-2,1.9-3,2.9C43,22,42.2,23,41.5,23.9
				c-0.5,0.8-0.9,1.6-1.4,2.4c-0.8,1.3-1.2,2.9-1.6,4.3c-0.2,0.6-0.1,1.2-0.2,1.8c0,0.3,0,0.6-0.1,0.9c0,0.5,0,0.9,0,1.4
				c0.1,0.8,0.2,1.7,0.4,2.5c0.2,0.7,0.4,1.4,0.7,2c0.3,0.8,0.7,1.6,1,2.5c0.2,0.5,0.5,1,0.7,1.5c0.3,0.9,0.6,1.9,0.3,2.8
				c0,0.2,0,0.2-0.3,0.3c0.1-1.4-0.5-2.5-1.1-3.7c-0.5-1.1-1-2.2-1.5-3.3c-0.2-0.5-0.3-1.1-0.5-1.6c-0.1-0.3-0.2-0.7-0.3-1
				c0-0.1-0.1-0.3-0.1-0.4c-0.1-1.1-0.3-2.1-0.3-3.2c0-0.7,0.2-1.5,0.2-2.2c0.1-1.4,0.7-2.5,1-3.8c0.4-1.4,1.3-2.5,2-3.7
				s1.6-2.1,2.5-3.1c1.6-1.8,3.5-3.4,5.5-4.8c1.8-1.3,3.8-2.4,5.7-3.4c0.9-0.5,1.8-0.9,2.7-1.3c0.6-0.3,1.2-0.5,1.8-0.8
				c0.3-0.1,0.7-0.3,1.1-0.4c0.9-0.3,1.8-0.6,2.8-0.9c0.9-0.3,1.8-0.6,2.7-0.8c0.2-0.1,0.3-0.1,0.5-0.1c1.1-0.2,2.3-0.5,3.4-0.7
				c0.9,0.1,1.8,0,2.8-0.1c1.4-0.1,2.8-0.1,4.1-0.1c2.3,0,4.5,0.5,6.6,1.3c1.5,0.6,2.8,1.3,4.1,2.3c1.3,0.9,2.4,1.9,3.5,3
				c0.8,0.7,1.4,1.5,2.1,2.3c1.6,1.9,3.2,3.9,4.8,5.8c1.3,1.5,2.6,3,4,4.3c1,0.9,2,1.6,3.1,2.3c0.2,0.1,0.3,0.2,0.5,0.3
				c0.2,0.1,0.4,0.2,0.6,0.4C105.4,28.9,105.4,28.9,105.4,29z"/>
			<path class="st1" d="M108.6,33.4c-0.2,0.1-0.4,0.2-0.6,0.2c-1,0-2-0.1-2.9-0.1c-1.1,0-2.1-0.1-3.2-0.1s-2.3,0-3.4,0
				c-0.9,0-1.7-0.1-2.6-0.1c-0.6,0-1.2,0-1.9,0c-0.9,0-1.7,0-2.6-0.1c-0.6,0-1.2,0-1.8,0c-0.9,0-1.8,0-2.7,0c-0.6,0-1.1,0-1.7,0
				s-1.2,0-1.8,0c-0.7,0-1.4,0-2.1,0s-1.4,0-2.1,0c-0.4,0-0.9,0-1.3,0.1c-0.4,0-0.8,0-1.2,0.1c-1.4,0.1-2.8,0.1-4.2,0.3
				c-2.5,0.3-4.7,0.7-7,1.3c-1.4,0.4-2.9,1-4.2,1.5c-1.1,0.5-2.1,1.1-3.2,1.6c-0.3,0.2-0.7,0.4-1,0.5c-0.6,0.2-1.3,0.4-1.9,0.5
				c-0.6,0.2-1.1,0.4-1.7,0.6c-0.2,0.1-0.4,0.1-0.6,0.1c0.1-0.1,0.1-0.2,0.2-0.3c1.7-1.4,3.4-2.8,5.4-3.8c1.7-1,3.6-1.8,5.5-2.5
				c2-0.7,4-1.1,6.1-1.4c1-0.1,1.9-0.2,2.9-0.2c1.3-0.1,2.6-0.1,4-0.1c1.9,0,3.7,0.2,5.6,0.3c1.5,0.1,3,0.2,4.5,0.3
				c2,0.2,4,0.3,5.9,0.5c1.5,0.1,3,0.2,4.5,0.3c1.2,0.1,2.3,0.1,3.5,0.2c0.7,0,1.5,0,2.2,0.1c1.6,0.1,3.2,0.2,4.7,0.2
				C108.2,33.5,108.4,33.4,108.6,33.4L108.6,33.4z"/>
			<path class="st1" d="M163.9,72.1c0.9,2.5,2.3,4.7,4.3,6.4c0.8,0.7,1.7,1.4,2.7,2c1.8,1.1,3.6,2.2,5.5,3.2c2.4,1.4,4.8,2.8,7,4.6
				c2.1,1.7,3.9,3.7,5.4,5.9c0.9,1.4,1.7,2.8,2.2,4.3c0.4,1.2,0.9,2.5,1.1,3.8c0.2,1.2,0.5,2.5,0.7,3.7c0.1,0.6,0.1,1.3,0.1,1.9
				c0,0.8,0.1,1.5,0.1,2.3s0,1.7,0,2.5c-0.1,1.6-0.3,3.3-0.5,4.9c-0.1,0.9-0.3,1.7-0.5,2.6c-0.2,0.8-0.3,1.6-0.6,2.4
				c-0.2,0.6-0.4,1.2-0.6,1.7h-0.1c0-0.3,0-0.6,0-0.8c0.1-0.1,0.3-0.2,0.3-0.3c0.1-0.5,0.3-1.1,0.4-1.6c0.2-0.9,0.4-1.9,0.5-2.8
				c0.1-1,0.3-2.1,0.4-3.1c0.1-0.7,0.1-1.4,0.1-2.1s0-1.4,0-2.2c0-0.5,0-0.9,0-1.4c0-0.4,0-0.8,0-1.1c-0.1-0.8-0.2-1.6-0.3-2.4
				s-0.3-1.7-0.5-2.5c-0.2-1-0.5-2.1-0.8-3.1c-0.2-0.6-0.5-1.2-0.7-1.8c-0.6-1.5-1.4-2.9-2.3-4.3c-1-1.5-2.2-2.9-3.6-4.2
				c-2.2-2-4.6-3.6-7.2-5.1c-1.7-1-3.4-1.9-5-2.9c-1.4-0.9-2.8-1.8-4-3.1c-1-1-1.8-2.2-2.4-3.5c-0.4-0.8-0.7-1.6-1-2.5
				c-0.2-0.5-0.3-0.9-0.4-1.4C163.9,72.2,163.9,72.2,163.9,72.1z"/>
			<path class="st1" d="M192.9,118.5c0.1-0.6,0.3-1.2,0.4-1.8c0.2-1.1,0.4-2.3,0.6-3.4c0.3-1.7,0.3-3.5,0.4-5.3c0-0.3,0-0.7,0-1
				c-0.1-0.9-0.2-1.7-0.2-2.6c0-0.7-0.2-1.4-0.3-2c0-0.2-0.1-0.4-0.1-0.6c0-1.1-0.4-2.1-0.7-3.1c-0.3-1.1-0.6-2.2-1.2-3.3
				c-0.3-0.6-0.6-1.2-0.9-1.8c-1-1.8-2.1-3.4-3.6-4.9c-0.9-0.9-1.9-1.7-2.8-2.5c-1.4-1.1-2.9-2.1-4.4-3c-1.4-0.9-2.8-1.6-4.3-2.4
				c-0.8-0.4-1.6-0.8-2.4-1.3c-1-0.5-1.9-1.1-2.9-1.6c-1.3-0.7-2.4-1.5-3.5-2.5c-0.8-0.7-1.6-1.4-2.2-2.3c-0.1-0.2-0.2-0.4-0.4-0.6
				l0.1-0.1c0.2,0.2,0.4,0.5,0.6,0.7c0.4,0.4,0.9,0.9,1.4,1.3c1.7,1.4,3.7,2.4,5.6,3.4c2.9,1.5,5.8,2.8,8.6,4.4c1.6,0.9,3,1.9,4.4,3
				c1.6,1.2,3,2.6,4.3,4.2s2.3,3.4,3.1,5.3c0.8,2,1.4,4.1,1.7,6.3c0.2,1.2,0.4,2.4,0.3,3.6c0,0.7,0.1,1.3,0.1,2c0,0.6,0,1.2-0.1,1.8
				c-0.1,1.1-0.2,2.1-0.3,3.2c-0.2,1.4-0.4,2.8-0.7,4.2c-0.2,0.9-0.5,1.7-0.8,2.6C193,118.5,193,118.5,192.9,118.5z"/>
			<path class="st1" d="M8.4,118.7c-0.1-0.3-0.3-0.5-0.4-0.8c-0.3-0.7-0.6-1.5-0.9-2.2C7,115.6,7,115.4,7,115.3
				c-0.2-0.8-0.3-1.7-0.5-2.5c-0.2-1-0.2-2-0.2-3.1c0-1,0.1-2,0.3-3.1c0.3-1.6,0.7-3.2,1.4-4.7s1.3-3.1,2.1-4.5
				c1.3-2.6,2.7-5,4.2-7.4c1.4-2.2,2.9-4.3,4.4-6.5c2-2.8,4-5.6,6-8.4c0.7-0.9,1.3-1.8,2-2.7c0.1-0.2,0.3-0.3,0.5-0.5
				c-0.1,0.9,0,1.8-0.7,2.7c-1,1.3-2,2.7-3,4.1c-0.6,0.9-1.3,1.8-1.9,2.7c-1.1,1.6-2.3,3.1-3.4,4.7c-1.1,1.5-2.1,3.1-3.1,4.6
				c-0.6,0.9-1.2,1.9-1.8,2.9s-1.1,1.9-1.7,2.9c-0.5,0.8-0.9,1.6-1.4,2.5c-1.1,2.2-2.1,4.4-2.8,6.8c-0.3,1-0.4,2-0.6,3
				c-0.2,0.9-0.2,1.9-0.2,2.9c0,0.8,0.2,1.6,0.3,2.4c0.1,0.4,0.2,0.9,0.3,1.3c0.1,0.7,0.4,1.2,0.6,1.8
				C8.1,117.6,8.5,118.1,8.4,118.7L8.4,118.7z"/>
			<path class="st1" d="M28.9,65.4c-0.4,0.8-0.4,1.6-1.1,2.3c-0.4,0.4-0.6,0.9-1,1.3c-0.7,0.8-1.3,1.8-2.1,2.6
				c-0.3,0.4-0.7,0.8-1,1.2c-1.3,1.7-2.6,3.5-3.9,5.2c-0.7,1-1.5,2-2.2,3c-0.6,0.8-1.1,1.5-1.6,2.3c-0.6,0.9-1.3,1.8-1.9,2.7
				c-0.5,0.8-1,1.6-1.5,2.5c-0.4,0.7-0.8,1.4-1.2,2.1c-0.5,0.9-1,1.9-1.5,2.8c-0.3,0.6-0.7,1.3-1,1.9c-0.6,1.3-1.1,2.5-1.7,3.8
				c-0.5,1.2-0.9,2.5-1.3,3.8c-0.2,0.6-0.3,1.3-0.4,1.9c-0.2,1.2-0.3,2.4-0.4,3.6c0,0.4,0,0.8,0.1,1.1c0.1,0.8,0.1,1.7,0.3,2.5
				c0.1,0.3,0.1,0.7,0.2,1H5.6c0-0.1-0.1-0.2-0.1-0.3c-0.2-0.8-0.4-1.6-0.5-2.4c-0.1-1.1-0.3-2.2-0.2-3.4c0.1-0.5,0-1.1,0.1-1.6
				c0.3-2.4,0.9-4.8,1.7-7.1c0.5-1.3,1-2.5,1.6-3.8c0.8-1.6,1.6-3.1,2.4-4.7c0.9-1.7,1.8-3.3,2.8-4.9c1.7-2.7,3.5-5.2,5.4-7.7
				c1.4-1.9,2.9-3.8,4.4-5.7c1.5-1.8,3-3.7,4.5-5.5c0.2-0.2,0.4-0.5,0.6-0.7C28.8,65.4,28.9,65.4,28.9,65.4z"/>
			<path class="st1" d="M39.3,48c-0.2-0.6-0.4-1.2-0.7-1.8c-0.2-0.6-0.5-1.1-0.7-1.7c-0.4-0.9-0.8-1.7-1.1-2.6
				c-0.3-0.8-0.6-1.6-0.9-2.4c-0.1-0.1-0.1-0.3-0.1-0.4C35.5,38,35.3,37,35,36c-0.2-0.7-0.2-1.3-0.2-2s-0.1-1.4-0.1-2.2
				c0-0.5,0.1-1.1,0.2-1.6c0.2-0.9,0.3-1.8,0.5-2.7c0.1-0.5,0.4-1,0.6-1.5c0.3-0.7,0.6-1.3,0.9-2c0.4-0.7,0.9-1.4,1.4-2.2
				c0.2-0.2,0.4-0.4,0.5-0.7c0.7-1.1,1.7-1.9,2.6-2.8c2.1-2.1,4.6-3.7,7.1-5.2c1.5-0.9,3.2-1.7,4.8-2.4c0.8-0.4,1.7-0.7,2.5-1
				s1.6-0.6,2.4-0.9c0.1,0,0.1,0,0.2-0.1C59.3,8.5,60.2,8.3,61,8c1.9-0.7,3.8-0.9,5.7-1.3c0.9-0.2,1.9-0.3,2.8-0.4s1.8-0.2,2.7-0.3
				c0.4,0,0.7,0,1.1,0c-0.3,0.2-0.4,0.2-0.7,0.2c-0.1,0-0.2-0.1-0.3,0c-0.5,0.1-1.1,0.1-1.6,0.2c-2.4,0.3-4.8,0.8-7.1,1.3
				c-0.9,0.2-1.7,0.4-2.5,0.7c-0.9,0.3-1.8,0.5-2.7,0.9c-0.7,0.3-1.4,0.6-2.2,0.9c-0.6,0.2-1.2,0.4-1.9,0.7
				c-0.6,0.3-1.2,0.6-1.9,0.9c-0.8,0.4-1.5,0.8-2.3,1.2c-1.2,0.7-2.3,1.3-3.4,2.1c-2.2,1.5-4.2,3.1-6,5c-1.3,1.4-2.3,2.9-3.3,4.5
				c-0.5,0.7-0.7,1.6-1.1,2.4c-0.7,1.6-0.8,3.3-1.1,5.1c-0.1,0.4,0,0.8,0.1,1.2c0,0.6,0,1.2,0.1,1.8c0,0.1,0,0.3,0.1,0.4
				c0.1,0.4,0.1,0.7,0.2,1.1c0.3,1,0.5,2.1,0.8,3.1c0.2,0.7,0.6,1.4,0.8,2c0.4,1,0.8,1.9,1.2,2.9c0.3,0.6,0.6,1.2,0.8,1.9
				c0.2,0.4,0.2,0.9,0.3,1.3C39.8,47.7,39.8,47.8,39.3,48z"/>
			<path class="st1" d="M165.1,86.7c0.1,0.3,0.2,0.7,0.1,1c0,0.1,0,0.2,0,0.2c0.2,1.3,0.3,2.5,0.6,3.8s1,2.5,2.3,3.2
				c0.6,0.3,1.3,0.6,2,0.7c1.4,0.3,2.7,0.5,4.1,0.8c1.6,0.3,3.3,0.7,4.8,1.4c1.9,0.8,3.6,1.9,5.1,3.4c1.3,1.3,2.3,2.8,3.2,4.4
				c0.2,0.4,0.4,0.9,0.6,1.3c0,0.1,0,0.2,0,0.4c-0.3-0.5-0.6-1-0.8-1.5c-0.5-1-1.2-1.8-1.9-2.6c-1.1-1.3-2.5-2.2-3.9-3.1
				c-1.2-0.7-2.5-1.1-3.8-1.5c-1.9-0.5-3.9-0.7-5.9-1c-1.2-0.2-2.3-0.4-3.4-0.9c-0.6-0.3-1.2-0.7-1.6-1.3c-0.5-0.7-0.8-1.4-0.9-2.2
				c0-0.3-0.1-0.6-0.2-0.9c-0.1-0.8-0.3-1.6-0.3-2.4c-0.1-0.8,0-1.7-0.1-2.5C165.1,87.2,165,87,165.1,86.7
				C165,86.7,165.1,86.7,165.1,86.7z"/>
			<path class="st1" d="M134.2,37.1c0.6,0.2,1.2,0.3,1.8,0.5c0.9,0.3,1.9,0.5,2.8,0.8c2.4,0.6,4.9,1.2,7.3,1.8
				c2.6,0.6,5.1,1.5,7.5,2.6c1.5,0.7,3,1.6,4.2,2.8c1,1,1.9,2,2.6,3.2c0.9,1.6,1.5,3.2,1.7,5c0.1,1.3,0.2,2.5,0.1,3.8
				c-0.1,2-0.6,4-0.8,6c-0.2-0.4-0.2-0.6-0.1-1.2c0.1-0.9,0.2-1.8,0.3-2.7c0.1-1.1,0-2.1,0-3.2c0-1-0.1-1.9-0.3-2.9
				c-0.2-0.8-0.5-1.6-0.8-2.4c-0.3-0.8-0.8-1.6-1.2-2.4c-0.3-0.6-0.8-1.1-1.3-1.7c-1.2-1.3-2.5-2.3-4-3.1c-1.2-0.7-2.5-1.3-3.8-1.8
				c-1.4-0.5-2.8-1-4.3-1.4c-2.4-0.7-4.8-1.3-7.2-2c-1.5-0.4-3-1-4.5-1.4C134.3,37.3,134.2,37.3,134.2,37.1
				C134.2,37.2,134.2,37.2,134.2,37.1z"/>
			<path class="st1" d="M187.2,135.3c0.2,0.1,0.2,0.3,0.1,0.5c-0.1,0.2-0.2,0.4-0.4,0.6c-0.4,0.5-0.7,0.9-1.1,1.4
				c-0.6,1-1.4,1.8-2.2,2.6c-1.3,1.5-2.9,2.4-4.5,3.5c-0.9,0.6-1.8,0.9-2.7,1.4c-0.8,0.5-1.8,0.7-2.7,1c-1,0.3-2.1,0.7-3.1,1
				c-0.5,0.2-1,0.2-1.4,0.4c-2,0.6-4,1-6,1.5c-0.8,0.2-1.5,0.5-2.3,0.7c-0.5,0.2-1,0.3-1.5,0.5c-0.8,0.4-1.6,0.7-2.4,1.2
				c-0.4,0.2-0.7,0.5-1,0.8c-0.4,0.3-0.7,0.7-1.1,1c-0.3,0.3-0.5,0.7-0.8,1.1c-0.3,0.4-0.5,0.9-0.7,1.4c0,0-0.1,0.1-0.2,0.2
				c-0.1-0.4,0-0.6,0.1-0.9c0.4-0.7,0.7-1.4,1.1-2.1c0.2-0.4,0.5-0.7,0.8-1s0.7-0.6,1-1c0.4-0.5,1-0.7,1.5-1
				c0.4-0.2,0.9-0.4,1.3-0.6c0.6-0.3,1.1-0.5,1.8-0.6c0.8-0.2,1.6-0.5,2.4-0.8c0.1,0,0.3-0.1,0.4-0.1c0.5-0.1,1-0.2,1.5-0.3
				c1.6-0.4,3.1-0.7,4.7-1.1c0.7-0.2,1.4-0.4,2.1-0.6c0.5-0.1,1-0.4,1.5-0.6c0.4-0.2,0.8-0.4,1.3-0.4c1.1-0.2,2-0.8,3-1.3
				c0.6-0.3,1.1-0.6,1.6-0.9c0.4-0.3,0.9-0.5,1.3-0.8c1.1-0.8,2.2-1.7,3.2-2.7c1.2-1.2,2.1-2.6,3.1-4
				C187.3,135.4,187.2,135.3,187.2,135.3L187.2,135.3z"/>
			<path class="st1" d="M30.7,60.6c-0.1,0.9-0.7,1.4-1.2,2s-1,1.1-1.5,1.7s-1,1.1-1.5,1.7c-0.4,0.5-0.9,1-1.3,1.6
				c-0.5,0.6-1,1.2-1.5,1.8c-0.3,0.3-0.5,0.6-0.8,1c-0.7,0.8-1.4,1.6-2,2.5c-0.4,0.5-0.7,1-1.1,1.5s-0.8,1-1.3,1.6
				c-0.3,0.4-0.7,0.8-1,1.3c-0.5,0.7-1,1.3-1.5,2c-1,1.4-2,2.8-2.9,4.2c-0.5,0.7-0.8,1.5-1.3,2.2c-0.3,0.6-0.7,1.2-1,1.8
				c-0.4,0.8-0.9,1.7-1.3,2.5c-0.4,0.8-0.8,1.6-1.2,2.5c-0.5,1.2-1.1,2.4-1.5,3.6c-0.5,1.3-0.9,2.6-1.3,4c-0.1,0.3-0.1,0.5-0.2,0.8
				H5.2c0.1-0.4,0.1-0.8,0.2-1.2c0.2-0.9,0.4-1.8,0.7-2.7c0.4-1.2,0.8-2.4,1.3-3.5c0.5-1.2,1.1-2.4,1.6-3.6c0.5-1.1,1.1-2.1,1.7-3.1
				c1.1-2.1,2.3-4.1,3.6-6c0.6-0.9,1.3-1.7,2-2.6c0.4-0.5,0.8-1.1,1.2-1.6c0.4-0.5,0.8-1,1.3-1.6c0.6-0.7,1.1-1.4,1.7-2.1
				s1.1-1.4,1.7-2.1c0.5-0.6,0.9-1.1,1.4-1.7s1-1.2,1.6-1.8c0.5-0.6,0.9-1.1,1.4-1.7c0.4-0.5,0.9-1,1.3-1.4c0.5-0.5,0.9-1.1,1.4-1.6
				C29.7,61.6,30.2,61.1,30.7,60.6z"/>
			<path class="st1" d="M134.3,37.9c0.1,0,0.3,0,0.4,0c1.2,0.5,2.5,0.9,3.7,1.5c1.4,0.6,2.9,1,4.3,1.5c1.5,0.5,2.9,1,4.4,1.5
				c1.7,0.6,3.4,1.3,5,2.2c1.2,0.6,2.3,1.4,3.3,2.3c0.9,0.7,1.6,1.6,2.3,2.5s1.2,2,1.7,3c0.6,1.5,0.9,3.1,1.2,4.7
				c0.1,0.7,0.1,1.4,0.2,2.1c0,0.5,0.1,1,0.1,1.5c0,0.3,0,0.6,0,0.9c-0.4-0.2-0.5-0.3-0.3-0.6c0.1-0.3,0.1-0.6,0-0.9
				c-0.1-0.8-0.2-1.5-0.3-2.3c-0.2-1-0.5-2.1-0.8-3.1c-0.1-0.3-0.2-0.6-0.3-0.8c-0.5-1.4-1.2-2.7-2.1-3.9c-0.7-1-1.6-1.9-2.5-2.7
				c-1-0.8-2.1-1.5-3.2-2.2c-1-0.6-2.1-1.1-3.2-1.6c-1.4-0.6-2.8-1.1-4.2-1.7c-1.3-0.5-2.7-1-4-1.5c-1.6-0.7-3.3-1.4-4.9-2.1
				C134.9,38.2,134.6,38,134.3,37.9L134.3,37.9z"/>
			<path class="st1" d="M184.4,140.8c-0.3,0.4-0.5,0.7-0.8,1.1c-0.8,0.8-1.7,1.7-2.5,2.5c-0.4,0.3-0.8,0.6-1.2,0.9
				c-0.7,0.5-1.5,1.1-2.3,1.5c-1.4,0.8-2.9,1.4-4.3,2.1c-0.5,0.2-1,0.3-1.5,0.5s-1,0.3-1.5,0.5c-0.4,0.1-0.9,0.3-1.3,0.4
				c-1.2,0.3-2.4,0.7-3.6,1c-1.2,0.3-2.3,0.6-3.5,0.9c-0.6,0.2-1.2,0.4-1.9,0.6c-1.4,0.4-2.6,1.1-3.9,1.7c-0.3,0.1-0.6,0.4-0.8,0.6
				c-0.4,0.4-0.8,0.8-1.3,1.3c0-0.4,0.1-0.6,0.3-0.8c0.6-0.6,1.1-1.1,1.7-1.6c0.5-0.4,1.1-0.7,1.7-1c0.3-0.1,0.5-0.3,0.8-0.4
				c0.4-0.2,0.8-0.3,1.3-0.5c0.6-0.2,1.2-0.4,1.8-0.6c0.1,0,0.2-0.1,0.3-0.1c1.5-0.4,3.1-0.7,4.6-1.1c1-0.3,2-0.6,3.1-0.9
				c0.1,0,0.3-0.1,0.4-0.1c0.9-0.2,1.7-0.5,2.5-0.8c0.4-0.2,0.8-0.3,1.2-0.4c0.9-0.2,1.7-0.6,2.5-1s1.6-0.8,2.4-1.3
				c0.5-0.3,0.9-0.6,1.4-0.9c0.5-0.3,0.9-0.7,1.3-1c1-0.7,1.7-1.6,2.5-2.4C184,141.3,184.2,141.1,184.4,140.8
				C184.3,140.8,184.3,140.8,184.4,140.8z"/>
			<path class="st1" d="M64.4,6.7C64,6.8,63.5,6.9,63.1,7c-0.6,0.1-1.3,0.2-1.9,0.4c-0.9,0.2-1.9,0.4-2.8,0.7
				c-0.8,0.3-1.7,0.5-2.5,0.8c-0.9,0.3-1.9,0.7-2.8,1c-1.1,0.5-2.2,1-3.2,1.5c-1.4,0.7-2.7,1.5-4,2.3c-0.5,0.3-1,0.6-1.4,0.9
				c-0.8,0.6-1.6,1.1-2.3,1.7c-0.9,0.8-1.8,1.6-2.7,2.5c-0.3,0.3-0.6,0.7-0.9,1.1c-0.4,0.5-0.7,0.9-1,1.4c-0.2,0.3-0.5,0.5-0.6,0.8
				c-0.3,0.5-0.6,1-0.8,1.6c-0.3,0.6-0.7,1.1-0.9,1.7c-0.3,0.7-0.5,1.5-0.7,2.3c-0.1,0.5-0.2,1-0.4,1.5C34,29.8,34,30.4,34,31.1
				c0,0.8,0,1.6,0,2.4c0,0.6,0,1.2,0.1,1.8c0.3,1.5,0.5,2.9,0.9,4.3c0.2,0.8,0.5,1.6,0.7,2.3c0,0.1,0.1,0.2,0.1,0.3
				c0.1,0.6,0.4,1.2,0.6,1.7c0.1,0.3,0.3,0.6,0.4,1c0.2,0.5,0.3,1,0.5,1.5c0.2,0.4,0.4,0.9,0.5,1.3c0.2,0.5,0.3,1,0.4,1.5
				c0,0.2-0.2,0.4-0.4,0.7c-0.1-0.1-0.2-0.1-0.2-0.2c-0.3-0.7-0.5-1.4-0.7-2.1c-0.2-0.6-0.3-1.1-0.5-1.7c-0.2-0.6-0.4-1.1-0.6-1.7
				v-0.1c-0.2-0.7-0.4-1.4-0.6-2.1c-0.5-1.6-0.8-3.2-1.1-4.8c-0.1-0.9-0.2-1.9-0.3-2.8c-0.2-1.7,0.1-3.4,0.2-5.1
				c0-0.3,0.2-0.5,0.2-0.8c0.3-1.1,0.6-2.2,0.9-3.2c0.1-0.4,0.3-0.8,0.5-1.1c0.4-0.8,0.9-1.7,1.4-2.5c0.3-0.4,0.6-0.8,0.9-1.2
				c0.5-0.6,1-1.2,1.5-1.7c0.6-0.6,1.3-1.2,2-1.9c1.4-1.4,3-2.3,4.6-3.4c0.6-0.5,1.4-0.8,2.1-1.2c0.6-0.3,1.1-0.7,1.7-1
				c0.5-0.2,0.9-0.4,1.4-0.6c0.7-0.3,1.5-0.7,2.2-1c0.4-0.2,0.9-0.4,1.3-0.5c0.4-0.2,0.9-0.3,1.4-0.4c0.4-0.1,0.8-0.3,1.2-0.4
				c0.5-0.2,1-0.3,1.5-0.4c0.4-0.1,0.8-0.3,1.2-0.4c0.1,0,0.1,0,0.2-0.1c1.4-0.3,2.9-0.6,4.3-0.8C64.3,6.7,64.3,6.7,64.4,6.7
				L64.4,6.7z"/>
			<path class="st1" d="M147,39.4c0.6,0.1,1.1,0.1,1.7,0.2c1.3,0.3,2.6,0.6,3.8,0.9c0.7,0.2,1.3,0.4,2,0.6c0.7,0.3,1.4,0.7,2.1,0.9
				c1.1,0.4,1.9,1.1,2.9,1.8c0.6,0.4,1.1,1,1.6,1.6c0.6,0.6,1.1,1.4,1.5,2.1c0.8,1.5,1.3,3.1,1.5,4.7c0.2,1.4,0.1,2.8-0.1,4.3
				c-0.3,2.1-0.9,4.2-1.4,6.3c-0.1,0.6-0.3,1.2-0.4,1.7c0,0.2-0.1,0.4-0.2,0.6h-0.1c0-0.2,0-0.4,0-0.6c0.2-0.8,0.4-1.6,0.6-2.4
				c0.2-0.7,0.2-1.4,0.4-2.1c0.4-1.5,0.5-3,0.7-4.4c0-0.4,0-0.8,0-1.1c0-0.6,0-1.3-0.1-1.9c0-0.3-0.1-0.6-0.2-1
				c-0.1-0.6-0.3-1.1-0.5-1.7c-0.1-0.2-0.1-0.4-0.2-0.6c-0.4-0.7-0.7-1.4-1.1-2c-0.2-0.4-0.5-0.8-0.9-1.1c-0.7-0.7-1.3-1.5-2.2-2
				c-0.4-0.2-0.6-0.5-1-0.8s-0.9-0.5-1.4-0.8c-1.5-0.8-3-1.4-4.6-1.8C149.9,40.1,148.5,39.8,147,39.4L147,39.4z"/>
			<path class="st1" d="M138.2,41.3c0.2,0,0.3,0.1,0.5,0.1c0.3,0.2,0.7,0.4,1,0.7c0.7,0.5,1.4,1.1,2.2,1.6c0.2,0.1,0.3,0.3,0.5,0.4
				c0.8,0.6,1.6,1.2,2.3,1.8c0.6,0.5,1.2,1,1.7,1.5c0.9,0.8,1.8,1.6,2.6,2.5c1.3,1.3,2.5,2.5,3.7,3.9c1.2,1.3,2.3,2.7,3.3,4.1
				c1.3,1.8,2.6,3.7,3.6,5.7c0.7,1.3,1.2,2.6,1.8,3.9c0.3,0.7,0.6,1.5,0.9,2.3l0,0c-0.1,0-0.2,0-0.2-0.1c-0.3-0.8-0.7-1.7-1-2.5
				c-0.4-0.8-0.8-1.6-1.1-2.3c-0.4-0.8-0.8-1.5-1.2-2.3c-0.2-0.3-0.4-0.7-0.7-1c-0.6-0.9-1.2-1.8-1.8-2.7c-0.5-0.7-1-1.3-1.5-1.9
				c-0.7-0.9-1.5-1.8-2.2-2.7c-1.3-1.4-2.6-2.8-4-4.1c-0.4-0.4-0.8-0.8-1.3-1.2c-0.5-0.5-1.1-1-1.6-1.4c-0.5-0.5-1-0.9-1.5-1.4
				c-0.4-0.3-0.8-0.6-1.2-0.9c-1.3-0.9-2.4-2-3.8-2.8c-0.3-0.2-0.6-0.5-0.9-0.8C138.3,41.5,138.3,41.4,138.2,41.3L138.2,41.3z"/>
			<path class="st1" d="M152.8,158.2c0.1-0.2,0.2-0.3,0.4-0.5c0.5-0.4,1-0.9,1.5-1.3c0.4-0.3,0.9-0.5,1.3-0.7
				c0.3-0.2,0.6-0.3,0.9-0.4c0.4-0.2,0.7-0.4,1.2-0.5c0.7-0.2,1.3-0.4,1.9-0.7c0.1,0,0.1,0,0.2-0.1c0.9-0.2,1.9-0.5,2.8-0.7
				c0.9-0.2,1.9-0.4,2.8-0.8c0.7-0.2,1.3-0.4,2-0.5c0.6-0.2,1.2-0.4,1.8-0.6c0.4-0.1,0.8-0.3,1.2-0.4c0.5-0.2,1-0.3,1.5-0.5
				c0.4-0.2,0.9-0.4,1.3-0.6c0.7-0.3,1.4-0.7,2.1-1c0.2-0.1,0.5-0.3,0.7-0.4c0.6-0.4,1.2-0.8,1.8-1.2c0.2-0.1,0.4-0.2,0.6-0.2
				c-0.6,0.4-1.2,0.9-1.8,1.3c-1.1,0.8-2.3,1.5-3.5,2.1c-0.9,0.4-1.8,0.8-2.7,1.2c-0.9,0.3-1.8,0.6-2.7,0.9
				c-0.8,0.3-1.6,0.5-2.3,0.8c0,0,0,0-0.1,0c-1,0.3-2.1,0.5-3.1,0.8s-2.1,0.5-3.1,0.9c-0.6,0.2-1.2,0.4-1.7,0.5s-0.9,0.3-1.4,0.6
				c-0.4,0.2-0.7,0.4-1.1,0.5c-0.6,0.3-1.1,0.6-1.6,1.1c-0.2,0.2-0.5,0.4-0.8,0.6C152.9,158.3,152.9,158.2,152.8,158.2z"/>
			<path class="st1" d="M139.6,41.5c0.2-0.1,0.4-0.1,0.6,0.1c0.9,0.6,1.7,1.1,2.6,1.7c0.9,0.7,1.8,1.3,2.7,2c0.7,0.5,1.4,1.1,2,1.7
				c1,0.9,2.1,1.8,3,2.8c1.6,1.6,3.1,3.3,4.6,5.1c1,1.2,1.8,2.6,2.7,3.8s1.5,2.6,2.2,3.9c0.4,0.7,0.7,1.6,1,2.3
				c0.2,0.5,0.5,1.1,0.7,1.6c0.1,0.3,0.2,0.7,0.3,1h-0.1c-0.4-0.9-0.7-1.9-1.1-2.8c-0.2-0.5-0.5-1.1-0.8-1.6
				c-0.4-0.8-0.8-1.6-1.3-2.3c-0.4-0.8-1-1.5-1.4-2.3c-0.9-1.5-2-2.7-3-4.1c-0.5-0.7-1.1-1.3-1.6-1.9c-1.2-1.5-2.6-2.8-4-4.1
				c-0.6-0.6-1.4-1.2-2.1-1.8c-0.6-0.6-1.3-1.1-2-1.7c-0.4-0.3-0.8-0.7-1.3-1C142.1,43.1,140.9,42.2,139.6,41.5
				C139.8,41.5,139.7,41.5,139.6,41.5L139.6,41.5z"/>
			<path class="st1" d="M142.6,42.4c-0.3-0.2-0.6-0.4-1-0.4c-0.1,0-0.2,0-0.2,0c-0.1-0.3-0.5-0.4-0.7-0.7c0.2,0.1,0.4,0.1,0.6,0.2
				c1.8,0.7,3.6,1.4,5.3,2.2c2.1,0.9,4.1,2,6,3.4c1.1,0.8,2,1.8,3,2.8c0.9,1,1.6,2.1,2.3,3.2c0.5,0.7,0.8,1.5,1.2,2.3
				c0.3,0.8,0.6,1.6,0.9,2.4c0.1,0.2,0.1,0.5,0.1,0.7c-0.3-0.8-0.6-1.5-1-2.3s-0.8-1.6-1.2-2.3c-0.5-0.9-1.1-1.8-1.7-2.7
				c-0.7-0.9-1.6-1.7-2.4-2.5c-0.4-0.4-0.9-0.9-1.4-1.3c-0.1-0.1-0.2-0.2-0.3-0.2c-1-0.6-1.9-1.3-2.9-1.9c-0.7-0.4-1.4-0.8-2.1-1.1
				c-1.4-0.6-2.7-1.2-4.1-1.8C142.8,42.4,142.7,42.4,142.6,42.4L142.6,42.4z"/>
			<path class="st1" d="M161.6,65.4c-0.2-0.6-0.5-1.3-0.7-1.9c-0.2-0.5-0.4-1-0.7-1.5c-0.4-0.9-0.8-1.7-1.3-2.6
				c-0.4-0.7-0.8-1.3-1.2-2c-0.9-1.6-2-3-3.2-4.4s-2.4-2.8-3.8-4c-0.7-0.6-1.3-1.2-1.9-1.8c-0.7-0.6-1.4-1.2-2.2-1.7
				c-1-0.7-2-1.4-3-2.1c0,0-0.1-0.1-0.2-0.2c0.3,0,0.5,0.1,0.7,0.3c0.7,0.5,1.4,0.9,2,1.4c0.7,0.5,1.4,1.1,2.1,1.6
				c0.4,0.3,0.8,0.6,1.2,0.9c0.7,0.6,1.3,1.2,2,1.8c1.8,1.7,3.4,3.5,4.9,5.5c0.6,0.7,1.1,1.5,1.6,2.3c0.7,1.2,1.4,2.5,2.1,3.8
				c0.3,0.6,0.5,1.2,0.8,1.8s0.6,1.2,0.8,1.9c0.1,0.3,0.1,0.6,0.2,0.9C161.7,65.4,161.7,65.4,161.6,65.4z"/>
			<path class="st1" d="M23.8,154.6c-0.1-0.1-0.2-0.1-0.2-0.2c-0.3-0.7-0.7-1.4-1-2.2c-0.3-0.7-0.5-1.5-0.7-2.3
				c-0.1-0.2,0-0.4-0.1-0.6c0-0.2,0-0.5,0-0.7c-0.2-0.7-0.2-1.4-0.2-2.2c0-0.7,0-1.5,0.1-2.2c0.1-1,0.2-2,0.3-3.1
				c0.1-0.8,0.2-1.6,0.2-2.4c0-1.3,0-2.5-0.4-3.7c-0.3-0.7-0.5-1.5-1-2.1c-0.4-0.5-0.7-1-1.1-1.6c0.2,0.1,0.3,0.1,0.3,0.2
				c0.5,0.7,1,1.3,1.4,2c0.3,0.6,0.6,1.3,0.8,1.9c0.1,0.3,0.1,0.7,0.2,1c0.2,0.9,0.2,1.8,0.1,2.7c-0.1,1.4-0.3,2.8-0.4,4.2
				c-0.1,1.2-0.1,2.4-0.1,3.6c0,1.5,0.3,3,0.6,4.4c0.1,0.5,0.4,1,0.6,1.5C23.3,153.4,23.5,154,23.8,154.6L23.8,154.6z"/>
			<path class="st1" d="M159.7,58.9c-0.3-0.5-0.6-1.1-0.9-1.6c-0.7-1.2-1.5-2.3-2.2-3.5c-0.8-1.3-1.9-2.3-2.8-3.5
				c-0.5-0.5-1.1-1-1.6-1.5c-0.6-0.7-1.4-1.2-2.1-1.8c-0.7-0.6-1.5-1.1-2.2-1.6c-0.2-0.1-0.5-0.2-0.4-0.6l0,0
				c0.4,0.3,0.9,0.6,1.3,0.8c0.4,0.2,0.7,0.5,1.1,0.8c0.5,0.3,0.9,0.7,1.4,1c0.8,0.5,1.4,1.2,2.1,1.9c1.3,1.3,2.4,2.7,3.5,4.1
				c0.9,1.3,1.7,2.7,2.5,4.1C159.4,58.1,159.5,58.5,159.7,58.9L159.7,58.9z"/>
			<path class="st1" d="M31.9,58.3c-0.2,0.4-0.4,0.8-0.7,1.1c-0.3,0.3-0.6,0.7-0.9,1.1c-0.9,1.1-1.8,2.1-2.7,3.2l-0.1,0.1
				C27.4,63,30.6,59,31.9,58.3z"/>
			<path class="st1" d="M107.4,29.9c0.2,0,0.3,0,0.5,0c1.7,0.7,3.5,1.1,5.3,1.5c1.5,0.3,3.1,0.7,4.6,1c1,0.2,2,0.5,3,0.8
				c0.3,0.1,0.5,0.2,0.8,0.2v0.1c-0.2,0-0.4-0.1-0.6-0.1c-1.2-0.3-2.3-0.6-3.5-0.9c-1.9-0.4-3.8-0.8-5.7-1.3c-1.4-0.3-2.7-0.7-4-1.2
				C107.7,30,107.6,29.9,107.4,29.9L107.4,29.9z"/>
			<path class="st1" d="M163,69c0.2,1.1,0.3,2.2,0.5,3.2c0.1,0.5,0.2,1,0.3,1.5c0.1,0.9,0.3,1.8,0.4,2.7c0.1,0.8,0.3,1.7,0.4,2.5
				c0,0.2,0,0.4,0,0.6h-0.1c0-0.1-0.1-0.2-0.1-0.3c-0.1-0.5-0.1-1-0.1-1.5c-0.2-1.3-0.5-2.5-0.8-3.8c-0.1-0.7-0.1-1.3-0.2-2
				c-0.1-0.5-0.1-1.1-0.3-1.6C162.9,69.8,162.9,69.4,163,69z"/>
			<path class="st1" d="M130,37c0.9,0.4,1.7,0.7,2.6,1.1c1.5,0.7,3,1.4,4.4,2.4c0.3,0.2,0.6,0.3,1,0.5c0.1,0.1,0.2,0.3,0.4,0.4l0,0
				c-0.1,0-0.3,0-0.4,0c-0.7-0.4-1.5-0.9-2.2-1.3c-0.6-0.4-1.3-0.7-1.9-1.1c-0.6-0.4-1.2-0.7-1.9-1c-0.5-0.2-1-0.4-1.5-0.7
				C130.2,37.2,130.1,37.1,130,37L130,37z"/>
			<path class="st1" d="M90.1,11.8c-0.1,0.1-0.3,0.1-0.4,0c-0.5-0.5-1.1-1-1.6-1.5c-0.1-0.1-0.3-0.3-0.4-0.4c-0.5-0.3-1-0.6-1.4-1
				c-0.8-0.6-1.7-1-2.6-1.4c-0.2-0.1-0.4-0.2-0.4-0.4l0,0c0.5,0.2,1,0.4,1.5,0.6C85,7.9,85.1,8,85.3,8.1c0.6,0.4,1.2,0.8,1.9,1.2
				c0.9,0.5,1.6,1.4,2.4,2C89.7,11.5,89.9,11.6,90.1,11.8L90.1,11.8z"/>
			<path class="st1" d="M162.4,69.8c0.1,0.1,0.1,0.2,0.2,0.4h0.1c-0.1-0.3-0.1-0.6-0.2-0.9l0,0c0.1,0,0.2,0,0.2,0.1
				c0.1,0.4,0.4,0.8,0.1,1.3c0,0,0,0.2,0,0.3c0.1,0.2,0.2,0.4,0.2,0.6c0.1,0.2,0.1,0.5,0,0.8c0-0.1-0.1-0.2-0.1-0.3
				c-0.2-0.5-0.3-1-0.5-1.6C162.4,70.2,162.4,70,162.4,69.8L162.4,69.8z"/>
			<path class="st1" d="M17.2,129.2c-0.1-0.2-0.4-0.4-0.5-0.5c-0.3-0.4-0.8-0.6-0.9-1.2l0,0c0.1,0,0.2,0,0.3,0.1
				c0.5,0.5,1,1,1.4,1.5c0,0,0,0.1,0,0.2l0,0C17.4,129.2,17.3,129.2,17.2,129.2L17.2,129.2z"/>
			<path class="st1" d="M83.3,7.2c-0.1,0-0.2,0.1-0.2,0.1c-0.9-0.2-1.7-0.4-2.6-0.7c-0.1,0-0.2-0.1-0.4-0.1l0.1-0.1
				C81.2,6.6,82.3,6.8,83.3,7.2L83.3,7.2z"/>
			<path class="st1" d="M32.3,162.6c-0.1,0-0.2,0.1-0.3,0c-0.6-0.3-1.2-0.7-1.7-1.1c0,0,0-0.1,0.1-0.1c0.1,0.1,0.3,0.1,0.4,0.2
				c0.4,0.3,0.8,0.5,1.2,0.8C32,162.5,32.1,162.5,32.3,162.6L32.3,162.6z"/>
			<path class="st1" d="M159.6,59c0.1,0.2,0.3,0.4,0.4,0.6c0.2,0.4,0.3,0.8,0.5,1.3C160.1,60.2,159.8,59.6,159.6,59
				C159.7,58.9,159.6,59,159.6,59z"/>
			<path class="st1" d="M112.2,33.9c-0.6-0.1-1.2-0.1-1.7-0.2c0.6-0.2,1.2,0,1.8,0C112.3,33.8,112.3,33.9,112.2,33.9z"/>
			<path class="st1" d="M91.8,34.8c-0.3,0.1-0.7,0.1-1.1,0.2C91.2,34.7,91.4,34.6,91.8,34.8L91.8,34.8z"/>
			<path class="st1" d="M162.5,69.2c-0.3-0.3-0.3-0.7-0.3-1h0.1C162.4,68.5,162.5,68.9,162.5,69.2L162.5,69.2z"/>
			<path class="st1" d="M147.4,44.9c-0.5,0.1-0.8-0.2-1.1-0.5c0,0,0-0.1,0.1-0.1C146.7,44.6,147,44.8,147.4,44.9L147.4,44.9z"/>
			<path class="st1" d="M107.4,29.9c-0.4,0.1-0.7-0.2-1-0.3l0,0C106.8,29.4,107.2,29.5,107.4,29.9L107.4,29.9z"/>
			<path class="st1" d="M139.6,41.5c-0.1-0.1-0.3-0.2-0.4-0.3c-0.2-0.1-0.4-0.3-0.6-0.4l0,0C139,40.8,139.4,41.1,139.6,41.5
				L139.6,41.5z"/>
			<path class="st1" d="M106.4,29.5c-0.3-0.1-0.5-0.3-0.8-0.4C106,29,106.2,29.1,106.4,29.5L106.4,29.5z"/>
			<path class="st1" d="M23.8,154.6c0.4,0.2,0.5,0.7,0.7,1l0,0C24.1,155.4,23.9,155,23.8,154.6L23.8,154.6z"/>
			<path class="st1" d="M28.8,160.2c0.3,0.2,0.5,0.4,0.8,0.5l-0.1,0.1C29.2,160.7,29,160.5,28.8,160.2
				C28.7,160.3,28.8,160.3,28.8,160.2z"/>
			<path class="st1" d="M162.4,67.3c0.1,0.4,0.2,0.8,0.2,1.1h-0.1C162.5,68.1,162.4,67.7,162.4,67.3L162.4,67.3z"/>
			<path class="st1" d="M17.5,129.2c0.3,0.2,0.6,0.4,0.7,0.8l0,0c-0.1,0-0.2,0-0.3-0.1l0,0c-0.1-0.2-0.2-0.4-0.5-0.4l0,0
				C17.6,129.4,17.5,129.3,17.5,129.2L17.5,129.2z"/>
			<path class="st1" d="M78.7,6.2c0.2,0,0.5,0.1,0.8,0.1v0.1C79.2,6.4,78.9,6.3,78.7,6.2C78.7,6.3,78.7,6.2,78.7,6.2z"/>
			<path class="st1" d="M161,62c0.1,0.2,0.1,0.4,0.2,0.6C161,62.4,161,62.4,161,62z"/>
			<path class="st1" d="M18.9,130.8c0.2-0.2,0.4,0.2,0.6,0.4v0.1C19.3,131.1,18.9,130.9,18.9,130.8L18.9,130.8z"/>
			<path class="st1" d="M29.6,43.4c-0.1,0.4-0.4,0.5-0.7,0.5l0,0C29.1,43.8,29.4,43.6,29.6,43.4L29.6,43.4z"/>
			<path class="st1" d="M18.8,130.8c-0.1-0.2-0.2-0.5-0.5-0.4l0,0c0-0.1,0-0.2-0.1-0.4l0,0C18.6,130.1,18.9,130.3,18.8,130.8
				L18.8,130.8z"/>
			<path class="st1" d="M190.8,121.5c0,0.2,0.1,0.3,0.1,0.5h-0.1c0-0.2-0.1-0.3-0.1-0.5C190.8,121.5,190.8,121.5,190.8,121.5z"/>
			<path class="st1" d="M187.2,135.3c0.2-0.2,0.3-0.3,0.5-0.6c-0.1,0.3-0.1,0.5-0.2,0.7C187.4,135.3,187.5,135.3,187.2,135.3
				L187.2,135.3z"/>
			<path class="st1" d="M162.1,66.8c-0.1-0.3-0.1-0.6-0.2-0.9c0,0,0,0,0.1,0C162,66.2,162.1,66.5,162.1,66.8L162.1,66.8z"/>
			<path class="st1" d="M109.1,33.6c0.3,0,0.6-0.1,0.9-0.1C109.8,33.8,109.5,33.7,109.1,33.6L109.1,33.6z"/>
			<path class="st1" d="M24.4,155.6c0.2,0.2,0.3,0.4,0.5,0.6C24.6,156.1,24.4,155.9,24.4,155.6C24.5,155.6,24.4,155.6,24.4,155.6z"
				/>
			<path class="st1" d="M138.6,40.8c-0.2-0.1-0.3-0.2-0.5-0.3c0,0,0-0.1,0-0.2h0.1C138.3,40.5,138.4,40.7,138.6,40.8L138.6,40.8z"/>
			<path class="st1" d="M109.2,33.6c-0.1,0-0.2,0-0.3,0c-0.2,0-0.2-0.1-0.3-0.2l0,0c0.1,0,0.2,0,0.3,0.1
				C109,33.5,109.1,33.6,109.2,33.6L109.2,33.6z"/>
			<path class="st1" d="M75.9,6.1c-0.1,0-0.2,0-0.3,0.1V6.1C75.7,6.1,75.8,6,75.9,6.1C75.8,6,75.8,6.1,75.9,6.1z"/>
			<path class="st1" d="M28.9,43.9c-0.1,0.1-0.2,0.3-0.4,0.4l-0.1-0.1C28.5,44.1,28.7,44,28.9,43.9L28.9,43.9z"/>
			<path class="st1" d="M116.5,33.5c0.3-0.1,0.3-0.1,0.7,0C116.9,33.8,116.7,33.6,116.5,33.5L116.5,33.5z"/>
			<path class="st1" d="M118,33.8c-0.2,0-0.3-0.1-0.6-0.1C117.7,33.5,117.9,33.7,118,33.8z"/>
			<path class="st1" d="M25.4,156.8c0.1,0.2,0.2,0.3,0.3,0.5C25.5,157.2,25.3,157,25.4,156.8z"/>
			<path class="st1" d="M164.9,83.5c0,0.1,0,0.2,0.1,0.4C164.8,83.7,164.8,83.7,164.9,83.5z"/>
			<path class="st1" d="M160.3,59.2c0,0.2,0.1,0.4,0.1,0.6c0,0,0,0-0.1,0C160.3,59.6,160.3,59.4,160.3,59.2L160.3,59.2z"/>
			<path class="st1" d="M134.3,37.9c-0.3,0-0.5-0.1-0.6-0.4l0,0C133.9,37.7,134.3,37.6,134.3,37.9L134.3,37.9z"/>
			<path class="st1" d="M77.8,6.2c-0.1,0-0.2,0-0.3,0V6.1c0.1,0,0.2,0,0.2,0S77.7,6.2,77.8,6.2z"/>
			<path class="st1" d="M11.5,122.7c0.1,0.2,0.2,0.4,0.3,0.6C11.4,123.1,11.4,123,11.5,122.7L11.5,122.7z"/>
			<path class="st1" d="M188.4,108.1c0,0.2,0.1,0.3,0.1,0.5c0,0,0,0-0.1,0C188.4,108.5,188.4,108.3,188.4,108.1L188.4,108.1z"/>
			<path class="st1" d="M8.4,118.7c0.1,0,0.2,0,0.2,0.1c0,0,0,0.1-0.1,0.2C8.5,118.9,8.5,118.8,8.4,118.7L8.4,118.7z"/>
			<path class="st1" d="M165.1,86.3c0-0.2-0.1-0.3-0.1-0.5c0,0,0,0,0.1,0C165.1,85.9,165.1,86.1,165.1,86.3L165.1,86.3z"/>
			<path class="st1" d="M133.8,37.5c-0.2,0.1-0.4,0.2-0.6-0.2C133.4,37.4,133.6,37.4,133.8,37.5C133.7,37.5,133.8,37.5,133.8,37.5z"
				/>
			<path class="st1" d="M130,37c-0.2,0.1-0.3,0.1-0.4-0.1C129.7,36.9,129.8,36.9,130,37L130,37z"/>
			<path class="st1" d="M118.6,33.8c0.1,0,0.2,0,0.3,0c0,0,0,0,0,0.1c-0.1,0-0.1,0.1-0.2,0.1C118.6,34,118.6,34,118.6,33.8
				C118.5,33.9,118.6,33.9,118.6,33.8z"/>
			<path class="st1" d="M21.4,51.5c0.1-0.1,0.1-0.2,0.2-0.2c0,0,0,0,0.1,0.1c-0.1,0.1-0.1,0.2-0.2,0.2
				C21.5,51.5,21.4,51.5,21.4,51.5z"/>
			<path class="st1" d="M165,84.7c0,0.1,0.1,0.3,0.1,0.4H165C165,85,165,84.8,165,84.7L165,84.7z"/>
			<path class="st1" d="M114.8,33.7c0.1,0,0.2,0,0.2,0v0.1C114.9,33.8,114.8,33.8,114.8,33.7L114.8,33.7z"/>
			<path class="st1" d="M75.1,6.1c-0.1,0-0.2,0-0.4,0.1c0,0,0,0,0-0.1C74.8,6.1,74.9,6,75.1,6.1C75.1,6,75.1,6.1,75.1,6.1z"/>
			<path class="st1" d="M88.8,35c-0.1,0-0.3,0.1-0.4,0.1c0,0,0,0,0-0.1C88.5,35,88.7,35,88.8,35L88.8,35z"/>
			<path class="st1" d="M90.1,11.8c0.1,0.1,0.2,0.3,0.2,0.4C90,12.2,90,12,90.1,11.8L90.1,11.8z"/>
			<path class="st1" d="M154.8,102.8c0.2,0.3,0.4,0.6,0.6,0.9c1.7,2.4,3.2,5,4.5,7.6c0.6,1.3,1.1,2.6,1.6,4c0.5,1.6,0.8,3.2,1,4.8
				c0.2,3.2-0.5,6.1-2.1,8.9c-1.4,2.4-3.4,4.3-5.6,5.8c-1.9,1.3-4,2.4-6.2,3.2c-1.2,0.5-2.5,0.9-3.7,1.3c-0.8,0.3-1.7,0.4-2.5,0.7
				c-1.5,0.4-2.9,0.8-4.4,1.2c-0.8,0.2-1.6,0.4-2.4,0.6c-0.5,0.1-1,0.3-1.5,0.6c-1.2,0.5-2.4,1-3.5,1.6c-2.2,1.1-4,2.8-5.8,4.5
				c-1.6,1.5-3.2,3.1-5,4.4c-1.5,1.1-3.1,2-4.8,2.7c-1.5,0.6-3,1.1-4.6,1.6c-2,0.7-3.9,1.3-5.8,2.2c-1.9,0.8-3.7,1.7-5.6,2.4
				c-2.2,0.9-4.4,1.6-6.7,2c-1.3,0.2-2.6,0.4-3.9,0.4c-4.3,0.2-8.6-0.3-12.9-0.8c-3.9-0.5-7.8-1.2-11.5-2.3
				c-1.1-0.3-2.2-0.7-3.3-1.1c-2.1-0.7-4.2-1.6-6.2-2.7c-2.8-1.5-5.5-3.3-7.7-5.6c-1.9-2-3.4-4.2-4.5-6.7c-0.6-1.3-1.1-2.7-1.5-4.1
				c-0.9-3.1-1.4-6.2-2-9.4c-0.3-1.8-0.7-3.7-1-5.5c-0.2-1.5-0.4-3.1-0.5-4.6c-0.2-2.3-0.3-4.5-0.4-6.8c-0.1-2,0-4.1-0.1-6.1
				c0-1.3-0.1-2.6-0.1-3.8c0-1.4-0.1-2.8-0.1-4.2c-0.1-1.4-0.2-2.9-0.2-4.3c0-1.8,0-3.5,0.1-5.3c0.1-2.4,0.5-4.8,1.1-7.1
				c0.4-1.7,1.1-3.4,1.9-4.9c0.8-1.7,1.7-3.2,2.8-4.7s2.2-2.9,3.5-4.3c2.8-2.9,5.9-5.4,9.4-7.5c2.7-1.6,5.6-2.9,8.5-4
				c2.8-1,5.6-1.6,8.5-2c2.7-0.4,5.5-0.5,8.2-0.4c5.3,0.2,10.5,1.1,15.7,2.4c4.9,1.2,9.8,2.8,14.5,4.6c2.3,0.9,4.5,2,6.7,3.1
				c3.1,1.6,6.1,3.5,9,5.5c1,0.7,1.9,1.4,2.8,2.2c1,0.8,2,1.6,2.9,2.4c2.2,1.8,4.2,3.8,6.2,5.9c3.4,3.5,6.5,7.3,9.4,11.2
				c1.6,2.1,3.2,4.2,4.8,6.3c0.6,0.8,1.2,1.6,1.8,2.5C154.4,102.3,154.5,102.4,154.8,102.8z M152.8,101.7c-0.2-0.4-0.5-0.8-0.7-1.2
				c-1.3-1.8-2.6-3.6-3.9-5.4c-1.2-1.7-2.5-3.4-3.8-5c-0.8-1-1.6-2-2.4-3c-0.9-1.1-1.8-2.2-2.8-3.2c-1-1.1-2.1-2.2-3.1-3.2
				c-1.1-1.1-2.3-2.2-3.4-3.2c-0.8-0.7-1.7-1.4-2.6-2.1c-0.9-0.7-1.8-1.5-2.8-2.2c-0.8-0.6-1.6-1.2-2.5-1.7c-1.5-0.9-3-1.8-4.5-2.7
				c-0.9-0.5-1.7-1-2.7-1.5c-1.1-0.5-2.2-1-3.3-1.6c-2.4-1.1-4.8-2-7.3-2.8s-5.1-1.5-7.7-2.1c-3.6-0.9-7.3-1.4-11.1-1.8
				c-2.7-0.3-5.4-0.4-8.1-0.3c-1.8,0-3.5,0.2-5.3,0.4c-2.9,0.3-5.8,0.9-8.6,1.8c-4.4,1.4-8.6,3.5-12.4,6.2c-4.4,3.2-8,7-10.9,11.7
				c-0.3,0.5-0.6,0.9-0.8,1.4c-0.3,0.5-0.5,1.1-0.7,1.6c-0.8,1.8-1.5,3.7-1.9,5.6s-0.8,3.8-0.8,5.8c0,1-0.1,2-0.1,3
				c0,1.1,0,2.2,0,3.3c0,1,0,1.9,0.1,2.9c0,0.7,0,1.4,0.1,2.1c0,0.7,0,1.4,0,2.1c0,0.9,0,1.9,0,2.8c0,1.2,0,2.3,0,3.5
				s0.1,2.4,0.1,3.6s0.1,2.5,0.1,3.7c0,0.5,0.1,1,0.1,1.4c0,0.6,0.1,1.3,0.1,1.9c0.1,0.9,0.2,1.7,0.3,2.6c0.1,1.1,0.3,2.2,0.4,3.4
				c0.2,1.2,0.3,2.4,0.6,3.6c0.5,2.5,1,5.1,1.7,7.6c0.1,0.5,0.3,1,0.5,1.5c0.3,0.7,0.5,1.3,0.8,2c0.4,0.8,0.8,1.6,1.2,2.4
				c0.8,1.4,1.8,2.8,2.9,4c1.1,1.2,2.4,2.3,3.7,3.3c1.8,1.3,3.8,2.5,5.9,3.4c1.8,0.8,3.6,1.5,5.5,2.1c2.2,0.6,4.4,1.2,6.7,1.6
				c1.6,0.2,3.1,0.5,4.7,0.7c2.2,0.2,4.4,0.4,6.6,0.6c1.1,0.1,2.2,0.2,3.4,0.2c1.2,0,2.3,0,3.5-0.1c1,0,2.1-0.1,3.1-0.2
				c1.1-0.2,2.3-0.4,3.4-0.7c0.8-0.2,1.7-0.4,2.5-0.7c0.6-0.2,1.1-0.3,1.7-0.5c0.8-0.3,1.6-0.6,2.4-0.9c0.6-0.2,1.2-0.5,1.8-0.7
				c0.6-0.3,1.2-0.5,1.8-0.8c0.9-0.4,1.9-0.7,2.8-1.1c1-0.4,2.1-0.8,3.1-1.2s2.1-0.8,3.1-1.3c2.2-0.9,4.1-2.1,5.9-3.5
				c1.6-1.3,3.2-2.7,4.8-4c1.7-1.5,3.6-2.7,5.7-3.6c0.5-0.2,1-0.4,1.6-0.7c0.4-0.2,0.9-0.4,1.3-0.5c0.4-0.2,0.9-0.3,1.3-0.4
				c0.4-0.1,0.9-0.1,1.3-0.4c0,0,0.1,0,0.2,0c0.5-0.2,1-0.3,1.5-0.5c0.9-0.3,1.9-0.5,2.8-0.7c0.7-0.2,1.4-0.4,2.1-0.6c0,0,0,0,0.1,0
				c0.6-0.2,1.3-0.4,1.9-0.7c0.5-0.2,0.9-0.3,1.4-0.5c0.7-0.3,1.3-0.5,1.9-0.8c0.7-0.3,1.5-0.6,2.2-1c1.8-1,3.6-2.1,5.1-3.5
				s2.9-3,3.8-4.9c1.6-3.1,2-6.4,1.5-9.8c-0.2-1.6-0.5-3.1-1.1-4.6c-0.5-1.3-1-2.7-1.6-3.9c-0.7-1.5-1.6-3-2.4-4.4
				c-0.4-0.8-0.9-1.6-1.4-2.4C153.3,102.4,153,102,152.8,101.7z"/>
			<path class="st1" d="M150.4,102c0.2,0.4,0.4,0.8,0.6,1.2c1,1.9,1.8,3.8,2.5,5.8c0.7,2.1,1.3,4.2,1.6,6.3c0.1,0.9,0.2,1.9,0.2,2.9
				c0.1,2.3-0.3,4.6-1.1,6.8c-0.5,1.2-1.1,2.4-1.8,3.5c-2.2,3.3-5.3,5.6-8.7,7.4c-1.4,0.7-2.9,1.3-4.3,2c-0.8,0.3-1.7,0.6-2.5,0.9
				c-0.7,0.2-1.4,0.5-2.1,0.7c-0.7,0.2-1.3,0.3-2,0.5c-0.1,0-0.2,0.1-0.3,0.1c-0.9,0.3-1.7,0.6-2.6,0.9c-0.8,0.3-1.7,0.7-2.5,1
				c-1.4,0.5-2.7,1.1-3.9,1.9c-1.8,1-3.5,2.3-5.2,3.5c-2.2,1.6-4.4,3.2-6.9,4.4c-1.5,0.7-2.9,1.4-4.4,2.1c-1.8,0.8-3.7,1.5-5.5,2.2
				c-3.5,1.3-7,2.3-10.7,2.8c-1.9,0.2-3.9,0.3-5.8,0.4c-2.4,0-4.9-0.1-7.3-0.2c-3.3-0.2-6.6-0.5-9.8-1.2c-1.9-0.4-3.7-0.9-5.6-1.5
				c-2.4-0.8-4.6-1.8-6.8-3.1c-1.8-1.1-3.4-2.4-4.8-3.8c-1.8-1.9-3.2-4-4.3-6.3c-1.2-2.7-2-5.5-2.5-8.4c-0.3-1.4-0.5-2.8-0.7-4.3
				c-0.3-2.2-0.4-4.4-0.6-6.6c-0.1-1.5-0.2-2.9-0.2-4.4c0-1.6,0-3.2,0-4.8c0-2,0.1-4,0.1-6c0.1-3.1,0.2-6.3,0.4-9.4
				c0.1-2.4,0.5-4.7,1.1-7c0.6-2.5,1.4-4.8,2.6-7c0.3-0.5,0.5-1.1,1-1.5c0.2-0.8,0.7-1.4,1.1-2c1.8-2.7,4.1-5.1,6.5-7.2
				c2.9-2.5,6.1-4.5,9.6-6.2c1.9-1,4-1.8,6-2.4c2.4-0.8,4.9-1.4,7.4-1.9c1.5-0.3,2.9-0.5,4.4-0.7s3-0.3,4.5-0.4
				c1.7-0.1,3.4-0.1,5.2-0.1c3.4,0.1,6.7,0.4,10,1c3.2,0.6,6.3,1.4,9.4,2.5c2.2,0.8,4.3,1.7,6.4,2.8c2.7,1.4,5.3,3,7.8,4.7
				c1.7,1.2,3.4,2.5,5,3.9c2.1,1.8,4.2,3.8,6.1,5.8c2.1,2.3,4.1,4.6,5.9,7.1c1.7,2.4,3.4,4.7,4.9,7.3c0.7,1.1,1.4,2.3,2,3.5
				C150.1,101.5,150.2,101.6,150.4,102z M81.3,65.2c-2.8,0.8-5.2,1.3-7.5,2.2c-1.3,0.5-2.7,1-4,1.5c-3.2,1.4-6.2,3-9,5
				c-4.6,3.2-8.4,7.1-11.2,11.9c-0.9,1.5-1.6,3-2.2,4.6c-1,2.6-1.7,5.4-2.1,8.2c-0.4,2.8-0.6,5.6-0.8,8.4c-0.1,1.5-0.2,3.1-0.3,4.6
				c-0.1,1.6-0.1,3.2-0.2,4.9c0,1.1,0,2.3,0,3.4c0,1.2,0.1,2.4,0.1,3.5c0,0.5,0,0.9,0.1,1.4c0,0.6,0.1,1.2,0.1,1.8
				c0.1,0.7,0.1,1.4,0.2,2.1c0.1,0.9,0.2,1.9,0.3,2.8c0.1,0.6,0.2,1.2,0.3,1.8c0.2,1.9,0.8,3.7,1.3,5.5c0.2,0.9,0.6,1.7,1,2.6
				c0.4,0.9,0.8,1.8,1.3,2.6c0.8,1.5,1.9,2.9,3.1,4.2c1.1,1.2,2.4,2.3,3.8,3.2c0.9,0.6,1.8,1.1,2.7,1.6c1.6,0.8,3.2,1.5,4.9,2
				c1.6,0.5,3.3,0.9,4.9,1.2c2.1,0.4,4.2,0.7,6.3,0.8c1.4,0.1,2.9,0.2,4.3,0.2c1.5,0.1,3.1,0.1,4.6,0.1c1,0,2-0.1,3-0.1
				s1.9,0,2.9-0.2c1.2-0.1,2.5-0.4,3.7-0.6c1-0.2,2-0.4,2.9-0.6c0.8-0.2,1.6-0.4,2.4-0.7c1-0.3,1.9-0.7,2.9-1
				c0.7-0.3,1.4-0.5,2.2-0.8c0.9-0.4,1.8-0.7,2.6-1.1c1.4-0.7,2.9-1.3,4.3-2c2.4-1.3,4.7-2.8,7-4.4c1.6-1.1,3.2-2.2,5-3
				c0.8-0.4,1.6-0.7,2.4-1.1c0.8-0.4,1.6-0.7,2.5-1c0.4-0.1,0.8-0.3,1.2-0.4c0.6-0.2,1.1-0.4,1.6-0.6c0.6-0.2,1.2-0.4,1.9-0.5
				c0.1,0,0.1,0,0.2,0c0.5-0.4,1.2-0.4,1.8-0.7c0.5-0.2,1-0.3,1.5-0.5c0.7-0.3,1.5-0.6,2.2-0.9c0.8-0.3,1.6-0.6,2.4-1
				c1-0.5,2-1.1,3-1.7c2.1-1.3,4-2.8,5.6-4.7c1.8-2.1,3.1-4.5,3.9-7.3c0.7-2.6,0.8-5.2,0.5-7.8c-0.2-1.8-0.6-3.5-1-5.2
				c-0.1-0.6-0.3-1.1-0.5-1.7c-0.2-0.5-0.4-1-0.6-1.6c-0.4-0.9-0.7-1.9-1.1-2.8c-0.2-0.6-0.5-1.1-0.7-1.7c-0.1-0.2-0.2-0.4-0.3-0.7
				c-0.1-0.1-0.1-0.2-0.2-0.3c-0.5-0.9-0.9-1.8-1.4-2.7c-1.1-1.8-2.2-3.6-3.3-5.4c-1-1.5-2-2.9-3.1-4.3c-0.9-1.2-1.8-2.3-2.8-3.5
				c-0.8-0.9-1.6-1.9-2.4-2.7c-1.3-1.3-2.7-2.6-4-3.9c-1.1-1-2.3-2-3.5-3c-1-0.8-2.1-1.5-3.1-2.2c-1.3-0.9-2.7-1.7-4.1-2.6
				c-0.8-0.5-1.7-0.9-2.5-1.3c-1-0.5-1.9-1-2.9-1.4c-1.7-0.7-3.5-1.3-5.3-1.9c-2-0.6-4-1.1-6-1.4c-1.7-0.3-3.4-0.6-5.1-0.7
				c-1.1-0.1-2.2-0.2-3.3-0.2c-0.9,0-1.9,0-2.8,0.1c-0.7,0-1.5,0.1-2.2,0.1c-0.6,0-1.3,0-1.9,0.1c-1,0.1-1.9,0.3-2.9,0.4
				C84,64.8,82.5,65,81.3,65.2z"/>
			<path class="st1" d="M145.4,101.5c0,0.2,0,0.5,0.1,0.6c0.7,1.7,1.2,3.4,1.7,5.1c0.5,1.6,0.8,3.3,1,5c0.2,1.5,0.3,3,0.2,4.5
				c-0.1,2.5-0.5,5-1.4,7.3c-1,2.4-2.4,4.6-4.2,6.5c-2.1,2.1-4.5,3.9-7.1,5.2c-1.6,0.8-3.2,1.5-4.9,2.2c-1.1,0.5-2.2,0.8-3.3,1.2
				c-0.9,0.3-1.7,0.6-2.6,1c-1,0.4-2.1,0.7-3.1,1.1c-1.9,0.7-3.7,1.6-5.5,2.6c-2.4,1.4-4.8,2.8-7.2,4.1c-2.3,1.3-4.7,2.4-7.2,3.4
				c-3.6,1.4-7.3,2.4-11.1,2.9c-2.5,0.3-5,0.5-7.5,0.5c-2.4,0-4.8,0-7.2-0.2c-3.7-0.2-7.3-0.7-10.8-1.7c-3-0.9-5.9-2.2-8.4-4
				c-2.2-1.6-3.9-3.5-5.3-5.8c-0.9-1.5-1.6-3.2-2.2-4.9c-0.7-2-1-4.1-1.3-6.2c-0.2-1.6-0.3-3.2-0.4-4.8c-0.1-1.9-0.2-3.9-0.2-5.9
				c0-2.4,0.1-4.9,0.3-7.3c0.2-2.6,0.5-5.1,0.9-7.7c0.5-3.6,1.3-7.1,2.5-10.5c0.9-2.4,2-4.7,3.5-6.9c0.5-0.7,0.9-1.4,1.4-2.1
				c0.6-0.7,1.1-1.4,1.6-2s1.1-1.3,1.7-1.9c0.6-0.6,1.2-1.2,1.8-1.8c0.6-0.6,1.3-1.2,1.9-1.7c0.6-0.5,1.3-1.1,2-1.6
				c2.7-2.1,5.5-3.9,8.5-5.5c1.9-1,3.8-1.9,5.8-2.7c1.4-0.6,2.9-1.1,4.4-1.6c1.1-0.4,2.2-0.6,3.3-0.9c1.6-0.3,3.2-0.7,4.8-0.9
				c1.1-0.2,2.2-0.2,3.3-0.3c1.4-0.1,2.7-0.1,4.1,0c2.5,0.1,5,0.5,7.4,1c3.2,0.7,6.3,1.7,9.2,3.1c2.9,1.3,5.7,2.9,8.3,4.7
				c3,2.2,5.9,4.6,8.5,7.3c2.5,2.7,4.8,5.5,6.8,8.7c0.9,1.4,1.8,2.8,2.6,4.2c0.9,1.7,1.7,3.5,2.6,5.2c0.1,0.3,0.2,0.6,0.4,0.8
				C145.1,101.1,145.2,101.3,145.4,101.5z M89.9,67.6c-1.6,0.3-3.3,0.7-4.9,1.3c-0.9,0.3-1.8,0.6-2.7,1c-1.3,0.6-2.7,1.2-4,1.8
				c-2.5,1.3-4.8,2.7-7.1,4.3c-3.4,2.4-6.6,5.1-9.5,8.2c-1.7,1.8-3.5,4-4.9,6.1c-2.5,3.8-4.2,7.8-5.3,12.2c-0.8,3.2-1.4,6.5-1.8,9.8
				c-0.2,2-0.3,4-0.5,6c-0.1,0.9-0.1,1.8-0.1,2.7c0,1.2-0.1,2.3,0,3.5c0,1.1,0.1,2.2,0.2,3.4c0.1,1.1,0.1,2.2,0.2,3.4
				c0.1,0.9,0.3,1.9,0.5,2.8c0.4,1.5,0.7,3.1,1.3,4.6c0.4,1.1,0.9,2.1,1.5,3.1c1.5,2.7,3.7,4.8,6.2,6.5c0.7,0.5,1.6,0.9,2.4,1.3
				c1.4,0.8,2.9,1.3,4.5,1.8c2.2,0.7,4.4,1.1,6.7,1.4c1.5,0.2,3.1,0.3,4.6,0.4c0.9,0.1,1.8,0.1,2.7,0.1c0.9,0,1.8,0,2.7,0
				c0.6,0,1.3,0,1.9,0c0.8,0,1.6,0,2.4-0.1c0.6,0,1.3-0.1,1.9-0.2c0.9-0.1,1.8-0.1,2.7-0.3c2.9-0.5,5.7-1.1,8.4-2.2
				c0.9-0.4,1.8-0.7,2.7-1c1.2-0.5,2.3-0.9,3.4-1.5c2.3-1.2,4.5-2.4,6.7-3.6c1.3-0.7,2.6-1.3,4-2c0.7-0.3,1.4-0.6,2.1-0.9
				c0.7-0.3,1.4-0.6,2.2-0.9c0.4-0.2,0.8-0.3,1.2-0.5c0.4-0.2,0.8-0.3,1.2-0.4c0.5-0.2,1-0.3,1.5-0.5c0.3-0.1,0.6-0.2,1-0.4
				c0.5-0.2,1-0.4,1.5-0.6c0.6-0.2,1.2-0.4,1.7-0.7c0.6-0.2,1.1-0.5,1.7-0.8c0.8-0.5,1.7-0.8,2.6-1.3c2.3-1.2,4.4-2.7,6.2-4.5
				s3.3-3.8,4.3-6s1.7-4.5,1.9-6.9c0.1-1.1,0.2-2.3,0.2-3.4c0-1-0.1-1.9-0.2-2.9c-0.2-1.9-0.6-3.8-1.1-5.6c-0.4-1.6-0.9-3.3-1.6-4.9
				c-0.5-1.3-1-2.6-1.6-3.9c-0.8-1.6-1.6-3.2-2.5-4.7c-1.3-2.4-2.9-4.7-4.6-6.8c-2.1-2.7-4.4-5.1-7-7.3c-1.4-1.2-2.8-2.3-4.3-3.3
				s-2.9-1.9-4.4-2.8c-0.3-0.2-0.6-0.3-0.9-0.5c-0.6-0.3-1.3-0.6-1.9-0.9c-1.8-0.9-3.7-1.6-5.6-2.2c-2.4-0.8-4.8-1.3-7.4-1.6
				c-2.3-0.2-4.5-0.4-6.8-0.2c-0.4,0-0.8,0.1-1.3,0.1c-0.7,0-1.4,0-2.1,0.1C91.8,67.2,90.9,67.4,89.9,67.6z"/>
			<path class="st1" d="M52.5,133c-0.2-1.4-0.3-2.9-0.5-4.3c-0.3-4.1-0.2-8.1,0.3-12.2c0.5-5,1.5-9.9,3.3-14.6
				c1.2-3.3,2.8-6.4,4.8-9.3c2.3-3.4,4.9-6.6,7.8-9.6c2.2-2.3,4.6-4.5,7.2-6.5c2.5-1.9,5.2-3.6,8.2-4.9c1.4-0.6,2.8-1.1,4.3-1.6
				c1.3-0.4,2.5-0.7,3.8-0.9c1.4-0.2,2.9-0.4,4.3-0.5c1.3,0,2.5-0.1,3.8,0c3.1,0.2,6,0.7,9,1.6c2.6,0.8,5,1.8,7.4,3.1
				c2.8,1.5,5.4,3.2,7.9,5.3c4.4,3.6,7.9,7.9,10.8,12.8c1.4,2.4,2.7,5,3.7,7.6c0.4,1,0.8,1.9,1.1,3s0.6,2.3,0.9,3.4
				c0.6,2.5,0.9,5,1,7.6c0.1,3.5-0.4,6.8-1.7,10.1c-1.1,2.7-2.7,5.2-4.8,7.3c-2.2,2.2-4.7,4-7.4,5.4c-1.5,0.8-3.1,1.5-4.6,2.2
				c-0.9,0.4-1.9,0.7-2.8,1.1c-0.7,0.3-1.4,0.6-2.1,0.8c-0.7,0.3-1.3,0.5-2,0.8c-0.8,0.3-1.7,0.7-2.5,1.1c-1.5,0.7-3,1.4-4.5,2.1
				c-1.3,0.6-2.6,1.2-3.9,1.8c-1.4,0.6-2.8,1.2-4.2,1.7c-1.6,0.7-3.3,1.1-5,1.6s-3.4,0.7-5.2,1c-2.6,0.4-5.3,0.5-8,0.5
				c-3.6,0-7.3-0.2-10.9-0.8c-2.8-0.5-5.5-1.2-8.1-2.4c-2.7-1.3-5-3-6.9-5.3c-1.2-1.5-2.2-3.2-2.9-5.1
				C53.2,135.7,52.8,134.4,52.5,133z M138.1,105.8c-0.5-2.1-1.2-4.6-2.1-6.9c-0.7-1.6-1.3-3.3-2.2-4.8c-1.8-3.4-3.9-6.5-6.4-9.4
				c-2.6-3-5.5-5.5-8.7-7.7c-1-0.7-1.9-1.3-2.9-1.9c-0.6-0.3-1.2-0.5-1.8-0.8c-2.3-1.2-4.8-2.1-7.3-2.8c-2.7-0.7-5.4-1.2-8.2-1.3
				c-1.1,0-2.2,0-3.3,0c-1.2,0-2.3,0.1-3.5,0.4c-0.6,0.1-1.1,0.2-1.7,0.3c-0.8,0.2-1.6,0.3-2.4,0.6c-0.6,0.2-1.3,0.4-1.9,0.7
				c-0.7,0.2-1.3,0.5-2,0.7c-0.7,0.3-1.3,0.7-2,1c-1.9,0.9-3.6,2.1-5.3,3.3c-3.1,2.3-5.8,5-8.3,7.9c-1.8,2.1-3.4,4.2-5,6.4
				c-0.4,0.6-0.8,1.1-1.2,1.7c-0.5,0.7-0.8,1.5-1.3,2.2c-1.6,2.6-2.9,5.4-3.9,8.2c-1.6,4.2-2.5,8.5-3.1,13c-0.2,1.5-0.3,3.1-0.4,4.7
				c-0.1,0.9-0.1,1.8-0.1,2.7c0,1,0,2,0,3.1c0,0.5,0.1,0.9,0.1,1.4c0.1,0.9,0.1,1.7,0.3,2.6c0.3,1.3,0.4,2.6,0.9,3.8
				c0.2,0.5,0.3,1.1,0.5,1.6c0.6,1.3,1.3,2.6,2.2,3.8c1.2,1.7,2.7,3.1,4.4,4.2c0.8,0.6,1.7,1,2.6,1.5c1.3,0.7,2.7,1.2,4.1,1.6
				c2.2,0.7,4.5,1.1,6.8,1.3c1.4,0.1,2.8,0.3,4.3,0.3c1.2,0.1,2.4,0,3.6,0c1.1,0,2.1,0,3.2,0c0.8,0,1.6-0.1,2.3-0.2
				c1-0.1,2.1-0.3,3.1-0.5c0.2,0,0.5-0.1,0.7-0.1c1.5-0.3,3-0.6,4.6-0.9c0.1,0,0.1,0,0.2-0.1c0.7-0.2,1.4-0.5,2.2-0.7
				c0.8-0.3,1.7-0.5,2.5-0.9c0.9-0.4,1.8-0.8,2.7-1.1c0.8-0.4,1.7-0.7,2.5-1.1c1-0.4,1.9-0.9,2.9-1.3c0.8-0.3,1.6-0.7,2.4-1
				c1-0.4,2-0.8,2.9-1.2c0.3-0.1,0.7-0.2,1-0.4c0.6-0.3,1.2-0.5,1.9-0.8c0.6-0.3,1.3-0.5,1.9-0.8c0.9-0.4,1.8-0.9,2.8-1.3
				c1.2-0.5,2.3-1.1,3.4-1.8c1.6-1,3.2-2.1,4.6-3.3c2.4-2.1,4.2-4.5,5.6-7.4c1.9-4,2.5-8.2,2.3-12.5
				C138.8,109.9,138.5,108,138.1,105.8z"/>
			<path class="st1" d="M133.2,105.9c0.4,1.7,0.6,3.4,0.7,5.1c0.3,4.7-0.4,9.2-2.4,13.4c-1.8,3.7-4.4,6.7-7.7,9.1
				c-2.2,1.6-4.6,3-7.2,4.1c-1.2,0.6-2.5,1.1-3.7,1.7c-0.9,0.4-1.9,0.7-2.8,1.1c-0.9,0.4-1.8,0.8-2.7,1.1c-0.7,0.3-1.4,0.5-2,0.8
				c-0.8,0.3-1.6,0.6-2.5,0.9c-0.9,0.3-1.8,0.6-2.7,0.9c-0.7,0.2-1.3,0.4-2,0.6c-1.7,0.5-3.5,1-5.2,1.3s-3.5,0.5-5.2,0.7
				c-2.6,0.3-5.2,0.3-7.8,0.1c-3.4-0.2-6.7-0.6-9.9-1.6c-2.7-0.8-5.1-1.9-7.4-3.7c-2.5-1.9-4.2-4.3-5.4-7.2
				c-0.8-1.9-1.2-3.8-1.5-5.8c-0.2-1.6-0.2-3.1-0.2-4.7c-0.1-1.9,0.1-3.8,0.3-5.7c0.3-2.6,0.8-5.2,1.4-7.8c0.7-2.9,1.7-5.7,2.9-8.5
				c1-2.4,2.2-4.6,3.6-6.8c1.3-2,2.5-4,3.9-6c1.1-1.6,2.4-3.1,3.6-4.6c2.1-2.4,4.5-4.7,7.3-6.4c1.3-0.8,2.7-1.6,4-2.3
				c1-0.5,2-0.8,3.1-1.2c0.4-0.2,0.9-0.3,1.4-0.4c1.4-0.5,2.9-0.7,4.4-0.9c1.2-0.2,2.4-0.2,3.6-0.2c2.1,0,4.1,0.2,6.1,0.5
				c2.9,0.5,5.7,1.4,8.4,2.6c1,0.5,2.1,1,3.1,1.5c2.3,1.2,4.4,2.7,6.3,4.4c4.5,3.8,8.1,8.4,10.7,13.7c1.3,2.6,2.3,5.2,3,8
				C132.9,104.6,133,105.2,133.2,105.9z M130.6,106.2L130.6,106.2c-0.2-0.5-0.3-1.1-0.4-1.6c-0.5-1.9-1.1-3.8-1.9-5.6
				c-1.4-3.3-3.2-6.4-5.4-9.2c-4-5.1-8.9-9-14.8-11.7c-2.8-1.3-5.7-2.1-8.8-2.6c-2.2-0.3-4.4-0.5-6.6-0.4c-1.1,0.1-2.2,0.2-3.2,0.4
				c-1.3,0.2-2.6,0.5-3.9,0.9c-1.2,0.3-2.3,0.8-3.4,1.3s-2.1,1.1-3.2,1.7c-2.2,1.4-4.2,3-6.1,4.9c-0.7,0.7-1.3,1.4-1.9,2.2
				c-0.8,1-1.5,1.9-2.3,2.9c-0.1,0.1-0.2,0.3-0.3,0.4c-0.8,1.1-1.5,2.2-2.3,3.3c-0.4,0.6-0.8,1.2-1.2,1.8c0,0.1-0.1,0.2-0.1,0.2
				c-0.1,0.2-0.2,0.5-0.3,0.7c-0.5,0.9-1,1.7-1.4,2.6c-0.8,1.6-1.5,3.2-2.2,4.8c-0.9,2.1-1.6,4.4-2.3,6.6c-0.7,2.4-1.2,4.9-1.5,7.3
				c-0.2,1.7-0.3,3.4-0.4,5c0,0.5,0,1.1,0,1.6c0,0.8,0.2,1.7,0.2,2.5c0,1,0.2,1.9,0.4,2.8c0.2,1,0.4,2.1,0.8,3.1
				c0.3,0.7,0.6,1.5,0.9,2.2c1.3,2.6,3.1,4.6,5.4,6.3c1,0.7,2.1,1.3,3.2,1.9c1.1,0.5,2.2,0.9,3.4,1.3c1.6,0.5,3.3,0.9,5,1.1
				c1.5,0.2,3,0.4,4.5,0.5c1,0.1,1.9,0,2.9,0.1c0.7,0,1.3,0,2,0c0.4,0,0.9,0,1.3-0.1c0.6,0,1.1-0.1,1.7-0.2c1,0,2.1-0.1,3.1-0.3
				c0.5-0.1,1-0.2,1.5-0.2c0.8,0,1.6-0.2,2.4-0.4c1.2-0.3,2.5-0.7,3.7-1c0.7-0.2,1.4-0.4,2.1-0.6c0.4-0.1,0.7-0.3,1.1-0.4
				c0.4-0.1,0.8-0.3,1.2-0.4c0.6-0.2,1.1-0.4,1.6-0.6c0.7-0.2,1.4-0.5,2-0.7c0.2-0.1,0.4-0.2,0.7-0.3c0.4-0.1,0.7-0.2,1.1-0.4
				c1.1-0.5,2.2-0.9,3.3-1.4c1.4-0.7,2.9-1.3,4.3-2c2.3-1.2,4.4-2.6,6.3-4.3c2.1-1.8,3.8-4,5.2-6.4c2.6-4.5,3.4-9.4,3.1-14.6
				C131.1,109.6,130.8,107.9,130.6,106.2z"/>
			<path class="st1" d="M86.6,80.1c2.5-0.5,5-0.7,7.6-0.5c5.3,0.4,10.1,2,14.6,4.8c5.2,3.2,9.3,7.5,12.4,12.7c1.2,2.1,2.2,4.3,3,6.7
				c0.2,0.6,0.4,1.3,0.6,1.9c0.1,0.2,0.2,0.5,0.3,0.7c0.1,0.2,0,0.5,0,0.7c0.4,1.7,0.6,3.3,0.7,5c0.2,3.3-0.2,6.5-1.3,9.7
				c-1,3.2-2.7,6-4.9,8.5c-1.3,1.4-2.7,2.7-4.3,3.8c-2.3,1.7-4.7,3-7.3,4.1c-1.4,0.6-2.9,1.2-4.4,1.7c-1.2,0.4-2.5,0.8-3.7,1.2
				c-2.3,0.8-4.7,1.3-7.1,1.7c-1.4,0.2-2.9,0.4-4.3,0.5c-1.2,0.1-2.4,0.2-3.5,0.2c-1.6,0-3.3-0.1-4.9-0.3c-2.5-0.2-4.9-0.7-7.2-1.5
				c-2.5-0.8-4.8-1.9-6.8-3.5c-2.1-1.6-3.7-3.6-4.9-6c-1.1-2.2-1.7-4.5-2-6.9c-0.3-2.1-0.3-4.2-0.1-6.2c0.3-3.8,1-7.4,2.1-11
				c0.7-2.2,1.4-4.3,2.4-6.3c0.7-1.5,1.4-2.9,2.2-4.4c0.8-1.6,1.8-3.2,2.9-4.7c1.1-1.6,2.3-3.1,3.6-4.5c1.5-1.5,3.1-3,4.9-4.2
				c1.4-1,2.9-1.8,4.5-2.4C83.1,81,84.8,80.5,86.6,80.1z M94.9,141.4C94.9,141.5,94.9,141.5,94.9,141.4c1.2-0.3,2.5-0.6,3.7-0.9
				c0.8-0.2,1.6-0.4,2.4-0.7c0.4-0.1,0.8-0.3,1.2-0.4c0.7-0.3,1.4-0.6,2.1-0.9c0.8-0.3,1.6-0.6,2.4-1c1.7-0.9,3.5-1.8,5.1-2.9
				c2.6-1.8,4.9-3.8,6.7-6.4c3-4.3,4.4-9.1,4.4-14.3c0-2.5-0.3-4.9-1-7.3c-0.9-3.5-2.4-6.8-4.4-9.9c-3.3-4.9-7.6-8.8-12.9-11.4
				c-2.7-1.4-5.5-2.3-8.5-2.8c-1.7-0.3-3.4-0.4-5.1-0.4c-1.4,0-2.9,0.1-4.3,0.4c-1.2,0.2-2.5,0.5-3.7,0.9s-2.4,0.9-3.5,1.4
				c-2,1-3.9,2.2-5.6,3.7c-2,1.7-3.7,3.7-5.2,5.8c-1.2,1.7-2.3,3.5-3.3,5.3c-0.6,1.1-1.1,2.3-1.6,3.4c-0.9,2-1.6,4.1-2.2,6.3
				c-0.8,2.8-1.3,5.6-1.5,8.5c-0.1,1.1-0.2,2.1-0.1,3.2c0,0.4,0,0.8,0,1.1c0,0.6,0,1.3,0.1,1.9c0.3,1.4,0.4,2.9,1,4.2
				c0.3,0.6,0.4,1.2,0.7,1.8c0.5,1.1,1.1,2.2,1.8,3.2c1.3,1.8,2.9,3.4,4.8,4.6c0.4,0.3,0.9,0.5,1.3,0.7c0.9,0.5,1.8,1,2.7,1.4
				c0.9,0.4,1.9,0.7,2.9,0.9c1.9,0.5,3.9,0.8,5.8,1c2,0.2,4,0.3,6,0.2c0.4,0,0.8-0.1,1.1-0.1c0.6,0,1.2,0,1.8-0.1
				c1.4-0.2,2.8-0.4,4.1-0.7C94.6,141.5,94.8,141.5,94.9,141.4z"/>
			<path class="st1" d="M116.3,109.6c0,0.2,0,0.3,0.1,0.5c0.3,1.5,0.5,3.1,0.6,4.6c0.1,4-0.7,7.7-2.6,11.3c-2.2,4.1-5.4,7.1-9.3,9.4
				c-1.8,1-3.7,1.9-5.6,2.6c-1.8,0.7-3.7,1.2-5.5,1.5c-2,0.4-4.1,0.6-6.1,0.7c-2.4,0.1-4.8-0.1-7.2-0.5c-1.9-0.3-3.9-0.9-5.7-1.6
				c-2.2-0.9-4.3-2.1-6.1-3.7c-1.7-1.5-3-3.3-4.1-5.3c-1-2-1.6-4.2-2-6.4c-0.5-3.3-0.3-6.6,0.3-9.8c0.5-3,1.5-5.9,2.7-8.6
				c0.5-1.2,1.2-2.4,1.9-3.5c0.4-0.7,0.9-1.4,1.4-2.1c1.4-2,3-3.8,4.9-5.3c1.9-1.6,4-2.8,6.3-3.7c2.3-0.9,4.6-1.4,7.1-1.6
				c5-0.4,9.6,0.7,14,2.9c0.8,0.4,1.6,0.9,2.3,1.3c2.3,1.5,4.4,3.2,6.2,5.3c1.8,2.1,3.3,4.3,4.5,6.8c0.7,1.4,1.2,2.8,1.6,4.3v0.1
				C116.2,109.3,116.2,109.3,116.3,109.6z M113.1,110.7c-0.2-1.2-0.7-2.6-1.4-4.3c-1.5-3.4-3.7-6.4-6.5-8.9
				c-0.9-0.8-1.7-1.5-2.7-2.2c-0.8-0.5-1.6-1-2.4-1.4c-3.8-2-7.9-3.1-12.2-3c-3.7,0.1-7.1,1-10.3,2.7c-2.8,1.5-5.2,3.6-7.2,6.2
				c-1.3,1.6-2.3,3.4-3.2,5.2c-0.6,1.3-1.2,2.6-1.6,3.9c-0.4,1.6-0.8,3.1-1.1,4.7c-0.3,1.4-0.3,2.8-0.3,4.3c0,1.1,0,2.2,0.2,3.2
				c0,0.2,0,0.5,0.1,0.7c0.1,0.4,0.1,0.8,0.2,1.2c0.1,0.4,0.2,0.7,0.3,1.1c0.2,0.6,0.3,1.3,0.6,1.9c0.4,0.9,0.8,1.8,1.3,2.6
				c1.3,2.3,3,4.2,5.1,5.8c1.3,1,2.7,1.7,4.2,2.3c2.1,0.9,4.2,1.4,6.4,1.8c1.4,0.2,2.8,0.3,4.2,0.3c0.6,0,1.3-0.1,1.9-0.1
				c1,0,1.9-0.1,2.9-0.3c0.2-0.1,0.5-0.1,0.7-0.1c0.5-0.1,1-0.1,1.5-0.2c1.4-0.4,2.9-0.7,4.2-1.3c0.8-0.4,1.7-0.6,2.6-1
				c2.4-1.1,4.6-2.6,6.5-4.4c2.3-2.2,4.1-4.8,5.2-7.8C113.8,119.6,114.1,115.5,113.1,110.7z"/>
			<path class="st1" d="M106.9,112.3c0,0.1,0.1,0.2,0.1,0.4c0.1,0.3,0.1,0.6,0.2,0.9c0.6,2.8,0.5,5.5-0.2,8.3
				c-1.1,4-3.3,7.2-6.6,9.6c-1.7,1.2-3.5,2.2-5.4,2.8c-3.3,1.1-6.6,1.5-10.1,1.2c-2.6-0.3-5.1-1-7.5-2.2c-3.4-1.8-6-4.3-7.7-7.7
				c-0.9-1.7-1.4-3.6-1.7-5.5c-0.3-2.4-0.2-4.7,0.3-7c0.5-2.6,1.6-5,3-7.3c0.9-1.4,2-2.6,3.2-3.7c3.2-2.8,6.9-4.5,11.1-4.8
				c4.6-0.3,8.9,0.8,12.8,3.4c3.1,2,5.4,4.7,7.1,8c0.6,1.1,1,2.2,1.4,3.4C106.8,112.1,106.8,112.2,106.9,112.3z M70.5,120.8
				c0.2,1.5,0.9,3.1,1.7,4.6c1.3,2.2,2.9,3.9,5,5.3c0.9,0.6,1.8,1,2.7,1.4c1.8,0.8,3.6,1.2,5.5,1.4c1.1,0.1,2.2,0.1,3.4,0
				c1.7-0.1,3.3-0.5,4.8-1.1c1.1-0.4,2.1-0.9,3.1-1.5c3.9-2.5,6.3-6,7.1-10.5c0.4-2.3,0.2-4.6-0.4-6.8c-1-3.8-3.7-7.6-7.3-9.9
				c-3-2-6.3-3-9.9-3c-3.5,0-6.6,1-9.4,3.1C71.9,107.2,69.1,114.1,70.5,120.8z"/>
			<path class="st1" d="M75.6,120.2c-0.6-3.8,0.2-6.9,2.5-9.5c1.4-1.5,3.1-2.5,5-3.1c1.1-0.3,2.2-0.4,3.3-0.4c1,0.1,2,0.2,2.9,0.5
				c1.1,0.3,2.1,0.8,3,1.4c2.4,1.6,4.1,3.8,4.9,6.6c0.3,0.9,0.4,1.9,0.4,2.9c0,0.9-0.1,1.8-0.4,2.7c-0.2,0.9-0.6,1.7-1.1,2.5
				c-1.2,1.9-2.8,3.3-4.9,4.2c-3.1,1.4-6.3,1.3-9.4-0.1c-2.7-1.2-4.6-3.1-5.8-5.8C76,121.4,75.7,120.6,75.6,120.2z M94.2,117.1
				c-0.2-1.5-1.2-2.7-2.1-4c-0.2-0.2-0.4-0.4-0.6-0.6s-0.5-0.3-0.7-0.5c-0.7-0.5-1.5-0.8-2.3-1.1c-1.8-0.5-3.7-0.5-5.4,0.3
				c-4.3,1.8-5.7,6.7-3.7,10.6c1.2,2.3,3.2,3.7,5.7,4.3c1.9,0.4,3.8,0.2,5.6-0.8C93.6,123.6,94.9,120.3,94.2,117.1z"/>
		</g>
		
			<radialGradient id="SVGID_1_" cx="107.8368" cy="194.6142" r="36.9161" gradientTransform="matrix(1.6849 0 0 -1.6849 -86.0942 437.6055)" gradientUnits="userSpaceOnUse">
			<stop  offset="0" style="stop-color:#FFDF00"/>
			<stop  offset="0.1086" style="stop-color:#FFE005;stop-opacity:0.8914"/>
			<stop  offset="0.2325" style="stop-color:#FFE112;stop-opacity:0.7675"/>
			<stop  offset="0.3637" style="stop-color:#FFE429;stop-opacity:0.6363"/>
			<stop  offset="0.5003" style="stop-color:#FFE849;stop-opacity:0.4997"/>
			<stop  offset="0.6408" style="stop-color:#FFED73;stop-opacity:0.3592"/>
			<stop  offset="0.7848" style="stop-color:#FFF4A5;stop-opacity:0.2152"/>
			<stop  offset="0.9289" style="stop-color:#FFFBDF;stop-opacity:7.113630e-002"/>
			<stop  offset="1" style="stop-color:#FFFFFF;stop-opacity:0"/>
		</radialGradient>
		<circle class="st2" cx="95.6" cy="109.7" r="62.2"/>
	</g>
	<g>
		<g>
			<g>
				<path class="st3" d="M109.5,106c0-10-6.8-15.4-15.1-15.4c-9.3,0-20.6,8.6-20.6,21.2c0,3.4,1.3,6.6,2.7,8.8
					c-0.2-0.9-0.3-2.2-0.3-3.2c0-11.9,7.8-19,15.2-19c4.3,0,7.6,2.8,7.6,7.7c0,4.9-3.6,8.8-7,10.7l1.5-6.4l-15.2,12.7
					c4.6,5.2,10.1,8.6,20.6,9.4c-2.8-2-5.1-5.4-5.1-5.4C105.7,122.7,109.5,112.6,109.5,106 M35.7,104.9c-2.8-2.1-4.3-3.5-4.2-5.5
					c0.1-2.8,3-3.9,5.2-3.9c4.2,0,7.8,5.1,7.8,5.1c1-4.2,1.4-5.7,2-8.3c-3.2-1-6.3-1.7-9.7-1.7c-10.1,0-15,6.6-15,11.7
					c0,6.1,3.8,8.1,7.4,10.9c2.1,1.6,4.3,2.9,4.3,5.9c0,2.7-2.1,3.9-4.6,3.8c-5.3-0.2-8.4-6.6-8.4-6.6c-1.1,4.4-1.8,6.8-2.5,10
					c3.1,1.5,6.9,2.4,11.3,2.4c7.7,0,14.5-4.1,14.6-12.4C43.8,111.4,41.3,109,35.7,104.9 M72.2,120.6c-1.8-3.1-6.3-12.1-6.3-12.1
					S77.7,95.3,79,94.2c1.3-1.1,2.3-1.9,3.2-2.4H71.1c-0.1,0.3-0.3,0.7-0.6,1.1c-0.3,0.4-0.7,0.8-1.2,1.4l-10.6,12.2
					c0.3-1.6,1.9-9.3,2.2-10.9c0.4-1.9,0.7-3.8-1.1-3.8h-9.2c0.2,1.1,0.3,2.2,0.2,3.4c0,1.1-0.2,2.5-0.6,4.2l-4.3,20.8
					c-0.3,1.6-0.7,3-1.1,4.2c-0.4,1.1-1,2.3-1.6,3.4h9.5c2.2,0,2.3-1.1,2.7-3.9c0.1-0.9,2.1-11.2,2.1-11.2s3.2,7,5.3,10.9
					c3.1,5.6,8.8,6,10.9,6c3.2,0,5.1-0.5,5.3-0.8C77.5,127.6,75,125.4,72.2,120.6 M119.3,120.6l4.6-21.3c0.3-1.6,0.7-3,0.9-4.2
					c0.4-2.2,0.8-3.5-1.1-3.5h-9.4c0.2,1.2,0.3,2.3,0.2,3.4c0,1.1-0.2,2.6-0.6,4.2l-4.3,20.8c-0.3,1.7-0.7,3-1.1,4.2
					c-0.4,1.1-1,2.3-1.6,3.4H128l4.9-10.2C126.9,120.4,124.7,120.2,119.3,120.6"/>
			</g>
		</g>
	</g>
	<g class="st4">
		<path class="st5" d="M29.1,73.7c1.7,0,3.4,0.7,4.5,1.9l-1.2,1.2c-0.7-0.8-2-1.4-3.3-1.4c-2.5,0-4.4,2-4.4,4.6c0,2.8,2,4.6,4.6,4.6
			c1.6,0,2.8-0.9,3.5-1.7L34,84c-1,1.3-2.9,2.3-4.7,2.3c-3.6,0-6.3-2.7-6.3-6.3C22.9,76.4,25.5,73.7,29.1,73.7z"/>
		<path class="st5" d="M43.9,82.9h-5.1l-1.3,3.1h-1.8l5.1-12.2h1.2L47,86.1h-1.8L43.9,82.9z M39.4,81.3h3.8l-1.9-4.5L39.4,81.3z"/>
		<path class="st5" d="M56.2,83.4H55l-3.6-5.6v8.2h-1.7V73.9h1.2l4.7,7.4l4.7-7.4h1.2v12.2h-1.7v-8.2L56.2,83.4z"/>
		<path class="st5" d="M72.4,82.9h-5.1L66,86.1h-1.8l5.1-12.2h1.2l5.1,12.2h-1.8L72.4,82.9z M67.9,81.3h3.8l-1.9-4.5L67.9,81.3z"/>
		<path class="st5" d="M79.9,80.3v5.8h-1.7V73.9h4.3c1.1,0,1.8,0.3,2.4,0.7c0.7,0.6,1.2,1.5,1.2,2.5c0,1-0.5,1.9-1.2,2.5
			c-0.4,0.3-0.8,0.5-1.4,0.6l4.4,5.8h-2.1l-4.3-5.8H79.9z M82.3,78.7c0.8,0,1.2-0.2,1.5-0.5c0.3-0.3,0.5-0.7,0.5-1.1
			c0-0.4-0.2-0.8-0.5-1.1c-0.3-0.3-0.7-0.5-1.5-0.5h-2.4v3.1H82.3z"/>
		<path class="st5" d="M95,73.7c3.5,0,6.1,2.7,6.1,6.3c0,3.6-2.7,6.3-6.1,6.3c-3.5,0-6.1-2.7-6.1-6.3C88.9,76.4,91.6,73.7,95,73.7z
			 M95,84.6c2.5,0,4.4-2,4.4-4.6c0-2.6-1.9-4.6-4.4-4.6s-4.4,2-4.4,4.6C90.6,82.6,92.5,84.6,95,84.6z"/>
		<path class="st5" d="M102.5,73.9h8.4v1.7h-3.3v10.6h-1.7V75.5h-3.3V73.9z"/>
		<path class="st5" d="M119.4,78.7v1.7h-4v4.1h5.4v1.7h-7.2V73.9h7v1.7h-5.2v3.1H119.4z"/>
	</g>
	<g class="st4">
		<path class="st5" d="M26.4,137.8v3.3h4.9v2.8h-4.9v7.2h-3.1V135h9.7v2.8H26.4z"/>
		<path class="st5" d="M37.2,135h3.1v13.3h6.8v2.8h-9.9V135z"/>
		<path class="st5" d="M58.4,134.8c5,0,8.4,3.7,8.4,8.3s-3.4,8.3-8.4,8.3s-8.4-3.7-8.4-8.3S53.4,134.8,58.4,134.8z M58.4,148.6
			c3,0,5.3-2.5,5.3-5.5s-2.3-5.5-5.3-5.5c-3,0-5.3,2.5-5.3,5.5S55.4,148.6,58.4,148.6z"/>
		<path class="st5" d="M74.4,144v7.1h-3.1V135h5.9c1.7,0,2.7,0.5,3.5,1.2c0.9,0.8,1.4,2,1.4,3.3c0,1.3-0.6,2.5-1.4,3.3
			c-0.4,0.4-1,0.7-1.6,0.9l6,7.4h-3.8l-5.7-7.1H74.4z M77,141.2c0.9,0,1.3-0.2,1.6-0.5c0.3-0.3,0.5-0.8,0.5-1.2
			c0-0.5-0.2-0.9-0.5-1.2c-0.3-0.3-0.7-0.5-1.6-0.5h-2.6v3.5H77z"/>
		<path class="st5" d="M88.7,135h3.1v16.1h-3.1V135z"/>
		<path class="st5" d="M100.6,144.6v6.6h-3.1V135h6.1c2.1,0,3.3,0.5,4.2,1.5c0.8,0.8,1.3,2.1,1.3,3.3s-0.5,2.5-1.3,3.3
			c-0.9,0.9-2.1,1.4-4.2,1.4H100.6z M103.4,141.8c1.1,0,1.6-0.3,2-0.6c0.3-0.4,0.5-0.8,0.5-1.4s-0.2-1-0.5-1.4
			c-0.4-0.4-0.9-0.6-2-0.6h-2.8v4H103.4z"/>
		<path class="st5" d="M109.6,151.1l6.9-16.1h2.2l6.9,16.1h-3.2l-1.5-3.6h-6.5l-1.5,3.6H109.6z M115.5,144.8h4.1l-2-4.8L115.5,144.8
			z"/>
	</g>
</g>
</svg>
