<?xml version="1.0" encoding="utf-8"?>
<!-- Generator: Adobe Illustrator 19.1.1, SVG Export Plug-In . SVG Version: 6.00 Build 0)  -->
<svg version="1.1" id="Layer_1" xmlns="http://www.w3.org/2000/svg" xmlns:xlink="http://www.w3.org/1999/xlink" x="0px" y="0px"
	 viewBox="0 0 200 200" style="enable-background:new 0 0 200 200;" xml:space="preserve">
<style type="text/css">
	.st0{enable-background:new    ;}
	.st1{fill:#FFFFFF;}
	.st2{fill:#CE0058;}
</style>
<g>
	<g class="st0">
		<path class="st1" d="M24.3,42.4c0,2.6,2.1,4.7,4.8,4.7c1.8,0,3.1-0.9,4-1.9l1.9,1.6c-1.2,1.5-3.3,2.6-5.9,2.6
			c-4.4,0-7.4-3.1-7.4-7s3-7,7.4-7c2.1,0,3.9,0.8,5.1,1.9l-1.7,1.8c-0.8-0.8-2-1.4-3.4-1.4C26.3,37.7,24.3,39.8,24.3,42.4z"/>
		<path class="st1" d="M41.7,49.2l6-13.6h1.9l6,13.6h-2.8l-1.3-3h-5.6l-1.3,3H41.7z M46.8,43.8h3.6l-1.8-4L46.8,43.8z"/>
		<path class="st1" d="M70.1,43.7l5.1-8.2h1.9v13.6h-2.7v-7.6L71.1,47h-1.9l-3.4-5.4v7.6h-2.7V35.6H65L70.1,43.7z"/>
		<path class="st1" d="M84.7,49.2l6-13.6h1.9l6,13.6h-2.8l-1.3-3h-5.6l-1.3,3H84.7z M89.8,43.8h3.6l-1.8-4L89.8,43.8z"/>
		<path class="st1" d="M108.8,43.2v6h-2.7V35.6h5.1c1.4,0,2.4,0.4,3.1,1c0.8,0.7,1.2,1.7,1.2,2.8c0,1.1-0.5,2.1-1.2,2.8
			c-0.4,0.4-0.8,0.6-1.4,0.8l5.2,6.3h-3.3l-5-6H108.8z M111,40.8c0.8,0,1.1-0.2,1.4-0.4c0.2-0.3,0.4-0.6,0.4-1
			c0-0.4-0.2-0.8-0.4-1.1c-0.2-0.3-0.6-0.4-1.4-0.4h-2.2v2.9H111z"/>
		<path class="st1" d="M131,35.4c4.3,0,7.3,3.1,7.3,7c0,3.9-3,7-7.3,7c-4.3,0-7.3-3.1-7.3-7C123.7,38.5,126.6,35.4,131,35.4z
			 M131,47.1c2.6,0,4.6-2.1,4.6-4.7c0-2.6-2-4.7-4.6-4.7s-4.6,2.1-4.6,4.7C126.4,45,128.3,47.1,131,47.1z"/>
		<path class="st1" d="M155.1,35.6v2.3h-3.7v11.3h-2.7V37.9H145v-2.3H155.1z"/>
		<path class="st1" d="M165.8,37.9v2.8h4.3v2.3h-4.3v3.8h5.9v2.3h-8.6V35.6h8.4v2.3H165.8z"/>
	</g>
	<g class="st0">
		<path class="st2" d="M6.7,153.8h2v10h-2V153.8z"/>
		<path class="st2" d="M17.9,153.8h1.4l5.7,6.5v-6.5h2v10h-1.4l-5.7-6.5v6.5h-2V153.8z"/>
		<path class="st2" d="M39.5,153.8c1.6,0,2.7,0.3,3.5,0.9c1.3,0.9,2,2.4,2,4s-0.8,3.1-2,4c-0.8,0.6-1.9,0.9-3.5,0.9h-3.2v-10H39.5z
			 M42.3,156.7c-0.6-0.7-1.4-1.1-2.6-1.1h-1.5v6.5h1.5c1.2,0,2-0.4,2.6-1.1c0.5-0.6,0.7-1.3,0.7-2.2C43.1,158,42.8,157.2,42.3,156.7
			z"/>
		<path class="st2" d="M55.6,155.5v2.1h3.1v1.7h-3.1v2.8h4.3v1.7h-6.3v-10h6.1v1.7H55.6z"/>
		<path class="st2" d="M69.6,158.8c0,1.9,1.5,3.4,3.5,3.4c1.3,0,2.3-0.6,2.9-1.4l1.4,1.2c-0.9,1.1-2.4,1.9-4.3,1.9
			c-3.2,0-5.4-2.3-5.4-5.1s2.2-5.1,5.4-5.1c1.5,0,2.8,0.6,3.7,1.4l-1.3,1.3c-0.6-0.6-1.5-1-2.5-1C71.1,155.4,69.6,156.9,69.6,158.8z
			"/>
		<path class="st2" d="M85.8,153.8h2v10h-2V153.8z"/>
		<path class="st2" d="M99,155.5v2.1h3.1v1.7H99v4.5h-2v-10h6.1v1.7H99z"/>
		<path class="st2" d="M113.6,159.4v4.4h-2v-10h3.7c1.1,0,1.7,0.3,2.2,0.7c0.6,0.5,0.9,1.2,0.9,2c0,0.8-0.4,1.5-0.9,2
			c-0.3,0.3-0.6,0.5-1,0.6l3.8,4.6h-2.4l-3.6-4.4H113.6z M115.2,157.7c0.6,0,0.8-0.1,1-0.3c0.2-0.2,0.3-0.5,0.3-0.8
			c0-0.3-0.1-0.6-0.3-0.8c-0.2-0.2-0.4-0.3-1-0.3h-1.6v2.1H115.2z"/>
		<path class="st2" d="M127.9,163.8l4.4-10h1.4l4.4,10h-2.1l-1-2.2h-4.1l-1,2.2H127.9z M131.6,159.9h2.6l-1.3-2.9L131.6,159.9z
			 M135.3,150.7l-1.8,2.3h-1.3l1-2.3H135.3z"/>
		<path class="st2" d="M144.2,153.8h2l2.8,6.8l2.8-6.8h2l-4.1,10h-1.4L144.2,153.8z"/>
		<path class="st2" d="M164.1,155.5v2.1h3.1v1.7h-3.1v2.8h4.3v1.7h-6.3v-10h6.1v1.7H164.1z"/>
		<path class="st2" d="M177.2,153.8h2v8.2h4.3v1.7h-6.3V153.8z"/>
	</g>
	<g>
		<path class="st2" d="M18.1,73.6c-0.1,0-0.2-0.1-0.3-0.2c-1.8-0.8-2.7-1.7-2.7-2.7c0-0.6,0.2-1.1,0.6-1.5s1-0.6,1.7-0.6
			c0.5,0,0.9,0.1,1.3,0.4c0.4,0.2,0.7,0.6,1.1,1.1l2.1-1.1c-0.3-0.9-0.9-1.5-1.7-2c-0.8-0.5-1.8-0.7-3-0.7c-1.5,0-2.6,0.4-3.5,1.2
			c-0.9,0.8-1.3,1.9-1.3,3.2c0,1,0.3,1.9,0.9,2.6c0.6,0.7,1.8,1.5,3.6,2.4c0.1,0.1,0.3,0.1,0.5,0.2c1.6,0.7,2.4,1.6,2.4,2.5
			c0,0.7-0.2,1.3-0.7,1.7c-0.5,0.4-1.1,0.7-1.9,0.7s-1.5-0.2-2-0.6s-0.9-0.9-1.1-1.7l-2.1,1c0.3,1.2,0.9,2.1,1.7,2.7
			c0.9,0.6,2,1,3.4,1c1.6,0,3-0.5,3.9-1.4c1-0.9,1.5-2.1,1.5-3.7c0-1.1-0.3-1.9-0.9-2.6C20.8,75,19.7,74.3,18.1,73.6z"/>
		<polygon class="st2" points="41.8,66.6 38.6,66.6 32.8,73.5 32.8,66.6 29.9,66.6 29.9,82.9 32.8,82.9 32.8,74.7 39.2,82.9 
			42.6,82.9 35.4,73.9 		"/>
		<path class="st2" d="M62.3,68.9c-0.8-0.8-1.8-1.4-2.8-1.8s-2.2-0.6-3.3-0.6c-1.2,0-2.3,0.2-3.3,0.6s-2,1-2.8,1.8s-1.5,1.7-1.9,2.8
			c-0.4,1-0.6,2.1-0.6,3.3c0,1.2,0.2,2.3,0.6,3.3c0.4,1,1.1,1.9,1.9,2.7c0.8,0.8,1.7,1.4,2.8,1.8s2.2,0.6,3.3,0.6
			c1.2,0,2.3-0.2,3.3-0.6s2-1,2.8-1.8s1.5-1.7,1.9-2.7c0.4-1,0.6-2.1,0.6-3.3c0-1.1-0.2-2.2-0.6-3.3C63.8,70.6,63.2,69.7,62.3,68.9z
			 M61.7,77.2c-0.3,0.7-0.7,1.4-1.3,2s-1.2,1-1.9,1.3S57,81,56.2,81s-1.6-0.2-2.3-0.5s-1.4-0.7-1.9-1.3c-0.6-0.6-1-1.2-1.3-2
			c-0.3-0.7-0.4-1.5-0.4-2.3s0.1-1.6,0.4-2.3c0.3-0.7,0.7-1.4,1.3-2s1.2-1,1.9-1.3s1.5-0.5,2.3-0.5s1.6,0.2,2.3,0.5s1.4,0.7,1.9,1.3
			c0.6,0.6,1,1.2,1.3,2c0.3,0.7,0.4,1.5,0.4,2.3C62.1,75.7,62,76.5,61.7,77.2z"/>
		<polygon class="st2" points="74.9,66.6 72.5,66.6 72.5,82.9 81,82.9 81,80.4 74.9,80.4 		"/>
		<path class="st2" d="M113.1,74.8c0.8-0.2,1.3-0.6,1.7-1.2c0.4-0.6,0.6-1.3,0.6-2.2c0-0.7-0.1-1.4-0.4-2s-0.7-1.1-1.2-1.5
			c-0.4-0.3-0.9-0.6-1.4-0.7c-0.6-0.1-1.4-0.3-2.6-0.3h-4.2v16.2h4.2c1.6,0,2.7,0,3.3-0.2c0.7-0.2,1.2-0.5,1.7-0.9
			c0.4-0.4,0.7-0.9,1-1.5c0.2-0.6,0.3-1.2,0.3-1.9c0-1.1-0.3-2-0.8-2.7C114.8,75.4,114,75,113.1,74.8z M108.5,69.5h0.8
			c1.3,0,2.2,0.1,2.7,0.5s0.7,1,0.7,1.8s-0.3,1.3-0.8,1.7c-0.5,0.3-1.4,0.5-2.7,0.5h-0.8v-4.5H108.5z M113.2,79.8
			c-0.2,0.4-0.4,0.6-0.8,0.9c-0.3,0.2-0.6,0.3-1.1,0.4s-1.1,0.1-2.1,0.1h-0.7V76h0.7h0.8c0.5,0,1,0.1,1.3,0.1
			c0.3,0.1,0.6,0.2,0.9,0.3c0.4,0.2,0.7,0.5,0.9,0.9c0.2,0.4,0.3,0.8,0.3,1.4C113.4,79.1,113.3,79.5,113.2,79.8z"/>
		<polygon class="st2" points="124.3,83.3 133.6,83.3 133.6,81.2 127.1,81.2 127.1,76 133.6,76 133.6,73.5 127.1,73.5 127.1,69.5 
			133.6,69.5 133.6,67.1 124.3,67.1 		"/>
		<path class="st2" d="M141.2,83.3h2.8l1.9-4.1h6.4l1.8,4.1h2.8l-7.8-16.9L141.2,83.3z M149.4,72.5c0.1,0.3,0.2,0.6,0.3,0.9l1.7,3.8
			h-4.5l1.7-3.8c0.1-0.3,0.2-0.6,0.3-0.9s0.2-0.7,0.3-1C149.2,71.9,149.3,72.2,149.4,72.5z"/>
		<polygon class="st2" points="160.8,69.5 165.2,69.5 165.2,83.3 167.6,83.3 167.6,69.5 172.1,69.5 172.1,67.1 160.8,67.1 		"/>
		<path class="st2" d="M188.8,75.8c-0.6-0.7-1.7-1.4-3.3-2.2c-0.1,0-0.2-0.1-0.3-0.2c-1.8-0.8-2.7-1.7-2.7-2.7
			c0-0.6,0.2-1.1,0.6-1.5c0.4-0.4,1-0.6,1.7-0.6c0.5,0,0.9,0.1,1.3,0.4c0.4,0.2,0.7,0.6,1.1,1.1l2.1-1.1c-0.3-0.9-0.9-1.5-1.7-2
			s-1.8-0.7-3-0.7c-1.5,0-2.6,0.4-3.5,1.2c-0.9,0.8-1.3,1.9-1.3,3.2c0,1,0.3,1.9,0.9,2.6c0.6,0.7,1.8,1.5,3.6,2.4
			c0.1,0.1,0.3,0.1,0.5,0.2c1.6,0.7,2.4,1.6,2.4,2.5c0,0.7-0.2,1.3-0.7,1.7c-0.5,0.4-1.1,0.7-1.9,0.7c-0.8,0-1.5-0.2-2-0.6
			s-0.9-0.9-1.1-1.7l-2.1,1c0.3,1.2,0.9,2.1,1.7,2.7c0.9,0.6,2,1,3.4,1c1.6,0,3-0.5,3.9-1.4c1-0.9,1.5-2.1,1.5-3.7
			C189.7,77.3,189.4,76.5,188.8,75.8z"/>
		<rect x="88.3" y="72.3" class="st2" width="4.1" height="3.6"/>
	</g>
	<g>
		<path class="st2" d="M131,104.3c0-5.8-4.7-10.5-10.6-10.5h-8.7h-3.5h-2.5l9.2,17h-9.4V127h5.7v-11.3h6.3l9.5,17.4h6.1L123,114.6
			C127.6,113.3,131,109.2,131,104.3z M115.2,100.3h4.9c2.5,0,4.5,1.9,4.5,4.4s-2,4.5-4.5,4.5L115.2,100.3z"/>
		<rect x="173.7" y="127" class="st2" width="6.5" height="6.5"/>
		<polygon class="st2" points="163.2,93.8 163.2,100.3 173.7,100.3 173.7,115.7 180.2,115.7 180.2,100.3 191.1,100.3 191.1,93.8 		
			"/>
		<rect x="149" y="110.4" class="st2" width="6.1" height="5.3"/>
		<polygon class="st2" points="143.3,100.3 159.1,100.3 159.1,93.8 137.3,93.8 137.3,109.2 143.3,109.2 		"/>
		<polygon class="st2" points="143.3,116.1 137.3,116.1 137.3,133.5 160.3,133.5 160.3,127 143.3,127 		"/>
		<rect x="53" y="110.4" class="st2" width="6.1" height="5.3"/>
		<rect x="34.8" y="110.4" class="st2" width="6.1" height="5.3"/>
		<polygon class="st2" points="47.3,100.3 63.1,100.3 63.1,93.8 41.3,93.8 41.3,109.2 47.3,109.2 		"/>
		<polygon class="st2" points="47.3,116.1 41.3,116.1 41.3,133.5 64.4,133.5 64.4,127 47.3,127 		"/>
		<path class="st2" d="M24.5,109.7c-0.2-0.1-0.4-0.2-0.8-0.4c-4.3-2-6.4-4.1-6.4-6.4c0-1.4,0.5-2.6,1.5-3.5s2.3-1.3,3.9-1.3
			c1.2,0,2.2,0.3,3.1,0.8c0.9,0.6,1.7,1.4,2.5,2.6l4.8-2.5c-0.7-2-2-3.6-3.9-4.6c-1.9-1.1-4.2-1.6-7-1.6c-3.4,0-6.1,1-8.2,2.9
			s-3.1,4.4-3.1,7.5c0,2.4,0.7,4.4,2.1,6c1.1,1.3,3.2,2.8,6.2,4.4l-8.4,12.8l0,0l0,0c0.7,1.6,1.8,2.8,3.2,3.8
			c2.1,1.5,4.7,2.2,7.9,2.2c3.8,0,6.9-1.1,9.1-3.2c2.3-2.1,3.4-5,3.4-8.5c0-2.5-0.7-4.5-2.1-6.2C30.8,113.1,28.3,111.4,24.5,109.7z
			 M26.4,125.4c-1.1,1-2.5,1.5-4.4,1.5c-1.3,0-2.5-0.2-3.5-0.6l6.4-9.6c2.1,1.4,3.1,2.9,3.1,4.6C28,123.1,27.5,124.4,26.4,125.4z"/>
		<path class="st2" d="M86.9,127.1c-7.3,0-13.1-6.2-13.1-13.9s5.9-13.9,13.1-13.9c3.9,0,7.4,1.8,9.8,4.7l4.8-4.3
			c-3.6-4.3-8.8-7-14.6-7c-10.7,0-19.4,9.2-19.4,20.5s8.7,20.5,19.4,20.5c6,0,11.4-2.9,14.9-7.4l-4.6-4.5
			C94.8,125,91,127.1,86.9,127.1z"/>
	</g>
</g>
</svg>
