<?xml version="1.0" encoding="utf-8"?>
<!-- Generator: Adobe Illustrator 19.1.1, SVG Export Plug-In . SVG Version: 6.00 Build 0)  -->
<svg version="1.1" id="Layer_1" xmlns="http://www.w3.org/2000/svg" xmlns:xlink="http://www.w3.org/1999/xlink" x="0px" y="0px"
	 viewBox="0 0 200 200" style="enable-background:new 0 0 200 200;" xml:space="preserve">
<style type="text/css">
	.st0{fill:url(#SVGID_1_);}
	.st1{fill:url(#SVGID_2_);}
	.st2{fill:url(#SVGID_3_);}
	.st3{fill:url(#SVGID_4_);}
	.st4{fill:#DB006E;}
	.st5{enable-background:new    ;}
	.st6{fill:#FFFFFF;}
</style>
<g>
	<g>
		
			<radialGradient id="SVGID_1_" cx="-2793.2087" cy="-192.4109" r="441.7288" gradientTransform="matrix(0.2045 0 0 -0.2045 617.2983 83.7861)" gradientUnits="userSpaceOnUse">
			<stop  offset="0.1215" style="stop-color:#D41B62"/>
			<stop  offset="0.2499" style="stop-color:#B82067"/>
			<stop  offset="0.4931" style="stop-color:#88286F"/>
			<stop  offset="0.708" style="stop-color:#662E74"/>
			<stop  offset="0.8843" style="stop-color:#513278"/>
			<stop  offset="1" style="stop-color:#493379"/>
		</radialGradient>
		<path class="st0" d="M25.5,111.1c0.7-0.9,1.3-1.9,1.8-3s1-2.3,1.1-3.5c0-0.2,0.1-0.4,0.1-0.6s0.1-0.4,0.1-0.6c0-1.1,0.1-2.2,0-3.3
			c-0.1-1.3-0.3-2.6-0.6-3.8c-0.5-2.1-1-4.1-1.6-6.2c-0.5-1.9-1-3.8-1.4-5.8c-0.6-2.5-0.9-5-1-7.5c0-1.3,0-2.6,0.1-3.9
			s0.4-2.6,0.7-3.9c0.3-1.1,0.7-2.2,1.2-3.2c0.4-0.8,0.8-1.6,1.3-2.3c0.7-1.1,1.4-2.1,2.2-3c0.7-0.9,1.5-1.6,2.4-2.4
			c0.7-0.6,1.4-1.2,2.1-1.7c1.1-0.8,2.2-1.5,3.4-2.1c1-0.5,2-1.1,3.1-1.5c1.2-0.5,2.3-0.9,3.5-1.3c2.2-0.8,4.4-1.4,6.6-1.9
			c1.1-0.2,2.1-0.5,3.2-0.7l0,0c0,0.3-0.3,0.3-0.4,0.3c-1.5,0.5-3.1,0.9-4.6,1.4c-1.4,0.5-2.7,1-4.1,1.5c-1.1,0.4-2.1,0.9-3.1,1.4
			s-2,1.1-2.9,1.7c-0.8,0.5-1.5,1-2.2,1.6c-1,0.7-1.9,1.5-2.7,2.4c-0.5,0.5-1,1.1-1.5,1.6c-0.8,0.8-1.4,1.7-2,2.7
			c-1.1,1.7-2,3.6-2.7,5.6s-1.1,4-1.2,6.1c-0.2,2.3-0.1,4.6,0.2,6.8c0.4,3,1,6,1.6,8.9c0.5,2.2,0.9,4.5,1.1,6.7c0.1,1.5,0.2,3,0,4.6
			c-0.1,1.3-0.4,2.6-0.8,3.8c-0.6,1.7-1.5,3.3-2.5,4.8c-1.1,1.6-2.3,3.1-3.5,4.5c-2.5,2.9-5,5.7-7.3,8.8c-1.1,1.4-2.2,2.9-3.2,4.4
			c-1.3,1.9-2.4,3.8-3.4,5.8c0,0.1-0.1,0.1-0.1,0.2c-0.3,0.6-0.6,1.3-0.9,1.9c-0.9,1.9-1.5,4-2,6c-0.1,0.3-0.1,0.6-0.2,0.9
			c-0.3,1.9-0.6,3.8-0.5,5.8c0,0.1,0,0.3,0,0.4c0,1.5,0.2,3,0.5,4.5c0.4,1.9,0.9,3.7,1.8,5.5c0.2,0.3,0.3,0.7,0.5,1
			c1,1.8,2.1,3.5,3.5,5c1,1.1,2,2.1,3.2,3.1c1.7,1.4,3.5,2.5,5.4,3.5c1.4,0.7,2.8,1.3,4.2,1.8c1.9,0.7,3.8,1.2,5.7,1.6
			c1.9,0.4,3.9,0.7,5.8,0.9c2.2,0.2,4.4,0.4,6.7,0.3c1.9,0,3.9-0.1,5.8-0.2c1.5-0.1,2.9-0.3,4.4-0.5c2.3-0.3,4.7-0.7,7-1.2
			c4-0.9,7.9-2,11.7-3.3c4.4-1.6,8.6-3.5,12.7-5.7c0.2-0.1,1.1-0.8,1.4-0.6c0,0.3-0.2,0.3-0.4,0.4c-1,0.5-1.9,1.1-2.9,1.6
			c-3.1,1.6-6.2,3-9.4,4.2c-3.2,1.2-6.5,2.3-9.9,3.1c-2.7,0.7-5.5,1.3-8.2,1.7c-2.1,0.4-4.3,0.6-6.4,0.9c-0.7,0.1-1.4,0.1-2.2,0.2
			c-1.2,0.1-2.4,0.2-3.5,0.2c-1.9,0-3.9,0-5.8-0.1c-2-0.1-4-0.3-5.9-0.6c-2.1-0.3-4.3-0.8-6.4-1.4c-1.9-0.5-3.8-1.2-5.6-2
			c-2-0.9-3.9-2-5.7-3.2c-1.2-0.8-2.3-1.8-3.3-2.8c-1.4-1.4-2.6-3-3.7-4.7c-0.8-1.2-1.4-2.6-1.9-3.9c-0.6-1.6-1-3.3-1.2-5.1
			c-0.3-1.9-0.3-3.9-0.2-5.8c0.2-1.9,0.5-3.9,1.1-5.8c0.4-1.1,0.7-2.3,1.2-3.4c0.7-1.8,1.6-3.6,2.6-5.3c0.3-0.5,0.5-0.9,0.8-1.4
			c1.3-1.9,2.6-3.9,4-5.7c1.3-1.7,2.7-3.3,4.1-4.9c1.6-1.8,3.2-3.5,4.8-5.3"/>
		
			<radialGradient id="SVGID_2_" cx="-2753.7932" cy="170.6837" r="0.811" gradientTransform="matrix(0.2045 0 0 -0.2045 617.2983 83.7861)" gradientUnits="userSpaceOnUse">
			<stop  offset="0.1215" style="stop-color:#D41B62"/>
			<stop  offset="0.2499" style="stop-color:#B82067"/>
			<stop  offset="0.4931" style="stop-color:#88286F"/>
			<stop  offset="0.708" style="stop-color:#662E74"/>
			<stop  offset="0.8843" style="stop-color:#513278"/>
			<stop  offset="1" style="stop-color:#493379"/>
		</radialGradient>
		<path class="st1" d="M54,48.9L54,48.9c0.1,0,0.2,0,0.2-0.1L54,48.9C54.1,48.9,54,48.9,54,48.9L54,48.9z"/>
		
			<radialGradient id="SVGID_3_" cx="-2504.0793" cy="-137.7522" r="746.1072" gradientTransform="matrix(0.2045 0 0 -0.2045 617.2983 83.7861)" gradientUnits="userSpaceOnUse">
			<stop  offset="0.1215" style="stop-color:#D41B62"/>
			<stop  offset="0.2499" style="stop-color:#B82067"/>
			<stop  offset="0.4931" style="stop-color:#88286F"/>
			<stop  offset="0.708" style="stop-color:#662E74"/>
			<stop  offset="0.8843" style="stop-color:#513278"/>
			<stop  offset="1" style="stop-color:#493379"/>
		</radialGradient>
		<path class="st2" d="M25.5,111.1c0.7-0.9,1.3-1.9,1.8-3s1-2.3,1.1-3.5c0-0.2,0.1-0.4,0.1-0.6s0.1-0.4,0.1-0.6c0-1.1,0.1-2.2,0-3.3
			c-0.1-1.3-0.3-2.6-0.6-3.8c-0.5-2.1-1-4.1-1.6-6.2c-0.5-1.9-1-3.8-1.4-5.8c-0.6-2.5-0.9-5-1-7.5c0-1.3,0-2.6,0.1-3.9
			s0.4-2.6,0.7-3.9c0.3-1.1,0.7-2.2,1.2-3.2c0.4-0.8,0.8-1.6,1.3-2.3c0.7-1.1,1.4-2.1,2.2-3c0.7-0.9,1.5-1.6,2.4-2.4
			c0.7-0.6,1.4-1.2,2.1-1.7c1.1-0.8,2.2-1.5,3.4-2.1c1-0.5,2-1.1,3.1-1.5c1.2-0.5,2.3-0.9,3.5-1.3c2.2-0.8,4.4-1.4,6.6-1.9
			c1.1-0.2,2.1-0.5,3.2-0.7l0,0c0,0.3-0.3,0.3-0.4,0.3c-1.5,0.5-3.1,0.9-4.6,1.4c-1.4,0.5-2.7,1-4.1,1.5c-1.1,0.4-2.1,0.9-3.1,1.4
			s-2,1.1-2.9,1.7c-0.8,0.5-1.5,1-2.2,1.6c-1,0.7-1.9,1.5-2.7,2.4c-0.5,0.5-1,1.1-1.5,1.6c-0.8,0.8-1.4,1.7-2,2.7
			c-1.1,1.7-2,3.6-2.7,5.6s-1.1,4-1.2,6.1c-0.2,2.3-0.1,4.6,0.2,6.8c0.4,3,1,6,1.6,8.9c0.5,2.2,0.9,4.5,1.1,6.7c0.1,1.5,0.2,3,0,4.6
			c-0.1,1.3-0.4,2.6-0.8,3.8c-0.6,1.7-1.5,3.3-2.5,4.8c-1.1,1.6-2.3,3.1-3.5,4.5c-2.5,2.9-5,5.7-7.3,8.8c-1.1,1.4-2.2,2.9-3.2,4.4
			c-1.3,1.9-2.4,3.8-3.4,5.8c0,0.1-0.1,0.1-0.1,0.2c-0.3,0.6-0.6,1.3-0.9,1.9c-0.9,1.9-1.5,4-2,6c-0.1,0.3-0.1,0.6-0.2,0.9
			c-0.3,1.9-0.6,3.8-0.5,5.8c0,0.1,0,0.3,0,0.4c0,1.5,0.2,3,0.5,4.5c0.4,1.9,0.9,3.7,1.8,5.5c0.2,0.3,0.3,0.7,0.5,1
			c1,1.8,2.1,3.5,3.5,5c1,1.1,2,2.1,3.2,3.1c1.7,1.4,3.5,2.5,5.4,3.5c1.4,0.7,2.8,1.3,4.2,1.8c1.9,0.7,3.8,1.2,5.7,1.6
			c1.9,0.4,3.9,0.7,5.8,0.9c2.2,0.2,4.4,0.4,6.7,0.3c1.9,0,3.9-0.1,5.8-0.2c1.5-0.1,2.9-0.3,4.4-0.5c2.3-0.3,4.7-0.7,7-1.2
			c4-0.9,7.9-2,11.7-3.3c4.4-1.6,8.6-3.5,12.7-5.7c0.2-0.1,1.1-0.8,1.4-0.6c0,0.3-0.2,0.3-0.4,0.4c-1,0.5-1.9,1.1-2.9,1.6
			c-3.1,1.6-6.2,3-9.4,4.2c-3.2,1.2-6.5,2.3-9.9,3.1c-2.7,0.7-5.5,1.3-8.2,1.7c-2.1,0.4-4.3,0.6-6.4,0.9c-0.7,0.1-1.4,0.1-2.2,0.2
			c-1.2,0.1-2.4,0.2-3.5,0.2c-1.9,0-3.9,0-5.8-0.1c-2-0.1-4-0.3-5.9-0.6c-2.1-0.3-4.3-0.8-6.4-1.4c-1.9-0.5-3.8-1.2-5.6-2
			c-2-0.9-3.9-2-5.7-3.2c-1.2-0.8-2.3-1.8-3.3-2.8c-1.4-1.4-2.6-3-3.7-4.7c-0.8-1.2-1.4-2.6-1.9-3.9c-0.6-1.6-1-3.3-1.2-5.1
			c-0.3-1.9-0.3-3.9-0.2-5.8c0.2-1.9,0.5-3.9,1.1-5.8c0.4-1.1,0.7-2.3,1.2-3.4c0.7-1.8,1.6-3.6,2.6-5.3c0.3-0.5,0.5-0.9,0.8-1.4
			c1.3-1.9,2.6-3.9,4-5.7c1.3-1.7,2.7-3.3,4.1-4.9c1.6-1.8,3.2-3.5,4.8-5.3 M54,48.9L54,48.9c0.1,0,0.2,0,0.2-0.1L54,48.9
			C54.1,48.9,54,48.9,54,48.9L54,48.9z M131.7,164.5c1.2,0,2.4,0.1,3.6,0c2.5-0.1,5-0.7,7.3-1.7c3-1.2,5.7-3,8-5.2s4.3-4.6,6-7.2
			c1.6-2.3,3.1-4.7,4.6-7.1c1.8-2.8,3.7-5.4,5.9-7.8c1.3-1.4,2.7-2.8,4-4.2c1.5-1.5,2.9-2.9,4.4-4.4c1.9-1.9,3.6-4,5.1-6.2
			c1.2-1.8,2.1-3.7,2.8-5.7c0.4-1.3,0.7-2.5,0.9-3.8c0.2-1.1,0.2-2.3,0.2-3.5c-0.1-1.3-0.2-2.5-0.4-3.8c-0.2-1.2-0.6-2.5-1-3.6
			c-0.7-2.1-1.7-4.1-2.8-6c-1.5-2.6-3.3-5.1-5-7.5c-1.5-2-3-4.1-4.5-6.1c-1.6-2.3-2.9-4.7-3.8-7.3c-0.7-2.1-1.2-4.2-1.4-6.4
			c-0.3-2.6-0.4-5.3-0.5-7.9c-0.1-2.1-0.2-4.3-0.5-6.4c-0.4-3-1-5.9-2.2-8.7c-0.8-1.9-1.8-3.7-3-5.4c-1.3-1.8-2.9-3.4-4.7-4.8
			c-1.5-1.2-3.1-2.2-4.9-3c-3.4-1.6-7.1-2.6-10.9-3.1c-4.5-0.6-9.1-0.6-13.7-0.4c-7.9,0.5-15.7,1.7-23.4,3.7
			c-6,1.5-11.8,3.7-17.3,6.4c-4.8,2.4-9.4,5-13.9,7.9c-2.6,1.7-5.1,3.4-7.5,5.3c-2.4,1.9-4.6,3.9-6.7,6.2c-2.1,2.3-3.9,4.8-5.5,7.5
			c-3.8,6.6-6.7,13.7-8.8,21c-0.6,2.3-1.2,4.7-1.8,7c-1,3.7-2.3,7.3-4.1,10.6c-1.5,2.8-3.1,5.5-4.7,8.2c-1.1,1.9-2.2,3.8-3.3,5.7
			c-1.4,2.6-2.7,5.2-3.7,7.9c-1.1,2.8-1.9,5.7-2.3,8.6c-0.3,2.3-0.5,4.6-0.4,6.9c0.1,2.4,0.4,4.9,0.9,7.3c0.5,2.3,1.2,4.5,2.3,6.7
			c1,2.2,2.3,4.2,3.8,6c0.7,0.9,1.5,1.7,2.3,2.4c2.5,2.3,5.2,4,8.3,5.3c3,1.3,6.1,2.1,9.4,2.6c2.8,0.4,5.7,0.5,8.5,0.5
			c2.5-0.1,5.1-0.4,7.6-0.8c4.6-0.8,9.1-2,13.4-3.7c0.5-0.2,0.7-0.8-0.4-0.6c-1.5,0-2.9,0-4.4-0.1c-0.9,0-1.7-0.1-2.6-0.2
			c-1-0.1-1.9-0.2-2.9-0.4c-6.2-1.2-11.7-3.8-16.3-8.3c-2.3-2.3-4.2-4.9-5.8-7.8c-1.6-3-2.8-6.1-3.7-9.4c-0.8-3-1.4-6.1-1.7-9.2
			c-0.4-4.2-0.1-8.4,1.1-12.5c0.8-2.8,2-5.4,3.5-7.9c1.9-3.1,4.2-5.8,6.7-8.4c2.1-2.1,4.3-4.2,6.5-6.2c1.9-1.7,3.8-3.5,5.7-5.2
			c1.6-1.5,3.2-3.2,4.5-5.1c1.1-1.5,2-3.1,2.8-4.8c1-2.1,1.9-4.2,2.9-6.3c1.2-2.6,2.5-5,4.1-7.4c1.8-2.7,3.9-5.1,6.3-7.2
			c2.9-2.6,6.2-4.7,9.7-6.3s7.1-2.6,10.8-3.2c2.7-0.4,5.4-0.6,8.2-0.5c4.1,0.2,8,1,11.7,2.6c3.2,1.4,5.9,3.4,8.1,6
			c1.5,1.8,2.7,3.7,3.7,5.8c0.9,2,1.6,4,2.3,6c0.6,1.9,1.2,3.7,2,5.5c1,2.3,2.3,4.4,3.9,6.3c1.6,1.9,3.4,3.6,5.1,5.4
			c1.7,1.7,3.3,3.4,4.9,5.1c2.1,2.4,3.9,5,5.4,7.8c1.4,2.7,2.3,5.6,2.5,8.6c0.1,1.7,0,3.4-0.3,5.1c-0.3,1.8-0.9,3.4-1.6,5
			c-0.7,1.4-1.5,2.7-2.4,4c-1.7,2.3-3.7,4.4-5.8,6.4c-2.1,1.9-4.2,3.8-6.2,5.7c-2.5,2.3-4.7,4.7-6.9,7.3c-2,2.4-4,4.8-6.1,7.1
			c-1.4,1.6-2.9,3-4.4,4.3c-2,1.7-4.3,3.2-6.7,4.3c-1.8,0.8-3.7,1.5-5.6,2c-1.2,0.3-2.4,0.6-3.6,0.7c-0.3,0-0.6,0.1-0.8,0.2
			c0,0.2,0.1,0.2,0.2,0.2c0.5,0,2.2-0.2,2.4-0.2c1.2-0.1,2.4-0.3,3.6-0.5c3.8-0.7,7.3-2.1,10.5-4.3c2.4-1.7,4.5-3.7,6.5-5.8
			c1.8-2,3.5-4.2,5.2-6.3c1.4-1.8,2.9-3.7,4.5-5.4c2-2.3,4.3-4.4,6.6-6.4c1.9-1.7,3.8-3.4,5.6-5.3c1.6-1.7,3.1-3.4,4.4-5.3
			c1.6-2.5,2.8-5.2,3.3-8.1c0.3-1.7,0.4-3.5,0.2-5.2c-0.3-3.1-1.2-6-2.6-8.7c-1.4-2.8-3.1-5.2-5.1-7.6c-1.7-2.1-3.5-4-5.3-5.9
			c-1.3-1.4-2.5-2.8-3.7-4.2c-2-2.6-3.6-5.4-4.5-8.6c-0.6-2-1.1-3.9-1.6-5.9c-0.6-2.3-1.3-4.6-2.3-6.8c-1.5-3.3-3.6-6.3-6.4-8.6
			c-2-1.7-4.2-3-6.6-4c-4.1-1.7-8.3-2.4-12.7-2.5c-5.8-0.1-11.4,0.7-16.9,2.5c-6.2,2.1-11.8,5.3-16.5,9.9C78.4,60.5,76,63.6,74,67
			c-1.5,2.5-2.7,5.1-3.8,7.8c-0.7,1.6-1.3,3.1-2,4.7c-1.6,3.7-3.7,7-6.5,9.9c-2.2,2.3-4.4,4.6-6.6,6.8c-2,2-4,4.1-6,6.2
			c-2.1,2.4-4,4.8-5.7,7.5c-2.2,3.5-3.7,7.3-4.4,11.3c-0.6,3.1-0.7,6.3-0.5,9.5c0.4,5.1,1.4,10,3.2,14.8c1.3,3.4,3,6.6,5.3,9.4
			c2.1,2.6,4.5,4.7,7.3,6.5c3.4,2.1,7,3.4,10.9,4.2c1,0.2,2.1,0.4,3.2,0.5c1.5,0.2,3,0.2,4.5,0.2c0.5,0,1,0,1.5,0
			c0.6,0,1.3,0,1.9-0.1c0.2-0.1,0.5,0,0.7,0c-0.6,0.3-3.9,1.2-5.1,1.4c-1.3,0.2-2.6,0.3-3.9,0.5c-0.1,0-0.1,0-0.2,0
			c-1.4,0-2.9,0.2-4.3,0.1c-1.7-0.1-3.4-0.2-5-0.4c-2.7-0.4-5.3-1.1-7.8-2c-2.9-1.1-5.5-2.6-7.9-4.6c-3.3-2.7-5.9-6-7.7-9.9
			c-1.6-3.2-2.6-6.5-3.3-10c-0.8-4-1-8-0.7-12c0.3-3.9,1.2-7.6,2.6-11.3c1.4-3.6,3.2-7,5.3-10.3c1.6-2.4,3.3-4.8,4.9-7.1
			c2.4-3.4,4.7-6.9,6.8-10.5c1.5-2.5,2.9-5,4.3-7.5c1.3-2.3,2.4-4.7,3.4-7.1s2-4.8,3-7.2c1.4-3.2,3.1-6.3,5.2-9.2
			c1.8-2.5,3.8-4.8,6.1-7c1.8-1.7,3.6-3.3,5.6-4.7c2.7-2,5.6-3.8,8.6-5.3c5.9-3,12.1-5,18.6-6.2c5.4-1,10.8-1.6,16.3-1.5
			c3.8,0.1,7.7,0.4,11.4,1.4c3,0.8,5.9,1.9,8.6,3.5c2.9,1.7,5.3,3.9,7.2,6.7c1.7,2.4,3,5.1,3.8,7.9c0.8,2.7,1.3,5.4,1.6,8.2
			c0.3,2,0.5,4.1,0.8,6.1s0.7,4.1,1.4,6c0.6,1.8,1.5,3.6,2.5,5.2c1.2,2,2.7,3.8,4.1,5.7c1.1,1.4,2.2,2.8,3.3,4.2
			c1.3,1.7,2.6,3.5,3.7,5.4c1.4,2.4,2.7,4.9,3.5,7.6c0.7,2.5,1.1,5,1,7.5c-0.1,1.9-0.4,3.7-1,5.4c-0.8,2.3-1.9,4.4-3.3,6.4
			c-1.7,2.5-3.7,4.6-5.9,6.7c-1.7,1.7-3.4,3.3-5.2,5c-3,2.9-5.6,6-7.9,9.4c-1.4,2-2.8,4-4.2,5.9c-1.3,1.8-2.7,3.5-4.2,5.1
			c-2.1,2.2-4.5,4-7.1,5.5c-2.1,1.1-4.4,1.9-6.7,2.4c-1.2,0.2-2.4,0.4-3.6,0.4c-0.5,0-1.1,0.1-1.6,0.1s-1-0.1-1.4-0.1
			c-0.1,0-0.2,0-0.2,0c-1-0.1-2-0.1-3-0.2c0.1,0.1,3.4,0.6,4.1,0.7c1,0.1,2,0.3,3,0.2c0.5,0,1,0,1.4,0c1.2,0,2.5-0.1,3.7-0.3
			c1.9-0.3,3.7-0.8,5.5-1.6c2.3-1,4.4-2.3,6.3-3.9c2.2-1.9,4.2-4,6-6.3c1.6-2.1,3-4.3,4.5-6.5c1.4-2.1,2.8-4.2,4.4-6.1
			c1.8-2.2,3.7-4.2,5.8-6.2s4.2-4,6.2-6.1c1.6-1.8,3.1-3.6,4.4-5.7c1.7-2.7,2.8-5.6,3.2-8.8c0.3-2.2,0.2-4.3-0.1-6.4
			c-0.4-2.7-1.3-5.2-2.5-7.6c-1.3-2.6-2.9-5.1-4.6-7.5c-1.5-2-3-3.9-4.4-5.8s-2.8-3.8-4-5.9c-0.9-1.7-1.7-3.4-2.2-5.3
			c-0.6-2.2-1-4.5-1.2-6.7c-0.3-2.8-0.5-5.6-0.8-8.3c-0.4-3.2-1.1-6.3-2.3-9.3c-1-2.5-2.4-4.8-4.1-6.8c-2-2.4-4.5-4.3-7.3-5.8
			c-2.9-1.5-6-2.5-9.2-3.2c-4.2-0.8-8.5-1.1-12.8-1c-2.6,0.1-5.3,0.3-7.9,0.6c-4.1,0.5-8.1,1.2-12,2.1c-3.4,0.8-6.7,1.8-9.9,3.1
			c-4.9,1.9-9.5,4.3-13.8,7.2C74,47.8,69.7,51.4,66,55.8c-2.2,2.5-4.1,5.3-5.7,8.2c-1.3,2.3-2.4,4.7-3.4,7.1
			c-0.9,2.1-1.8,4.3-2.7,6.4c-2.1,4.7-4.3,9.2-6.6,13.8c-1.9,3.8-4,7.5-6.3,11c-1.2,1.9-2.5,3.8-3.7,5.7c-1.9,3.1-3.7,6.2-5.1,9.6
			c-1.3,3.1-2.4,6.3-3,9.7c-0.4,2.3-0.6,4.6-0.6,6.9c0,4.2,0.5,8.4,1.7,12.5c0.5,1.8,1.2,3.6,2,5.3c1,2.1,2.2,4,3.6,5.8
			c1.3,1.6,2.8,3.1,4.5,4.4c1.8,1.4,3.7,2.6,5.8,3.5c2.9,1.4,6,2.2,9.1,2.7c1.2,0.2,2.4,0.3,3.7,0.4c0.9,0.1,1.8,0.1,2.7,0.1
			c1.2,0,2.4,0,3.5-0.1c1.3-0.1,2.5-0.2,3.7-0.4c0.9-0.1,1.8-0.3,2.7-0.4c1.5-0.3,3.1-0.6,4.6-1.1c0.4-0.1,1.4-0.3,1.5-0.3
			c0,0-0.7,0.3-1,0.4c-1.5,0.4-3,0.9-4.5,1.3c-2.4,0.6-4.8,1-7.3,1.3c-1.8,0.2-3.7,0.4-5.5,0.3c-1.3,0-2.7,0-4-0.1
			c-1.3-0.2-2.6-0.3-3.8-0.5c-2.6-0.4-5.1-1.2-7.6-2.2c-2.1-0.9-4.1-1.9-5.9-3.2c-2-1.4-3.7-3-5.3-4.8c-1.4-1.7-2.7-3.6-3.7-5.6
			c-1.7-3.3-2.7-6.8-3.3-10.5c-0.6-4.2-0.6-8.3,0-12.5c0.5-3.2,1.4-6.2,2.6-9.2c1.3-3.3,2.9-6.4,4.7-9.4c1.8-3.1,3.7-6.1,5.5-9.2
			c1.6-2.7,3.1-5.5,4.2-8.4c0.9-2.3,1.7-4.6,2.6-6.8c0.8-2,1.5-3.9,2.3-5.8c1.4-3.4,2.9-6.8,4.4-10.1c1.3-2.9,2.6-5.8,4.2-8.6
			c1.9-3.3,4.3-6.3,6.9-9c2.6-2.7,5.5-5.1,8.6-7.3c3.5-2.5,7.1-4.8,10.8-6.8c6.1-3.3,12.5-5.8,19.2-7.4c6.5-1.6,13-2.6,19.7-3.1
			c4.6-0.3,9.2-0.3,13.8,0.3c3.4,0.4,6.8,1.2,10,2.6c3.8,1.6,7.1,3.9,9.8,7c1.9,2.3,3.4,4.8,4.4,7.5c1,2.6,1.6,5.3,1.9,8.1
			c0.2,2.1,0.4,4.3,0.6,6.4c0.2,1.9,0.3,3.7,0.4,5.6c0.2,1.8,0.5,3.6,1,5.4c0.7,2.6,1.8,5.1,3.3,7.4c0.9,1.3,1.8,2.7,2.7,4
			c1.5,2,3,4,4.5,6c2.2,3.1,4.2,6.3,5.6,9.8c0.8,1.9,1.3,3.9,1.6,6c0.1,0.9,0.2,1.9,0.2,2.8c0,1.3-0.1,2.7-0.3,4
			c-0.4,2-1,3.9-1.9,5.7c-1.2,2.5-2.8,4.7-4.6,6.8c-1.2,1.3-2.4,2.6-3.6,3.8c-1.3,1.3-2.6,2.6-4,3.9c-3.2,3.1-6,6.5-8.4,10.1
			c-1.4,2.1-2.7,4.2-4.1,6.3c-1.6,2.5-3.4,4.8-5.5,6.9c-2.2,2.2-4.7,4.2-7.6,5.5c-0.8,0.4-1.6,0.7-2.4,1c-1,0.3-2.1,0.6-3.1,0.9
			c-1.2,0.3-2.4,0.4-3.6,0.5c-1,0-2,0.1-3,0c-1.1-0.1-2.3-0.2-3.4-0.4c-0.8-0.1-1.7-0.3-2.5-0.5c-0.2,0-0.4-0.2-0.7-0.1
			c0.4,0.4,2.2,0.8,2.3,0.8c0,0,3.4,0.6,4.7,0.8C130.2,164.4,130.9,164.5,131.7,164.5z M135.8,166.4c0.7,0.1,1.5,0.1,2.2,0.1
			c0.6,0,1.2,0,1.8,0c1.3,0,2.7-0.2,4-0.5c1.3-0.2,2.7-0.6,3.9-1.1c1.3-0.5,2.6-1.2,3.8-1.9c0.8-0.5,1.6-1,2.3-1.6
			c1.5-1.1,2.8-2.4,4.1-3.7c1.9-2,3.5-4.2,5-6.6c1.5-2.4,3-4.8,4.5-7.1c1.9-2.9,3.9-5.7,6.2-8.3c0.8-0.9,1.6-1.8,2.5-2.6
			c2.2-2.3,4.5-4.5,6.7-6.8c1.3-1.4,2.5-2.8,3.7-4.4c1.1-1.5,2-3,2.7-4.6c0.9-2.1,1.6-4.2,1.8-6.5c0.1-1.3,0.2-2.7,0.1-4
			c-0.1-1.2-0.3-2.4-0.6-3.6c-0.4-1.5-0.8-2.9-1.4-4.3c-0.6-1.4-1.2-2.7-1.9-4c-1.3-2.3-2.7-4.4-4.2-6.5c-1.5-2-3-4-4.5-6.1
			c-1.3-1.8-2.5-3.7-3.6-5.6c-1.1-2-1.9-4.1-2.4-6.4c-0.6-2.4-0.9-4.9-1-7.4c-0.1-2.8-0.2-5.6-0.3-8.4c-0.1-3.4-0.5-6.7-1.4-10
			c-0.3-1.1-0.7-2.2-1.1-3.3c-1-2.5-2.4-4.8-4.1-6.9c-1.3-1.6-2.9-3-4.6-4.2c-3.3-2.3-6.9-3.9-10.8-4.8c-2.1-0.5-4.2-0.8-6.3-1
			c-2.4-0.2-4.9-0.3-7.3-0.3c-1.5,0-3,0.1-4.5,0.1c-0.8,0-1.6,0.2-2.4,0.2c-0.5,0-1,0.1-1.5,0.1c-2.3,0.2-4.6,0.5-6.9,0.8
			c-2.5,0.3-4.9,0.8-7.4,1.2c-2.2,0.4-4.4,0.8-6.5,1.3c-5.2,1.2-10.3,2.9-15.2,5c-3,1.3-6,2.7-8.9,4.2c-2.2,1.1-4.3,2.3-6.5,3.4
			c-1.4,0.7-2.8,1.5-4.3,2.3c-3.4,1.8-6.9,3.5-10.3,5.3c-2.1,1.1-4.2,2.3-6.3,3.6c-1.9,1.3-3.7,2.6-5.4,4.1
			c-1.9,1.7-3.6,3.6-5.2,5.6c-1.6,2-2.9,4.2-4.1,6.4c-2.4,4.7-4,9.7-4.6,15c-0.2,2-0.3,4-0.4,6c-0.1,2.2-0.2,4.4-0.5,6.6
			c-0.3,2.4-0.8,4.7-1.7,7c-1.1,3.1-2.7,5.9-4.4,8.7c-1.1,1.7-2.1,3.3-3.2,4.9c-1.5,2.2-2.9,4.4-4.2,6.7c-1.4,2.4-2.6,5-3.6,7.6
			c-0.6,1.6-1.1,3.2-1.5,4.8c-0.3,1.4-0.6,2.9-0.7,4.4c0,0.4-0.1,0.8-0.1,1.2c-0.3,3.3,0,6.5,0.7,9.8c0.4,1.6,0.9,3.2,1.5,4.8
			c0.6,1.5,1.4,3,2.3,4.3c0.8,1.2,1.7,2.4,2.7,3.4c3.1,3.3,6.8,5.7,11,7.4c2.7,1.1,5.5,1.8,8.4,2.3c2.7,0.4,5.4,0.7,8.1,0.6
			c0.2,0,0.3,0,0.5,0c1.7,0,3.4-0.1,5.1-0.2c1.4-0.1,2.8-0.3,4.2-0.5c3-0.4,6-1.1,8.9-1.9c3.3-0.9,6.6-2.1,9.8-3.5
			c1.3-0.5,2.5-1.1,3.7-1.7c0.2-0.1,0.3-0.2,0.6-0.1c-0.1,0.1-0.1,0.2-0.2,0.2c-0.5,0.3-1,0.5-1.5,0.8c-4.3,2.1-8.7,3.8-13.3,5.1
			c-2.8,0.8-5.7,1.5-8.6,2c-1.8,0.3-3.5,0.5-5.3,0.7c-2.9,0.3-5.8,0.4-8.7,0.3c-2-0.1-3.9-0.3-5.8-0.5c-2.9-0.4-5.7-1.1-8.5-2.1
			c-1.6-0.6-3.1-1.2-4.5-2c-1.5-0.8-3-1.8-4.4-2.9c-1.2-0.9-2.3-2-3.3-3.1c-0.9-1-1.7-2.1-2.4-3.2c-0.9-1.3-1.6-2.7-2.2-4.2
			c-0.4-1-0.8-2-1-3c-0.3-1.3-0.6-2.6-0.8-3.9c-0.3-1.9-0.3-3.8-0.2-5.7c0-1.2,0.2-2.3,0.4-3.4c0.3-1.5,0.6-3,1-4.4
			c0.6-2,1.3-3.9,2.2-5.8c0.6-1.2,1.2-2.4,1.8-3.6c1.3-2.3,2.7-4.5,4.3-6.6c1.3-1.8,2.6-3.7,4-5.5c1.3-1.8,2.5-3.6,3.6-5.5
			c1.7-3,2.9-6.1,3.5-9.6c0.3-1.7,0.4-3.4,0.3-5.1c-0.1-2.7-0.2-5.3-0.3-8c-0.1-2.5-0.1-5,0.2-7.6s0.9-5.2,1.9-7.7
			c0.7-1.9,1.6-3.8,2.6-5.5c0.9-1.6,1.9-3,3.1-4.4c1.7-2.1,3.7-4,5.8-5.7c1.4-1.1,2.8-2.1,4.3-3c3-1.8,6.3-3.3,9.5-4.7
			c0.8-0.3,1.6-0.7,2.4-1c0.1,0,0.2-0.1,0.3-0.3c-0.2,0.1-0.4,0.1-0.6,0.2c-1.1,0.4-2.1,0.7-3.2,1.1c-2.5,0.9-5,1.7-7.4,2.8
			c-2.2,1-4.4,2-6.4,3.3c-1.6,1-3.1,2.1-4.6,3.3c-0.9,0.8-1.8,1.6-2.6,2.5c-1.3,1.4-2.4,2.8-3.4,4.4c-0.9,1.4-1.7,2.9-2.4,4.5
			c-1,2.4-1.7,5-2,7.6c-0.2,1.9-0.3,3.9-0.2,5.9c0.1,2.3,0.3,4.7,0.6,7c0.2,1.6,0.4,3.2,0.5,4.9c0.1,1,0.2,2,0.2,3
			c0,1.1-0.1,2.2-0.2,3.4c0,0.6-0.1,1.2-0.2,1.8c-0.3,2.1-1.1,4-2,5.9c-0.5,1-1.1,1.9-1.7,2.8c-1.3,2-2.7,3.8-4.2,5.6
			c-1.9,2.4-3.8,4.9-5.6,7.4c-1.5,2.2-2.9,4.4-4.2,6.8c-1.2,2.3-2.2,4.7-2.9,7.1c-0.6,2-1,4.1-1.2,6.2c-0.2,2-0.2,4,0,6
			c0.1,1.7,0.5,3.3,0.9,5c0.3,1.1,0.7,2.3,1.2,3.3c0.6,1.4,1.4,2.8,2.3,4.1c0.9,1.2,1.8,2.3,2.8,3.4c1.2,1.2,2.5,2.3,3.9,3.2
			c1.6,1.1,3.4,2.1,5.2,2.9c1.8,0.8,3.6,1.4,5.5,1.9c2,0.5,4,0.9,6.1,1.2c0.9,0.1,1.8,0.2,2.6,0.3c1,0.1,2,0.1,3,0.1
			c0.6,0,1.2,0.1,1.8,0.1c1.5,0,3.1,0,4.6-0.1c1.6-0.1,3.1-0.3,4.7-0.5c5.1-0.6,10.1-1.7,15-3.3c2.9-0.9,5.7-2,8.4-3.1
			c2.1-0.9,4.1-1.9,6.1-2.9c0.2-0.1,0.4-0.2,0.5-0.3c0-0.2-0.2-0.2-0.3-0.2c-1.5,0.1-2.9,0-4.4,0c-1.7-0.1-3.5-0.2-5.2-0.5
			c-3.4-0.6-6.6-1.5-9.7-3.1c-3.3-1.7-6.2-3.9-8.8-6.6c-2.9-3.1-5-6.7-6.7-10.5c-2-4.5-3.2-9.3-3.8-14.2c-0.3-2.9-0.3-5.8,0.1-8.7
			c0.4-2.8,1.3-5.5,2.5-8c1.7-3.5,4-6.7,6.7-9.5c2.5-2.7,5.3-5,8.2-7.2c2-1.5,4-3,5.9-4.4c1.6-1.2,3.1-2.5,4.5-3.9
			c1.6-1.6,2.9-3.3,4-5.2c0.9-1.6,1.7-3.2,2.6-4.8c1.1-2.1,2.3-4.1,3.6-6c3.2-4.5,7.1-8.1,12-10.6c3.6-1.8,7.3-2.9,11.3-3.2
			c2.7-0.2,5.3-0.1,7.9,0.3c3.8,0.7,7.2,2.2,10.2,4.6c1.8,1.5,3.4,3.2,4.7,5.2c1.2,1.8,2.1,3.7,3.1,5.6c0.8,1.6,1.6,3.2,2.6,4.7
			c1.3,2,2.9,3.8,4.7,5.3c1.9,1.6,3.7,3.2,5.6,4.8c2.2,1.9,4.3,3.9,6.2,6.1s3.5,4.6,4.8,7.2c1.2,2.6,1.9,5.2,2,8.1
			c0.1,2.2-0.2,4.4-0.9,6.6c-0.8,2.5-2.1,4.8-3.6,7c-1.5,2-3.2,3.9-5,5.6c-2,1.8-4,3.7-6,5.5c-3.4,3-6.5,6.3-9.6,9.6
			c-1.8,2-3.7,4-5.6,5.9c-2,1.9-4.1,3.6-6.4,5.1c-2.1,1.3-4.3,2.4-6.6,3.4c-2.1,0.8-4.2,1.5-6.4,2c-0.4,0.1-0.8,0.2-1.2,0.4
			c0.7-0.1,1.3-0.2,2-0.3c2.4-0.5,4.8-1.1,7.1-1.9c4-1.4,7.7-3.4,10.9-6.2c2-1.7,3.8-3.5,5.6-5.5c2-2.2,3.9-4.4,5.9-6.6
			c2.1-2.3,4.3-4.5,6.7-6.6c2.1-1.9,4.2-3.8,6.2-5.7c2-1.9,3.9-4,5.4-6.3c1.6-2.4,2.8-4.9,3.4-7.7c0.5-2.3,0.6-4.7,0.2-7
			c-0.4-2.8-1.4-5.4-2.8-7.9c-1.5-2.6-3.3-5-5.3-7.2c-1.8-1.9-3.7-3.7-5.6-5.5c-1.6-1.5-3.2-2.9-4.6-4.5c-2.3-2.4-4-5.2-5.3-8.2
			c-0.8-1.8-1.5-3.6-2.3-5.4c-1-2.2-2.2-4.3-3.7-6.2c-2.1-2.6-4.6-4.7-7.7-6.1c-3.3-1.6-6.9-2.5-10.5-2.7c-6-0.4-11.8,0.8-17.3,3.3
			c-4.3,2-8.1,4.8-11.3,8.3c-2.4,2.6-4.4,5.6-6,8.7c-1.2,2.2-2.2,4.5-3.4,6.8c-0.9,1.8-1.9,3.5-3.1,5.1c-1.1,1.5-2.4,2.9-3.9,4.1
			c-1.8,1.6-3.7,3.1-5.6,4.6c-3,2.4-5.9,4.9-8.6,7.6c-2.2,2.3-4.2,4.7-5.9,7.3c-2.3,3.6-3.8,7.5-4.4,11.7c-0.4,2.8-0.5,5.6-0.2,8.4
			c0.5,5.1,1.7,10,3.6,14.7c1.3,3.3,3.1,6.4,5.3,9.2c2.5,3,5.4,5.5,8.8,7.4c3.3,1.8,6.7,3,10.4,3.6c1.7,0.3,3.4,0.5,5.1,0.5
			c0.9,0,3.4,0.1,3.7,0c0.3,0,1.4,0,1.5,0c0,0,0,0,0.1,0.1c0,0.1-0.1,0.1-0.1,0.2c-2.3,1-4.6,2-7,2.8c-2.5,0.9-5.1,1.6-7.7,2.2
			c-1.7,0.4-3.4,0.7-5.2,1c-0.9,0.1-1.8,0.3-2.7,0.4c-0.7,0.1-1.4,0.1-2.1,0.2c-2,0.2-4,0.1-6,0.1c-0.9,0-1.7-0.1-2.6-0.2
			c-1.4-0.1-2.8-0.4-4.2-0.6c-1.4-0.2-2.8-0.6-4.2-1c-1.9-0.6-3.7-1.3-5.5-2.2c-1.2-0.6-2.5-1.3-3.6-2.1c-1.4-1-2.7-2-3.9-3.2
			c-0.8-0.8-1.6-1.6-2.2-2.5c-0.8-1.1-1.6-2.2-2.3-3.4c-0.6-1.2-1.2-2.4-1.7-3.6c-0.5-1.2-0.8-2.5-1.2-3.8c-0.4-1.6-0.6-3.3-0.8-4.9
			c-0.3-3.1-0.1-6.2,0.4-9.2c0.5-2.8,1.2-5.4,2.3-8c1.5-3.7,3.4-7.2,5.5-10.6c1.7-2.8,3.5-5.6,5.1-8.4c1.5-2.5,2.8-5,3.8-7.7
			c0.7-2,1.3-4,1.6-6c0.4-2.1,0.7-4.2,0.9-6.3c0.5-3.5,1.1-6.9,2.1-10.3c0.7-2.3,1.5-4.5,2.5-6.6c1-2.4,2.2-4.7,3.5-6.9
			c1.3-2.2,2.8-4.3,4.6-6.2c2.5-2.8,5.3-5.2,8.4-7.4c2.9-2,5.9-3.8,8.9-5.6c3.1-1.8,6.2-3.5,9.3-5.2c2.7-1.4,5.4-2.8,8.1-4.2
			c5.3-2.6,10.7-4.7,16.4-6.2c3.2-0.9,6.4-1.6,9.7-2.2c2.6-0.5,5.2-0.9,7.8-1.3c1.6-0.2,3.2-0.4,4.9-0.5c1.2-0.1,2.4-0.3,3.7-0.4
			c0.8-0.1,1.6-0.1,2.4-0.1c1.8,0,3.5-0.1,5.3-0.1s3.6,0.1,5.4,0.3c1.8,0.2,3.6,0.5,5.3,0.8c3,0.6,5.8,1.6,8.5,3
			c1.6,0.8,3.1,1.8,4.4,2.9c1.7,1.4,3.1,2.9,4.4,4.7c1.4,1.9,2.5,4,3.3,6.2c0.4,1.1,0.7,2.2,1,3.4c0.8,3.3,1.1,6.6,1.2,10
			c0.1,1.8,0.1,3.5,0.2,5.3c0.1,2.4,0.2,4.8,0.7,7.2c0.2,1.1,0.5,2.2,0.8,3.2c0.4,1.4,0.9,2.7,1.6,4c0.6,1.3,1.3,2.5,2.1,3.7
			c1.4,2.1,2.9,4.1,4.4,6.1c1.4,1.9,2.8,3.8,4.1,5.8c1.8,2.7,3.3,5.6,4.4,8.7c0.5,1.4,0.9,2.9,1.1,4.4c0.2,1.3,0.3,2.6,0.3,3.8
			c0,1.2-0.1,2.4-0.4,3.5c-0.3,1.4-0.7,2.8-1.2,4.1c-0.4,0.9-0.8,1.8-1.3,2.7c-0.9,1.6-2,3.2-3.2,4.6c-1.7,2.1-3.5,4-5.4,5.8
			c-1.5,1.5-3,3-4.5,4.6c-2.5,2.6-4.7,5.4-6.6,8.4c-1.6,2.5-3.2,5-4.8,7.5c-1.4,2.1-2.9,4.2-4.6,6.1c-1.8,2.1-3.8,3.9-6.1,5.4
			c-2.1,1.4-4.4,2.5-6.8,3.2c-1.4,0.4-2.9,0.7-4.3,0.8c-1.1,0.1-2.1,0.1-3.2,0.1c-1.5-0.1-2.9-0.1-4.4-0.4c-1.1-0.2-2.3-0.4-3.4-0.7
			c-0.6-0.2-1.3-0.4-1.9-0.6c-0.2-0.1-0.4,0.1-0.4,0.1c0.4,0.1,5.4,1.5,6.5,1.8C133.5,166.1,134.6,166.2,135.8,166.4z M168.1,113.9
			c-0.6,2.5-1.6,4.8-2.9,6.9c-1.5,2.4-3.3,4.5-5.4,6.5c-1.7,1.7-3.5,3.3-5.3,5c-3.8,3.4-7.1,7.1-10.1,11.2c-1.3,1.7-2.6,3.4-3.9,5
			c-1.8,2.3-3.8,4.3-6,6.2c-1.2,1-2.5,1.9-3.8,2.7c-1.4,0.8-2.8,1.5-4.4,2.1c-0.6,0.2-1.3,0.5-1.9,0.6c-1.5,0.4-3,0.7-4.6,0.9
			c-1.2,0.1-2.5,0.2-3.7,0.2c-0.1,0-0.3,0-0.6,0.1c0.3,0.2,4.2,0.2,4.6,0.2c0.8,0.1,1.7,0,2.5-0.1c0.7,0,1.4-0.1,2.2-0.2
			c1.6-0.3,3.1-0.6,4.6-1.1c0.9-0.3,1.8-0.7,2.6-1.1c0.8-0.4,1.6-0.9,2.4-1.4c0.8-0.5,1.5-1,2.2-1.6c1.4-1.1,2.6-2.3,3.8-3.6
			c1.7-1.8,3.2-3.8,4.7-5.8c1.2-1.6,2.4-3.3,3.6-5c2.2-3.1,4.8-5.9,7.6-8.6c1.8-1.7,3.5-3.3,5.3-5c1.7-1.7,3.4-3.4,4.9-5.4
			c1.3-1.7,2.4-3.5,3.2-5.4c0.8-1.8,1.3-3.6,1.6-5.5c0.1-0.9,0.2-1.8,0.2-2.6c0-2.7-0.5-5.3-1.4-7.9c-1.1-3.2-2.8-6-4.7-8.8
			c-1.9-2.7-4.1-5.3-6.2-7.8c-1.3-1.6-2.6-3.3-3.8-5c-1.7-2.6-2.8-5.3-3.5-8.3c-0.5-2-0.8-4.1-1.1-6.2c-0.3-2.2-0.7-4.5-1.3-6.6
			c-0.8-3.4-2.1-6.6-4.1-9.5c-1-1.5-2.2-2.8-3.5-4c-3-2.8-6.6-4.6-10.5-5.8c-4.1-1.3-8.3-1.8-12.6-1.8c-7-0.1-13.9,0.9-20.6,2.9
			c-4.5,1.3-8.8,3.2-12.9,5.6c-2.7,1.6-5.3,3.5-7.7,5.6c-1.9,1.7-3.7,3.5-5.3,5.4c-1.1,1.3-2.1,2.6-3,4c-1,1.4-1.8,2.8-2.6,4.3
			c-0.7,1.3-1.4,2.7-2,4c-1.2,2.8-2.3,5.5-3.5,8.3c-1.4,3.3-3.1,6.4-5.1,9.4c-1.8,2.7-3.6,5.2-5.6,7.8c-2.3,3-4.6,5.9-6.9,8.9
			c-1.9,2.5-3.7,5.1-5.2,7.9c-1.9,3.6-3.4,7.3-4.2,11.3c-0.7,3.3-0.9,6.6-0.7,10c0.2,2.8,0.5,5.7,1.1,8.4c0.8,3.8,2.1,7.4,4,10.8
			c3.2,5.7,7.8,9.8,13.8,12.4c3.3,1.4,6.7,2.2,10.3,2.6c2.1,0.2,4.2,0.2,6.3,0.2c1.3,0,2.6-0.1,3.8-0.3c0.7-0.1,2-0.5,1.7-0.5
			c-0.8,0.1-1.6,0.2-2.4,0.2c-3.3,0.1-6.6,0-9.9-0.7c-4-0.8-7.8-2.3-11.3-4.6c-2.9-1.9-5.4-4.4-7.5-7.2c-2.3-3.2-4-6.7-5.2-10.5
			c-1.3-4-2.1-8.2-2.3-12.4c-0.3-5.2,0.3-10.3,2.2-15.2c1.1-2.8,2.5-5.5,4.2-8c1.9-2.8,4-5.4,6.1-7.9c2.3-2.6,4.6-5.2,6.9-7.9
			c2-2.4,4-4.8,5.8-7.3c1.5-2.1,2.7-4.3,3.7-6.7c0.8-1.8,1.5-3.6,2.2-5.4c1.2-2.9,2.4-5.7,4-8.4c2.2-3.7,4.8-7,7.9-10
			c3.7-3.5,7.9-6.3,12.5-8.4c3.3-1.5,6.8-2.7,10.3-3.5c5.1-1.2,10.3-1.8,15.5-1.6c4,0.1,8,0.7,11.8,2.1c3.3,1.1,6.3,2.8,8.9,5.1
			c2,1.8,3.7,3.9,5,6.3c1.3,2.4,2.2,4.9,2.9,7.6c0.5,2,0.9,4,1.3,6c0.4,1.7,0.7,3.4,1.2,5c0.9,3,2.3,5.7,4.2,8.1
			c1.2,1.6,2.5,3.1,3.8,4.6c1.5,1.8,3,3.5,4.4,5.2c2.1,2.7,4,5.5,5.4,8.6c0.8,1.8,1.4,3.7,1.8,5.7c0.4,1.9,0.5,3.9,0.3,5.8
			C168.5,112.2,168.3,113.1,168.1,113.9z M115.5,157.8c-3.8,2-7.8,3.3-11.9,4.4c-1.8,0.5-3.6,0.9-5.5,1.2c-1.6,0.3-3.2,0.6-4.8,0.8
			c-1.1,0.2-2.2,0.3-3.3,0.4c-0.8,0.1-1.5,0.2-2.3,0.2c-1.5,0.1-3.1,0.1-4.6,0.1c-2,0-3.9-0.1-5.8-0.4c-2.3-0.3-4.5-0.8-6.7-1.5
			c-4.6-1.5-8.7-3.9-12.2-7.3c-2.4-2.4-4.4-5-6-8c-1.8-3.4-3.2-6.9-4.2-10.6c-0.9-3.4-1.5-6.9-1.5-10.9c0-1.5,0.1-3.4,0.5-5.3
			c0.8-4.5,2.7-8.5,5.3-12.1c2-2.8,4.5-5.3,7.1-7.5c2.3-2,4.8-3.8,7.4-5.5c2.1-1.5,4.3-2.9,6.4-4.4c1.4-1,2.6-2.1,3.7-3.4
			s2-2.7,2.9-4.1c1.1-1.7,2.1-3.5,3.1-5.1c1.6-2.5,3.5-4.9,5.7-7c3.5-3.3,7.4-5.6,12-6.9c4.3-1.2,8.6-1.3,13-0.2
			c4.3,1.1,7.8,3.3,10.7,6.6c1.2,1.4,2.3,3,3.3,4.6c0.9,1.4,1.8,2.8,2.8,4.2c1.5,2.1,3.3,3.8,5.3,5.4c1.7,1.4,3.5,2.7,5.2,4
			c2.6,2,5,4.1,7.2,6.4c1.8,2,3.4,4.1,4.7,6.5s2.2,4.9,2.5,7.6c0.3,2.2,0.2,4.4-0.3,6.6c-0.5,2.5-1.6,4.8-3,7
			c-1.4,2.1-3,4.1-4.8,5.9c-1.7,1.7-3.5,3.3-5.3,5c-2.1,1.9-4.3,3.8-6.3,5.8c-2.3,2.2-4.4,4.4-6.6,6.7c-2.1,2.2-4.3,4.3-6.6,6.2
			C120.4,154.9,118,156.5,115.5,157.8z M116.4,156.2c3-1.8,5.7-4,8.2-6.4c2.4-2.3,4.7-4.6,7.1-6.9c2.3-2.2,4.7-4.3,7-6.5
			c2.1-1.9,4.2-3.8,6.2-5.8c1.7-1.7,3.2-3.5,4.6-5.5c1.8-2.6,3.1-5.4,3.7-8.5c0.4-2.1,0.4-4.2,0.1-6.3c-0.5-3.4-1.8-6.4-3.7-9.3
			c-1.8-2.7-4-5-6.4-7.1c-2.2-1.9-4.6-3.6-7-5.3c-1-0.7-2-1.4-3.1-2.1c-3.1-2.1-5.8-4.6-8-7.6c-0.9-1.2-1.8-2.3-2.8-3.4
			c-2.1-2.4-4.5-4.3-7.4-5.6c-3.4-1.5-7-1.9-10.6-1.5c-5,0.6-9.3,2.6-13.1,5.8c-2.1,1.8-3.9,3.9-5.6,6.1c-0.9,1.3-1.9,2.6-2.8,4
			c-1.3,1.9-2.7,3.6-4.4,5.2c-1.5,1.3-3.1,2.5-4.8,3.6c-2.1,1.3-4.1,2.6-6.2,3.9c-2.6,1.7-5.1,3.5-7.4,5.5c-2.7,2.4-5.1,5-7.1,8
			c-3.2,5-4.9,10.4-4.8,16.3c0,3.4,0.6,6.7,1.5,9.9c0.9,3.4,2.2,6.6,3.8,9.7c2.2,4,4.9,7.6,8.4,10.5c2.6,2.1,5.4,3.8,8.5,5
			c3.5,1.4,7.1,2.2,10.9,2.4c1.6,0.1,3.2,0.1,4.6,0.2c1.7-0.1,3.2-0.2,4.7-0.3c2-0.2,4-0.5,6-0.8c2.3-0.4,4.6-1,6.8-1.6
			C108.1,160.5,112.4,158.7,116.4,156.2z M197.3,106.1c-0.2-1.9-0.7-3.7-1.3-5.5c-1.1-3-2.6-5.8-4.4-8.5c-1.7-2.6-3.6-5-5.5-7.4
			c-1.5-1.9-2.9-3.9-4.2-6c-1.5-2.3-2.7-4.8-3.5-7.5c-0.7-2.2-1.1-4.4-1.3-6.6c-0.1-1.9-0.3-3.7-0.3-5.6c-0.1-2.7-0.1-5.5-0.4-8.2
			c-0.3-3.4-0.8-6.7-2-9.8c-0.5-1.3-1-2.5-1.7-3.7c-0.8-1.4-1.7-2.7-2.7-3.9c-0.7-0.8-1.3-1.5-2.1-2.2c-1-0.9-2-1.7-3.1-2.5
			c-2.1-1.5-4.5-2.7-6.9-3.6c-2.2-0.8-4.5-1.4-6.8-1.8c-1.1-0.2-2.2-0.3-3.3-0.5c-0.8-0.1-1.7-0.1-2.5-0.2c-0.6,0-1.1-0.1-1.7-0.1
			c-1.2,0-2.3,0-3.5,0.1c-0.3,0-0.5,0.1-0.8,0.1c-1.7,0-3.4,0.2-5.1,0.4c-0.9,0.1-1.8,0.2-2.7,0.3c-1.5,0.2-2.9,0.4-4.4,0.6
			c-0.2,0-0.4,0-0.6,0.1c0.1,0,0.2,0.1,0.2,0.1c1.1-0.1,2.1-0.2,3.2-0.3c1.1-0.1,2.2-0.3,3.4-0.3c3-0.2,6-0.4,9.1-0.2
			c2,0.1,4,0.3,5.9,0.6c3,0.5,5.8,1.2,8.6,2.3c2.6,1.1,5.1,2.5,7.3,4.3c1.8,1.5,3.3,3.1,4.7,5c0.9,1.2,1.6,2.5,2.3,3.9
			c0.5,1.1,1,2.3,1.4,3.5c0.6,1.7,0.9,3.5,1.2,5.3c0.2,1.3,0.3,2.6,0.4,3.9c0.1,2.6,0.2,5.3,0.3,7.9c0.1,2.5,0.2,4.9,0.5,7.4
			c0.2,1.4,0.5,2.7,0.9,4c0.5,1.6,1,3.1,1.7,4.5c0.6,1.2,1.2,2.3,1.9,3.4c1.2,2,2.6,3.9,4,5.7c1.8,2.4,3.7,4.8,5.4,7.3
			c1.4,2,2.6,4.2,3.5,6.4c0.8,1.9,1.5,3.8,1.8,5.8c0.3,1.3,0.4,2.7,0.4,4.1c0,1.5-0.2,2.9-0.4,4.3c-0.2,1-0.5,1.9-0.8,2.9
			c-0.4,1.1-0.9,2.2-1.5,3.2c-1.3,2.4-2.9,4.5-4.8,6.6c-1.2,1.3-2.5,2.7-3.8,3.9c-2.1,2.1-4.2,4.1-6.2,6.3s-3.8,4.5-5.4,7
			c-1.7,2.5-3.3,5.1-4.9,7.7c-1.5,2.4-3.1,4.7-4.9,6.9c-1.5,1.7-3.1,3.4-4.8,4.8c-1.1,0.9-2.2,1.7-3.4,2.4c-1,0.6-2.1,1.1-3.3,1.6
			c-1.4,0.6-2.9,0.9-4.4,1.3c-0.6,0.1-1.2,0.1-1.8,0.2c-1.5,0.2-3,0.2-4.5,0.1c-1.5-0.1-2.9-0.2-4.4-0.5c-1-0.2-2-0.4-3-0.7
			c-0.3-0.1-0.5-0.1-0.8-0.2c0,0.1,0,0.2,0.1,0.2c0.1,0.1,0.2,0.1,0.4,0.2c1.2,0.3,2.4,0.7,3.6,1c1.4,0.3,2.8,0.6,4.3,0.7
			c0.6,0.1,1.2,0.1,1.8,0.1c0.5,0,1,0.1,1.4,0.1c0.2,0,0.3,0,0.5,0c0.6,0,1.3-0.1,1.9-0.1c1.2-0.1,2.3-0.3,3.5-0.6
			c1.1-0.3,2.1-0.6,3.1-1c2-0.8,3.9-1.8,5.7-3.1c3-2.2,5.5-4.9,7.8-7.9c1.6-2.1,3-4.3,4.3-6.5c1.7-2.7,3.3-5.3,5.1-7.9
			c1.8-2.5,3.7-4.9,5.8-7.1c1.6-1.6,3.1-3.2,4.7-4.7c1.4-1.4,2.8-2.8,4.1-4.2c1.9-2,3.5-4.2,4.9-6.6c0.6-1.1,1.1-2.2,1.6-3.4
			c0.5-1.4,0.9-2.8,1-4.3c0.1-1.2,0.3-2.5,0.1-3.8C197.4,106.8,197.4,106.4,197.3,106.1z M120.7,151.8c-5.9,4.8-12.5,8.2-19.8,10.1
			c-2.1,0.6-4.3,1-6.4,1.3c-1.2,0.2-2.3,0.3-3.5,0.4c-1.5,0.1-3.1,0.1-4.6,0.1c-1.9,0-3.8-0.1-5.7-0.4c-1.5-0.2-3.1-0.5-4.6-0.9
			c-5.3-1.4-10-3.9-14-7.7c-1.9-1.8-3.6-3.9-5.1-6.1c-2.6-4.1-4.5-8.5-5.6-13.2c-0.7-2.9-1.1-5.7-1.1-8.7c0.1-1.1,0.1-2.3,0.2-3.4
			c0.5-4.7,2.2-9,4.8-12.9c2.1-3.1,4.6-5.8,7.5-8.1c2.6-2.1,5.3-4,8.2-5.6c2.1-1.2,4.1-2.4,6.2-3.6c2-1.2,3.8-2.5,5.4-4.2
			c1.1-1.2,2.1-2.5,3.2-3.7c1.5-1.8,2.9-3.6,4.6-5.3c2.3-2.2,4.9-4,7.9-5.2c3.6-1.4,7.3-1.9,11.1-1.2c3.3,0.6,6.2,2.1,8.8,4.3
			c1.4,1.2,2.6,2.4,3.9,3.7c1.6,1.7,3.4,3.2,5.4,4.5c1.6,1,3.2,2,4.8,3c2.9,1.7,5.7,3.5,8.3,5.7c2.4,2,4.6,4.2,6.5,6.8
			c1.8,2.6,3.2,5.4,3.8,8.5c0.6,2.6,0.6,5.3,0,7.9c-0.6,3-1.9,5.6-3.5,8.1c-1.6,2.4-3.5,4.6-5.6,6.6c-1.1,1.1-2.2,2.2-3.4,3.2
			c-1.1,1-2.2,2.1-3.4,3.1c-1.1,1-2.3,2-3.4,3.1c-1.7,1.6-3.5,3.2-5.2,4.8C124.5,148.5,122.6,150.2,120.7,151.8z M119.8,151.5
			c1.7-1.4,3.4-2.8,5-4.3c1.4-1.2,2.7-2.4,4.1-3.6c1-0.9,2-1.8,3-2.7c1.1-0.9,2.1-1.9,3.2-2.8c0.7-0.6,1.3-1.2,2-1.8
			c1.7-1.7,3.5-3.4,5.1-5.2c2.1-2.4,4-5,5.3-7.9c1.1-2.5,1.8-5.1,1.9-7.9c0.1-3-0.5-5.8-1.7-8.5c-1.2-2.8-2.9-5.2-5-7.5
			c-2.4-2.6-5.2-4.8-8.1-6.7c-2.4-1.5-4.9-2.9-7.3-4.2c-2.4-1.3-4.7-2.7-6.8-4.4c-1-0.8-2-1.6-2.9-2.4c-1.3-1.1-2.7-2.1-4.3-2.9
			c-5.1-2.6-10.3-2.6-15.5-0.3c-2.5,1.1-4.7,2.7-6.7,4.6c-1.5,1.5-3,3-4.4,4.6c-2.1,2.3-4.5,4.2-7.2,5.7c-1.7,0.9-3.4,1.9-5.2,2.8
			c-3.3,1.8-6.6,3.7-9.5,6.1c-3,2.4-5.7,5.2-7.8,8.4c-2.3,3.5-3.9,7.2-4.5,11.3c-0.3,1.6-0.4,3.2-0.4,5c0,2.8,0.4,5.7,1.2,8.6
			c0.8,3.1,2,6.1,3.4,8.9c1.7,3.3,3.8,6.2,6.4,8.8c3.9,3.8,8.4,6.5,13.6,8c1.9,0.6,3.9,1,5.9,1.3c1.7,0.2,3.3,0.4,5,0.4
			c0.5,0,0.9,0,1.4,0c1.3,0,2.7-0.1,4-0.2c1.3-0.1,2.6-0.3,3.9-0.5c4-0.7,7.9-1.9,11.6-3.6C112.4,156.8,116.3,154.3,119.8,151.5z
			 M125.5,145.7c-2.4,2-4.8,4-7.4,5.9c-3.6,2.6-7.4,4.9-11.6,6.6c-5.5,2.3-11.2,3.5-17.1,3.6c-3.2,0-6.3-0.3-9.3-1.1
			c-7.2-1.8-13.2-5.5-17.9-11.3c-3-3.6-5.1-7.7-6.5-12.1c-1-3.3-1.6-6.7-1.7-9.6c-0.1-6.6,1.7-12.2,5.2-17.3
			c2.3-3.3,5.1-6.1,8.4-8.5c2.7-2,5.7-3.7,8.8-5.2c1.9-1,3.9-1.9,5.9-2.9c2.2-1.1,4.2-2.5,6.1-4.1c0.6-0.5,1.2-1.1,1.8-1.6
			c1.1-0.9,2.2-1.9,3.4-2.8c1.3-1,2.6-1.8,4.1-2.4c2.9-1.3,5.9-1.7,9-1.3c2.1,0.3,4,1,5.9,2c1.1,0.6,2.2,1.2,3.2,1.8
			c2.3,1.4,4.7,2.6,7.1,3.7c0.7,0.3,1.4,0.6,2.1,1c2.4,1.1,4.7,2.3,7,3.6c2.9,1.8,5.7,3.8,8,6.3c2.4,2.6,4.4,5.4,5.6,8.8
			c1.1,2.9,1.5,5.8,1.2,8.9c-0.3,2.8-1.1,5.5-2.4,8c-1.2,2.4-2.7,4.5-4.4,6.5c-2.3,2.7-4.8,5.2-7.4,7.6
			C130.1,141.7,127.8,143.7,125.5,145.7z M118.5,150.5c2.5-1.8,4.9-3.7,7.2-5.7c2-1.7,3.9-3.4,5.9-5.2c1.7-1.6,3.4-3.3,5-5
			c1.4-1.6,2.8-3.3,4-5.1c1.8-2.7,3.1-5.6,3.8-8.8c0.4-1.9,0.5-3.8,0.4-5.7c-0.3-4-1.7-7.5-3.9-10.8c-2.2-3.2-4.9-5.7-8-7.9
			c-2.7-1.9-5.6-3.4-8.7-4.7c-1.4-0.6-2.8-1.2-4.2-1.8c-2.4-1-4.8-2.1-7.2-3.1c-1.2-0.5-2.4-1-3.6-1.5c-2.8-1-5.7-1.2-8.6-0.6
			c-1.2,0.3-2.4,0.7-3.5,1.2c-1.3,0.6-2.5,1.3-3.6,2.1c-1.1,0.8-2.1,1.5-3.2,2.3c-2.3,1.7-4.7,3.1-7.3,4.3c-1.9,0.9-3.9,1.7-5.8,2.6
			c-3,1.4-5.9,3.1-8.5,5.1c-3.1,2.3-5.8,5.1-7.9,8.3c-2.5,3.7-4.2,7.8-4.8,12.3c-0.3,2.2-0.3,4.5-0.1,6.7c0.4,4.4,1.7,8.5,3.7,12.4
			c5.1,9.6,13,15.6,23.7,17.8c2.3,0.5,4.7,0.6,6.3,0.6c6.3,0,11.7-1.2,16.9-3.3C110.8,155.6,114.7,153.2,118.5,150.5z M132.9,137.2
			c-4.4,4.6-9.3,8.7-14.5,12.3c-3.5,2.5-7.2,4.6-11.2,6.3c-4.9,2-10,3.2-15.3,3.3c-4.4,0.1-8.7-0.6-12.9-2.1
			c-4.5-1.6-8.4-4.1-11.7-7.5c-3.2-3.2-5.6-6.8-7.2-10.9c-1.6-4-2.5-8.1-2.4-12.2c0.1-3.8,0.7-7.3,2.1-10.6
			c1.9-4.5,4.7-8.2,8.3-11.4c2.8-2.5,6-4.5,9.3-6.1c2.2-1.1,4.4-2,6.6-2.9c2.9-1.2,5.7-2.5,8.4-4.2c0.8-0.5,1.7-1,2.5-1.5
			c1.1-0.6,2.3-1.2,3.5-1.6c0.5-0.2,0.9-0.3,1.4-0.5c0.1,0,0.2,0,0.2,0c0.3,0,0.6,0,0.9-0.1c1.5-0.2,2.9-0.2,4.4-0.1
			c1.7,0.2,3.3,0.7,4.9,1.2c2.8,0.9,5.5,1.8,8.2,2.7c2.1,0.7,4.1,1.5,6.1,2.4c4,1.9,7.7,4.2,10.8,7.4c2.6,2.7,4.6,5.7,5.9,9.2
			c1.1,3.2,1.4,6.5,0.9,9.8c-0.5,3.1-1.5,5.9-3.1,8.6C137.5,132,135.3,134.7,132.9,137.2z M131.3,137.5c1.9-2,3.6-4.2,5.1-6.6
			c1.6-2.5,2.8-5.2,3.4-8.1c0.6-2.7,0.8-5.4,0.3-8.1c-0.5-3.4-1.9-6.5-3.8-9.4c-2.3-3.3-5.2-5.9-8.5-8c-2.7-1.7-5.6-3.1-8.6-4.1
			c-3.9-1.4-8-2.4-12-3.3c-2.1-0.4-4.2-0.6-6.4-0.3c-1.8,0.3-3.5,0.9-5.2,1.6c-0.6,0.3-1.2,0.5-1.7,0.8c-2.9,1.5-6,2.8-9.1,4
			c-2.2,0.8-4.5,1.7-6.6,2.8c-3.6,1.8-6.8,4-9.7,6.7c-3.3,3.2-5.9,7-7.5,11.4c-1.1,2.9-1.6,6.1-1.6,9.2c0,5.4,1.4,10.4,4.1,15
			c2.9,5.1,6.9,9,11.9,12c3.4,2,7,3.2,10.8,3.9c2.3,0.4,4.6,0.6,7,0.5c3.1-0.1,6.1-0.6,9.1-1.4c4.2-1.1,8.1-2.8,11.8-5
			C120.4,147.5,126.2,143,131.3,137.5z M137.7,122.4c-0.6,3.3-1.9,6.3-3.6,9.1c-1.6,2.7-3.6,5.2-5.8,7.5c-2.8,2.9-5.8,5.5-9.1,7.8
			c-4,2.8-8.3,5.2-12.9,6.9c-4.8,1.7-9.8,2.6-14.9,2.4c-2.9-0.1-5.8-0.6-8.5-1.4c-4.6-1.4-8.7-3.8-12.2-7.1
			c-2.7-2.5-4.8-5.5-6.5-8.8c-2-4-3-8.3-3-11.7c0-3.8,0.4-6.4,1.1-8.8c1.3-4.3,3.6-8,6.6-11.3c2.8-3,6.2-5.4,9.8-7.3
			c2.4-1.2,4.9-2.2,7.4-3.1c2.8-1,5.7-2,8.4-3.2c0.7-0.3,1.5-0.6,2.3-0.9c1-0.3,2-0.7,3.1-0.8c1.7-0.3,3.5-0.3,5.2-0.1
			c2.3,0.2,4.6,0.7,6.9,1.2c3.4,0.7,6.6,1.7,9.8,3.2c3.1,1.4,5.9,3.2,8.4,5.6c2.9,2.7,5.1,5.7,6.5,9.4
			C138.2,114.5,138.5,118.4,137.7,122.4z M135.4,114.2c-0.6-3-1.8-5.7-3.6-8.1c-2.5-3.5-5.7-6.3-9.4-8.4c-3.5-2-7.2-3.2-11.2-4
			c-2.2-0.4-4.4-0.7-6.6-0.9c-1.8-0.1-3.5,0-5.3,0.3c-1.2,0.2-2.3,0.5-3.4,0.9c-3.3,1.1-6.6,2.2-9.9,3.3c-3.2,1.1-6.2,2.4-9.1,4.3
			c-3.9,2.5-7.2,5.6-9.7,9.5c-2.8,4.4-4.3,9.3-4.2,14.6c0,4.5,1.2,8.8,3.4,12.8c4.4,7.9,11.1,12.8,19.9,14.9
			c1.9,0.5,3.9,0.7,5.9,0.8c0.6,0,1.2,0,1.8,0c4.2,0,8.3-0.7,12.2-2.1c5.3-1.8,10.2-4.6,14.6-8c3.3-2.6,6.3-5.4,8.8-8.7
			c2.2-2.8,3.9-5.9,5-9.3C135.9,122.1,136.2,118.2,135.4,114.2z M133.1,117.6c0.2,3.9-0.6,7.6-2.2,11.2c-1.5,3.4-3.6,6.4-6.1,9.1
			c-3.3,3.6-7.2,6.6-11.4,8.9c-5.1,2.8-10.5,4.7-16.3,5.1c-5.2,0.4-10.3-0.3-15.1-2.4c-7.3-3.2-12.5-8.5-15.3-16
			c-2-5.5-2.2-11.1-0.4-16.7c1.5-4.6,4.1-8.5,7.7-11.8c3.1-2.9,6.7-5,10.6-6.5c1.6-0.6,3.2-1.2,4.9-1.6c2.5-0.7,5-1.4,7.5-2.1
			c0.8-0.2,1.5-0.4,2.3-0.5c1.3-0.1,2.7-0.2,3.4-0.2c2.5,0,4.4,0.2,6.2,0.5c4.1,0.6,8,1.9,11.7,4c3.9,2.2,7.1,5.2,9.4,9
			C131.8,110.6,132.9,114,133.1,117.6z M130.7,118c-0.2-4.4-1.7-8.4-4.3-12c-2.8-3.8-6.5-6.5-10.8-8.4c-4-1.7-8.2-2.5-12.5-2.6
			c-2,0-4,0.2-6,0.6c-3.4,0.7-6.7,1.5-10,2.7c-3.6,1.2-7,3-9.9,5.3c-3.7,3-6.6,6.6-8.3,11c-3,7.6-2.3,15,1.9,21.9
			c3.1,5.1,7.5,8.7,13,10.9c2.7,1.1,5.5,1.8,8.3,2.1c0.3,0,0.5,0,0.8,0s0.6,0,0.8,0c0.4,0.1,0.7,0.1,1.1,0.1
			c5.5,0.1,10.6-1.2,15.6-3.5c4.6-2.1,8.6-5,12.1-8.7c2.7-2.9,5-6.1,6.5-9.8C130.2,124.6,130.8,121.4,130.7,118z M122.8,104.8
			c3.4,4,5.1,8.6,5.2,14.2c0,0.5-0.1,1.4-0.2,2.3c-0.5,4.1-2,7.8-4.4,11.2c-2.2,3.2-4.9,5.9-8,8.1c-6.2,4.4-13,6.8-20.6,6.8
			c-0.2,0-0.5,0-0.7,0.1c-0.4,0.1-0.8,0.1-1.3-0.1c-0.3-0.1-0.6-0.2-0.9-0.2c-1.9-0.2-3.8-0.6-5.6-1.2c-6.8-2.4-11.9-6.7-14.9-13.3
			c-3.5-7.6-3-15.1,1.4-22.3c2.9-4.8,7.1-8.2,12.2-10.5c2.3-1,4.6-1.8,7-2.4c2.7-0.7,5.4-1.3,8.1-1.5c3.5-0.3,6.9,0,10.3,1
			C115.3,98.4,119.5,100.9,122.8,104.8z M119.5,103.9c-3.9-4.1-8.8-6.4-14.3-7.1c-1.1-0.2-2.3-0.2-3.3-0.3c-1.1,0.1-2.2,0.2-3.2,0.3
			c-0.5,0-1.1,0.1-1.6,0.2c-3.1,0.6-6.1,1.2-9,2.3c-3.8,1.5-7.3,3.6-10.1,6.6c-3.3,3.4-5.5,7.4-6.3,12c-1.1,6.4,0.3,12.2,4.2,17.3
			c3.5,4.5,8.1,7.4,13.6,8.8c1.2,0.3,2.5,0.6,3.7,0.7c1.5,0.1,3.1,0.3,4.7,0.1c1.7-0.1,3.5-0.4,5.2-0.8c1.7-0.4,3.4-0.9,5-1.6
			c4.3-1.8,8-4.5,11.1-7.9c2.5-2.8,4.4-6.1,5.5-9.7C126.7,117.3,124.8,109.4,119.5,103.9z M117.8,105.2c3,3.6,4.5,7.9,4.5,12.6
			c0,3.2-0.7,6.2-2.1,9c-1.7,3.6-4.2,6.6-7.4,9.1c-4.9,3.8-10.4,5.7-16.6,5.8c-1.2,0-2.4-0.1-3.5-0.2c-5.3-0.8-9.9-3-13.6-7.1
			c-3.8-4.2-5.6-9.1-5.4-14.8c0.2-4.4,1.7-8.3,4.3-11.9c2.8-3.7,6.4-6.3,10.6-8.1c3.3-1.3,6.7-2.1,10.2-2.3c1.9-0.2,3.7-0.1,5.5,0.2
			C109.8,98.4,114.3,100.9,117.8,105.2z M111.6,101.4c-3.4-2.4-7.5-3.6-12.3-3.5c-4.6,0.2-9.5,1.4-13.8,4.2
			c-4.3,2.7-7.3,6.4-8.9,11.3c-2.8,8.3,0.3,17.2,7.7,22.1c4.1,2.7,8.6,3.9,13.5,3.6c6.6-0.4,12.2-3.1,16.6-7.9
			c2.7-3,4.6-6.4,5.3-10.4C121,113.2,117.9,105.7,111.6,101.4z M116.6,116.2c0,3.5-1.1,7-3.1,10c-3.7,5.7-10.2,9.2-17,9.3
			c-3.9,0-7.5-1-10.7-3.1c-5.4-3.5-8.3-9.7-7.7-15.9c0.4-4.4,2.2-8.2,5.3-11.3c4.2-4.2,9.4-6.2,15.2-6.4c0.9,0,1.9,0,2.8,0.2
			C110.1,100,116.7,107.5,116.6,116.2z M102.1,99.9c-1.2-0.3-2.5-0.5-3.6-0.4c-6.9,0-13.4,3.8-16.4,9.8c-1.9,3.7-2.5,7.7-1.3,11.7
			c1.5,5.2,5,8.6,10,10.4c5.7,2,12.2,0.8,16.9-3.1c3.6-2.9,5.7-6.7,6.2-11.3C114.8,109.1,109.7,101.8,102.1,99.9z M107.4,123.5
			c-3,3.4-6.8,5.1-11.1,5.2c-1.6,0-3-0.2-4.3-0.7c-2.6-0.8-4.8-2.3-6.5-4.4c-3-3.9-3.7-8.2-2.1-12.8c1.8-5.2,5.6-8.5,10.9-9.9
			c2.3-0.6,4.6-0.6,6.8,0c5.5,1.6,9.5,6.6,9.7,12.5C111.1,117.3,109.9,120.7,107.4,123.5z M108.6,112.9c0-3-1.2-6-3.8-8.3
			c-2.9-2.7-6.3-3.7-10.2-2.8c-5.5,1.3-9.6,6.2-10,11.8c-0.4,6.1,4,11.5,10.1,12.1C102.1,126.6,108.6,120.8,108.6,112.9z"/>
		
			<radialGradient id="SVGID_4_" cx="-2515.9226" cy="-175.3874" r="254.1824" gradientTransform="matrix(0.2045 0 0 -0.2045 617.2983 83.7861)" gradientUnits="userSpaceOnUse">
			<stop  offset="0.2985" style="stop-color:#FFDF00"/>
			<stop  offset="0.9102" style="stop-color:#FFDF00;stop-opacity:0"/>
		</radialGradient>
		<path class="st3" d="M115.5,157.8c-3.8,2-7.8,3.3-11.9,4.4c-1.8,0.5-3.6,0.9-5.5,1.2c-1.6,0.3-3.2,0.6-4.8,0.8
			c-1.1,0.2-2.2,0.3-3.3,0.4c-0.8,0.1-1.5,0.2-2.3,0.2c-1.5,0.1-3.1,0.1-4.6,0.1c-2,0-3.9-0.1-5.8-0.4c-2.3-0.3-4.5-0.8-6.7-1.5
			c-4.6-1.5-8.7-3.9-12.2-7.3c-2.4-2.4-4.4-5-6-8c-1.8-3.4-3.2-6.9-4.2-10.6c-0.9-3.4-1.5-6.9-1.5-10.9c0-1.5,0.1-3.4,0.5-5.3
			c0.8-4.5,2.7-8.5,5.3-12.1c2-2.8,4.5-5.3,7.1-7.5c2.3-2,4.8-3.8,7.4-5.5c2.1-1.5,4.3-2.9,6.4-4.4c1.4-1,2.6-2.1,3.7-3.4
			s2-2.7,2.9-4.1c1.1-1.7,2.1-3.5,3.1-5.1c1.6-2.5,3.5-4.9,5.7-7c3.5-3.3,7.4-5.6,12-6.9c4.3-1.2,8.6-1.3,13-0.2
			c4.3,1.1,7.8,3.3,10.7,6.6c1.2,1.4,2.3,3,3.3,4.6c0.9,1.4,1.8,2.8,2.8,4.2c1.5,2.1,3.3,3.8,5.3,5.4c1.7,1.4,3.5,2.7,5.2,4
			c2.6,2,5,4.1,7.2,6.4c1.8,2,3.4,4.1,4.7,6.5s2.2,4.9,2.5,7.6c0.3,2.2,0.2,4.4-0.3,6.6c-0.5,2.5-1.6,4.8-3,7
			c-1.4,2.1-3,4.1-4.8,5.9c-1.7,1.7-3.5,3.3-5.3,5c-2.1,1.9-4.3,3.8-6.3,5.8c-2.3,2.2-4.4,4.4-6.6,6.7c-2.1,2.2-4.3,4.3-6.6,6.2
			C120.4,154.9,118,156.5,115.5,157.8z"/>
	</g>
	<g>
		<g>
			<g>
				<path class="st4" d="M120.4,115.4c0-5.4-3.7-8.4-8.2-8.4c-5.1,0-11.2,4.7-11.2,11.5c0,1.8,0.7,3.6,1.5,4.8
					c-0.1-0.5-0.1-1.2-0.1-1.7c0-6.5,4.3-10.4,8.3-10.4c2.3,0,4.1,1.5,4.1,4.2s-2,4.8-3.8,5.8l0.8-3.5l-8.3,6.9
					c2.5,2.8,5.5,4.7,11.2,5.1c-1.5-1.1-2.8-2.9-2.8-2.9C118.4,124.5,120.4,119,120.4,115.4 M80.3,114.8c-1.5-1.1-2.3-1.9-2.3-3
					c0.1-1.5,1.6-2.1,2.8-2.1c2.3,0,4.3,2.8,4.3,2.8c0.6-2.3,0.8-3.1,1.1-4.5c-1.7-0.6-3.4-0.9-5.3-0.9c-5.5,0-8.2,3.6-8.2,6.4
					c0,3.3,2.1,4.4,4,5.9c1.2,0.9,2.4,1.6,2.4,3.2c0,1.4-1.1,2.1-2.5,2.1c-2.9-0.1-4.6-3.6-4.6-3.6c-0.6,2.4-1,3.7-1.4,5.5
					c1.7,0.8,3.8,1.3,6.2,1.3c4.2,0,7.9-2.2,7.9-6.8C84.7,118.4,83.3,117.1,80.3,114.8 M100.2,123.4c-1-1.7-3.4-6.6-3.4-6.6
					s6.4-7.2,7.1-7.8c0.7-0.6,1.3-1.1,1.7-1.3h-6.1c-0.1,0.2-0.2,0.4-0.3,0.6c-0.1,0.2-0.4,0.5-0.7,0.8l-5.8,6.6
					c0.2-0.9,1-5.1,1.2-5.9c0.2-1.1,0.4-2-0.6-2h-5c0.1,0.6,0.2,1.2,0.1,1.8c0,0.6-0.1,1.4-0.3,2.3l-2.3,11.3
					c-0.2,0.9-0.4,1.7-0.6,2.3c-0.2,0.6-0.5,1.2-0.9,1.8h5.1c1.2,0,1.2-0.6,1.5-2.1c0.1-0.5,1.2-6.1,1.2-6.1s1.7,3.8,2.9,5.9
					c1.7,3,4.8,3.3,5.9,3.3c1.8,0,2.8-0.3,2.9-0.5C103.1,127.2,101.7,126,100.2,123.4 M125.8,123.4l2.5-11.6
					c0.2-0.9,0.4-1.6,0.5-2.2c0.2-1.2,0.5-1.9-0.6-1.9h-5.1c0.1,0.7,0.1,1.2,0.1,1.8c0,0.6-0.1,1.4-0.3,2.3l-2.3,11.3
					c-0.2,0.9-0.4,1.7-0.6,2.3c-0.2,0.6-0.5,1.2-0.9,1.8h11.5l2.7-5.6C130,123.2,128.8,123.2,125.8,123.4"/>
			</g>
		</g>
	</g>
	<g class="st5">
		<path class="st6" d="M74.5,98.1c-0.5-0.6-1.3-1-2.3-1c-1.7,0-3.2,1.4-3.2,3.2c0,1.6,1.2,2.7,2.7,2.7c0.9,0,1.7-0.4,2.3-1l1,1.1
			c-0.8,0.9-2,1.4-3.3,1.4c-2.5,0-4.4-1.8-4.4-4.2c0-2.6,2.2-4.7,4.8-4.7c1.6,0,2.7,0.6,3.5,1.5L74.5,98.1z"/>
		<path class="st6" d="M75.6,104.3l5.2-8.6H82l2.3,8.6h-1.7l-0.5-1.9h-3.5l-1.2,1.9H75.6z M79.5,100.9h2.2L81,98.5L79.5,100.9z"/>
		<path class="st6" d="M87.7,99.5l-0.9,4.9h-1.7l1.5-8.6h1.2l2.1,5.2l4.2-5.2h1.2l-1.5,8.6h-1.7l0.9-4.8l-2.7,3.3h-1.2L87.7,99.5z"
			/>
		<path class="st6" d="M94.8,104.3l5.2-8.6h1.2l2.3,8.6h-1.7l-0.5-1.9h-3.5l-1.2,1.9H94.8z M98.7,100.9h2.2l-0.7-2.5L98.7,100.9z"/>
		<path class="st6" d="M108.3,95.7c0.9,0,1.4,0.2,1.8,0.5c0.6,0.4,0.9,1.1,0.9,1.8c0,0.9-0.5,1.7-1.2,2.1c-0.2,0.1-0.5,0.2-0.9,0.3
			l2.7,3.9h-1.9l-2.6-3.9h-0.5l-0.7,3.9h-1.7l1.5-8.6H108.3z M107.3,97.2L107,99h1.1c0.6,0,0.9-0.1,1-0.3c0.2-0.2,0.3-0.4,0.3-0.7
			c0-0.2-0.1-0.4-0.2-0.6c-0.1-0.2-0.4-0.3-1-0.3H107.3z"/>
		<path class="st6" d="M116.3,104.5c-2.5,0-4.4-1.8-4.4-4.2c0-2.5,2.1-4.7,4.8-4.7c2.5,0,4.4,1.8,4.4,4.2
			C121,102.2,119,104.5,116.3,104.5z M116.3,103c1.7,0,3.1-1.5,3.1-3.2c0-1.6-1.2-2.7-2.7-2.7c-1.7,0-3.1,1.5-3.1,3.2
			C113.6,101.8,114.8,103,116.3,103z"/>
		<path class="st6" d="M128.3,95.7l-0.3,1.5h-2.3l-1.3,7.2h-1.7l1.3-7.2h-2.3l0.3-1.5H128.3z"/>
		<path class="st6" d="M129.6,95.7h5.2l-0.3,1.5H131l-0.3,1.8h2.6l-0.3,1.5h-2.6l-0.4,2.4h3.6l-0.3,1.5h-5.3L129.6,95.7z"/>
	</g>
	<g class="st5">
		<path class="st6" d="M74.8,133.4h3.6v15.4h7.8v3.2H74.8V133.4z"/>
		<path class="st6" d="M89,133.4h3.6V152H89V133.4z"/>
		<path class="st6" d="M94.9,133.4h3.7l5.1,12.7l5.1-12.7h3.7L105,152h-2.5L94.9,133.4z"/>
		<path class="st6" d="M118.5,136.6v3.9h5.7v3.2h-5.7v5.2h7.8v3.2h-11.4v-18.6H126v3.2H118.5z"/>
	</g>
</g>
</svg>
