<?xml version="1.0" encoding="utf-8"?>
<!-- Generator: Adobe Illustrator 19.1.1, SVG Export Plug-In . SVG Version: 6.00 Build 0)  -->
<svg version="1.1" id="Layer_1" xmlns="http://www.w3.org/2000/svg" xmlns:xlink="http://www.w3.org/1999/xlink" x="0px" y="0px"
	 viewBox="0 0 200 200" style="enable-background:new 0 0 200 200;" xml:space="preserve">
<style type="text/css">
	.st0{fill:#CE0058;}
	.st1{enable-background:new    ;}
	.st2{fill:#512D6D;}
</style>
<g>
	<g>
		<g>
			<g>
				<path class="st0" d="M156.3,73c0-16.5-11.3-25.4-25-25.4c-15.4,0-34.1,14.2-34.1,35c0,5.6,2.1,10.9,4.5,14.6
					c-0.3-1.5-0.4-3.6-0.4-5.3c0-19.7,12.9-31.5,25.2-31.5c7.1,0,12.5,4.7,12.5,12.8s-6,14.6-11.6,17.7l2.4-10.5l-25.1,21.1
					c7.7,8.6,16.7,14.1,34.1,15.5c-4.6-3.3-8.5-8.9-8.5-8.9C150.1,100.6,156.3,83.8,156.3,73 M34.4,71.2c-4.7-3.5-7-5.7-6.9-9.2
					c0.2-4.6,5-6.4,8.6-6.4c7,0,12.9,8.4,12.9,8.4c1.7-6.9,2.3-9.5,3.3-13.6c-5.3-1.7-10.4-2.8-16.1-2.8
					c-16.8,0-24.8,10.8-24.8,19.3c0,10.1,6.3,13.4,12.3,17.9c3.5,2.7,7.1,4.9,7.1,9.7c0,4.4-3.4,6.5-7.7,6.4
					C14.3,100.6,9.2,90,9.2,90c-1.9,7.3-2.9,11.3-4.2,16.6c5.1,2.4,11.5,4,18.7,4c12.8,0,24.1-6.7,24.1-20.5
					C47.8,81.9,43.7,78,34.4,71.2 M94.8,97.1c-3-5.2-10.4-19.9-10.4-19.9s19.5-21.8,21.6-23.7s3.9-3.2,5.2-4H92.8
					c-0.2,0.6-0.5,1.2-1,1.8c-0.4,0.6-1.1,1.4-2,2.3L72.2,73.7c0.5-2.6,3.1-15.3,3.7-18c0.7-3.2,1.1-6.2-1.8-6.2H58.9
					c0.3,1.8,0.5,3.7,0.4,5.6c-0.1,1.9-0.4,4.2-1,6.9l-7.1,34.4c-0.6,2.7-1.2,5-1.9,6.9s-1.6,3.7-2.7,5.6h15.6
					c3.6,0,3.7-1.9,4.4-6.5c0.2-1.5,3.5-18.5,3.5-18.5s5.3,11.6,8.8,18c5.1,9.2,14.5,9.9,18,9.9c5.4,0,8.5-0.8,8.8-1.4
					C103.5,108.7,99.4,105.1,94.8,97.1 M172.7,97.1l7.6-35.2c0.6-2.7,1.1-4.9,1.4-6.9c0.6-3.6,1.4-5.8-1.9-5.8h-15.6
					c0.3,1.9,0.5,3.8,0.4,5.7s-0.4,4.2-1,7l-7.1,34.4c-0.6,2.7-1.2,5-1.9,6.9s-1.6,3.7-2.7,5.6h34.8l8.1-16.9
					C185.3,96.7,181.6,96.5,172.7,97.1"/>
			</g>
		</g>
	</g>
	<g class="st1">
		<path class="st2" d="M23.4,19.6c2.9,0,5.6,1.2,7.4,3.1l-1.9,1.9c-1.2-1.3-3.3-2.3-5.5-2.3c-4.1,0-7.3,3.3-7.3,7.6
			c0,4.6,3.3,7.6,7.6,7.6c2.7,0,4.7-1.5,5.8-2.9l2,1.8c-1.7,2.2-4.7,3.7-7.8,3.7c-6,0-10.5-4.4-10.5-10.4
			C13.2,24.1,17.6,19.6,23.4,19.6z"/>
		<path class="st2" d="M48.3,34.8h-8.5L37.7,40h-3L43,19.8h2L53.4,40h-3L48.3,34.8z M40.9,32.1h6.2L44,24.6L40.9,32.1z"/>
		<path class="st2" d="M61,30.5V40h-2.9V19.8h7.1c1.8,0,3,0.4,3.9,1.2c1.2,1,2,2.5,2,4.2c0,1.7-0.8,3.2-2,4.2
			c-0.6,0.5-1.4,0.9-2.4,1.1L74,40h-3.5l-7.2-9.5H61z M65,27.8c1.3,0,2-0.3,2.4-0.8c0.5-0.5,0.8-1.1,0.8-1.8c0-0.7-0.3-1.4-0.8-1.8
			c-0.5-0.5-1.1-0.7-2.4-0.7h-4v5.2H65z"/>
		<path class="st2" d="M81.5,25.2V40h-2.9V19.8h2l12.1,14.8V19.8h2.9V40h-2L81.5,25.2z"/>
		<path class="st2" d="M113.9,34.8h-8.5l-2.1,5.2h-3l8.4-20.2h2l8.4,20.2h-3L113.9,34.8z M106.6,32.1h6.2l-3.1-7.5L106.6,32.1z"/>
		<path class="st2" d="M129.7,40h-2l-7.9-20.2h3l5.9,15.2l5.9-15.2h3L129.7,40z"/>
		<path class="st2" d="M151.9,34.8h-8.5l-2.1,5.2h-3l8.4-20.2h2l8.4,20.2h-3L151.9,34.8z M144.6,32.1h6.2l-3.1-7.5L144.6,32.1z"/>
		<path class="st2" d="M164.7,37.3h8.9V40h-11.8V19.8h2.9V37.3z"/>
	</g>
	<g class="st1">
		<path class="st2" d="M14.8,161.5c1-3.1,3.6-4.5,6.1-4.5c3.4,0,5.8,2.5,5.8,5.7c0,2.5-1.8,4.6-3.6,6.3l-5.8,5.6h7.4l-0.5,2.7h-12
			l0.3-1.9l8.1-7.8c1.9-1.9,3.3-3.2,3.3-5c0-1.7-1.3-3-3-3c-1.8,0-2.9,1.2-3.5,2.7L14.8,161.5z"/>
		<path class="st2" d="M31.1,170.4c0-6,2.5-13.4,8.4-13.4c4,0,6,3,6,7.2c0,6-2.5,13.4-8.4,13.4C33.1,177.6,31.1,174.7,31.1,170.4z
			 M34,170.4c0,2.6,0.7,4.5,3.1,4.5c4,0,5.6-6.5,5.6-10.7c0-2.6-0.7-4.5-3.1-4.5C35.6,159.7,34,166.2,34,170.4z"/>
		<path class="st2" d="M51.4,160l5.2-2.7h2l-3.5,20h-2.8l2.9-16.6l-4.3,2.1L51.4,160z"/>
		<path class="st2" d="M61.9,177.3L73.3,160h-9l0.5-2.7h12.6l-0.3,1.9l-11.9,18.2H61.9z"/>
	</g>
	<g class="st1">
		<path class="st2" d="M18.9,125.5v5.5h8.2v4.6h-8.2v12h-5.1v-26.6h16v4.6H18.9z"/>
		<path class="st2" d="M36.6,120.9h5.1V143h11.2v4.6H36.6V120.9z"/>
		<path class="st2" d="M71.3,120.6c8.2,0,13.9,6.1,13.9,13.7S79.5,148,71.3,148c-8.2,0-13.9-6.1-13.9-13.7S63.1,120.6,71.3,120.6z
			 M71.3,143.4c5,0,8.8-4.1,8.8-9.1s-3.7-9.1-8.8-9.1c-5,0-8.8,4.1-8.8,9.1S66.3,143.4,71.3,143.4z"/>
		<path class="st2" d="M97.5,135.8v11.8h-5.1v-26.6h9.7c2.7,0,4.5,0.8,5.8,2c1.4,1.4,2.4,3.3,2.4,5.4s-0.9,4.1-2.4,5.4
			c-0.7,0.7-1.6,1.2-2.7,1.6l10,12.2h-6.4l-9.5-11.8H97.5z M101.8,131.2c1.5,0,2.1-0.3,2.6-0.8c0.5-0.5,0.8-1.3,0.8-2
			c0-0.8-0.3-1.6-0.8-2.1c-0.5-0.5-1.1-0.8-2.6-0.8h-4.3v5.7H101.8z"/>
		<path class="st2" d="M120.8,120.9h5.1v26.6h-5.1V120.9z"/>
		<path class="st2" d="M140.1,136.7v10.8H135v-26.6h10c3.4,0,5.4,0.8,6.9,2.4c1.3,1.4,2.1,3.4,2.1,5.5c0,2.1-0.8,4.1-2.1,5.5
			c-1.4,1.5-3.5,2.4-6.9,2.4H140.1z M144.8,132.2c1.8,0,2.6-0.4,3.2-1.1c0.6-0.6,0.9-1.4,0.9-2.2c0-0.9-0.3-1.7-0.9-2.3
			c-0.6-0.6-1.5-1.1-3.2-1.1h-4.6v6.7H144.8z"/>
		<path class="st2" d="M154.7,147.6l11.4-26.6h3.6l11.4,26.6h-5.4l-2.5-5.9h-10.7l-2.5,5.9H154.7z M164.5,137.1h6.8l-3.4-7.9
			L164.5,137.1z"/>
	</g>
</g>
</svg>
