<?xml version="1.0" encoding="utf-8"?>
<!-- Generator: Adobe Illustrator 19.1.1, SVG Export Plug-In . SVG Version: 6.00 Build 0)  -->
<svg version="1.1" id="Layer_1" xmlns="http://www.w3.org/2000/svg" xmlns:xlink="http://www.w3.org/1999/xlink" x="0px" y="0px"
	 viewBox="0 0 200 200" style="enable-background:new 0 0 200 200;" xml:space="preserve">
<style type="text/css">
	.st0{fill:#CE0058;}
</style>
<g>
	<g>
		<g>
			<path class="st0" d="M84.8,31.5c0.7,2,2.8,3,4.8,2.3s3-2.9,2.3-4.6l-5.7-15.6c-0.7-1.9-2.9-2.9-4.9-2.2c-1.9,0.7-2.9,2.9-2.2,4.8
				L84.8,31.5z M104.1,32.4c1,0.5,2,0.5,2.9,0.2s1.7-1,2.1-2l7-14.9c0.8-1.9,0.1-4-1.9-5c-1.9-0.9-4-0.1-4.9,1.8l-6.9,15
				C101.3,29.4,102.2,31.5,104.1,32.4z M57.9,37.2l15,7c0.9,0.4,1.9,0.5,2.9,0.1c0.9-0.3,1.6-1,2-2c0.9-1.9,0.2-4.1-1.8-4.9l-15-7
				c-1.8-0.9-4-0.1-4.9,1.8C55.1,34.2,55.9,36.3,57.9,37.2z M58.5,66.4l15.6-5.7c1.9-0.7,3-2.9,2.2-4.8c-0.6-2-2.9-2.9-4.8-2.3
				L56,59.3c-2,0.7-3,2.9-2.3,4.9C54.4,66.1,56.6,67.1,58.5,66.4z M186.3,122l-20.4-85.2c-0.7-2.7-2.4-5-4.8-6.4
				c-2.4-1.3-5.3-1.7-8-0.8L97.9,47c-4.2,1.4-7,5.1-7,9.5c0,1.2,0.2,2.5,0.7,3.7l11,28c-0.2-0.1-0.3-0.1-0.5-0.2L46.9,70.6
				c-2.7-0.9-5.5-0.6-8,0.8c-2.4,1.4-4.1,3.7-4.8,6.4L13.6,163c-0.2,0.8-0.3,1.6-0.3,2.5c0,4.8,3.2,9.1,7.7,10.5l42,13.2
				c5.4,1.7,11.4-1.2,13.5-6.5l31.6-80.7l15.5,39.7c2.1,5.3,8.1,8.1,13.5,6.5L179,135C184.3,133.4,187.7,127.5,186.3,122z
				 M30.5,122.8L36.7,97l57.4,18.1C80.1,116.9,42.3,121.6,30.5,122.8z M101.9,98.6L97.8,109L38.3,90.3l2.6-10.8
				c0.2-0.9,0.7-1.5,1.4-2c0.7-0.4,1.6-0.5,2.4-0.2L100,94.6c1.3,0.4,2.2,1.5,2.2,2.8C102.2,97.8,102.1,98.2,101.9,98.6z M102.2,68
				l-4.1-10.4c-0.2-0.4-0.2-0.7-0.2-1.2c0-1.3,0.8-2.4,2.1-2.8l55.3-17.4c0.8-0.3,1.7-0.2,2.4,0.3c0.7,0.4,1.2,1.1,1.4,1.9l2.6,10.8
				L102.2,68z M105.9,74.2l57.5-18.1l6.2,25.8C157.7,80.6,119.8,75.9,105.9,74.2z"/>
		</g>
	</g>
	<path class="st0" d="M118.4,87.5c0-0.9,0.5-1.8,1.4-2.1c1.2-0.5,2.5,0.1,2.9,1.3l15.7,42c0.4,1.2-0.2,2.5-1.3,2.9
		c-1.2,0.4-2.4-0.2-2.9-1.3l-15.7-42.1C118.4,88,118.4,87.7,118.4,87.5z"/>
	<path class="st0" d="M61.4,170.4c0-0.3,0.1-0.5,0.1-0.8l15.8-42c0.4-1.2,1.7-1.7,2.9-1.3c1.1,0.4,1.7,1.7,1.3,2.9l-15.7,42
		c-0.5,1.2-1.7,1.7-2.9,1.3C62,172.2,61.4,171.3,61.4,170.4z"/>
</g>
</svg>
