<?xml version="1.0" encoding="utf-8"?>
<!-- Generator: Adobe Illustrator 19.1.1, SVG Export Plug-In . SVG Version: 6.00 Build 0)  -->
<svg version="1.1" id="Layer_1" xmlns="http://www.w3.org/2000/svg" xmlns:xlink="http://www.w3.org/1999/xlink" x="0px" y="0px"
	 viewBox="0 0 200 200" style="enable-background:new 0 0 200 200;" xml:space="preserve">
<style type="text/css">
	.st0{fill:#CE0058;}
</style>
<g>
	<g>
		<path class="st0" d="M19.1,100c0-44.6,36.3-80.9,80.9-80.9s80.9,36.3,80.9,80.9s-36.3,80.9-80.9,80.9S19.1,144.6,19.1,100z
			 M171.4,100c0-39.4-32.1-71.4-71.4-71.4c-39.4,0-71.5,32-71.5,71.4s32.1,71.4,71.5,71.4S171.4,139.4,171.4,100z"/>
	</g>
	<path class="st0" d="M71.2,134.7v-61l-11.5,4.4L56.3,68l21.1-9.5h3v76.2H71.2z"/>
	<path class="st0" d="M116.2,135.9c-13.3,0-21.7-9.4-21.7-20.9c0-7.8,3.6-14.6,10.3-17.8c-5.7-3.4-8.7-9.8-8.7-17.1
		c0-11.6,7.9-20.9,20.1-20.9c12.3,0,20.1,9.2,20.1,20.8c0,7.3-3.4,14-8.7,17.2c6.8,3.4,10.4,10,10.4,17.8
		C138,126.5,129.6,135.9,116.2,135.9z M116.2,101.9c-6.2,0-10.3,4.7-10.3,11.4c0,6.5,4.1,11.7,10.4,11.7c6.4,0,10.4-5.1,10.4-11.7
		C126.7,106.6,122.5,101.9,116.2,101.9z M116.2,70.2c-6.1,0-9.7,5-9.7,11.6c0,6.4,3.8,10.8,9.7,10.8c5.8,0,9.6-4.5,9.6-10.8
		C125.9,75.2,122.4,70.2,116.2,70.2z"/>
</g>
</svg>
