<?xml version="1.0" encoding="utf-8"?>
<!-- Generator: Adobe Illustrator 19.1.1, SVG Export Plug-In . SVG Version: 6.00 Build 0)  -->
<svg version="1.1" id="Layer_1" xmlns="http://www.w3.org/2000/svg" xmlns:xlink="http://www.w3.org/1999/xlink" x="0px" y="0px"
	 viewBox="0 0 200 200" style="enable-background:new 0 0 200 200;" xml:space="preserve">
<style type="text/css">
	.st0{fill:#CE0058;}
</style>
<path class="st0" d="M154.8,45.2c-14.6-14.6-34.1-22.7-54.8-22.7s-40.2,8.1-54.8,22.7S22.5,79.3,22.5,100s8.1,40.2,22.7,54.8
	s34.1,22.7,54.8,22.7s40.2-8.1,54.8-22.7c14.6-14.6,22.7-34.1,22.7-54.8S169.4,59.8,154.8,45.2z M100,40.1
	c29.5,0,54.8,21.8,59.2,50.8l-35.9-3.5c-4.7-8.6-13.5-13.9-23.3-13.9s-18.6,5.3-23.3,13.9l-35.9,3.5C45.2,61.8,70.5,40.1,100,40.1z
	 M40.7,108.9l35.5,2.8c2.4,4.8,6.2,8.9,11,11.5l2.3,35.8C64.3,154.5,44.5,134.2,40.7,108.9z M100,106.9c-3.8,0-6.9-3.1-6.9-6.9
	s3.1-6.9,6.9-6.9s6.9,3.1,6.9,6.9S103.8,106.9,100,106.9z M110.5,159l2.3-35.8c4.7-2.6,8.6-6.7,11-11.5l35.5-2.8
	C155.5,134.2,135.7,154.5,110.5,159z"/>
</svg>
