<?xml version="1.0" encoding="utf-8"?>
<!-- Generator: Adobe Illustrator 19.1.1, SVG Export Plug-In . SVG Version: 6.00 Build 0)  -->
<svg version="1.1" id="Layer_1" xmlns="http://www.w3.org/2000/svg" xmlns:xlink="http://www.w3.org/1999/xlink" x="0px" y="0px"
	 viewBox="0 0 200 200" style="enable-background:new 0 0 200 200;" xml:space="preserve">
<style type="text/css">
	.st0{fill:#D30860;}
	.st1{fill:#D21E55;}
	.st2{fill:#512D6D;}
	.st3{fill:#CE0058;}
</style>
<g>
	<path class="st0" d="M92.1,141.4c-0.2-0.1-0.4-0.1-0.6-0.2C91.8,141.2,92,141.3,92.1,141.4z"/>
	<path class="st1" d="M93.8,141.9c-0.6-0.2-1.1-0.4-1.7-0.6C92.7,141.6,93.3,141.8,93.8,141.9z"/>
	<g>
		<path class="st0" d="M96.2,142.6c-0.2,0-0.4-0.1-0.5-0.1C95.9,142.5,96.1,142.6,96.2,142.6z"/>
		<path class="st0" d="M100.5,143.5c-0.2,0-0.3-0.1-0.5-0.1C100.2,143.4,100.3,143.4,100.5,143.5z"/>
		<path class="st0" d="M98.4,143.1c-0.1,0-0.2,0-0.3-0.1C98.2,143.1,98.3,143.1,98.4,143.1z"/>
		<path class="st1" d="M100,143.4c-0.5-0.1-1.1-0.2-1.6-0.3C98.9,143.2,99.5,143.3,100,143.4z"/>
		<path class="st1" d="M95.7,142.5c-0.5-0.1-0.9-0.3-1.4-0.4C94.8,142.2,95.2,142.4,95.7,142.5z"/>
		<path class="st1" d="M98.1,143c-0.6-0.1-1.2-0.3-1.8-0.4C96.8,142.8,97.4,142.9,98.1,143z"/>
		<g>
			<g>
				<g>
					<path class="st2" d="M49.5,60l-7.9-7.1l2.1-2.4c1.1-1.3,2.1-1.8,3.2-2c1.6-0.3,3.3,0.1,4.6,1.3s2,2.8,1.8,4.5
						c-0.1,1.1-0.6,2.1-1.7,3.4L49.5,60z M47.4,49.9c-0.9,0.1-1.7,0.6-2.7,1.7l-1.1,1.2l5.8,5.2l1.1-1.2c1-1.1,1.4-2,1.4-2.9
						c0-1.1-0.5-2.2-1.4-3C49.6,50.1,48.5,49.8,47.4,49.9z"/>
					<path class="st2" d="M61.1,40.8L62,42l-2.9,2l2.1,2.9l3.9-2.7l0.8,1.2L60.7,49l-6.1-8.7l5-3.5l0.8,1.2l-3.7,2.6l1.6,2.2
						L61.1,40.8z"/>
					<path class="st2" d="M71,39.6c0.9,0.4,1.9,0.7,2.9,0.2c0.9-0.4,1.4-1.3,1.1-2.2c-0.6-1.5-2.8-0.8-4.5-1.1
						c-0.9-0.2-1.7-0.6-2.2-1.6c-0.6-1.4,0.1-3.1,1.8-3.9c1.2-0.5,2.3-0.4,3-0.2l-0.4,1.4c-0.7-0.2-1.4-0.2-2,0.1
						c-0.8,0.4-1.4,1.2-1,2c0.5,1.2,2.7,0.6,4.4,0.9c0.8,0.1,1.8,0.6,2.2,1.7c0.7,1.7-0.1,3.4-1.8,4.1c-1.3,0.6-2.8,0.5-4.1-0.1
						L71,39.6z"/>
					<path class="st2" d="M86.6,26.1c1.5-0.3,3,0.1,4.1,0.9l-0.8,1.2c-0.7-0.6-1.9-0.9-3-0.6c-2.1,0.4-3.5,2.4-3,4.7
						c0.4,2.4,2.5,3.6,4.7,3.2c1.4-0.3,2.3-1.2,2.7-2.1l1.2,0.8c-0.7,1.3-2.1,2.4-3.7,2.7c-3.1,0.6-5.9-1.3-6.4-4.4
						C81.7,29.5,83.6,26.7,86.6,26.1z"/>
					<path class="st2" d="M104.7,29.3v1.4l-3.5-0.1l-0.1,3.6l4.7,0.2v1.4l-6.2-0.2L99.8,25l6.1,0.2v1.4l-4.6-0.1l-0.1,2.7
						L104.7,29.3z"/>
					<path class="st2" d="M124.7,35.2l-1.9,4.6l-1.4-0.6l4.1-9.8l3.4,1.4c0.9,0.4,1.4,0.8,1.7,1.4c0.4,0.7,0.5,1.6,0.1,2.4
						c-0.3,0.8-1,1.4-1.8,1.6c-0.4,0.1-0.8,0.2-1.4,0l1.6,6.2l-1.7-0.7l-1.6-6.1L124.7,35.2z M127.3,34.7c0.6,0.3,1,0.3,1.3,0.1
						c0.3-0.1,0.6-0.4,0.7-0.7c0.1-0.4,0.1-0.7,0-1.1c-0.1-0.3-0.4-0.6-1-0.9l-2-0.8l-1,2.5L127.3,34.7z"/>
					<path class="st2" d="M142.4,43.3l-0.8,1.2l-2.9-2l-2,2.9l3.9,2.7l-0.8,1.2l-5.1-3.6l6.1-8.7l5,3.5l-0.8,1.2l-3.7-2.6l-1.6,2.2
						L142.4,43.3z"/>
					<path class="st2" d="M144.9,53.8l7.9-7.2L155,49c1.1,1.3,1.6,2.3,1.7,3.4c0.2,1.6-0.5,3.3-1.8,4.5s-3,1.6-4.6,1.3
						c-1.1-0.2-2.1-0.8-3.2-2L144.9,53.8z M155.2,52.8c0-0.9-0.4-1.8-1.4-2.9l-1.1-1.2L147,54l1.1,1.2c1,1.1,1.8,1.5,2.7,1.7
						c1.1,0.1,2.2-0.2,3.1-1C154.8,55,155.2,53.9,155.2,52.8z"/>
					<path class="st2" d="M166.6,65.2c1.4,2.7,0.4,5.8-2.4,7.3c-2.8,1.4-5.9,0.5-7.3-2.2c-1.4-2.7-0.4-5.8,2.4-7.3
						C162,61.6,165.2,62.6,166.6,65.2z M158.2,69.7c1,1.9,3.3,2.6,5.3,1.5s2.8-3.3,1.8-5.2c-1-1.9-3.3-2.6-5.3-1.5
						C157.9,65.5,157.2,67.7,158.2,69.7z"/>
					<path class="st2" d="M169.7,81.1l-7.6,1.7l-0.3-1.5l10.4-2.4l0.2,1l-6.2,8l7.6-1.7l0.3,1.5l-10.4,2.4l-0.2-1L169.7,81.1z"/>
					<path class="st2" d="M164.4,97.7L175,98l-0.1,3.2c0,1.7-0.4,2.8-1.1,3.6c-1,1.3-2.6,2.1-4.4,2c-1.8,0-3.3-0.9-4.3-2.2
						c-0.6-0.9-1-2-0.9-3.7L164.4,97.7z M172.5,104.1c0.6-0.7,0.9-1.5,1-3v-1.6l-7.8-0.2v1.6c0,1.5,0.3,2.4,0.8,3.1
						c0.7,0.8,1.8,1.3,2.9,1.4C170.7,105.3,171.8,104.9,172.5,104.1z"/>
					<path class="st2" d="M172.1,121c-0.8,2.9-3.8,4.5-6.7,3.6c-3-0.9-4.6-3.7-3.8-6.6s3.8-4.5,6.7-3.6
						C171.3,115.2,173,118.1,172.1,121z M163,118.3c-0.6,2.1,0.6,4.1,2.8,4.8c2.2,0.6,4.3-0.4,4.9-2.5c0.6-2.1-0.6-4.1-2.8-4.8
						C165.7,115.2,163.6,116.3,163,118.3z"/>
					<path class="st2" d="M163.2,135.9c-0.8,1.5-2.7,2-4.2,1.1c-1.5-0.8-2-2.7-1.1-4.2c0.8-1.5,2.7-2,4.2-1.1
						C163.5,132.6,164,134.4,163.2,135.9z"/>
					<path class="st2" d="M150.1,140.5l7.8,7.2l-2.2,2.4c-1.1,1.2-2.2,1.8-3.2,2c-1.6,0.3-3.3-0.2-4.6-1.4s-1.9-2.9-1.7-4.5
						c0.1-1.1,0.6-2.1,1.7-3.4L150.1,140.5z M152,150.7c0.9-0.1,1.7-0.5,2.7-1.6l1.1-1.2l-5.7-5.3l-1.1,1.2c-1,1.1-1.4,2-1.4,2.8
						c0,1.1,0.4,2.2,1.3,3C149.8,150.4,151,150.8,152,150.7z"/>
					<path class="st2" d="M138.2,159.6l-0.8-1.2l2.9-2l-2-2.9l-3.9,2.7l-0.8-1.2l5.1-3.5l6,8.8l-5,3.5l-0.8-1.2l3.8-2.6l-1.6-2.3
						L138.2,159.6z"/>
					<path class="st2" d="M128.3,160.8c-0.9-0.5-1.9-0.7-2.9-0.3c-0.9,0.4-1.5,1.3-1.1,2.2c0.6,1.5,2.8,0.8,4.4,1.1
						c0.9,0.2,1.7,0.6,2.2,1.6c0.6,1.4-0.2,3.1-1.9,3.9c-1.2,0.5-2.3,0.3-3.1,0.1l0.4-1.4c0.7,0.2,1.4,0.2,2-0.1
						c0.8-0.3,1.4-1.1,1.1-2c-0.5-1.2-2.7-0.6-4.3-0.9c-0.8-0.2-1.7-0.6-2.2-1.7c-0.7-1.7,0.1-3.4,1.8-4.1c1.3-0.6,2.8-0.5,4.1,0.2
						L128.3,160.8z"/>
					<path class="st2" d="M112.6,174.1c-1.5,0.3-3-0.1-4.1-0.9l0.8-1.2c0.7,0.6,1.9,0.9,3,0.7c2.1-0.4,3.5-2.4,3.1-4.6
						c-0.4-2.4-2.4-3.7-4.6-3.3c-1.4,0.3-2.3,1.2-2.7,2l-1.2-0.8c0.7-1.3,2.1-2.4,3.7-2.7c3.1-0.6,5.8,1.3,6.4,4.4
						C117.5,170.8,115.6,173.5,112.6,174.1z"/>
					<path class="st2" d="M94.5,170.6l0.1-1.4l3.5,0.2l0.2-3.6l-4.7-0.2l0.1-1.4l6.2,0.3L99.4,175l-6.1-0.3l0.1-1.4l4.6,0.2l0.1-2.7
						L94.5,170.6z"/>
					<path class="st2" d="M74.5,164.5l2-4.6l1.4,0.6l-4.2,9.8l-3.4-1.5c-0.9-0.4-1.4-0.8-1.7-1.4c-0.4-0.7-0.4-1.6-0.1-2.4
						c0.3-0.8,1-1.4,1.8-1.6c0.4-0.1,0.8-0.2,1.4,0l-1.5-6.2l1.7,0.7l1.5,6.1L74.5,164.5z M72,165c-0.6-0.3-1-0.3-1.3-0.1
						c-0.3,0.1-0.6,0.4-0.7,0.7c-0.2,0.3-0.1,0.7,0,1.1c0.1,0.3,0.4,0.6,1,0.9l2,0.8l1.1-2.5L72,165z"/>
					<path class="st2" d="M57,156.2l0.8-1.2l2.8,2l2.1-2.9l-3.8-2.7l0.8-1.2l5.1,3.6l-6.2,8.7l-4.9-3.5l0.8-1.2l3.7,2.7l1.6-2.2
						L57,156.2z"/>
					<path class="st2" d="M54.6,145.7l-8,7.1l-2.1-2.4c-1.1-1.3-1.6-2.3-1.7-3.4c-0.1-1.6,0.5-3.3,1.8-4.5s3-1.6,4.6-1.3
						c1.1,0.2,2.1,0.8,3.2,2.1L54.6,145.7z M44.3,146.6c0,0.9,0.4,1.8,1.3,2.9l1.1,1.2l5.8-5.1l-1.1-1.2c-1-1.1-1.8-1.6-2.7-1.7
						c-1.1-0.1-2.2,0.2-3.1,1C44.7,144.4,44.3,145.5,44.3,146.6z"/>
					<path class="st2" d="M33,134c-1.4-2.7-0.3-5.8,2.5-7.2c2.8-1.4,5.9-0.4,7.3,2.3c1.4,2.7,0.3,5.8-2.5,7.2
						C37.5,137.6,34.4,136.7,33,134z M41.5,129.7c-1-1.9-3.3-2.6-5.3-1.6c-2,1-2.9,3.3-1.9,5.2s3.3,2.6,5.3,1.6
						C41.7,133.8,42.5,131.6,41.5,129.7z"/>
					<path class="st2" d="M30.1,118.1l7.7-1.6l0.3,1.5l-10.4,2.2l-0.2-1l6.3-7.9l-7.6,1.6l-0.3-1.5l10.4-2.2l0.2,1L30.1,118.1z"/>
					<path class="st2" d="M35.6,101.6L25,101.1l0.1-3.2c0.1-1.7,0.5-2.8,1.1-3.6c1-1.3,2.6-2,4.4-2c1.8,0.1,3.3,0.9,4.2,2.3
						c0.6,0.9,0.9,2,0.9,3.7L35.6,101.6z M27.5,95.1c-0.6,0.6-1,1.5-1,3l-0.1,1.6l7.8,0.3l0.1-1.6c0.1-1.5-0.2-2.4-0.8-3.1
						c-0.7-0.8-1.7-1.4-2.9-1.4C29.4,93.9,28.3,94.3,27.5,95.1z"/>
					<path class="st2" d="M28.1,78.2c0.9-2.9,3.8-4.4,6.8-3.5s4.6,3.8,3.7,6.7c-0.9,2.9-3.8,4.4-6.8,3.5
						C28.9,83.9,27.3,81,28.1,78.2z M37.2,80.9c0.6-2.1-0.5-4.1-2.8-4.8c-2.2-0.7-4.3,0.4-5,2.5c-0.6,2.1,0.6,4.1,2.8,4.8
						C34.5,84.1,36.6,83,37.2,80.9z"/>
					<path class="st2" d="M37.2,63.4c0.8-1.4,2.7-1.9,4.2-1.1c1.4,0.8,1.9,2.7,1.1,4.2c-0.8,1.4-2.7,1.9-4.2,1.1
						C36.9,66.7,36.4,64.8,37.2,63.4z"/>
				</g>
			</g>
			<g>
				<path class="st3" d="M101.3,112c0,0,1.7,2.5,3.8,4c-7.7-0.6-11.8-3.1-15.2-6.9l11.2-9.4l-1.1,4.7c2.5-1.4,5.2-4.2,5.2-7.9
					c0-3.6-2.4-5.7-5.6-5.7c-5.5,0-11.2,5.2-11.2,14c0,0.8,0.1,1.7,0.2,2.4c-1.1-1.7-2-4-2-6.5c0-9.3,8.3-15.6,15.2-15.6
					c6.1,0,11.1,4,11.1,11.3C112.9,101.3,110.1,108.8,101.3,112z"/>
				<path class="st3" d="M138.2,79.3c-0.3-0.5-0.5-1-0.8-1.4c-7.6-12.8-21.5-21.3-37.4-21.3C76,56.5,56.5,76,56.5,100
					c0,7.7,2,14.9,5.5,21.1l0,0c0.4,0.7,0.9,1.5,1.3,2.2c0.1,0.1,0.2,0.3,0.3,0.4c0.2,0.3,0.4,0.7,0.7,1c0.1,0.1,0.1,0.2,0.2,0.3
					c0.4,0.6,0.9,1.2,1.3,1.8c0.1,0.1,0.2,0.3,0.3,0.4c0.2,0.3,0.5,0.6,0.7,0.9c0.1,0.1,0.2,0.3,0.3,0.4c0.4,0.5,0.9,1,1.3,1.5
					c0.1,0.2,0.3,0.3,0.4,0.5c0.2,0.3,0.5,0.5,0.8,0.8c0.2,0.2,0.3,0.3,0.5,0.5c0.4,0.4,0.8,0.8,1.2,1.1c0.2,0.2,0.4,0.4,0.6,0.5
					c0.2,0.2,0.5,0.4,0.7,0.6c0.2,0.2,0.5,0.4,0.7,0.5c0.3,0.3,0.7,0.5,1,0.8c0.3,0.2,0.6,0.5,0.9,0.7c0.2,0.2,0.5,0.3,0.7,0.5
					c0.3,0.2,0.6,0.4,0.9,0.6c0.2,0.1,0.4,0.3,0.6,0.4c0.5,0.3,0.9,0.5,1.4,0.8c0.2,0.1,0.4,0.2,0.7,0.3c0.3,0.2,0.7,0.4,1.1,0.5
					c0.2,0.1,0.4,0.2,0.6,0.3c0.5,0.2,1,0.5,1.6,0.7c0.2,0.1,0.4,0.2,0.6,0.2c0.4,0.2,0.8,0.3,1.2,0.5c0.2,0.1,0.4,0.1,0.6,0.2
					c0.6,0.2,1.1,0.4,1.7,0.6c0.2,0,0.3,0.1,0.5,0.1c0.5,0.1,0.9,0.3,1.4,0.4c0.2,0,0.4,0.1,0.5,0.1c0.6,0.2,1.2,0.3,1.8,0.4
					c0.1,0,0.2,0,0.3,0.1c0.5,0.1,1.1,0.2,1.6,0.3c0.2,0,0.3,0.1,0.5,0.1c0.6,0.1,1.3,0.2,1.9,0.2c0.1,0,0.1,0,0.2,0
					c0.6,0.1,1.2,0.1,1.8,0.1c0.2,0,0.3,0,0.5,0c0.7,0,1.3,0.1,2,0.1c0.6,0,1.2,0,1.8,0c0.5,0,1-0.1,1.5-0.1l0,0
					c22.5-1.6,40.3-20.4,40.3-43.3C143.5,92.5,141.6,85.4,138.2,79.3z M100.1,140.1C100.1,140.1,100,140.1,100.1,140.1
					c-13.6,0-26.3-6.9-33.6-18.2l2.3-1.7c6.7,10.2,18.2,17,31.3,17c0.1,0,0.2,0,0.3,0L100.1,140.1z M100.5,133.9c-0.2,0-0.3,0-0.5,0
					c-12,0-22.6-6.3-28.6-15.7l2.1-1.6c5.6,8.8,15.4,14.7,26.5,14.7c0.2,0,0.4,0,0.7,0L100.5,133.9z M100.9,128c-0.3,0-0.6,0-0.9,0
					c-10.1,0-18.9-5.3-23.8-13.3l2.1-1.6c4.5,7.4,12.5,12.3,21.8,12.3c0.4,0,0.7,0,1.1,0L100.9,128z M106.5,120.3
					c-0.7,0.2-1.4,0.4-2.2,0.6c-0.8,0.2-1.7,0.3-2.5,0.3c-0.6,0-1.2,0.1-1.7,0.1c-7.3,0-13.7-3.7-17.5-9.3c-0.7-1-1.3-2.1-1.8-3.2
					c-0.4-0.9-0.8-1.9-1.1-2.9c-0.5-1.9-0.8-3.8-0.8-5.9c0-9.6,6.4-17.7,15.1-20.4c0.7-0.2,1.4-0.4,2.2-0.5c0.7-0.1,1.4-0.2,2.2-0.3
					c0.6-0.1,1.2-0.1,1.8-0.1c7.5,0,14.1,3.9,17.9,9.7c0.7,1,1.2,2.1,1.7,3.2c0.4,0.9,0.7,1.9,1,2.8c0.5,1.8,0.7,3.6,0.7,5.5
					C121.3,109.5,115.1,117.5,106.5,120.3z M122,87.2c-4.4-7.6-12.6-12.7-22-12.7c-0.3,0-0.5,0-0.8,0l0.2-2.6c0.2,0,0.4,0,0.6,0
					c10.2,0,19.2,5.5,24.1,13.7L122,87.2z M126.8,83.7c-5.5-9-15.5-15-26.8-15c-0.1,0-0.3,0-0.4,0l0.2-2.6c0.1,0,0.2,0,0.2,0
					c12.2,0,22.8,6.4,28.8,16.1L126.8,83.7z M131.5,79.8c-6.6-10.4-18.3-17.7-31.5-17.7l0,0l0.2-2c0,0,0,0,0.1,0
					c13.6,0,26.2,6.8,33.6,18.1L131.5,79.8z"/>
			</g>
		</g>
	</g>
</g>
</svg>
