<?xml version="1.0" encoding="utf-8"?>
<!-- Generator: Adobe Illustrator 19.1.1, SVG Export Plug-In . SVG Version: 6.00 Build 0)  -->
<svg version="1.1" id="Layer_1" xmlns="http://www.w3.org/2000/svg" xmlns:xlink="http://www.w3.org/1999/xlink" x="0px" y="0px"
	 viewBox="0 0 200 200" style="enable-background:new 0 0 200 200;" xml:space="preserve">
<style type="text/css">
	.st0{fill:#CE0058;}
</style>
<g>
	<g>
		<path class="st0" d="M197.3,90.7c-3.1-10.4-9.8-18.5-19.3-23.2c-8.8-4.4-19.7-5.7-30.6-3.7c-1.7,0.3-3.4,0.7-5,1.2
			c1.4-6.8,5.7-19.9,19.6-28.6c1.6-1,2.1-3.1,1.1-4.7c-1-1.6-3.1-2.1-4.7-1.1c-4.3,2.7-7.7,5.7-10.6,8.8c-1.2-2.6-3.2-5.1-6.1-7.4
			c-7-5.6-20.1-10.5-28-10.5c-3.6,0-6.2,1-7.7,2.9c-2.7,3.4-1.8,9.1,2.7,16.9c3.5,6.1,8.5,12.2,13,15.7c3.7,2.9,7.5,4.4,11.2,4.4
			c1.1,0,2.2-0.1,3.3-0.4c-0.4,1.7-0.7,3.1-0.9,4.3c-2.1-0.7-4.2-1.2-6.4-1.6c-11-2-21.8-0.7-30.6,3.7C88.8,72.2,82.1,80.3,79,90.7
			c-0.5,1.8-1.4,4.7-1.9,8.5c-19.6,0.3-37.9,2.7-51.9,6.9C9.1,111,0.5,117.8,0.5,125.7c0,7.4,5.5,13.6,12.7,14.5
			c-0.3,0.9-0.4,1.9-0.4,2.9s0.1,2,0.4,2.9c-4,0.7-7,4.2-7,8.4c0,1.2,0.3,2.4,0.7,3.4c-3.5,1.9-5.8,5.5-5.8,9.7c0,6.1,4.9,11,11,11
			c0,0,134.5,0.2,135.7,0.2c22.3,0,28.5-15.8,34.1-30c2.4-6,4.6-11.6,7.9-16.2C203.9,112.8,198.9,96.1,197.3,90.7z M132.9,54.5
			c-2.1,0-4.4-1-6.9-2.9c-3.6-2.9-7.8-7.9-10.9-13.1c-3.4-5.6-3.9-9-3.7-10c0.3-0.1,1-0.3,2.3-0.3c6.3,0,17.9,4.4,23.7,9
			c3.1,2.4,4.7,4.9,4.7,7.3c0.1,1.9-0.7,3.9-2.4,6C138.4,52.4,136,54.5,132.9,54.5z M83.8,105.6c1.5,0,3.1,0.1,4.6,0.1l-4.2,4.2
			l-1.1,1.1l-4.7,4.7l-2.4,2.4c-0.7,0.7-1.8,0.7-2.5,0c-0.3-0.3-0.5-0.8-0.5-1.2c0-0.2,0-0.4,0.1-0.7c0.1-0.2,0.2-0.4,0.4-0.6
			l3.9-3.9l1.1-1.1l5.1-5.1C83.7,105.6,83.8,105.6,83.8,105.6z M37.9,115.7l7.5-7.5c1.9-0.3,3.8-0.6,5.7-0.8l-10.7,10.8
			c-0.7,0.7-1.8,0.7-2.5,0S37.2,116.4,37.9,115.7z M6.9,125.7c0-3.5,5.3-8.9,20.3-13.4c2.2-0.7,4.5-1.3,6.9-1.8l-0.7,0.7
			c-3.2,3.2-3.2,8.4,0,11.6c1.6,1.6,3.7,2.4,5.8,2.4s4.2-0.8,5.8-2.4l16.3-16.4c4.3-0.3,8.8-0.6,13.3-0.7l-5.5,5.5
			c-3.2,3.2-3.2,8.4,0,11.6c1.6,1.6,3.7,2.4,5.8,2.4c2.1,0,4.2-0.8,5.8-2.4l0.2-0.2l5.3-5.3l11-11.1c4,0.3,7.9,0.6,11.6,1.1l-4,4
			c-3.2,3.2-3.2,8.4,0,11.6c1.6,1.6,3.7,2.4,5.8,2.4c2.1,0,4.2-0.8,5.8-2.4l11.9-12c2.1,0.5,4,1,5.9,1.6
			c14.9,4.5,20.3,9.9,20.3,13.4c0,4.5-3.7,8.2-8.2,8.2h-131C10.6,133.9,6.9,130.2,6.9,125.7z M120.8,109l-9,9.1
			c-0.7,0.7-1.8,0.7-2.5,0s-0.7-1.8,0-2.5l7.4-7.4C118,108.5,119.4,108.8,120.8,109L120.8,109L120.8,109z M142.1,143.1
			c0,1.6-0.9,2.8-1.7,2.8h-33.3c-0.8,0-1.7-1.2-1.7-2.8s0.9-2.8,1.7-2.8h33.3C141.2,140.4,142.1,141.5,142.1,143.1z M64,145.9
			c-0.8,0-1.7-1.2-1.7-2.8s0.9-2.8,1.7-2.8h33.3c0.8,0,1.7,1.2,1.7,2.8s-0.9,2.8-1.7,2.8H64z M55.9,143.1c0,1.6-0.9,2.8-1.7,2.8
			H20.9c-0.8,0-1.7-1.2-1.7-2.8s0.9-2.8,1.7-2.8h33.3C55,140.4,55.9,141.5,55.9,143.1z M14.7,152.3h131.9c1.2,0,2.1,0.9,2.1,2.1
			c0,1.2-0.9,2.1-2.1,2.1H14.7c-1.2,0-2.1-0.9-2.1-2.1C12.6,153.3,13.6,152.3,14.7,152.3z M12.1,172c-2.5,0-4.6-2-4.6-4.6
			c0-2.5,2-4.6,4.6-4.6h137.1c2.5,0,4.6,2,4.6,4.6c0,1.8-1,3.3-2.6,4.1c-0.6,0.3-1.3,0.5-2,0.5H12.1z M184.3,128.4
			c-3.8,5.3-6.3,11.6-8.7,17.7c-3.8,9.7-7.4,18.6-15.5,22.9c0.1-0.5,0.1-1,0.1-1.5c0-4.2-2.4-7.8-5.8-9.7c0.5-1,0.7-2.2,0.7-3.4
			c0-4.2-3-7.7-7-8.4c0.3-0.9,0.4-1.9,0.4-2.9s-0.2-2-0.4-2.9c7.2-1,12.7-7.1,12.7-14.5c0-7.9-8.6-14.7-24.8-19.6
			c-10.5-3.2-23.3-5.3-37.3-6.3c0.3-3.8,2-12.5,11.6-15.6c1.8-0.6,2.8-2.5,2.2-4.3c-0.6-1.8-2.5-2.8-4.3-2.2
			C96,81.6,92.3,92.5,91.8,99.4c-2.5-0.1-5.1-0.2-7.7-0.2c0.4-2.9,1.1-5.1,1.5-6.5c5.8-19.6,25.3-25.3,42.1-22.2
			c3.2,0.6,6.2,1.4,9,2.8c1.4,0.7,2.3,0.2,2.8,0c2.8-1.3,5.9-2.2,9-2.8c16.8-3.1,36.3,2.6,42.1,22.2
			C192.1,97.3,196.4,111.5,184.3,128.4z"/>
	</g>
	<path class="st0" d="M14.7,152.3h131.9c1.2,0,2.1,0.9,2.1,2.1c0,1.2-0.9,2.1-2.1,2.1H14.7c-1.2,0-2.1-0.9-2.1-2.1
		C12.6,153.3,13.6,152.3,14.7,152.3z"/>
	<path class="st0" d="M132.9,54.5c-2.1,0-4.4-1-6.9-2.9c-3.6-2.9-7.8-7.9-10.9-13.1c-3.4-5.6-3.9-9-3.7-10c0.3-0.1,1-0.3,2.3-0.3
		c6.3,0,17.9,4.4,23.7,9c3.1,2.4,4.7,4.9,4.7,7.3c0.1,1.9-0.7,3.9-2.4,6C138.4,52.4,136,54.5,132.9,54.5z"/>
</g>
</svg>
