<?xml version="1.0" encoding="utf-8"?>
<!-- Generator: Adobe Illustrator 19.1.1, SVG Export Plug-In . SVG Version: 6.00 Build 0)  -->
<svg version="1.1" id="Layer_1" xmlns="http://www.w3.org/2000/svg" xmlns:xlink="http://www.w3.org/1999/xlink" x="0px" y="0px"
	 viewBox="0 0 200 200" style="enable-background:new 0 0 200 200;" xml:space="preserve">
<style type="text/css">
	.st0{fill:#483278;}
	.st1{fill:#CE0058;}
</style>
<g>
	<g>
		<g>
			<g>
				<g>
					<g>
						<g>
							<g>
								<path class="st0" d="M49.5,60.1L41.6,53l2.1-2.4c1.1-1.3,2.1-1.8,3.2-2c1.6-0.3,3.3,0.1,4.6,1.3s2,2.8,1.8,4.5
									c-0.1,1.1-0.6,2.1-1.7,3.4L49.5,60.1z M47.4,49.9c-0.9,0.1-1.7,0.6-2.7,1.7l-1.1,1.2l5.8,5.2l1.1-1.2c1-1.1,1.4-2,1.4-2.9
									c0-1.1-0.5-2.2-1.4-3C49.6,50.2,48.5,49.8,47.4,49.9z"/>
							</g>
						</g>
						<g>
							<g>
								<path class="st0" d="M61.1,40.9L62,42l-2.9,2l2.1,2.9l3.9-2.7l0.8,1.2L60.8,49l-6.1-8.7l5-3.5l0.8,1.2l-3.7,2.6l1.6,2.2
									L61.1,40.9z"/>
							</g>
						</g>
						<g>
							<g>
								<path class="st0" d="M71,39.6c0.9,0.4,1.9,0.7,2.9,0.2c0.9-0.4,1.4-1.3,1.1-2.2c-0.7-1.5-2.8-0.8-4.5-1
									c-0.9-0.2-1.7-0.6-2.2-1.6c-0.6-1.4,0.1-3.1,1.8-3.9c1.2-0.5,2.3-0.4,3-0.2l-0.4,1.4c-0.7-0.2-1.4-0.2-2,0.1
									c-0.8,0.4-1.4,1.2-1.1,2c0.5,1.2,2.7,0.6,4.3,0.9c0.8,0.1,1.8,0.6,2.2,1.7c0.7,1.7-0.1,3.4-1.8,4.1
									c-1.3,0.6-2.8,0.5-4.1-0.1L71,39.6z"/>
							</g>
						</g>
						<g>
							<g>
								<path class="st0" d="M86.6,26.1c1.5-0.3,3,0.1,4.1,0.9l-0.8,1.2c-0.7-0.6-1.9-0.9-3-0.6c-2.1,0.4-3.5,2.4-3,4.7
									c0.4,2.4,2.5,3.6,4.7,3.2c1.4-0.3,2.3-1.2,2.7-2l1.2,0.8c-0.7,1.3-2.1,2.4-3.7,2.7c-3.1,0.6-5.9-1.3-6.4-4.4
									C81.7,29.5,83.6,26.7,86.6,26.1z"/>
							</g>
						</g>
						<g>
							<g>
								<path class="st0" d="M104.6,29.4v1.4l-3.5-0.1l-0.1,3.6l4.7,0.2v1.4l-6.2-0.2L99.8,25l6.1,0.2v1.4l-4.6-0.2l-0.1,2.7
									L104.6,29.4z"/>
							</g>
						</g>
						<g>
							<g>
								<path class="st0" d="M124.7,35.2l-1.9,4.6l-1.4-0.6l4.1-9.8l3.4,1.4c0.9,0.4,1.4,0.8,1.7,1.4c0.4,0.7,0.5,1.6,0.1,2.4
									c-0.3,0.8-1,1.4-1.8,1.6c-0.4,0.1-0.8,0.2-1.4,0l1.6,6.2l-1.7-0.7l-1.6-6.1L124.7,35.2z M127.3,34.7c0.6,0.3,1,0.3,1.3,0.1
									c0.3-0.1,0.6-0.4,0.7-0.7c0.1-0.3,0.1-0.7,0-1s-0.4-0.6-1-0.9l-2-0.8l-1,2.5L127.3,34.7z"/>
							</g>
						</g>
						<g>
							<g>
								<path class="st0" d="M142.4,43.3l-0.8,1.2l-2.9-2l-2,2.9l3.9,2.7l-0.8,1.2l-5.1-3.6l6.1-8.7l5,3.5l-0.8,1.2l-3.7-2.6
									l-1.6,2.2L142.4,43.3z"/>
							</g>
						</g>
						<g>
							<g>
								<path class="st0" d="M144.9,53.8l7.9-7.1l2.1,2.4c1.1,1.3,1.6,2.3,1.7,3.4c0.2,1.6-0.5,3.3-1.8,4.5s-3,1.7-4.6,1.3
									c-1.1-0.2-2.1-0.8-3.2-2L144.9,53.8z M155.2,52.8c0-0.9-0.4-1.7-1.4-2.9l-1.1-1.2L147,54l1.1,1.2c1,1.1,1.8,1.5,2.7,1.6
									c1.1,0.1,2.2-0.2,3.1-1C154.7,55,155.2,53.9,155.2,52.8z"/>
							</g>
						</g>
						<g>
							<g>
								<path class="st0" d="M166.6,65.3c1.4,2.7,0.4,5.8-2.4,7.3c-2.8,1.4-5.9,0.5-7.3-2.2c-1.4-2.7-0.4-5.8,2.4-7.3
									C162,61.7,165.2,62.6,166.6,65.3z M158.1,69.7c1,1.9,3.3,2.6,5.3,1.5s2.8-3.3,1.8-5.2c-1-1.9-3.3-2.6-5.3-1.5
									C157.9,65.5,157.1,67.7,158.1,69.7z"/>
							</g>
						</g>
						<g>
							<g>
								<path class="st0" d="M169.7,81.1l-7.6,1.7l-0.3-1.5l10.4-2.4l0.2,1l-6.2,8l7.6-1.7l0.3,1.5l-10.4,2.4l-0.2-1L169.7,81.1z"/>
							</g>
						</g>
						<g>
							<g>
								<path class="st0" d="M164.4,97.7L175,98l-0.1,3.2c0,1.7-0.4,2.8-1.1,3.6c-1,1.3-2.6,2.1-4.4,2c-1.8,0-3.3-0.9-4.3-2.2
									c-0.6-0.9-0.9-2-0.9-3.7L164.4,97.7z M172.5,104.1c0.6-0.7,0.9-1.5,1-3v-1.6l-7.8-0.2l-0.1,1.6c0,1.5,0.3,2.4,0.8,3.1
									c0.7,0.8,1.8,1.3,2.9,1.4C170.7,105.3,171.8,104.9,172.5,104.1z"/>
							</g>
						</g>
						<g>
							<g>
								<path class="st0" d="M172.1,121c-0.8,2.9-3.8,4.5-6.7,3.6c-3-0.9-4.6-3.8-3.8-6.6c0.8-2.9,3.8-4.4,6.7-3.6
									C171.3,115.2,172.9,118.1,172.1,121z M163,118.3c-0.6,2.1,0.6,4.1,2.8,4.8c2.2,0.6,4.3-0.4,4.9-2.5c0.6-2.1-0.6-4.1-2.8-4.8
									C165.7,115.2,163.6,116.3,163,118.3z"/>
							</g>
						</g>
						<g>
							<g>
								<path class="st0" d="M163.2,135.9c-0.8,1.5-2.7,2-4.1,1.1c-1.5-0.8-2-2.7-1.1-4.1c0.8-1.5,2.7-2,4.1-1.1
									C163.5,132.6,164,134.4,163.2,135.9z"/>
							</g>
						</g>
						<g>
							<g>
								<path class="st0" d="M150.1,140.5l7.8,7.2l-2.2,2.4c-1.1,1.2-2.1,1.8-3.2,2c-1.6,0.3-3.3-0.2-4.6-1.4s-1.9-2.9-1.7-4.5
									c0.1-1.1,0.6-2.1,1.7-3.4L150.1,140.5z M152,150.7c0.9-0.1,1.7-0.5,2.7-1.6l1.1-1.2l-5.7-5.3l-1.1,1.2c-1,1.1-1.4,2-1.4,2.8
									c0,1.1,0.4,2.2,1.3,3C149.8,150.4,150.9,150.8,152,150.7z"/>
							</g>
						</g>
						<g>
							<g>
								<path class="st0" d="M138.2,159.6l-0.8-1.2l2.9-2l-2-2.9l-3.9,2.7l-0.8-1.2l5.1-3.5l6,8.8l-5,3.5l-0.8-1.2l3.8-2.6l-1.6-2.3
									L138.2,159.6z"/>
							</g>
						</g>
						<g>
							<g>
								<path class="st0" d="M128.3,160.7c-0.9-0.5-1.9-0.7-2.9-0.3c-0.9,0.4-1.5,1.3-1.1,2.2c0.6,1.5,2.8,0.8,4.4,1.1
									c0.9,0.2,1.7,0.6,2.2,1.6c0.6,1.4-0.2,3.1-1.9,3.9c-1.2,0.5-2.3,0.3-3.1,0.1l0.4-1.4c0.7,0.2,1.4,0.2,2-0.1
									c0.8-0.3,1.4-1.1,1.1-2c-0.5-1.2-2.7-0.6-4.3-0.9c-0.8-0.2-1.7-0.6-2.2-1.7c-0.7-1.7,0.1-3.4,1.8-4.1
									c1.3-0.6,2.8-0.5,4.1,0.2L128.3,160.7z"/>
							</g>
						</g>
						<g>
							<g>
								<path class="st0" d="M112.6,174c-1.5,0.3-3-0.1-4.1-0.9l0.8-1.2c0.7,0.6,1.9,0.9,3,0.7c2.1-0.4,3.5-2.4,3.1-4.6
									c-0.4-2.4-2.4-3.7-4.6-3.3c-1.4,0.3-2.3,1.2-2.7,2l-1.2-0.8c0.7-1.3,2.1-2.4,3.7-2.7c3.1-0.6,5.8,1.3,6.4,4.4
									C117.4,170.7,115.6,173.5,112.6,174z"/>
							</g>
						</g>
						<g>
							<g>
								<path class="st0" d="M94.5,170.6l0.1-1.4l3.5,0.2l0.2-3.6l-4.7-0.2l0.1-1.4l6.2,0.3L99.4,175l-6.1-0.3l0.1-1.4l4.6,0.2
									l0.1-2.7L94.5,170.6z"/>
							</g>
						</g>
						<g>
							<g>
								<path class="st0" d="M74.5,164.5l2-4.6l1.4,0.6l-4.2,9.8l-3.4-1.5c-0.9-0.4-1.4-0.8-1.7-1.4c-0.4-0.7-0.4-1.6-0.1-2.4
									c0.3-0.8,1-1.4,1.8-1.6c0.4-0.1,0.8-0.2,1.4,0l-1.5-6.2l1.7,0.7l1.5,6.1L74.5,164.5z M72,165c-0.6-0.3-1-0.3-1.3-0.1
									c-0.3,0.1-0.6,0.4-0.7,0.7c-0.2,0.3-0.1,0.7,0,1.1c0.1,0.3,0.4,0.6,1,0.9l2,0.8l1.1-2.5L72,165z"/>
							</g>
						</g>
						<g>
							<g>
								<path class="st0" d="M57,156.2l0.8-1.2l2.8,2l2.1-2.9l-3.8-2.7l0.8-1.2l5.1,3.6l-6.2,8.7l-4.9-3.5l0.8-1.2l3.7,2.7l1.6-2.2
									L57,156.2z"/>
							</g>
						</g>
						<g>
							<g>
								<path class="st0" d="M54.6,145.6l-8,7.1l-2.1-2.4c-1.1-1.3-1.6-2.3-1.7-3.4c-0.1-1.6,0.5-3.3,1.8-4.5s3-1.6,4.6-1.3
									c1.1,0.2,2.1,0.8,3.2,2.1L54.6,145.6z M44.3,146.5c0,0.9,0.4,1.8,1.3,2.9l1.1,1.2l5.8-5.1l-1.1-1.2c-1-1.1-1.8-1.6-2.7-1.7
									c-1.1-0.1-2.2,0.2-3.1,1C44.8,144.4,44.3,145.5,44.3,146.5z"/>
							</g>
						</g>
						<g>
							<g>
								<path class="st0" d="M33,134c-1.4-2.7-0.3-5.8,2.5-7.2c2.8-1.4,5.9-0.4,7.3,2.3c1.4,2.7,0.3,5.8-2.5,7.2
									C37.6,137.6,34.4,136.6,33,134z M41.5,129.6c-1-1.9-3.3-2.6-5.3-1.6c-2,1-2.9,3.3-1.9,5.2s3.3,2.6,5.3,1.6
									C41.7,133.8,42.5,131.6,41.5,129.6z"/>
							</g>
						</g>
						<g>
							<g>
								<path class="st0" d="M30.1,118l7.6-1.6l0.3,1.5l-10.4,2.2l-0.2-1l6.3-7.9l-7.6,1.6l-0.3-1.5l10.4-2.2l0.2,1L30.1,118z"/>
							</g>
						</g>
						<g>
							<g>
								<path class="st0" d="M35.6,101.6L25,101.1l0.1-3.2c0.1-1.7,0.5-2.8,1.1-3.6c1-1.3,2.6-2,4.4-2c1.8,0.1,3.3,0.9,4.2,2.3
									c0.6,0.9,0.9,2,0.9,3.7L35.6,101.6z M27.6,95.1c-0.6,0.6-1,1.5-1,3l-0.1,1.6l7.7,0.3l0.1-1.6c0.1-1.5-0.2-2.4-0.8-3.1
									c-0.7-0.8-1.7-1.4-2.9-1.4C29.4,93.9,28.3,94.3,27.6,95.1z"/>
							</g>
						</g>
						<g>
							<g>
								<path class="st0" d="M28.2,78.2c0.9-2.9,3.8-4.4,6.8-3.5s4.6,3.8,3.7,6.7c-0.9,2.9-3.8,4.4-6.8,3.5
									C28.9,84,27.3,81.1,28.2,78.2z M37.3,80.9c0.6-2.1-0.5-4.1-2.7-4.8c-2.2-0.7-4.3,0.4-5,2.5c-0.6,2.1,0.6,4.1,2.8,4.8
									C34.5,84.1,36.6,83,37.3,80.9z"/>
							</g>
						</g>
						<g>
							<g>
								<path class="st0" d="M37.3,63.4c0.8-1.4,2.7-1.9,4.2-1.1c1.4,0.8,1.9,2.7,1.1,4.2c-0.8,1.4-2.7,1.9-4.2,1.1
									C36.9,66.7,36.4,64.8,37.3,63.4z"/>
							</g>
						</g>
					</g>
				</g>
			</g>
		</g>
	</g>
	<g>
		<path class="st1" d="M100,84.4c4.2,0,7.6-3.4,7.6-7.6s-3.4-7.6-7.6-7.6s-7.6,3.4-7.6,7.6S95.8,84.4,100,84.4z M100,73.2
			c2,0,3.6,1.6,3.6,3.6s-1.6,3.6-3.6,3.6s-3.6-1.6-3.6-3.6C96.4,74.8,98,73.2,100,73.2z"/>
		<path class="st1" d="M101.3,126.1c0,0,1.9,2.7,4,4.3c-8.3-0.6-12.6-3.3-16.2-7.4l11.9-10l-1.2,5c2.7-1.4,5.5-4.5,5.5-8.4
			c0-3.8-2.6-6.1-6-6.1c-5.8,0-12,5.6-12,15c0,0.8,0.1,1.8,0.2,2.5c-1.2-1.8-2.2-4.3-2.2-7c0-9.9,8.9-16.7,16.2-16.7
			c6.5,0,11.9,4.2,11.9,12.1C113.6,114.6,110.7,122.6,101.3,126.1z"/>
		<path class="st1" d="M124.1,62.2c-0.5-1-4.1-4.8-24.7-4.8s-23.3,4.8-23.3,4.8c-1.7,3.9-2.8,30.9-2.8,37c0,6,1.6,31.3,1.9,34.3
			s2,3.6,3.1,4.3c0.4,0.2,1.9,0.7,3.9,1.2v2.4c0,0.7,0.7,0.8,1.5,0.8h7.5c0.7,0,1.1,0,1.1-0.8v-0.8c3,0.3,5.6,0.4,8.9,0.4
			c2.3,0,5.1-0.1,6.1-0.2v0.6c0,0.7,1.1,0.8,1.8,0.8h7.5c0.7,0,1.7,0,1.7-0.8v-2.2c2-0.5,3-1,3.9-1.4c2.5-1,3.1-3.6,3.1-3.6
			s1.7-7.4,1.7-35.3C126.8,71,124.5,63.2,124.1,62.2z M100,65.3c6.4,0,11.6,5.2,11.6,11.6s-5.2,11.6-11.6,11.6s-11.6-5.2-11.6-11.6
			C88.4,70.4,93.6,65.3,100,65.3z M80.2,63.6c1.1,0,2,0.9,2,2s-0.9,2-2,2s-2-0.9-2-2S79.1,63.6,80.2,63.6z M80.2,136.1
			c-1.1,0-2-0.9-2-2s0.9-2,2-2s2,0.9,2,2C82.2,135.2,81.3,136.1,80.2,136.1z M100,132.8c-10.7,0-19.4-8.7-19.4-19.4S89.3,94,100,94
			s19.4,8.7,19.4,19.4S110.7,132.8,100,132.8z M119.8,136.1c-1.1,0-2-0.9-2-2s0.9-2,2-2s2,0.9,2,2
			C121.8,135.2,120.9,136.1,119.8,136.1z M119.8,67.6c-1.1,0-2-0.9-2-2s0.9-2,2-2s2,0.9,2,2S120.9,67.6,119.8,67.6z"/>
	</g>
</g>
</svg>
