<?xml version="1.0" encoding="utf-8"?>
<!-- Generator: Adobe Illustrator 19.1.1, SVG Export Plug-In . SVG Version: 6.00 Build 0)  -->
<svg version="1.1" id="Layer_1" xmlns="http://www.w3.org/2000/svg" xmlns:xlink="http://www.w3.org/1999/xlink" x="0px" y="0px"
	 viewBox="0 0 200 200" style="enable-background:new 0 0 200 200;" xml:space="preserve">
<style type="text/css">
	.st0{fill:#CE0058;}
</style>
<path class="st0" d="M100.2,65.3c-23.9,0-43.4,19.5-43.4,43.4S76.3,152,100.2,152s43.4-19.5,43.4-43.4S124.1,65.3,100.2,65.3z
	 M100.2,145.1c-20.1,0-36.5-16.4-36.5-36.5s16.4-36.5,36.5-36.5s36.5,16.4,36.5,36.5S120.3,145.1,100.2,145.1z M100.2,81.6
	c-14.9,0-27.1,12.1-27.1,27.1c0,14.9,12.1,27.1,27.1,27.1s27.1-12.1,27.1-27.1S115.2,81.6,100.2,81.6z M100.2,129.2
	c-11.3,0-20.5-9.2-20.5-20.5s9.2-20.5,20.5-20.5s20.5,9.2,20.5,20.5S111.5,129.2,100.2,129.2z M173.8,52.2h-44.5l-4.5-11.7
	c-1.3-3.6-4.8-5.5-8.7-5.5H84.4c-3.9,0-7.4,1.8-8.7,5.5l-4.5,11.7H55.1v-4.4c0-3.9-2.2-7.1-6.1-7.1H38.5c-3.9,0-6.3,3.2-6.3,7.1v4.4
	h-5.5c-6,0-11.7,5.3-11.7,11.4v90.1c0,6,5.7,11.3,11.7,11.3h147.1c6,0,11.3-5.3,11.3-11.3V63.6C185,57.6,179.8,52.2,173.8,52.2z
	 M82.5,42.2c0.3-0.8,1-1.5,1.9-1.5H116c0.8,0,1.6,0.7,1.9,1.5l3.6,10H78.9L82.5,42.2z M37.9,47.8c0-0.1,0.5,0.6,0.6,0.6H49
	c0.1,0,0.4-0.7,0.4-0.6v4.4H37.9V47.8z M22.6,80.9h11.5v55.4H22.6V80.9z M177.4,153.7c0,2-1.6,3.6-3.6,3.6H26.7
	c-2,0-4.1-1.6-4.1-3.6v-9.8h14.8c2,0,4.3-1.2,4.3-3.2V76.6c0-2-2.3-3.3-4.3-3.3H22.6v-9.7c0-2,2.1-3.7,4.1-3.7h100l0,0l0,0h47
	c2,0,3.6,1.7,3.6,3.7v9.7H163c-2,0-2.8,1.3-2.8,3.3v64.2c0,2,0.8,3.2,2.8,3.2h14.4V153.7L177.4,153.7z M177.4,136.3h-11.5V80.9h11.5
	V136.3z M100.2,95.3c-7.4,0-13.4,6-13.4,13.4c0,1.8,1.5,3.3,3.3,3.3s3.3-1.5,3.3-3.3c0-3.8,3.1-6.8,6.8-6.8c1.8,0,3.3-1.5,3.3-3.3
	S102,95.3,100.2,95.3z"/>
</svg>
