<?xml version="1.0" encoding="utf-8"?>
<!-- Generator: Adobe Illustrator 19.1.1, SVG Export Plug-In . SVG Version: 6.00 Build 0)  -->
<svg version="1.1" id="Layer_1" xmlns="http://www.w3.org/2000/svg" xmlns:xlink="http://www.w3.org/1999/xlink" x="0px" y="0px"
	 viewBox="0 0 200 200" style="enable-background:new 0 0 200 200;" xml:space="preserve">
<style type="text/css">
	.st0{fill:#CE0058;}
</style>
<path class="st0" d="M110.1,112.9c8.1-10.6,24.1-33.2,24.1-46.8c0-18.8-15.3-34.2-34.2-34.2S65.8,47.2,65.8,66
	c0,13.6,16,36.3,24.1,46.8l-32.2,46l10.6-0.7l2.7,10l29-41.4l29,41.4l2.5-10.1l10.7,0.8L110.1,112.9z M82,66c0-9.9,8.1-18,18-18
	s18,8.1,18,18c0,5.8-8.3,20-17.7,32.9l-0.3-0.4l-0.3,0.4C90.3,86.1,82,71.8,82,66z"/>
</svg>
