<?xml version="1.0" encoding="utf-8"?>
<!-- Generator: Adobe Illustrator 19.1.1, SVG Export Plug-In . SVG Version: 6.00 Build 0)  -->
<svg version="1.1" id="Layer_1" xmlns="http://www.w3.org/2000/svg" xmlns:xlink="http://www.w3.org/1999/xlink" x="0px" y="0px"
	 viewBox="0 0 101 140" style="enable-background:new 0 0 101 140;" xml:space="preserve">
<style type="text/css">
	.st0{fill:#FFFFFF;}
</style>
<path class="st0" d="M101.9,54.3c0-27.9-19.1-43-42.3-43c-26.1,0-57.7,24-57.7,59.3c0,9.5,3.5,18.4,7.7,24.7c-0.5-2.5-0.7-6.1-0.7-9
	c0-33.3,21.9-53.2,42.7-53.2c12,0,21.2,7.9,21.2,21.6c0,13.7-10.2,24.7-19.7,29.9l4.1-17.8l-42.5,35.7c13,14.5,28.2,23.9,57.6,26.2
	c-7.8-5.7-14.4-15.1-14.4-15.1C91.4,101.1,101.9,72.7,101.9,54.3"/>
</svg>
